<svg width="211" height="51" viewBox="0 0 211 51" fill="none" xmlns="http://www.w3.org/2000/svg">
<rect width="210.008" height="51" transform="translate(0.992188)" fill="#E1DFE9"/>
<path d="M5.068 27.2H0.532V26.122L4.942 20.662H6.076V26.262H7.406V27.2H6.076V30H5.068V27.2ZM5.068 26.262V22.104L1.652 26.262H5.068ZM9.39148 28.6H10.7915V30H9.39148V28.6ZM22.4927 27.088H18.4608L17.3407 30H16.2487L19.9728 20.662H20.9808L24.6908 30H23.6128L22.4927 27.088ZM22.1148 26.122L20.4767 21.852L18.8387 26.122H22.1148ZM28.9688 22.902C30.0235 22.902 30.8168 23.2147 31.3488 23.84C31.8902 24.456 32.1608 25.3147 32.1608 26.416C32.1515 27.8347 31.8248 28.824 31.1808 29.384C30.5368 29.9347 29.7715 30.21 28.8848 30.21C27.0182 30.21 26.0848 29.7433 26.0848 28.81V20.06H27.0928V23.308C27.3822 23.196 27.7042 23.1027 28.0588 23.028C28.4228 22.944 28.7262 22.902 28.9688 22.902ZM28.7448 29.286C29.6502 29.286 30.2662 29.0293 30.5928 28.516C30.9288 28.0027 31.0968 27.3027 31.0968 26.416C31.0968 25.6133 30.9242 24.9833 30.5788 24.526C30.2335 24.0593 29.6968 23.826 28.9688 23.826C28.6608 23.826 28.3388 23.868 28.0028 23.952C27.6762 24.036 27.3728 24.1573 27.0928 24.316V28.572C27.0928 28.8427 27.2562 29.0293 27.5828 29.132C27.9095 29.2347 28.2968 29.286 28.7448 29.286ZM36.0295 30.21C35.5535 30.21 35.1475 30.1633 34.8115 30.07C34.4755 29.9767 34.1069 29.8273 33.7055 29.622V28.558C34.1815 28.8287 34.5689 29.02 34.8675 29.132C35.1755 29.2347 35.5395 29.286 35.9595 29.286C36.4262 29.286 36.8042 29.1833 37.0935 28.978C37.3922 28.7727 37.5415 28.5067 37.5415 28.18C37.5415 27.8907 37.4529 27.676 37.2755 27.536C37.0982 27.3867 36.8182 27.2373 36.4355 27.088L36.0715 26.934C35.5395 26.7847 35.1242 26.6493 34.8255 26.528C34.5362 26.4067 34.2795 26.2153 34.0555 25.954C33.8409 25.6927 33.7335 25.338 33.7335 24.89C33.7335 24.442 33.8502 24.0687 34.0835 23.77C34.3169 23.4713 34.6202 23.252 34.9935 23.112C35.3669 22.9627 35.7589 22.888 36.1695 22.888C36.5429 22.888 36.8555 22.93 37.1075 23.014C37.3689 23.098 37.7235 23.238 38.1715 23.434V24.442C37.7049 24.2087 37.3455 24.0453 37.0935 23.952C36.8509 23.8587 36.5615 23.812 36.2255 23.812C35.8149 23.812 35.4649 23.896 35.1755 24.064C34.8862 24.2227 34.7415 24.4513 34.7415 24.75C34.7415 24.9927 34.8115 25.1933 34.9515 25.352C35.1009 25.5013 35.2829 25.6227 35.4975 25.716C35.7215 25.8 36.0202 25.8933 36.3935 25.996C36.8602 26.1453 37.2289 26.2807 37.4995 26.402C37.7795 26.5233 38.0222 26.7193 38.2275 26.99C38.4422 27.2513 38.5495 27.606 38.5495 28.054C38.5495 28.53 38.4282 28.9313 38.1855 29.258C37.9429 29.5753 37.6255 29.8133 37.2335 29.972C36.8509 30.1307 36.4495 30.21 36.0295 30.21ZM43.3663 30.112C42.4423 30.112 41.663 29.8507 41.0283 29.328C40.403 28.796 40.0903 27.8533 40.0903 26.5C40.0903 25.156 40.403 24.218 41.0283 23.686C41.663 23.154 42.4423 22.888 43.3663 22.888C44.0663 22.888 44.757 23.0187 45.4383 23.28V24.246C44.8036 23.9847 44.1503 23.854 43.4783 23.854C42.6476 23.854 42.041 24.064 41.6583 24.484C41.285 24.904 41.0983 25.576 41.0983 26.5C41.0983 27.4333 41.285 28.11 41.6583 28.53C42.041 28.9407 42.6476 29.146 43.4783 29.146C44.1783 29.146 44.8316 29.0153 45.4383 28.754V29.734C44.785 29.986 44.0943 30.112 43.3663 30.112ZM50.4529 22.888C51.3303 22.888 51.9976 23.1353 52.4549 23.63C52.9123 24.1153 53.1409 24.8573 53.1409 25.856V30H52.1329V25.856C52.1329 25.2027 51.9789 24.6987 51.6709 24.344C51.3723 23.9893 50.9289 23.812 50.3409 23.812C49.6876 23.812 49.0203 23.9987 48.3389 24.372V30H47.3309V19.92H48.3389V23.476C48.6843 23.2893 49.0389 23.1447 49.4029 23.042C49.7763 22.9393 50.1263 22.888 50.4529 22.888ZM55.3837 30V20.354H56.3917V30H55.3837ZM61.5636 30.21C60.6302 30.21 59.9069 29.972 59.3936 29.496C58.8896 29.0107 58.6376 28.3247 58.6376 27.438V23.014H59.6456V27.214C59.6456 27.9233 59.7996 28.446 60.1076 28.782C60.4156 29.1087 60.9009 29.272 61.5636 29.272C62.2169 29.272 62.6976 29.1087 63.0056 28.782C63.3229 28.446 63.4816 27.9233 63.4816 27.214V23.014H64.4896V27.438C64.4896 28.3247 64.2329 29.0107 63.7196 29.496C63.2156 29.972 62.4969 30.21 61.5636 30.21ZM68.7053 30.21C68.2293 30.21 67.8233 30.1633 67.4873 30.07C67.1513 29.9767 66.7827 29.8273 66.3813 29.622V28.558C66.8573 28.8287 67.2447 29.02 67.5433 29.132C67.8513 29.2347 68.2153 29.286 68.6353 29.286C69.102 29.286 69.48 29.1833 69.7693 28.978C70.068 28.7727 70.2173 28.5067 70.2173 28.18C70.2173 27.8907 70.1287 27.676 69.9513 27.536C69.774 27.3867 69.494 27.2373 69.1113 27.088L68.7473 26.934C68.2153 26.7847 67.8 26.6493 67.5013 26.528C67.212 26.4067 66.9553 26.2153 66.7313 25.954C66.5167 25.6927 66.4093 25.338 66.4093 24.89C66.4093 24.442 66.526 24.0687 66.7593 23.77C66.9927 23.4713 67.296 23.252 67.6693 23.112C68.0427 22.9627 68.4347 22.888 68.8453 22.888C69.2187 22.888 69.5313 22.93 69.7833 23.014C70.0447 23.098 70.3993 23.238 70.8473 23.434V24.442C70.3807 24.2087 70.0213 24.0453 69.7693 23.952C69.5267 23.8587 69.2373 23.812 68.9013 23.812C68.4907 23.812 68.1407 23.896 67.8513 24.064C67.562 24.2227 67.4173 24.4513 67.4173 24.75C67.4173 24.9927 67.4873 25.1933 67.6273 25.352C67.7767 25.5013 67.9587 25.6227 68.1733 25.716C68.3973 25.8 68.696 25.8933 69.0693 25.996C69.536 26.1453 69.9047 26.2807 70.1753 26.402C70.4553 26.5233 70.698 26.7193 70.9033 26.99C71.118 27.2513 71.2253 27.606 71.2253 28.054C71.2253 28.53 71.104 28.9313 70.8613 29.258C70.6187 29.5753 70.3013 29.8133 69.9093 29.972C69.5267 30.1307 69.1253 30.21 68.7053 30.21ZM75.0901 30.21C74.6141 30.21 74.2081 30.1633 73.8721 30.07C73.5361 29.9767 73.1674 29.8273 72.7661 29.622V28.558C73.2421 28.8287 73.6294 29.02 73.9281 29.132C74.2361 29.2347 74.6001 29.286 75.0201 29.286C75.4868 29.286 75.8648 29.1833 76.1541 28.978C76.4528 28.7727 76.6021 28.5067 76.6021 28.18C76.6021 27.8907 76.5134 27.676 76.3361 27.536C76.1588 27.3867 75.8788 27.2373 75.4961 27.088L75.1321 26.934C74.6001 26.7847 74.1848 26.6493 73.8861 26.528C73.5968 26.4067 73.3401 26.2153 73.1161 25.954C72.9014 25.6927 72.7941 25.338 72.7941 24.89C72.7941 24.442 72.9108 24.0687 73.1441 23.77C73.3774 23.4713 73.6808 23.252 74.0541 23.112C74.4274 22.9627 74.8194 22.888 75.2301 22.888C75.6034 22.888 75.9161 22.93 76.1681 23.014C76.4294 23.098 76.7841 23.238 77.2321 23.434V24.442C76.7654 24.2087 76.4061 24.0453 76.1541 23.952C75.9114 23.8587 75.6221 23.812 75.2861 23.812C74.8754 23.812 74.5254 23.896 74.2361 24.064C73.9468 24.2227 73.8021 24.4513 73.8021 24.75C73.8021 24.9927 73.8721 25.1933 74.0121 25.352C74.1614 25.5013 74.3434 25.6227 74.5581 25.716C74.7821 25.8 75.0808 25.8933 75.4541 25.996C75.9208 26.1453 76.2894 26.2807 76.5601 26.402C76.8401 26.5233 77.0828 26.7193 77.2881 26.99C77.5028 27.2513 77.6101 27.606 77.6101 28.054C77.6101 28.53 77.4888 28.9313 77.2461 29.258C77.0034 29.5753 76.6861 29.8133 76.2941 29.972C75.9114 30.1307 75.5101 30.21 75.0901 30.21Z" transform="translate(16)" fill="#666666"/>
</svg>
