<svg width="211" height="51" viewBox="0 0 211 51" fill="none" xmlns="http://www.w3.org/2000/svg">
<rect width="210.008" height="51" fill="#E1DFE9"/>
<rect width="210" height="4" transform="translate(0 47)" fill="#7356B1"/>
<path d="M4.844 28.326H0.532V27.01L4.844 21.662H6.398V27.052H7.672V28.326H6.398V31H4.844V28.326ZM4.844 27.052V23.566L2.002 27.052H4.844ZM9.37486 29.362H11.0409V31H9.37486V29.362ZM22.5198 28.466H18.6978L17.7878 31H16.2478L19.8878 21.662H21.5258L25.0678 31H23.4438L22.5198 28.466ZM22.0578 27.206L20.6018 23.202L19.1598 27.206H22.0578ZM29.6046 23.818C30.65 23.818 31.4433 24.1307 31.9846 24.756C32.526 25.3813 32.7966 26.268 32.7966 27.416C32.7966 28.7973 32.47 29.7773 31.8166 30.356C31.1726 30.9253 30.3513 31.21 29.3526 31.21C27.346 31.21 26.3426 30.678 26.3426 29.614V21.158H27.7986V24.252C28.0693 24.1213 28.3726 24.0187 28.7086 23.944C29.054 23.86 29.3526 23.818 29.6046 23.818ZM29.2406 29.936C30.006 29.936 30.538 29.7167 30.8366 29.278C31.1446 28.8393 31.2986 28.2373 31.2986 27.472C31.2986 26.688 31.1353 26.0907 30.8086 25.68C30.4913 25.2693 30.0153 25.064 29.3806 25.064C29.1193 25.064 28.844 25.1013 28.5546 25.176C28.2746 25.2413 28.0226 25.3393 27.7986 25.47V29.25C27.7986 29.7073 28.2793 29.936 29.2406 29.936ZM36.5347 31.21C36.0681 31.21 35.6621 31.1633 35.3167 31.07C34.9808 30.9767 34.6168 30.8367 34.2248 30.65V29.264C34.6448 29.5253 35.0274 29.7213 35.3728 29.852C35.7181 29.9733 36.1054 30.034 36.5347 30.034C36.9361 30.034 37.2488 29.9547 37.4728 29.796C37.7061 29.628 37.8227 29.4133 37.8227 29.152C37.8227 28.9 37.7294 28.7133 37.5428 28.592C37.3561 28.4707 37.0667 28.34 36.6748 28.2L36.3528 28.088C35.6994 27.9293 35.1768 27.7007 34.7847 27.402C34.4021 27.1033 34.2107 26.6367 34.2107 26.002C34.2107 25.5073 34.3414 25.0967 34.6028 24.77C34.8641 24.4433 35.1907 24.2053 35.5827 24.056C35.9841 23.9067 36.4041 23.832 36.8427 23.832C37.2908 23.8413 37.6688 23.8973 37.9767 24C38.2847 24.0933 38.6207 24.2333 38.9847 24.42V25.68C38.4994 25.428 38.1308 25.2553 37.8787 25.162C37.6361 25.0687 37.3421 25.022 36.9968 25.022C36.6141 25.022 36.3061 25.092 36.0728 25.232C35.8394 25.372 35.7227 25.568 35.7227 25.82C35.7227 26.1187 35.8394 26.338 36.0728 26.478C36.3061 26.6087 36.6701 26.744 37.1647 26.884C37.6314 27.0147 38.0001 27.1407 38.2707 27.262C38.5507 27.3833 38.7934 27.584 38.9988 27.864C39.2134 28.1347 39.3208 28.508 39.3208 28.984C39.3114 29.7307 39.0361 30.2907 38.4947 30.664C37.9627 31.028 37.3094 31.21 36.5347 31.21ZM44.1339 31.14C43.1446 31.14 42.3186 30.8553 41.6559 30.286C41.0026 29.7167 40.6759 28.7973 40.6759 27.528C40.6759 26.2213 40.9979 25.2787 41.6419 24.7C42.2952 24.112 43.1212 23.818 44.1199 23.818C44.8759 23.818 45.5946 23.958 46.2759 24.238V25.554C45.5666 25.2553 44.9179 25.106 44.3299 25.106C43.5926 25.106 43.0419 25.2927 42.6779 25.666C42.3139 26.03 42.1319 26.6133 42.1319 27.416C42.1319 28.256 42.3092 28.872 42.6639 29.264C43.0186 29.6467 43.5879 29.838 44.3719 29.838C45.0066 29.838 45.6459 29.684 46.2899 29.376V30.692C45.6179 30.9907 44.8992 31.14 44.1339 31.14ZM51.5272 23.818C53.3006 23.818 54.1872 24.7607 54.1872 26.646V31H52.7172V26.828C52.7172 26.2587 52.5819 25.8247 52.3112 25.526C52.0406 25.2273 51.6392 25.078 51.1072 25.078C50.5379 25.078 49.9872 25.232 49.4552 25.54L49.4412 31H47.9852V21.004H49.4552V24.392C50.1552 24.0093 50.8459 23.818 51.5272 23.818ZM56.2567 31V21.312H57.7127V31H56.2567ZM62.892 31.21C61.912 31.21 61.1467 30.972 60.596 30.496C60.0547 30.0107 59.784 29.306 59.784 28.382V23.972H61.254V28.172C61.254 28.7693 61.3847 29.2127 61.646 29.502C61.9167 29.782 62.332 29.922 62.892 29.922C63.452 29.922 63.8627 29.782 64.124 29.502C64.3947 29.2127 64.53 28.7693 64.53 28.172V23.972H65.944V28.382C65.944 29.306 65.678 30.0107 65.146 30.496C64.614 30.972 63.8627 31.21 62.892 31.21ZM70.0445 31.21C69.5778 31.21 69.1718 31.1633 68.8265 31.07C68.4905 30.9767 68.1265 30.8367 67.7345 30.65V29.264C68.1545 29.5253 68.5372 29.7213 68.8825 29.852C69.2278 29.9733 69.6152 30.034 70.0445 30.034C70.4458 30.034 70.7585 29.9547 70.9825 29.796C71.2158 29.628 71.3325 29.4133 71.3325 29.152C71.3325 28.9 71.2392 28.7133 71.0525 28.592C70.8658 28.4707 70.5765 28.34 70.1845 28.2L69.8625 28.088C69.2092 27.9293 68.6865 27.7007 68.2945 27.402C67.9118 27.1033 67.7205 26.6367 67.7205 26.002C67.7205 25.5073 67.8512 25.0967 68.1125 24.77C68.3738 24.4433 68.7005 24.2053 69.0925 24.056C69.4938 23.9067 69.9138 23.832 70.3525 23.832C70.8005 23.8413 71.1785 23.8973 71.4865 24C71.7945 24.0933 72.1305 24.2333 72.4945 24.42V25.68C72.0092 25.428 71.6405 25.2553 71.3885 25.162C71.1458 25.0687 70.8518 25.022 70.5065 25.022C70.1238 25.022 69.8158 25.092 69.5825 25.232C69.3492 25.372 69.2325 25.568 69.2325 25.82C69.2325 26.1187 69.3492 26.338 69.5825 26.478C69.8158 26.6087 70.1798 26.744 70.6745 26.884C71.1412 27.0147 71.5098 27.1407 71.7805 27.262C72.0605 27.3833 72.3032 27.584 72.5085 27.864C72.7232 28.1347 72.8305 28.508 72.8305 28.984C72.8212 29.7307 72.5458 30.2907 72.0045 30.664C71.4725 31.028 70.8192 31.21 70.0445 31.21ZM76.5797 31.21C76.113 31.21 75.707 31.1633 75.3617 31.07C75.0257 30.9767 74.6617 30.8367 74.2697 30.65V29.264C74.6897 29.5253 75.0723 29.7213 75.4177 29.852C75.763 29.9733 76.1503 30.034 76.5797 30.034C76.981 30.034 77.2937 29.9547 77.5177 29.796C77.751 29.628 77.8677 29.4133 77.8677 29.152C77.8677 28.9 77.7743 28.7133 77.5877 28.592C77.401 28.4707 77.1117 28.34 76.7197 28.2L76.3977 28.088C75.7443 27.9293 75.2217 27.7007 74.8297 27.402C74.447 27.1033 74.2557 26.6367 74.2557 26.002C74.2557 25.5073 74.3863 25.0967 74.6477 24.77C74.909 24.4433 75.2357 24.2053 75.6277 24.056C76.029 23.9067 76.449 23.832 76.8877 23.832C77.3357 23.8413 77.7137 23.8973 78.0217 24C78.3297 24.0933 78.6657 24.2333 79.0297 24.42V25.68C78.5443 25.428 78.1757 25.2553 77.9237 25.162C77.681 25.0687 77.387 25.022 77.0417 25.022C76.659 25.022 76.351 25.092 76.1177 25.232C75.8843 25.372 75.7677 25.568 75.7677 25.82C75.7677 26.1187 75.8843 26.338 76.1177 26.478C76.351 26.6087 76.715 26.744 77.2097 26.884C77.6763 27.0147 78.045 27.1407 78.3157 27.262C78.5957 27.3833 78.8383 27.584 79.0437 27.864C79.2583 28.1347 79.3657 28.508 79.3657 28.984C79.3563 29.7307 79.081 30.2907 78.5397 30.664C78.0077 31.028 77.3543 31.21 76.5797 31.21Z" transform="translate(15)" fill="#6B5795"/>
</svg>
