<svg width="1440" height="900" viewBox="0 0 1440 900" fill="none" xmlns="http://www.w3.org/2000/svg">
<g clip-path="url(#clip0)">
<rect width="1440" height="900" fill="white"/>
<g opacity="0.2">
<rect width="199" height="429" rx="30" transform="translate(197.495 593) rotate(48.3376)" fill="#B4ACC5"/>
<rect width="34" height="3" rx="1.5" transform="translate(226.521 678.273) rotate(48.3376)" fill="#988CB3"/>
<rect width="175" height="309" transform="translate(160.565 643.261) rotate(48.3376)" fill="#988CB3"/>
<rect width="175" height="53" transform="translate(-30.6855 813.435) rotate(48.3376)" fill="#9D91B6"/>
<rect width="33" height="33" rx="7" transform="translate(156.836 658.626) rotate(48.3376)" fill="#7F6EA2"/>
<rect width="33" height="33" rx="7" transform="translate(184.09 689.256) rotate(48.3376)" fill="#7F6EA2"/>
<rect width="33" height="33" rx="7" transform="translate(211.345 719.886) rotate(48.3376)" fill="#7F6EA2"/>
<rect width="33" height="33" rx="7" transform="translate(238.599 750.516) rotate(48.3376)" fill="#7F6EA2"/>
<rect width="33" height="33" rx="7" transform="translate(120.977 690.533) rotate(48.3376)" fill="#7F6EA2"/>
<rect width="33" height="33" rx="7" transform="translate(148.23 721.163) rotate(48.3376)" fill="#7F6EA2"/>
<rect width="33" height="33" rx="7" transform="translate(175.485 751.793) rotate(48.3376)" fill="#7F6EA2"/>
<rect width="33" height="33" rx="7" transform="translate(202.739 782.423) rotate(48.3376)" fill="#7F6EA2"/>
<rect width="33" height="33" rx="7" transform="translate(85.1172 722.441) rotate(48.3376)" fill="#7F6EA2"/>
<rect width="33" height="33" rx="7" transform="translate(112.371 753.071) rotate(48.3376)" fill="#7F6EA2"/>
<rect width="33" height="33" rx="7" transform="translate(139.626 783.701) rotate(48.3376)" fill="#7F6EA2"/>
<rect width="33" height="33" rx="7" transform="translate(166.88 814.331) rotate(48.3376)" fill="#7F6EA2"/>
<rect width="33" height="33" rx="7" transform="translate(49.2568 754.349) rotate(48.3376)" fill="#7F6EA2"/>
<rect width="33" height="33" rx="7" transform="translate(76.5107 784.979) rotate(48.3376)" fill="#7F6EA2"/>
<rect width="33" height="33" rx="7" transform="translate(103.766 815.608) rotate(48.3376)" fill="#7F6EA2"/>
<rect width="33" height="33" rx="7" transform="translate(131.02 846.238) rotate(48.3376)" fill="#7F6EA2"/>
<rect width="33" height="33" rx="7" transform="translate(-2.67871 855.441) rotate(48.3376)" fill="#7F6EA2"/>
<rect width="33" height="33" rx="7" transform="translate(24.5757 886.071) rotate(48.3376)" fill="#7F6EA2"/>
<rect width="33" height="33" rx="7" transform="translate(13.3975 786.256) rotate(48.3376)" fill="#7F6EA2"/>
<rect width="33" height="33" rx="7" transform="translate(40.6514 816.886) rotate(48.3376)" fill="#7F6EA2"/>
<circle cx="4.5" cy="4.5" r="4.5" transform="translate(249.357 675.354) rotate(48.3376)" fill="#988CB3"/>
<circle cx="2.5" cy="2.5" r="2.5" transform="translate(218.626 667.896) rotate(48.3376)" fill="#988CB3"/>
</g>
<g opacity="0.2">
<rect width="199" height="429" rx="30" transform="translate(322.495 45) rotate(48.3376)" fill="#B4ACC5"/>
<circle cx="18.5" cy="18.5" r="17" transform="translate(91.6211 360.191) rotate(48.3376)" fill="#B4ACC5" stroke="url(#paint0_linear)" stroke-width="3"/>
<rect width="34" height="3" rx="1.5" transform="translate(351.521 130.273) rotate(48.3376)" fill="#988CB3"/>
<rect width="175" height="309" transform="translate(285.565 95.2612) rotate(48.3376)" fill="#988CB3"/>
<rect width="175" height="53" transform="translate(94.3145 265.435) rotate(48.3376)" fill="#9D91B6"/>
<rect width="33" height="33" rx="7" transform="translate(281.836 110.626) rotate(48.3376)" fill="#7F6EA2"/>
<rect width="33" height="33" rx="7" transform="translate(309.09 141.256) rotate(48.3376)" fill="#7F6EA2"/>
<rect width="33" height="33" rx="7" transform="translate(336.345 171.887) rotate(48.3376)" fill="#7F6EA2"/>
<rect width="33" height="33" rx="7" transform="translate(363.599 202.517) rotate(48.3376)" fill="#7F6EA2"/>
<rect width="33" height="33" rx="7" transform="translate(245.977 142.534) rotate(48.3376)" fill="#7F6EA2"/>
<rect width="33" height="33" rx="7" transform="translate(273.23 173.164) rotate(48.3376)" fill="#7F6EA2"/>
<rect width="33" height="33" rx="7" transform="translate(300.485 203.794) rotate(48.3376)" fill="#7F6EA2"/>
<rect width="33" height="33" rx="7" transform="translate(327.739 234.424) rotate(48.3376)" fill="#7F6EA2"/>
<rect width="33" height="33" rx="7" transform="translate(210.117 174.441) rotate(48.3376)" fill="#7F6EA2"/>
<rect width="33" height="33" rx="7" transform="translate(237.371 205.071) rotate(48.3376)" fill="#7F6EA2"/>
<rect width="33" height="33" rx="7" transform="translate(264.626 235.702) rotate(48.3376)" fill="#7F6EA2"/>
<rect width="33" height="33" rx="7" transform="translate(291.88 266.332) rotate(48.3376)" fill="#7F6EA2"/>
<rect width="33" height="33" rx="7" transform="translate(174.257 206.349) rotate(48.3376)" fill="#7F6EA2"/>
<rect width="33" height="33" rx="7" transform="translate(201.511 236.979) rotate(48.3376)" fill="#7F6EA2"/>
<rect width="33" height="33" rx="7" transform="translate(228.766 267.609) rotate(48.3376)" fill="#7F6EA2"/>
<rect width="33" height="33" rx="7" transform="translate(256.02 298.239) rotate(48.3376)" fill="#7F6EA2"/>
<rect width="33" height="33" rx="7" transform="translate(95.0674 276.812) rotate(48.3376)" fill="#7F6EA2"/>
<rect width="33" height="33" rx="7" transform="translate(122.321 307.442) rotate(48.3376)" fill="#7F6EA2"/>
<rect width="33" height="33" rx="7" transform="translate(149.576 338.072) rotate(48.3376)" fill="#7F6EA2"/>
<rect width="33" height="33" rx="7" transform="translate(176.83 368.702) rotate(48.3376)" fill="#7F6EA2"/>
<rect width="33" height="33" rx="7" transform="translate(138.397 238.257) rotate(48.3376)" fill="#7F6EA2"/>
<rect width="33" height="33" rx="7" transform="translate(165.651 268.887) rotate(48.3376)" fill="#7F6EA2"/>
<circle cx="4.5" cy="4.5" r="4.5" transform="translate(374.357 127.355) rotate(48.3376)" fill="#988CB3"/>
<circle cx="2.5" cy="2.5" r="2.5" transform="translate(343.626 119.896) rotate(48.3376)" fill="#988CB3"/>
</g>
<g opacity="0.2">
<rect width="199" height="429" rx="30" transform="translate(1409.5 -74) rotate(48.3376)" fill="#B4ACC5"/>
<circle cx="18.5" cy="18.5" r="17" transform="translate(1178.62 241.191) rotate(48.3376)" fill="#B4ACC5" stroke="url(#paint1_linear)" stroke-width="3"/>
<rect width="34" height="3" rx="1.5" transform="translate(1438.52 11.2729) rotate(48.3376)" fill="#988CB3"/>
<rect width="175" height="309" transform="translate(1372.57 -23.7388) rotate(48.3376)" fill="#988CB3"/>
<rect width="175" height="53" transform="translate(1181.31 146.435) rotate(48.3376)" fill="#9D91B6"/>
<rect width="33" height="33" rx="7" transform="translate(1368.84 -8.37354) rotate(48.3376)" fill="#7F6EA2"/>
<rect width="33" height="33" rx="7" transform="translate(1396.09 22.2563) rotate(48.3376)" fill="#7F6EA2"/>
<rect width="33" height="33" rx="7" transform="translate(1423.34 52.8867) rotate(48.3376)" fill="#7F6EA2"/>
<rect width="33" height="33" rx="7" transform="translate(1450.6 83.5166) rotate(48.3376)" fill="#7F6EA2"/>
<rect width="33" height="33" rx="7" transform="translate(1332.98 23.5342) rotate(48.3376)" fill="#7F6EA2"/>
<rect width="33" height="33" rx="7" transform="translate(1360.23 54.1641) rotate(48.3376)" fill="#7F6EA2"/>
<rect width="33" height="33" rx="7" transform="translate(1387.49 84.7944) rotate(48.3376)" fill="#7F6EA2"/>
<rect width="33" height="33" rx="7" transform="translate(1414.74 115.424) rotate(48.3376)" fill="#7F6EA2"/>
<rect width="33" height="33" rx="7" transform="translate(1297.12 55.4414) rotate(48.3376)" fill="#7F6EA2"/>
<rect width="33" height="33" rx="7" transform="translate(1324.37 86.0713) rotate(48.3376)" fill="#7F6EA2"/>
<rect width="33" height="33" rx="7" transform="translate(1351.63 116.702) rotate(48.3376)" fill="#7F6EA2"/>
<rect width="33" height="33" rx="7" transform="translate(1378.88 147.332) rotate(48.3376)" fill="#7F6EA2"/>
<rect width="33" height="33" rx="7" transform="translate(1261.26 87.3491) rotate(48.3376)" fill="#7F6EA2"/>
<rect width="33" height="33" rx="7" transform="translate(1288.51 117.979) rotate(48.3376)" fill="#7F6EA2"/>
<rect width="33" height="33" rx="7" transform="translate(1315.77 148.609) rotate(48.3376)" fill="#7F6EA2"/>
<rect width="33" height="33" rx="7" transform="translate(1343.02 179.239) rotate(48.3376)" fill="#7F6EA2"/>
<rect width="33" height="33" rx="7" transform="translate(1182.07 157.812) rotate(48.3376)" fill="#7F6EA2"/>
<rect width="33" height="33" rx="7" transform="translate(1209.32 188.442) rotate(48.3376)" fill="#7F6EA2"/>
<rect width="33" height="33" rx="7" transform="translate(1236.58 219.072) rotate(48.3376)" fill="#7F6EA2"/>
<rect width="33" height="33" rx="7" transform="translate(1263.83 249.702) rotate(48.3376)" fill="#7F6EA2"/>
<rect width="33" height="33" rx="7" transform="translate(1225.4 119.257) rotate(48.3376)" fill="#7F6EA2"/>
<rect width="33" height="33" rx="7" transform="translate(1252.65 149.887) rotate(48.3376)" fill="#7F6EA2"/>
<circle cx="2.5" cy="2.5" r="2.5" transform="translate(1430.63 0.896484) rotate(48.3376)" fill="#988CB3"/>
</g>
<g opacity="0.2">
<rect width="199" height="429" rx="30" transform="translate(1412.5 564) rotate(48.3376)" fill="#B4ACC5"/>
<circle cx="18.5" cy="18.5" r="17" transform="translate(1181.62 879.191) rotate(48.3376)" fill="#B4ACC5" stroke="url(#paint2_linear)" stroke-width="3"/>
<rect width="34" height="3" rx="1.5" transform="translate(1441.52 649.273) rotate(48.3376)" fill="#988CB3"/>
<rect width="175" height="309" transform="translate(1375.57 614.261) rotate(48.3376)" fill="#988CB3"/>
<rect width="175" height="53" transform="translate(1184.31 784.435) rotate(48.3376)" fill="#9D91B6"/>
<rect width="33" height="33" rx="7" transform="translate(1371.84 629.626) rotate(48.3376)" fill="#7F6EA2"/>
<rect width="33" height="33" rx="7" transform="translate(1399.09 660.256) rotate(48.3376)" fill="#7F6EA2"/>
<rect width="33" height="33" rx="7" transform="translate(1426.34 690.886) rotate(48.3376)" fill="#7F6EA2"/>
<rect width="33" height="33" rx="7" transform="translate(1453.6 721.516) rotate(48.3376)" fill="#7F6EA2"/>
<rect width="33" height="33" rx="7" transform="translate(1335.98 661.533) rotate(48.3376)" fill="#7F6EA2"/>
<rect width="33" height="33" rx="7" transform="translate(1363.23 692.163) rotate(48.3376)" fill="#7F6EA2"/>
<rect width="33" height="33" rx="7" transform="translate(1390.49 722.793) rotate(48.3376)" fill="#7F6EA2"/>
<rect width="33" height="33" rx="7" transform="translate(1417.74 753.423) rotate(48.3376)" fill="#7F6EA2"/>
<rect width="33" height="33" rx="7" transform="translate(1300.12 693.441) rotate(48.3376)" fill="#7F6EA2"/>
<rect width="33" height="33" rx="7" transform="translate(1327.37 724.071) rotate(48.3376)" fill="#7F6EA2"/>
<rect width="33" height="33" rx="7" transform="translate(1354.63 754.701) rotate(48.3376)" fill="#7F6EA2"/>
<rect width="33" height="33" rx="7" transform="translate(1381.88 785.331) rotate(48.3376)" fill="#7F6EA2"/>
<rect width="33" height="33" rx="7" transform="translate(1264.26 725.349) rotate(48.3376)" fill="#7F6EA2"/>
<rect width="33" height="33" rx="7" transform="translate(1291.51 755.979) rotate(48.3376)" fill="#7F6EA2"/>
<rect width="33" height="33" rx="7" transform="translate(1318.77 786.608) rotate(48.3376)" fill="#7F6EA2"/>
<rect width="33" height="33" rx="7" transform="translate(1346.02 817.238) rotate(48.3376)" fill="#7F6EA2"/>
<rect width="33" height="33" rx="7" transform="translate(1185.07 795.812) rotate(48.3376)" fill="#7F6EA2"/>
<rect width="33" height="33" rx="7" transform="translate(1212.32 826.441) rotate(48.3376)" fill="#7F6EA2"/>
<rect width="33" height="33" rx="7" transform="translate(1239.58 857.071) rotate(48.3376)" fill="#7F6EA2"/>
<rect width="33" height="33" rx="7" transform="translate(1266.83 887.701) rotate(48.3376)" fill="#7F6EA2"/>
<rect width="33" height="33" rx="7" transform="translate(1228.4 757.256) rotate(48.3376)" fill="#7F6EA2"/>
<rect width="33" height="33" rx="7" transform="translate(1255.65 787.886) rotate(48.3376)" fill="#7F6EA2"/>
<circle cx="2.5" cy="2.5" r="2.5" transform="translate(1433.63 638.896) rotate(48.3376)" fill="#988CB3"/>
</g>
</g>
<defs>
<linearGradient id="paint0_linear" x2="1" gradientUnits="userSpaceOnUse" gradientTransform="translate(37) scale(37) rotate(90)">
<stop stop-color="#7F6EA2"/>
<stop offset="1" stop-color="#7F6EA2" stop-opacity="0"/>
</linearGradient>
<linearGradient id="paint1_linear" x2="1" gradientUnits="userSpaceOnUse" gradientTransform="translate(37) scale(37) rotate(90)">
<stop stop-color="#7F6EA2"/>
<stop offset="1" stop-color="#7F6EA2" stop-opacity="0"/>
</linearGradient>
<linearGradient id="paint2_linear" x2="1" gradientUnits="userSpaceOnUse" gradientTransform="translate(37) scale(37) rotate(90)">
<stop stop-color="#7F6EA2"/>
<stop offset="1" stop-color="#7F6EA2" stop-opacity="0"/>
</linearGradient>
<clipPath id="clip0">
<rect width="1440" height="900" fill="white"/>
</clipPath>
</defs>
</svg>
