<svg width="211" height="51" viewBox="0 0 211 51" fill="none" xmlns="http://www.w3.org/2000/svg">
<rect width="210.008" height="51" fill="#E1DFE9"/>
<path d="M3.304 22.712L1.442 23.944V22.754L3.164 21.662H4.312V31H3.304V22.712ZM7.43641 29.6H8.83641V31H7.43641V29.6ZM20.5377 28.088H16.5057L15.3857 31H14.2937L18.0177 21.662H19.0257L22.7357 31H21.6577L20.5377 28.088ZM20.1597 27.122L18.5217 22.852L16.8837 27.122H20.1597ZM27.0558 31.21C26.1224 31.21 25.3991 30.972 24.8858 30.496C24.3818 30.0107 24.1298 29.3247 24.1298 28.438V24.014H25.1378V28.214C25.1378 28.9233 25.2918 29.446 25.5998 29.782C25.9078 30.1087 26.3931 30.272 27.0558 30.272C27.7091 30.272 28.1898 30.1087 28.4978 29.782C28.8151 29.446 28.9738 28.9233 28.9738 28.214V24.014H29.9818V28.438C29.9818 29.3247 29.7251 30.0107 29.2118 30.496C28.7078 30.972 27.9891 31.21 27.0558 31.21ZM34.1975 31.21C33.7215 31.21 33.3155 31.1633 32.9795 31.07C32.6435 30.9767 32.2748 30.8273 31.8735 30.622V29.558C32.3495 29.8287 32.7368 30.02 33.0355 30.132C33.3435 30.2347 33.7075 30.286 34.1275 30.286C34.5942 30.286 34.9722 30.1833 35.2615 29.978C35.5602 29.7727 35.7095 29.5067 35.7095 29.18C35.7095 28.8907 35.6208 28.676 35.4435 28.536C35.2662 28.3867 34.9862 28.2373 34.6035 28.088L34.2395 27.934C33.7075 27.7847 33.2922 27.6493 32.9935 27.528C32.7042 27.4067 32.4475 27.2153 32.2235 26.954C32.0088 26.6927 31.9015 26.338 31.9015 25.89C31.9015 25.442 32.0182 25.0687 32.2515 24.77C32.4848 24.4713 32.7882 24.252 33.1615 24.112C33.5348 23.9627 33.9268 23.888 34.3375 23.888C34.7108 23.888 35.0235 23.93 35.2755 24.014C35.5368 24.098 35.8915 24.238 36.3395 24.434V25.442C35.8728 25.2087 35.5135 25.0453 35.2615 24.952C35.0188 24.8587 34.7295 24.812 34.3935 24.812C33.9828 24.812 33.6328 24.896 33.3435 25.064C33.0542 25.2227 32.9095 25.4513 32.9095 25.75C32.9095 25.9927 32.9795 26.1933 33.1195 26.352C33.2688 26.5013 33.4508 26.6227 33.6655 26.716C33.8895 26.8 34.1882 26.8933 34.5615 26.996C35.0282 27.1453 35.3968 27.2807 35.6675 27.402C35.9475 27.5233 36.1902 27.7193 36.3955 27.99C36.6102 28.2513 36.7175 28.606 36.7175 29.054C36.7175 29.53 36.5962 29.9313 36.3535 30.258C36.1108 30.5753 35.7935 30.8133 35.4015 30.972C35.0188 31.1307 34.6175 31.21 34.1975 31.21ZM48.1423 24.014L45.8183 31H44.7963L43.0463 25.204L41.3243 31H40.3023L37.9783 24.014H39.0423L40.8623 29.852L42.5703 24.014H43.5363L45.3003 29.866L47.1483 24.014H48.1423ZM52.7329 23.888C53.5169 23.888 54.1329 24.0793 54.5809 24.462C55.0382 24.8447 55.2669 25.4 55.2669 26.128V29.516C55.2669 30.188 54.9915 30.6407 54.4409 30.874C53.8902 31.098 53.1295 31.21 52.1589 31.21C51.4215 31.21 50.7869 31.0467 50.2549 30.72C49.7322 30.3933 49.4709 29.8473 49.4709 29.082C49.4709 28.2513 49.6995 27.6493 50.1569 27.276C50.6142 26.8933 51.2442 26.702 52.0469 26.702C52.9522 26.702 53.6849 26.8653 54.2449 27.192V26.366C54.2449 25.3207 53.6335 24.798 52.4109 24.798C52.0095 24.798 51.6035 24.854 51.1929 24.966C50.7822 25.078 50.4369 25.246 50.1569 25.47V24.462C50.4369 24.2847 50.8149 24.1447 51.2909 24.042C51.7762 23.9393 52.2569 23.888 52.7329 23.888ZM52.3969 30.314C53.0502 30.314 53.5215 30.2673 53.8109 30.174C54.1002 30.0713 54.2449 29.8707 54.2449 29.572V28.004C53.9929 27.8827 53.6989 27.7893 53.3629 27.724C53.0269 27.6493 52.6769 27.612 52.3129 27.612C51.7249 27.612 51.2722 27.724 50.9549 27.948C50.6375 28.172 50.4789 28.4987 50.4789 28.928C50.4789 29.4133 50.6655 29.768 51.0389 29.992C51.4122 30.2067 51.8649 30.314 52.3969 30.314ZM60.6248 23.888C61.5021 23.888 62.1695 24.1353 62.6268 24.63C63.0841 25.1153 63.3128 25.8573 63.3128 26.856V31H62.3048V26.856C62.3048 26.2027 62.1508 25.6987 61.8428 25.344C61.5441 24.9893 61.1008 24.812 60.5128 24.812C59.8595 24.812 59.1921 24.9987 58.5108 25.372V31H57.5028V20.92H58.5108V24.476C58.8561 24.2893 59.2108 24.1447 59.5748 24.042C59.9481 23.9393 60.2981 23.888 60.6248 23.888ZM65.5555 31V21.354H66.5635V31H65.5555Z" transform="translate(14.668)" fill="#666666"/>
</svg>
