<svg width="211" height="51" viewBox="0 0 211 51" fill="none" xmlns="http://www.w3.org/2000/svg">
<rect width="210.008" height="51" fill="#E1DFE9"/>
<rect width="210" height="4" transform="translate(0 47)" fill="#7356B1"/>
<path d="M3.024 23.202L1.176 24.336V22.796L3.052 21.662H4.564V31H3.024V23.202ZM7.41978 29.362H9.08578V31H7.41978V29.362ZM20.5647 28.466H16.7427L15.8327 31H14.2927L17.9327 21.662H19.5707L23.1127 31H21.4887L20.5647 28.466ZM20.1027 27.206L18.6467 23.202L17.2047 27.206H20.1027ZM27.4956 31.21C26.5156 31.21 25.7502 30.972 25.1996 30.496C24.6582 30.0107 24.3876 29.306 24.3876 28.382V23.972H25.8576V28.172C25.8576 28.7693 25.9882 29.2127 26.2496 29.502C26.5202 29.782 26.9356 29.922 27.4956 29.922C28.0556 29.922 28.4662 29.782 28.7276 29.502C28.9982 29.2127 29.1336 28.7693 29.1336 28.172V23.972H30.5476V28.382C30.5476 29.306 30.2816 30.0107 29.7496 30.496C29.2176 30.972 28.4662 31.21 27.4956 31.21ZM34.648 31.21C34.1814 31.21 33.7754 31.1633 33.43 31.07C33.094 30.9767 32.73 30.8367 32.338 30.65V29.264C32.758 29.5253 33.1407 29.7213 33.486 29.852C33.8314 29.9733 34.2187 30.034 34.648 30.034C35.0494 30.034 35.362 29.9547 35.586 29.796C35.8194 29.628 35.936 29.4133 35.936 29.152C35.936 28.9 35.8427 28.7133 35.656 28.592C35.4694 28.4707 35.18 28.34 34.788 28.2L34.466 28.088C33.8127 27.9293 33.29 27.7007 32.898 27.402C32.5154 27.1033 32.324 26.6367 32.324 26.002C32.324 25.5073 32.4547 25.0967 32.716 24.77C32.9774 24.4433 33.304 24.2053 33.696 24.056C34.0974 23.9067 34.5174 23.832 34.956 23.832C35.404 23.8413 35.782 23.8973 36.09 24C36.398 24.0933 36.734 24.2333 37.098 24.42V25.68C36.6127 25.428 36.244 25.2553 35.992 25.162C35.7494 25.0687 35.4554 25.022 35.11 25.022C34.7274 25.022 34.4194 25.092 34.186 25.232C33.9527 25.372 33.836 25.568 33.836 25.82C33.836 26.1187 33.9527 26.338 34.186 26.478C34.4194 26.6087 34.7834 26.744 35.278 26.884C35.7447 27.0147 36.1134 27.1407 36.384 27.262C36.664 27.3833 36.9067 27.584 37.112 27.864C37.3267 28.1347 37.434 28.508 37.434 28.984C37.4247 29.7307 37.1494 30.2907 36.608 30.664C36.076 31.028 35.4227 31.21 34.648 31.21ZM49.0232 23.972L46.6852 31H45.2852L43.7732 26.002L42.2752 31H40.8892L38.5512 23.972H40.1192L41.6872 29.264L43.1712 23.972H44.3892L45.9152 29.292L47.5112 23.972H49.0232ZM53.5115 23.818C54.2768 23.818 54.9255 24.0047 55.4575 24.378C55.9988 24.742 56.2648 25.3347 56.2555 26.156V29.516C56.2555 30.1507 55.9755 30.594 55.4155 30.846C54.8555 31.0887 54.0575 31.21 53.0215 31.21C52.1908 31.21 51.5048 31.0373 50.9635 30.692C50.4222 30.3467 50.1515 29.768 50.1515 28.956C50.1515 28.1907 50.3708 27.6167 50.8095 27.234C51.2575 26.8513 51.8875 26.66 52.6995 26.66C53.5395 26.66 54.2395 26.828 54.7995 27.164V26.492C54.7995 25.54 54.2255 25.064 53.0775 25.064C52.6668 25.064 52.2562 25.1293 51.8455 25.26C51.4348 25.3813 51.0942 25.554 50.8235 25.778V24.406C51.0848 24.238 51.4628 24.098 51.9575 23.986C52.4615 23.874 52.9795 23.818 53.5115 23.818ZM53.1895 30.062C53.7775 30.062 54.1928 30.02 54.4355 29.936C54.6782 29.852 54.7995 29.684 54.7995 29.432V28.074C54.3235 27.8687 53.8008 27.766 53.2315 27.766C52.6995 27.766 52.2935 27.8593 52.0135 28.046C51.7428 28.2327 51.6075 28.5127 51.6075 28.886C51.6075 29.278 51.7615 29.572 52.0695 29.768C52.3868 29.964 52.7602 30.062 53.1895 30.062ZM61.8768 23.818C63.6502 23.818 64.5368 24.7607 64.5368 26.646V31H63.0668V26.828C63.0668 26.2587 62.9315 25.8247 62.6608 25.526C62.3902 25.2273 61.9888 25.078 61.4568 25.078C60.8875 25.078 60.3368 25.232 59.8048 25.54L59.7908 31H58.3348V21.004H59.8048V24.392C60.5048 24.0093 61.1955 23.818 61.8768 23.818ZM66.6063 31V21.312H68.0623V31H66.6063Z" transform="translate(15)" fill="#6B5795"/>
</svg>
