<svg width="134" height="87" viewBox="0 0 134 87" fill="none" xmlns="http://www.w3.org/2000/svg">
<rect width="46.8123" height="21.4042" transform="translate(39.2412 20.1465) rotate(90)" fill="#7F6EA2"/>
<rect width="46.8123" height="21.4042" transform="translate(66.2412 20.1465) rotate(90)" fill="#7F6EA2"/>
<path fill-rule="evenodd" clip-rule="evenodd" d="M11.8711 24.3567H74.6426V121.905H11.8711V24.3567ZM2.03545e-09 24.3567C2.17235e-09 17.8005 5.31445 12.4856 11.8711 12.4856H20.9375C20.4346 11.6138 20.1465 10.6021 20.1465 9.52295V5.93555C20.1465 2.65747 22.8037 0 26.082 0H61.6162C64.8936 0 67.5518 2.65747 67.5518 5.93555V9.52295C67.5518 10.6021 67.2637 11.6138 66.7607 12.4856H74.6426C81.1992 12.4856 86.5137 17.8005 86.5137 24.3567V121.905C86.5137 128.461 81.1992 133.776 74.6426 133.776H11.8711C5.31445 133.776 -1.36896e-10 128.461 0 121.905L2.03545e-09 24.3567Z" transform="translate(133.776) rotate(90)" fill="#988CB3"/>
</svg>
