<svg width="152" height="173" viewBox="0 0 152 173" fill="none" xmlns="http://www.w3.org/2000/svg">
<path d="M25.6353 50.6863C39.7933 50.6863 51.2706 39.3398 51.2706 25.3432C51.2706 11.3465 39.7933 2.11832e-06 25.6353 2.11832e-06C11.4773 2.11832e-06 0 11.3465 0 25.3432C0 39.3398 11.4773 50.6863 25.6353 50.6863Z" transform="translate(9.75488 70.7498)" fill="#8E7EAF"/>
<path d="M25.6353 50.6863C39.7933 50.6863 51.2706 39.3398 51.2706 25.3432C51.2706 11.3465 39.7933 0 25.6353 0C11.4773 0 0 11.3465 0 25.3432C0 39.3398 11.4773 50.6863 25.6353 50.6863Z" transform="translate(37.0176 63.8262)" fill="#8E7EAF"/>
<path d="M25.6353 50.6863C39.7933 50.6863 51.2706 39.3398 51.2706 25.3432C51.2706 11.3465 39.7933 0 25.6353 0C11.4773 0 0 11.3465 0 25.3432C0 39.3398 11.4773 50.6863 25.6353 50.6863Z" transform="translate(67.0283 64.0737)" fill="#8E7EAF"/>
<path d="M25.6353 50.6863C39.7933 50.6863 51.2706 39.3398 51.2706 25.3432C51.2706 11.3465 39.7933 2.11832e-06 25.6353 2.11832e-06C11.4773 2.11832e-06 0 11.3465 0 25.3432C0 39.3398 11.4773 50.6863 25.6353 50.6863Z" transform="translate(76.7832 70.7498)" fill="#8E7EAF"/>
<path d="M25.6353 50.6863C39.7933 50.6863 51.2706 39.3398 51.2706 25.3432C51.2706 11.3465 39.7933 -2.72355e-06 25.6353 -2.72355e-06C11.4773 -2.72355e-06 3.06105e-06 11.3465 3.06105e-06 25.3432C3.06105e-06 39.3398 11.4773 50.6863 25.6353 50.6863Z" transform="translate(93.29 72.9759)" fill="#8E7EAF"/>
<path d="M25.6353 50.6863C39.7933 50.6863 51.2706 39.3398 51.2706 25.3432C51.2706 11.3465 39.7933 0 25.6353 0C11.4773 0 0 11.3465 0 25.3432C0 39.3398 11.4773 50.6863 25.6353 50.6863Z" transform="translate(100.044 52.9473)" fill="#8E7EAF"/>
<path d="M25.6353 50.6863C39.7933 50.6863 51.2706 39.3398 51.2706 25.3432C51.2706 11.3465 39.7933 0 25.6353 0C11.4773 0 -2.14274e-06 11.3465 -2.14274e-06 25.3432C-2.14274e-06 39.3398 11.4773 50.6863 25.6353 50.6863Z" transform="translate(92.541 29.7045)" fill="#8E7EAF"/>
<path d="M25.6353 50.6863C39.7933 50.6863 51.2706 39.3398 51.2706 25.3432C51.2706 11.3465 39.7933 0 25.6353 0C11.4773 0 -3.67326e-06 11.3465 -3.67326e-06 25.3432C-3.67326e-06 39.3398 11.4773 50.6863 25.6353 50.6863Z" transform="translate(78.2852 29.7045)" fill="#8E7EAF"/>
<path d="M25.6353 50.6863C39.7933 50.6863 51.2706 39.3398 51.2706 25.3432C51.2706 11.3465 39.7933 0 25.6353 0C11.4773 0 0 11.3465 0 25.3432C0 39.3398 11.4773 50.6863 25.6353 50.6863Z" transform="translate(70.0303 19.3196)" fill="#8E7EAF"/>
<path d="M25.6353 50.6863C39.7933 50.6863 51.2706 39.3398 51.2706 25.3432C51.2706 11.3465 39.7933 0 25.6353 0C11.4773 0 0 11.3465 0 25.3432C0 39.3398 11.4773 50.6863 25.6353 50.6863Z" transform="translate(49.0215 30.6936)" fill="#8E7EAF"/>
<path d="M25.6353 50.6863C39.7933 50.6863 51.2706 39.3398 51.2706 25.3432C51.2706 11.3465 39.7933 0 25.6353 0C11.4773 0 0 11.3465 0 25.3432C0 39.3398 11.4773 50.6863 25.6353 50.6863Z" transform="translate(0 52.9473)" fill="#8E7EAF"/>
<path d="M25.6353 50.6863C39.7933 50.6863 51.2706 39.3398 51.2706 25.3432C51.2706 11.3465 39.7933 0 25.6353 0C11.4773 0 0 11.3465 0 25.3432C0 39.3398 11.4773 50.6863 25.6353 50.6863Z" transform="translate(14.7578 40.3367)" fill="#8E7EAF"/>
<path d="M25.6353 50.6863C39.7933 50.6863 51.2706 39.3398 51.2706 25.3432C51.2706 11.3465 39.7933 0 25.6353 0C11.4773 0 0 11.3465 0 25.3432C0 39.3398 11.4773 50.6863 25.6353 50.6863Z" transform="translate(24.2617 27.7256)" fill="#8E7EAF"/>
<path d="M25.6353 50.6863C39.7933 50.6863 51.2706 39.3398 51.2706 25.3432C51.2706 11.3465 39.7933 0 25.6353 0C11.4773 0 0 11.3465 0 25.3432C0 39.3398 11.4773 50.6863 25.6353 50.6863Z" transform="translate(42.2686 8.68701)" fill="#8E7EAF"/>
<path d="M25.6353 50.6863C39.7933 50.6863 51.2706 39.3398 51.2706 25.3432C51.2706 11.3465 39.7933 0 25.6353 0C11.4773 0 0 11.3465 0 25.3432C0 39.3398 11.4773 50.6863 25.6353 50.6863Z" transform="translate(8.75391 29.7045)" fill="#8E7EAF"/>
<g opacity="0.1">
<path opacity="0.1" d="M25.6353 50.6863C39.7933 50.6863 51.2706 39.3398 51.2706 25.3432C51.2706 11.3465 39.7933 2.11832e-06 25.6353 2.11832e-06C11.4773 2.11832e-06 0 11.3465 0 25.3432C0 39.3398 11.4773 50.6863 25.6353 50.6863Z" transform="translate(9.75488 70.7498)" fill="#8E7EAF"/>
</g>
<path d="M10.0716 34.4363C10.0716 34.4363 -5.61098 21.4114 2.16261 2.87072L9.91616 -2.11832e-06L18.3217 25.6059L10.0716 34.4363Z" transform="translate(37.9795 106.068)" fill="#947C7C"/>
<path opacity="0.1" d="M1.85563 -1.51308e-06L-6.1221e-07 0.686696L8.26007 25.8266L1.05069 33.5413C1.6475 34.1289 2.01862 34.4363 2.01862 34.4363L10.2687 25.6059L1.85563 -1.51308e-06Z" transform="translate(45.3604 105.186)" fill="black"/>
<path d="M103.482 23.764L101.445 31.8209C101.445 31.8209 87.0593 33.6752 77.4677 32.5101C75.7721 32.2722 74.1443 31.6916 72.6856 30.8045C71.8757 30.331 70.5968 30.1252 68.849 31.4193C65.8549 33.6504 51.1603 51.4995 53.54 70.0178C53.7248 71.4132 54.3695 72.7094 55.3744 73.7061C56.3794 74.7027 57.6886 75.3442 59.0994 75.5312C62.0297 75.926 64.831 76.9737 67.2918 78.5953L74.5638 83.3823L3.67326e-06 81.7709L7.73849 72.5043C7.73849 72.5043 13.0346 68.0743 17.1094 67.6702C18.298 67.5537 19.2785 66.4753 20.0709 65.0102C24.7125 56.4203 30.2644 48.3436 36.2826 40.6314C40.6659 35.0139 44.3446 29.0939 44.0011 25.3754C43.1861 16.5128 44.0011 2.01298 44.0011 2.01298L59.4831 1.51308e-06C59.4831 1.51308e-06 57.4469 19.3365 76.1888 24.1681C94.9307 28.9997 103.482 23.764 103.482 23.764Z" transform="translate(15.3516 89.6177)" fill="#947C7C"/>
<g opacity="0.1">
<path opacity="0.1" d="M46.955 27.3834C46.955 27.3834 38.3966 32.6191 19.6547 27.7949C0.912773 22.9707 2.96149 3.61691 2.96149 3.61691L6.1221e-07 3.9962C0.0551681 2.75669 0.0978012 2.01298 0.0978012 2.01298L15.5798 1.21047e-06C15.5798 1.21047e-06 13.5436 19.3365 32.2855 24.1681C51.0274 28.9997 59.5859 23.7665 59.5859 23.7665L57.5497 31.8234C57.5497 31.8234 52.053 32.5324 45.5884 32.7976L46.955 27.3834Z" transform="translate(59.248 89.6241)" fill="black"/>
<path opacity="0.1" d="M14.0112 48.1552C11.5504 46.5336 8.7491 45.4859 5.81882 45.0911V45.0911C4.41112 44.9063 3.10413 44.2684 2.09977 43.2759C1.0954 42.2834 0.449552 40.9916 0.261958 39.6001C-2.1303 21.0817 12.5718 3.2004 15.5584 0.979182C18.8183 -1.43788 20.4482 1.38078 20.4482 1.38078C21.6019 1.68006 22.7748 1.9012 23.9589 2.04268C18.6779 8.98398 11.1224 22.2989 12.8903 35.9732C13.0779 37.3648 13.7238 38.6566 14.7281 39.6491C15.7325 40.6415 17.0394 41.2795 18.4472 41.4643V41.4643C21.3774 41.8591 24.1787 42.9068 26.6395 44.5284L33.9116 49.3154L15.1647 48.9113L14.0112 48.1552Z" transform="translate(55.999 123.681)" fill="black"/>
</g>
<path d="M25.6353 50.6863C39.7933 50.6863 51.2706 39.3398 51.2706 25.3432C51.2706 11.3465 39.7933 0 25.6353 0C11.4773 0 0 11.3465 0 25.3432C0 39.3398 11.4773 50.6863 25.6353 50.6863Z" transform="translate(9.75488 63.0627)" fill="#A090C1"/>
<path d="M25.6353 50.6863C39.7933 50.6863 51.2706 39.3398 51.2706 25.3432C51.2706 11.3465 39.7933 0 25.6353 0C11.4773 0 0 11.3465 0 25.3432C0 39.3398 11.4773 50.6863 25.6353 50.6863Z" transform="translate(37.0176 56.1392)" fill="#A090C1"/>
<path d="M25.6353 50.6863C39.7933 50.6863 51.2706 39.3398 51.2706 25.3432C51.2706 11.3465 39.7933 0 25.6353 0C11.4773 0 0 11.3465 0 25.3432C0 39.3398 11.4773 50.6863 25.6353 50.6863Z" transform="translate(67.0283 56.3867)" fill="#A090C1"/>
<path d="M25.6353 50.6863C39.7933 50.6863 51.2706 39.3398 51.2706 25.3432C51.2706 11.3465 39.7933 0 25.6353 0C11.4773 0 0 11.3465 0 25.3432C0 39.3398 11.4773 50.6863 25.6353 50.6863Z" transform="translate(76.7832 63.0627)" fill="#A090C1"/>
<path d="M25.6353 50.6863C39.7933 50.6863 51.2706 39.3398 51.2706 25.3432C51.2706 11.3465 39.7933 -3.32878e-06 25.6353 -3.32878e-06C11.4773 -3.32878e-06 3.06105e-06 11.3465 3.06105e-06 25.3432C3.06105e-06 39.3398 11.4773 50.6863 25.6353 50.6863Z" transform="translate(93.29 65.2884)" fill="#A090C1"/>
<path d="M25.6353 50.6863C39.7933 50.6863 51.2706 39.3398 51.2706 25.3432C51.2706 11.3465 39.7933 0 25.6353 0C11.4773 0 0 11.3465 0 25.3432C0 39.3398 11.4773 50.6863 25.6353 50.6863Z" transform="translate(100.044 45.2607)" fill="#A090C1"/>
<path d="M25.6353 50.6863C39.7933 50.6863 51.2706 39.3398 51.2706 25.3432C51.2706 11.3465 39.7933 0 25.6353 0C11.4773 0 -2.14274e-06 11.3465 -2.14274e-06 25.3432C-2.14274e-06 39.3398 11.4773 50.6863 25.6353 50.6863Z" transform="translate(92.541 22.0172)" fill="#A090C1"/>
<path d="M25.6353 50.6863C39.7933 50.6863 51.2706 39.3398 51.2706 25.3432C51.2706 11.3465 39.7933 0 25.6353 0C11.4773 0 -3.67326e-06 11.3465 -3.67326e-06 25.3432C-3.67326e-06 39.3398 11.4773 50.6863 25.6353 50.6863Z" transform="translate(78.2852 22.0172)" fill="#A090C1"/>
<path d="M25.6353 50.6863C39.7933 50.6863 51.2706 39.3398 51.2706 25.3432C51.2706 11.3465 39.7933 0 25.6353 0C11.4773 0 0 11.3465 0 25.3432C0 39.3398 11.4773 50.6863 25.6353 50.6863Z" transform="translate(70.0303 11.6326)" fill="#A090C1"/>
<path d="M25.6353 50.6863C39.7933 50.6863 51.2706 39.3398 51.2706 25.3432C51.2706 11.3465 39.7933 0 25.6353 0C11.4773 0 0 11.3465 0 25.3432C0 39.3398 11.4773 50.6863 25.6353 50.6863Z" transform="translate(49.0215 23.0061)" fill="#A090C1"/>
<path d="M25.6353 50.6863C39.7933 50.6863 51.2706 39.3398 51.2706 25.3432C51.2706 11.3465 39.7933 0 25.6353 0C11.4773 0 0 11.3465 0 25.3432C0 39.3398 11.4773 50.6863 25.6353 50.6863Z" transform="translate(0 45.2607)" fill="#A090C1"/>
<path d="M25.6353 50.6863C39.7933 50.6863 51.2706 39.3398 51.2706 25.3432C51.2706 11.3465 39.7933 0 25.6353 0C11.4773 0 0 11.3465 0 25.3432C0 39.3398 11.4773 50.6863 25.6353 50.6863Z" transform="translate(14.7578 32.6501)" fill="#A090C1"/>
<path d="M25.6353 50.6863C39.7933 50.6863 51.2706 39.3398 51.2706 25.3432C51.2706 11.3465 39.7933 0 25.6353 0C11.4773 0 0 11.3465 0 25.3432C0 39.3398 11.4773 50.6863 25.6353 50.6863Z" transform="translate(24.2617 20.0391)" fill="#A090C1"/>
<path d="M25.6353 50.6863C39.7933 50.6863 51.2706 39.3398 51.2706 25.3432C51.2706 11.3465 39.7933 0 25.6353 0C11.4773 0 0 11.3465 0 25.3432C0 39.3398 11.4773 50.6863 25.6353 50.6863Z" transform="translate(42.2686 1)" fill="#A090C1"/>
<path d="M25.6353 50.6863C39.7933 50.6863 51.2706 39.3398 51.2706 25.3432C51.2706 11.3465 39.7933 0 25.6353 0C11.4773 0 0 11.3465 0 25.3432C0 39.3398 11.4773 50.6863 25.6353 50.6863Z" transform="translate(8.75391 22.0172)" fill="#A090C1"/>
<path opacity="0.1" d="M-2.75495e-06 3.14619C-2.75495e-06 3.14619 23.875 -8.04665 38.3213 11.7906Z" transform="translate(9.86816 50.1841)" fill="black"/>
<path opacity="0.1" d="M-6.1221e-06 0.00301978C-6.1221e-06 0.00301978 26.4102 -0.785313 31.5959 23.1126Z" transform="translate(72.5771 30.6504)" fill="black"/>
<path opacity="0.1" d="M7.34652e-06 3.14828C7.34652e-06 3.14828 23.875 -8.04704 38.3213 11.7852Z" transform="translate(105.41 79.3565)" fill="black"/>
<g filter="url(#filter0_f)">
<ellipse cx="5.87878" cy="5.80386" rx="5.87878" ry="5.80386" transform="translate(47.0303 91.3195)" fill="#F2C94C" fill-opacity="0.4"/>
</g>
<g filter="url(#filter1_f)">
<ellipse cx="2.93939" cy="2.90193" rx="2.93939" ry="2.90193" transform="translate(49.9697 94.2213)" fill="#F2C94C"/>
</g>
<g filter="url(#filter2_f)">
<ellipse cx="5.87878" cy="5.80386" rx="5.87878" ry="5.80386" transform="translate(97.0303 91.3195)" fill="#F2C94C" fill-opacity="0.4"/>
</g>
<g filter="url(#filter3_f)">
<ellipse cx="2.93939" cy="2.90193" rx="2.93939" ry="2.90193" transform="translate(99.9697 94.2213)" fill="#F2C94C"/>
</g>
<g filter="url(#filter4_f)">
<ellipse cx="5.87878" cy="5.80386" rx="5.87878" ry="5.80386" transform="translate(77.7021 26.7198)" fill="#F2C94C" fill-opacity="0.4"/>
</g>
<g filter="url(#filter5_f)">
<ellipse cx="2.93939" cy="2.90193" rx="2.93939" ry="2.90193" transform="translate(80.6416 29.6217)" fill="#F2C94C"/>
</g>
<g filter="url(#filter6_f)">
<ellipse cx="5.87878" cy="5.80386" rx="5.87878" ry="5.80386" transform="translate(75.1465 75.6744)" fill="#F2C94C" fill-opacity="0.4"/>
</g>
<g filter="url(#filter7_f)">
<ellipse cx="2.93939" cy="2.90193" rx="2.93939" ry="2.90193" transform="translate(78.0859 78.576)" fill="#F2C94C"/>
</g>
<g filter="url(#filter8_f)">
<ellipse cx="5.87878" cy="5.80386" rx="5.87878" ry="5.80386" transform="translate(88 43.4139)" fill="#F2C94C" fill-opacity="0.4"/>
</g>
<g filter="url(#filter9_f)">
<ellipse cx="2.93939" cy="2.90193" rx="2.93939" ry="2.90193" transform="translate(90.9395 46.3155)" fill="#F2C94C"/>
</g>
<g filter="url(#filter10_f)">
<ellipse cx="5.87878" cy="5.80386" rx="5.87878" ry="5.80386" transform="translate(125.146 55.9603)" fill="#F2C94C" fill-opacity="0.4"/>
</g>
<g filter="url(#filter11_f)">
<ellipse cx="2.93939" cy="2.90193" rx="2.93939" ry="2.90193" transform="translate(128.086 58.8619)" fill="#F2C94C"/>
</g>
<g filter="url(#filter12_f)">
<ellipse cx="5.87878" cy="5.80386" rx="5.87878" ry="5.80386" transform="translate(15.1465 75.6744)" fill="#F2C94C" fill-opacity="0.4"/>
</g>
<g filter="url(#filter13_f)">
<ellipse cx="2.93939" cy="2.90193" rx="2.93939" ry="2.90193" transform="translate(18.0859 78.576)" fill="#F2C94C"/>
</g>
<g filter="url(#filter14_f)">
<ellipse cx="5.87878" cy="5.80386" rx="5.87878" ry="5.80386" transform="translate(54.1865 63.5626)" fill="#F2C94C" fill-opacity="0.4"/>
</g>
<g filter="url(#filter15_f)">
<ellipse cx="2.93939" cy="2.90193" rx="2.93939" ry="2.90193" transform="translate(57.126 66.4642)" fill="#F2C94C"/>
</g>
<g filter="url(#filter16_f)">
<ellipse cx="5.87878" cy="5.80386" rx="5.87878" ry="5.80386" transform="translate(54.1865 33.9914)" fill="#F2C94C" fill-opacity="0.4"/>
</g>
<g filter="url(#filter17_f)">
<ellipse cx="2.93939" cy="2.90193" rx="2.93939" ry="2.90193" transform="translate(57.126 36.8931)" fill="#F2C94C"/>
</g>
<g filter="url(#filter18_f)">
<ellipse cx="5.87878" cy="5.80386" rx="5.87878" ry="5.80386" transform="translate(63.1865 4.42017)" fill="#F2C94C" fill-opacity="0.4"/>
</g>
<g filter="url(#filter19_f)">
<ellipse cx="2.93939" cy="2.90193" rx="2.93939" ry="2.90193" transform="translate(66.126 7.32184)" fill="#F2C94C"/>
</g>
<g filter="url(#filter20_f)">
<ellipse cx="5.87878" cy="5.80386" rx="5.87878" ry="5.80386" transform="translate(21.4707 101.414)" fill="#F2C94C" fill-opacity="0.4"/>
</g>
<g filter="url(#filter21_f)">
<ellipse cx="2.93939" cy="2.90193" rx="2.93939" ry="2.90193" transform="translate(24.4102 104.315)" fill="#F2C94C"/>
</g>
<g filter="url(#filter22_f)">
<ellipse cx="5.87878" cy="5.80386" rx="5.87878" ry="5.80386" transform="translate(21.4707 43.8795)" fill="#F2C94C" fill-opacity="0.4"/>
</g>
<g filter="url(#filter23_f)">
<ellipse cx="2.93939" cy="2.90193" rx="2.93939" ry="2.90193" transform="translate(24.4102 46.7814)" fill="#F2C94C"/>
</g>
<g filter="url(#filter24_f)">
<ellipse cx="5.87878" cy="5.80386" rx="5.87878" ry="5.80386" transform="translate(105.307 60.0289)" fill="#F2C94C" fill-opacity="0.4"/>
</g>
<g filter="url(#filter25_f)">
<ellipse cx="2.93939" cy="2.90193" rx="2.93939" ry="2.90193" transform="translate(108.246 62.931)" fill="#F2C94C"/>
</g>
<g filter="url(#filter26_f)">
<ellipse cx="5.87878" cy="5.80386" rx="5.87878" ry="5.80386" transform="translate(126 77.9137)" fill="#F2C94C" fill-opacity="0.4"/>
</g>
<g filter="url(#filter27_f)">
<ellipse cx="2.93939" cy="2.90193" rx="2.93939" ry="2.90193" transform="translate(128.939 80.8158)" fill="#F2C94C"/>
</g>
<g filter="url(#filter28_f)">
<ellipse cx="5.87878" cy="5.80386" rx="5.87878" ry="5.80386" transform="translate(117.064 24.7017)" fill="#F2C94C" fill-opacity="0.4"/>
</g>
<g filter="url(#filter29_f)">
<ellipse cx="2.93939" cy="2.90193" rx="2.93939" ry="2.90193" transform="translate(120.004 27.6032)" fill="#F2C94C"/>
</g>
<g filter="url(#filter30_f)">
<ellipse cx="5.87878" cy="5.80386" rx="5.87878" ry="5.80386" transform="translate(113.997 98.3856)" fill="#F2C94C" fill-opacity="0.4"/>
</g>
<g filter="url(#filter31_f)">
<ellipse cx="2.93939" cy="2.90193" rx="2.93939" ry="2.90193" transform="translate(116.937 101.287)" fill="#F2C94C"/>
</g>
<defs>
<filter id="filter0_f" x="43.0207" y="87.3099" width="19.7767" height="19.6269" filterUnits="userSpaceOnUse" color-interpolation-filters="sRGB">
<feFlood flood-opacity="0" result="BackgroundImageFix"/>
<feBlend mode="normal" in="SourceGraphic" in2="BackgroundImageFix" result="shape"/>
<feGaussianBlur stdDeviation="2.00479" result="effect1_foregroundBlur"/>
</filter>
<filter id="filter1_f" x="47.9649" y="92.2165" width="9.88835" height="9.81343" filterUnits="userSpaceOnUse" color-interpolation-filters="sRGB">
<feFlood flood-opacity="0" result="BackgroundImageFix"/>
<feBlend mode="normal" in="SourceGraphic" in2="BackgroundImageFix" result="shape"/>
<feGaussianBlur stdDeviation="1.00239" result="effect1_foregroundBlur"/>
</filter>
<filter id="filter2_f" x="93.0207" y="87.3099" width="19.7767" height="19.6269" filterUnits="userSpaceOnUse" color-interpolation-filters="sRGB">
<feFlood flood-opacity="0" result="BackgroundImageFix"/>
<feBlend mode="normal" in="SourceGraphic" in2="BackgroundImageFix" result="shape"/>
<feGaussianBlur stdDeviation="2.00479" result="effect1_foregroundBlur"/>
</filter>
<filter id="filter3_f" x="97.9649" y="92.2165" width="9.88835" height="9.81343" filterUnits="userSpaceOnUse" color-interpolation-filters="sRGB">
<feFlood flood-opacity="0" result="BackgroundImageFix"/>
<feBlend mode="normal" in="SourceGraphic" in2="BackgroundImageFix" result="shape"/>
<feGaussianBlur stdDeviation="1.00239" result="effect1_foregroundBlur"/>
</filter>
<filter id="filter4_f" x="73.6926" y="22.7102" width="19.7767" height="19.6269" filterUnits="userSpaceOnUse" color-interpolation-filters="sRGB">
<feFlood flood-opacity="0" result="BackgroundImageFix"/>
<feBlend mode="normal" in="SourceGraphic" in2="BackgroundImageFix" result="shape"/>
<feGaussianBlur stdDeviation="2.00479" result="effect1_foregroundBlur"/>
</filter>
<filter id="filter5_f" x="78.6368" y="27.6169" width="9.88835" height="9.81343" filterUnits="userSpaceOnUse" color-interpolation-filters="sRGB">
<feFlood flood-opacity="0" result="BackgroundImageFix"/>
<feBlend mode="normal" in="SourceGraphic" in2="BackgroundImageFix" result="shape"/>
<feGaussianBlur stdDeviation="1.00239" result="effect1_foregroundBlur"/>
</filter>
<filter id="filter6_f" x="71.1369" y="71.6649" width="19.7767" height="19.6269" filterUnits="userSpaceOnUse" color-interpolation-filters="sRGB">
<feFlood flood-opacity="0" result="BackgroundImageFix"/>
<feBlend mode="normal" in="SourceGraphic" in2="BackgroundImageFix" result="shape"/>
<feGaussianBlur stdDeviation="2.00479" result="effect1_foregroundBlur"/>
</filter>
<filter id="filter7_f" x="76.0812" y="76.5712" width="9.88835" height="9.81343" filterUnits="userSpaceOnUse" color-interpolation-filters="sRGB">
<feFlood flood-opacity="0" result="BackgroundImageFix"/>
<feBlend mode="normal" in="SourceGraphic" in2="BackgroundImageFix" result="shape"/>
<feGaussianBlur stdDeviation="1.00239" result="effect1_foregroundBlur"/>
</filter>
<filter id="filter8_f" x="83.9904" y="39.4044" width="19.7767" height="19.6269" filterUnits="userSpaceOnUse" color-interpolation-filters="sRGB">
<feFlood flood-opacity="0" result="BackgroundImageFix"/>
<feBlend mode="normal" in="SourceGraphic" in2="BackgroundImageFix" result="shape"/>
<feGaussianBlur stdDeviation="2.00479" result="effect1_foregroundBlur"/>
</filter>
<filter id="filter9_f" x="88.9347" y="44.3107" width="9.88835" height="9.81343" filterUnits="userSpaceOnUse" color-interpolation-filters="sRGB">
<feFlood flood-opacity="0" result="BackgroundImageFix"/>
<feBlend mode="normal" in="SourceGraphic" in2="BackgroundImageFix" result="shape"/>
<feGaussianBlur stdDeviation="1.00239" result="effect1_foregroundBlur"/>
</filter>
<filter id="filter10_f" x="121.137" y="51.9508" width="19.7767" height="19.6269" filterUnits="userSpaceOnUse" color-interpolation-filters="sRGB">
<feFlood flood-opacity="0" result="BackgroundImageFix"/>
<feBlend mode="normal" in="SourceGraphic" in2="BackgroundImageFix" result="shape"/>
<feGaussianBlur stdDeviation="2.00479" result="effect1_foregroundBlur"/>
</filter>
<filter id="filter11_f" x="126.081" y="56.8571" width="9.88835" height="9.81343" filterUnits="userSpaceOnUse" color-interpolation-filters="sRGB">
<feFlood flood-opacity="0" result="BackgroundImageFix"/>
<feBlend mode="normal" in="SourceGraphic" in2="BackgroundImageFix" result="shape"/>
<feGaussianBlur stdDeviation="1.00239" result="effect1_foregroundBlur"/>
</filter>
<filter id="filter12_f" x="11.1369" y="71.6649" width="19.7767" height="19.6269" filterUnits="userSpaceOnUse" color-interpolation-filters="sRGB">
<feFlood flood-opacity="0" result="BackgroundImageFix"/>
<feBlend mode="normal" in="SourceGraphic" in2="BackgroundImageFix" result="shape"/>
<feGaussianBlur stdDeviation="2.00479" result="effect1_foregroundBlur"/>
</filter>
<filter id="filter13_f" x="16.0812" y="76.5712" width="9.88835" height="9.81343" filterUnits="userSpaceOnUse" color-interpolation-filters="sRGB">
<feFlood flood-opacity="0" result="BackgroundImageFix"/>
<feBlend mode="normal" in="SourceGraphic" in2="BackgroundImageFix" result="shape"/>
<feGaussianBlur stdDeviation="1.00239" result="effect1_foregroundBlur"/>
</filter>
<filter id="filter14_f" x="50.177" y="59.553" width="19.7767" height="19.6269" filterUnits="userSpaceOnUse" color-interpolation-filters="sRGB">
<feFlood flood-opacity="0" result="BackgroundImageFix"/>
<feBlend mode="normal" in="SourceGraphic" in2="BackgroundImageFix" result="shape"/>
<feGaussianBlur stdDeviation="2.00479" result="effect1_foregroundBlur"/>
</filter>
<filter id="filter15_f" x="55.1212" y="64.4594" width="9.88835" height="9.81343" filterUnits="userSpaceOnUse" color-interpolation-filters="sRGB">
<feFlood flood-opacity="0" result="BackgroundImageFix"/>
<feBlend mode="normal" in="SourceGraphic" in2="BackgroundImageFix" result="shape"/>
<feGaussianBlur stdDeviation="1.00239" result="effect1_foregroundBlur"/>
</filter>
<filter id="filter16_f" x="50.177" y="29.9818" width="19.7767" height="19.6269" filterUnits="userSpaceOnUse" color-interpolation-filters="sRGB">
<feFlood flood-opacity="0" result="BackgroundImageFix"/>
<feBlend mode="normal" in="SourceGraphic" in2="BackgroundImageFix" result="shape"/>
<feGaussianBlur stdDeviation="2.00479" result="effect1_foregroundBlur"/>
</filter>
<filter id="filter17_f" x="55.1212" y="34.8883" width="9.88835" height="9.81343" filterUnits="userSpaceOnUse" color-interpolation-filters="sRGB">
<feFlood flood-opacity="0" result="BackgroundImageFix"/>
<feBlend mode="normal" in="SourceGraphic" in2="BackgroundImageFix" result="shape"/>
<feGaussianBlur stdDeviation="1.00239" result="effect1_foregroundBlur"/>
</filter>
<filter id="filter18_f" x="59.177" y="0.410594" width="19.7767" height="19.6269" filterUnits="userSpaceOnUse" color-interpolation-filters="sRGB">
<feFlood flood-opacity="0" result="BackgroundImageFix"/>
<feBlend mode="normal" in="SourceGraphic" in2="BackgroundImageFix" result="shape"/>
<feGaussianBlur stdDeviation="2.00479" result="effect1_foregroundBlur"/>
</filter>
<filter id="filter19_f" x="64.1212" y="5.31705" width="9.88835" height="9.81343" filterUnits="userSpaceOnUse" color-interpolation-filters="sRGB">
<feFlood flood-opacity="0" result="BackgroundImageFix"/>
<feBlend mode="normal" in="SourceGraphic" in2="BackgroundImageFix" result="shape"/>
<feGaussianBlur stdDeviation="1.00239" result="effect1_foregroundBlur"/>
</filter>
<filter id="filter20_f" x="17.4611" y="97.4041" width="19.7767" height="19.6269" filterUnits="userSpaceOnUse" color-interpolation-filters="sRGB">
<feFlood flood-opacity="0" result="BackgroundImageFix"/>
<feBlend mode="normal" in="SourceGraphic" in2="BackgroundImageFix" result="shape"/>
<feGaussianBlur stdDeviation="2.00479" result="effect1_foregroundBlur"/>
</filter>
<filter id="filter21_f" x="22.4054" y="102.311" width="9.88835" height="9.81343" filterUnits="userSpaceOnUse" color-interpolation-filters="sRGB">
<feFlood flood-opacity="0" result="BackgroundImageFix"/>
<feBlend mode="normal" in="SourceGraphic" in2="BackgroundImageFix" result="shape"/>
<feGaussianBlur stdDeviation="1.00239" result="effect1_foregroundBlur"/>
</filter>
<filter id="filter22_f" x="17.4611" y="39.8699" width="19.7767" height="19.6269" filterUnits="userSpaceOnUse" color-interpolation-filters="sRGB">
<feFlood flood-opacity="0" result="BackgroundImageFix"/>
<feBlend mode="normal" in="SourceGraphic" in2="BackgroundImageFix" result="shape"/>
<feGaussianBlur stdDeviation="2.00479" result="effect1_foregroundBlur"/>
</filter>
<filter id="filter23_f" x="22.4054" y="44.7766" width="9.88835" height="9.81343" filterUnits="userSpaceOnUse" color-interpolation-filters="sRGB">
<feFlood flood-opacity="0" result="BackgroundImageFix"/>
<feBlend mode="normal" in="SourceGraphic" in2="BackgroundImageFix" result="shape"/>
<feGaussianBlur stdDeviation="1.00239" result="effect1_foregroundBlur"/>
</filter>
<filter id="filter24_f" x="101.297" y="56.0193" width="19.7767" height="19.6269" filterUnits="userSpaceOnUse" color-interpolation-filters="sRGB">
<feFlood flood-opacity="0" result="BackgroundImageFix"/>
<feBlend mode="normal" in="SourceGraphic" in2="BackgroundImageFix" result="shape"/>
<feGaussianBlur stdDeviation="2.00479" result="effect1_foregroundBlur"/>
</filter>
<filter id="filter25_f" x="106.241" y="60.9262" width="9.88835" height="9.81343" filterUnits="userSpaceOnUse" color-interpolation-filters="sRGB">
<feFlood flood-opacity="0" result="BackgroundImageFix"/>
<feBlend mode="normal" in="SourceGraphic" in2="BackgroundImageFix" result="shape"/>
<feGaussianBlur stdDeviation="1.00239" result="effect1_foregroundBlur"/>
</filter>
<filter id="filter26_f" x="121.99" y="73.9041" width="19.7767" height="19.6269" filterUnits="userSpaceOnUse" color-interpolation-filters="sRGB">
<feFlood flood-opacity="0" result="BackgroundImageFix"/>
<feBlend mode="normal" in="SourceGraphic" in2="BackgroundImageFix" result="shape"/>
<feGaussianBlur stdDeviation="2.00479" result="effect1_foregroundBlur"/>
</filter>
<filter id="filter27_f" x="126.935" y="78.811" width="9.88835" height="9.81343" filterUnits="userSpaceOnUse" color-interpolation-filters="sRGB">
<feFlood flood-opacity="0" result="BackgroundImageFix"/>
<feBlend mode="normal" in="SourceGraphic" in2="BackgroundImageFix" result="shape"/>
<feGaussianBlur stdDeviation="1.00239" result="effect1_foregroundBlur"/>
</filter>
<filter id="filter28_f" x="113.055" y="20.6921" width="19.7767" height="19.6269" filterUnits="userSpaceOnUse" color-interpolation-filters="sRGB">
<feFlood flood-opacity="0" result="BackgroundImageFix"/>
<feBlend mode="normal" in="SourceGraphic" in2="BackgroundImageFix" result="shape"/>
<feGaussianBlur stdDeviation="2.00479" result="effect1_foregroundBlur"/>
</filter>
<filter id="filter29_f" x="117.999" y="25.5984" width="9.88835" height="9.81343" filterUnits="userSpaceOnUse" color-interpolation-filters="sRGB">
<feFlood flood-opacity="0" result="BackgroundImageFix"/>
<feBlend mode="normal" in="SourceGraphic" in2="BackgroundImageFix" result="shape"/>
<feGaussianBlur stdDeviation="1.00239" result="effect1_foregroundBlur"/>
</filter>
<filter id="filter30_f" x="109.987" y="94.376" width="19.7767" height="19.6269" filterUnits="userSpaceOnUse" color-interpolation-filters="sRGB">
<feFlood flood-opacity="0" result="BackgroundImageFix"/>
<feBlend mode="normal" in="SourceGraphic" in2="BackgroundImageFix" result="shape"/>
<feGaussianBlur stdDeviation="2.00479" result="effect1_foregroundBlur"/>
</filter>
<filter id="filter31_f" x="114.932" y="99.2826" width="9.88835" height="9.81343" filterUnits="userSpaceOnUse" color-interpolation-filters="sRGB">
<feFlood flood-opacity="0" result="BackgroundImageFix"/>
<feBlend mode="normal" in="SourceGraphic" in2="BackgroundImageFix" result="shape"/>
<feGaussianBlur stdDeviation="1.00239" result="effect1_foregroundBlur"/>
</filter>
</defs>
</svg>
