<svg width="152" height="173" viewBox="0 0 152 173" fill="none" xmlns="http://www.w3.org/2000/svg">
<path d="M25.6353 51.4213C39.7933 51.4213 51.2706 39.9103 51.2706 25.7107C51.2706 11.5111 39.7933 2.14903e-06 25.6353 2.14903e-06C11.4773 2.14903e-06 0 11.5111 0 25.7107C0 39.9103 11.4773 51.4213 25.6353 51.4213Z" transform="translate(9.75488 68.7322)" fill="#8E7EAF"/>
<path d="M25.6353 51.4213C39.7933 51.4213 51.2706 39.9103 51.2706 25.7107C51.2706 11.5111 39.7933 0 25.6353 0C11.4773 0 0 11.5111 0 25.7107C0 39.9103 11.4773 51.4213 25.6353 51.4213Z" transform="translate(37.0176 61.7082)" fill="#8E7EAF"/>
<path d="M25.6353 51.4213C39.7933 51.4213 51.2706 39.9103 51.2706 25.7107C51.2706 11.5111 39.7933 0 25.6353 0C11.4773 0 0 11.5111 0 25.7107C0 39.9103 11.4773 51.4213 25.6353 51.4213Z" transform="translate(67.0283 61.9594)" fill="#8E7EAF"/>
<path d="M25.6353 51.4213C39.7933 51.4213 51.2706 39.9103 51.2706 25.7107C51.2706 11.5111 39.7933 2.14903e-06 25.6353 2.14903e-06C11.4773 2.14903e-06 0 11.5111 0 25.7107C0 39.9103 11.4773 51.4213 25.6353 51.4213Z" transform="translate(76.7832 68.7322)" fill="#8E7EAF"/>
<path d="M25.6353 51.4213C39.7933 51.4213 51.2706 39.9103 51.2706 25.7107C51.2706 11.5111 39.7933 -2.76304e-06 25.6353 -2.76304e-06C11.4773 -2.76304e-06 3.06105e-06 11.5111 3.06105e-06 25.7107C3.06105e-06 39.9103 11.4773 51.4213 25.6353 51.4213Z" transform="translate(93.29 70.9906)" fill="#8E7EAF"/>
<path d="M25.6353 51.4213C39.7933 51.4213 51.2706 39.9103 51.2706 25.7107C51.2706 11.5111 39.7933 0 25.6353 0C11.4773 0 0 11.5111 0 25.7107C0 39.9103 11.4773 51.4213 25.6353 51.4213Z" transform="translate(100.044 50.6716)" fill="#8E7EAF"/>
<path d="M25.6353 51.4213C39.7933 51.4213 51.2706 39.9103 51.2706 25.7107C51.2706 11.5111 39.7933 0 25.6353 0C11.4773 0 -2.14274e-06 11.5111 -2.14274e-06 25.7107C-2.14274e-06 39.9103 11.4773 51.4213 25.6353 51.4213Z" transform="translate(92.541 27.0918)" fill="#8E7EAF"/>
<path d="M25.6353 51.4213C39.7933 51.4213 51.2706 39.9103 51.2706 25.7107C51.2706 11.5111 39.7933 0 25.6353 0C11.4773 0 -3.67326e-06 11.5111 -3.67326e-06 25.7107C-3.67326e-06 39.9103 11.4773 51.4213 25.6353 51.4213Z" transform="translate(78.2852 27.0918)" fill="#8E7EAF"/>
<path d="M25.6353 51.4213C39.7933 51.4213 51.2706 39.9103 51.2706 25.7107C51.2706 11.5111 39.7933 0 25.6353 0C11.4773 0 0 11.5111 0 25.7107C0 39.9103 11.4773 51.4213 25.6353 51.4213Z" transform="translate(70.0303 16.5562)" fill="#8E7EAF"/>
<path d="M25.6353 51.4213C39.7933 51.4213 51.2706 39.9103 51.2706 25.7107C51.2706 11.5111 39.7933 0 25.6353 0C11.4773 0 0 11.5111 0 25.7107C0 39.9103 11.4773 51.4213 25.6353 51.4213Z" transform="translate(49.0215 28.0952)" fill="#8E7EAF"/>
<path d="M25.6353 51.4213C39.7933 51.4213 51.2706 39.9103 51.2706 25.7107C51.2706 11.5111 39.7933 0 25.6353 0C11.4773 0 0 11.5111 0 25.7107C0 39.9103 11.4773 51.4213 25.6353 51.4213Z" transform="translate(0 50.6716)" fill="#8E7EAF"/>
<path d="M25.6353 51.4213C39.7933 51.4213 51.2706 39.9103 51.2706 25.7107C51.2706 11.5111 39.7933 0 25.6353 0C11.4773 0 0 11.5111 0 25.7107C0 39.9103 11.4773 51.4213 25.6353 51.4213Z" transform="translate(14.7578 37.8781)" fill="#8E7EAF"/>
<path d="M25.6353 51.4213C39.7933 51.4213 51.2706 39.9103 51.2706 25.7107C51.2706 11.5111 39.7933 0 25.6353 0C11.4773 0 0 11.5111 0 25.7107C0 39.9103 11.4773 51.4213 25.6353 51.4213Z" transform="translate(24.2617 25.0842)" fill="#8E7EAF"/>
<path d="M25.6353 51.4213C39.7933 51.4213 51.2706 39.9103 51.2706 25.7107C51.2706 11.5111 39.7933 0 25.6353 0C11.4773 0 0 11.5111 0 25.7107C0 39.9103 11.4773 51.4213 25.6353 51.4213Z" transform="translate(42.2686 5.76947)" fill="#8E7EAF"/>
<path d="M25.6353 51.4213C39.7933 51.4213 51.2706 39.9103 51.2706 25.7107C51.2706 11.5111 39.7933 0 25.6353 0C11.4773 0 0 11.5111 0 25.7107C0 39.9103 11.4773 51.4213 25.6353 51.4213Z" transform="translate(8.75391 27.0918)" fill="#8E7EAF"/>
<g opacity="0.1">
<path opacity="0.1" d="M25.6353 51.4213C39.7933 51.4213 51.2706 39.9103 51.2706 25.7107C51.2706 11.5111 39.7933 2.14903e-06 25.6353 2.14903e-06C11.4773 2.14903e-06 0 11.5111 0 25.7107C0 39.9103 11.4773 51.4213 25.6353 51.4213Z" transform="translate(9.75488 68.7322)" fill="#8E7EAF"/>
</g>
<path d="M10.0716 34.9356C10.0716 34.9356 -5.61098 21.7219 2.16261 2.91235L9.91615 -2.14903e-06L18.3217 25.9773L10.0716 34.9356Z" transform="translate(37.9795 104.563)" fill="#947C7C"/>
<path opacity="0.1" d="M1.85563 -1.53502e-06L-6.1221e-07 0.696653L8.26007 26.2011L1.05069 34.0277C1.6475 34.6238 2.01862 34.9356 2.01862 34.9356L10.2687 25.9773L1.85563 -1.53502e-06Z" transform="translate(45.3604 103.668)" fill="black"/>
<path d="M103.482 24.1086L101.445 32.2823C101.445 32.2823 87.0593 34.1635 77.4677 32.9815C75.7721 32.7402 74.1442 32.1512 72.6856 31.2512C71.8757 30.7708 70.5968 30.5621 68.849 31.8749C65.8549 34.1384 51.1603 52.2462 53.54 71.0331C53.7248 72.4487 54.3695 73.7638 55.3745 74.7749C56.3794 75.786 57.6886 76.4367 59.0994 76.6265C62.0297 77.027 64.831 78.0899 67.2918 79.735L74.5639 84.5914L3.67326e-06 82.9567L7.73849 73.5557C7.73849 73.5557 13.0346 69.0614 17.1094 68.6515C18.298 68.5333 19.2785 67.4392 20.0709 65.9529C24.7125 57.2385 30.2644 49.0447 36.2826 41.2206C40.6659 35.5216 44.3446 29.5158 44.0011 25.7434C43.1861 16.7523 44.0011 2.04217 44.0011 2.04217L59.4831 1.53502e-06C59.4831 1.53502e-06 57.4469 19.6169 76.1888 24.5186C94.9307 29.4203 103.482 24.1086 103.482 24.1086Z" transform="translate(15.3516 87.8737)" fill="#947C7C"/>
<g opacity="0.1">
<path opacity="0.1" d="M46.955 27.7805C46.955 27.7805 38.3966 33.0921 19.6547 28.198C0.912773 23.3038 2.96149 3.66936 2.96149 3.66936L6.1221e-07 4.05415C0.0551681 2.79666 0.0978012 2.04217 0.0978012 2.04217L15.5798 1.22802e-06C15.5798 1.22802e-06 13.5436 19.6169 32.2855 24.5186C51.0274 29.4203 59.5859 24.1111 59.5859 24.1111L57.5497 32.2848C57.5497 32.2848 52.053 33.0041 45.5884 33.2732L46.955 27.7805Z" transform="translate(59.248 87.8802)" fill="black"/>
<path opacity="0.1" d="M14.0112 48.8535C11.5504 47.2084 8.7491 46.1455 5.81882 45.745C4.41112 45.5575 3.10413 44.9103 2.09977 43.9034C1.0954 42.8966 0.449552 41.586 0.261958 40.1743C-2.1303 21.3874 12.5718 3.2468 15.5584 0.993381C18.8183 -1.45873 20.4482 1.40081 20.4482 1.40081C21.6019 1.70442 22.7748 1.92877 23.9589 2.0723C18.6779 9.11425 11.1224 22.6222 12.8903 36.4949C13.0779 37.9066 13.7238 39.2172 14.7281 40.224C15.7325 41.2309 17.0394 41.878 18.4472 42.0656C21.3774 42.4661 24.1787 43.529 26.6395 45.1741L33.9116 50.0305L15.1647 49.6206L14.0112 48.8535Z" transform="translate(55.999 122.431)" fill="black"/>
</g>
<path d="M25.6353 51.4213C39.7933 51.4213 51.2706 39.9103 51.2706 25.7107C51.2706 11.5111 39.7933 0 25.6353 0C11.4773 0 0 11.5111 0 25.7107C0 39.9103 11.4773 51.4213 25.6353 51.4213Z" transform="translate(9.75488 62.9627)" fill="#A090C1"/>
<path d="M25.6353 51.4213C39.7933 51.4213 51.2706 39.9103 51.2706 25.7107C51.2706 11.5111 39.7933 0 25.6353 0C11.4773 0 0 11.5111 0 25.7107C0 39.9103 11.4773 51.4213 25.6353 51.4213Z" transform="translate(37.0176 55.9387)" fill="#A090C1"/>
<path d="M25.6353 51.4213C39.7933 51.4213 51.2706 39.9103 51.2706 25.7107C51.2706 11.5111 39.7933 0 25.6353 0C11.4773 0 0 11.5111 0 25.7107C0 39.9103 11.4773 51.4213 25.6353 51.4213Z" transform="translate(67.0283 56.1899)" fill="#A090C1"/>
<path d="M25.6353 51.4213C39.7933 51.4213 51.2706 39.9103 51.2706 25.7107C51.2706 11.5111 39.7933 0 25.6353 0C11.4773 0 0 11.5111 0 25.7107C0 39.9103 11.4773 51.4213 25.6353 51.4213Z" transform="translate(76.7832 62.9627)" fill="#A090C1"/>
<path d="M25.6353 51.4213C39.7933 51.4213 51.2706 39.9103 51.2706 25.7107C51.2706 11.5111 39.7933 -3.37705e-06 25.6353 -3.37705e-06C11.4773 -3.37705e-06 3.06105e-06 11.5111 3.06105e-06 25.7107C3.06105e-06 39.9103 11.4773 51.4213 25.6353 51.4213Z" transform="translate(93.29 65.2206)" fill="#A090C1"/>
<path d="M25.6353 51.4213C39.7933 51.4213 51.2706 39.9103 51.2706 25.7107C51.2706 11.5111 39.7933 0 25.6353 0C11.4773 0 0 11.5111 0 25.7107C0 39.9103 11.4773 51.4213 25.6353 51.4213Z" transform="translate(100.044 44.9026)" fill="#A090C1"/>
<path d="M25.6353 51.4213C39.7933 51.4213 51.2706 39.9103 51.2706 25.7107C51.2706 11.5111 39.7933 0 25.6353 0C11.4773 0 -2.14274e-06 11.5111 -2.14274e-06 25.7107C-2.14274e-06 39.9103 11.4773 51.4213 25.6353 51.4213Z" transform="translate(92.541 21.3219)" fill="#A090C1"/>
<path d="M25.6353 51.4213C39.7933 51.4213 51.2706 39.9103 51.2706 25.7107C51.2706 11.5111 39.7933 0 25.6353 0C11.4773 0 -3.67326e-06 11.5111 -3.67326e-06 25.7107C-3.67326e-06 39.9103 11.4773 51.4213 25.6353 51.4213Z" transform="translate(78.2852 21.3219)" fill="#A090C1"/>
<path d="M25.6353 51.4213C39.7933 51.4213 51.2706 39.9103 51.2706 25.7107C51.2706 11.5111 39.7933 0 25.6353 0C11.4773 0 0 11.5111 0 25.7107C0 39.9103 11.4773 51.4213 25.6353 51.4213Z" transform="translate(70.0303 10.7867)" fill="#A090C1"/>
<path d="M25.6353 51.4213C39.7933 51.4213 51.2706 39.9103 51.2706 25.7107C51.2706 11.5111 39.7933 0 25.6353 0C11.4773 0 0 11.5111 0 25.7107C0 39.9103 11.4773 51.4213 25.6353 51.4213Z" transform="translate(49.0215 22.3253)" fill="#A090C1"/>
<path d="M25.6353 51.4213C39.7933 51.4213 51.2706 39.9103 51.2706 25.7107C51.2706 11.5111 39.7933 0 25.6353 0C11.4773 0 0 11.5111 0 25.7107C0 39.9103 11.4773 51.4213 25.6353 51.4213Z" transform="translate(0 44.9026)" fill="#A090C1"/>
<path d="M25.6353 51.4213C39.7933 51.4213 51.2706 39.9103 51.2706 25.7107C51.2706 11.5111 39.7933 0 25.6353 0C11.4773 0 0 11.5111 0 25.7107C0 39.9103 11.4773 51.4213 25.6353 51.4213Z" transform="translate(14.7578 32.1091)" fill="#A090C1"/>
<path d="M25.6353 51.4213C39.7933 51.4213 51.2706 39.9103 51.2706 25.7107C51.2706 11.5111 39.7933 0 25.6353 0C11.4773 0 0 11.5111 0 25.7107C0 39.9103 11.4773 51.4213 25.6353 51.4213Z" transform="translate(24.2617 19.3151)" fill="#A090C1"/>
<path d="M25.6353 51.4213C39.7933 51.4213 51.2706 39.9103 51.2706 25.7107C51.2706 11.5111 39.7933 0 25.6353 0C11.4773 0 0 11.5111 0 25.7107C0 39.9103 11.4773 51.4213 25.6353 51.4213Z" transform="translate(42.2686)" fill="#A090C1"/>
<path d="M25.6353 51.4213C39.7933 51.4213 51.2706 39.9103 51.2706 25.7107C51.2706 11.5111 39.7933 0 25.6353 0C11.4773 0 0 11.5111 0 25.7107C0 39.9103 11.4773 51.4213 25.6353 51.4213Z" transform="translate(8.75391 21.3219)" fill="#A090C1"/>
<path opacity="0.1" d="M-2.75495e-06 3.19181C-2.75495e-06 3.19181 23.875 -8.16333 38.3213 11.9616L-2.75495e-06 3.19181Z" transform="translate(9.86816 47.8683)" fill="black"/>
<path opacity="0.1" d="M-6.1221e-06 0.00306357C-6.1221e-06 0.00306357 26.4102 -0.7967 31.5959 23.4477L-6.1221e-06 0.00306357Z" transform="translate(72.5771 28.0513)" fill="black"/>
<path opacity="0.1" d="M7.34652e-06 3.19393C7.34652e-06 3.19393 23.875 -8.16373 38.3213 11.9561L7.34652e-06 3.19393Z" transform="translate(105.41 77.4637)" fill="black"/>
<g filter="url(#filter0_f)">
<ellipse cx="5.87878" cy="5.88802" rx="5.87878" ry="5.88802" transform="translate(73 47)" fill="#F2C94C" fill-opacity="0.4"/>
</g>
<g filter="url(#filter1_f)">
<ellipse cx="2.93939" cy="2.94401" rx="2.93939" ry="2.94401" transform="translate(75.9395 49.9436)" fill="#F2C94C"/>
</g>
<g filter="url(#filter2_f)">
<ellipse cx="5.87878" cy="5.88802" rx="5.87878" ry="5.88802" transform="translate(31 85)" fill="#F2C94C" fill-opacity="0.4"/>
</g>
<g filter="url(#filter3_f)">
<ellipse cx="2.93939" cy="2.94401" rx="2.93939" ry="2.94401" transform="translate(33.9395 87.9437)" fill="#F2C94C"/>
</g>
<g filter="url(#filter4_f)">
<ellipse cx="5.87878" cy="5.88802" rx="5.87878" ry="5.88802" transform="translate(21.4707 41.4723)" fill="#F2C94C" fill-opacity="0.4"/>
</g>
<g filter="url(#filter5_f)">
<ellipse cx="2.93939" cy="2.94401" rx="2.93939" ry="2.94401" transform="translate(24.4102 44.4163)" fill="#F2C94C"/>
</g>
<g filter="url(#filter6_f)">
<ellipse cx="5.87878" cy="5.88802" rx="5.87878" ry="5.88802" transform="translate(117.064 22.0164)" fill="#F2C94C" fill-opacity="0.4"/>
</g>
<g filter="url(#filter7_f)">
<ellipse cx="2.93939" cy="2.94401" rx="2.93939" ry="2.94401" transform="translate(120.004 24.96)" fill="#F2C94C"/>
</g>
<g filter="url(#filter8_f)">
<ellipse cx="5.87878" cy="5.88802" rx="5.87878" ry="5.88802" transform="translate(111 85)" fill="#F2C94C" fill-opacity="0.4"/>
</g>
<g filter="url(#filter9_f)">
<ellipse cx="2.93939" cy="2.94401" rx="2.93939" ry="2.94401" transform="translate(113.939 87.944)" fill="#F2C94C"/>
</g>
<defs>
<filter id="filter0_f" x="68.9904" y="42.9904" width="19.7767" height="19.7952" filterUnits="userSpaceOnUse" color-interpolation-filters="sRGB">
<feFlood flood-opacity="0" result="BackgroundImageFix"/>
<feBlend mode="normal" in="SourceGraphic" in2="BackgroundImageFix" result="shape"/>
<feGaussianBlur stdDeviation="2.00479" result="effect1_foregroundBlur"/>
</filter>
<filter id="filter1_f" x="73.9347" y="47.9388" width="9.88835" height="9.89759" filterUnits="userSpaceOnUse" color-interpolation-filters="sRGB">
<feFlood flood-opacity="0" result="BackgroundImageFix"/>
<feBlend mode="normal" in="SourceGraphic" in2="BackgroundImageFix" result="shape"/>
<feGaussianBlur stdDeviation="1.00239" result="effect1_foregroundBlur"/>
</filter>
<filter id="filter2_f" x="26.9904" y="80.9904" width="19.7767" height="19.7952" filterUnits="userSpaceOnUse" color-interpolation-filters="sRGB">
<feFlood flood-opacity="0" result="BackgroundImageFix"/>
<feBlend mode="normal" in="SourceGraphic" in2="BackgroundImageFix" result="shape"/>
<feGaussianBlur stdDeviation="2.00479" result="effect1_foregroundBlur"/>
</filter>
<filter id="filter3_f" x="31.9347" y="85.9389" width="9.88835" height="9.89759" filterUnits="userSpaceOnUse" color-interpolation-filters="sRGB">
<feFlood flood-opacity="0" result="BackgroundImageFix"/>
<feBlend mode="normal" in="SourceGraphic" in2="BackgroundImageFix" result="shape"/>
<feGaussianBlur stdDeviation="1.00239" result="effect1_foregroundBlur"/>
</filter>
<filter id="filter4_f" x="17.4611" y="37.4627" width="19.7767" height="19.7952" filterUnits="userSpaceOnUse" color-interpolation-filters="sRGB">
<feFlood flood-opacity="0" result="BackgroundImageFix"/>
<feBlend mode="normal" in="SourceGraphic" in2="BackgroundImageFix" result="shape"/>
<feGaussianBlur stdDeviation="2.00479" result="effect1_foregroundBlur"/>
</filter>
<filter id="filter5_f" x="22.4054" y="42.4115" width="9.88835" height="9.89759" filterUnits="userSpaceOnUse" color-interpolation-filters="sRGB">
<feFlood flood-opacity="0" result="BackgroundImageFix"/>
<feBlend mode="normal" in="SourceGraphic" in2="BackgroundImageFix" result="shape"/>
<feGaussianBlur stdDeviation="1.00239" result="effect1_foregroundBlur"/>
</filter>
<filter id="filter6_f" x="113.055" y="18.0068" width="19.7767" height="19.7952" filterUnits="userSpaceOnUse" color-interpolation-filters="sRGB">
<feFlood flood-opacity="0" result="BackgroundImageFix"/>
<feBlend mode="normal" in="SourceGraphic" in2="BackgroundImageFix" result="shape"/>
<feGaussianBlur stdDeviation="2.00479" result="effect1_foregroundBlur"/>
</filter>
<filter id="filter7_f" x="117.999" y="22.9552" width="9.88835" height="9.89759" filterUnits="userSpaceOnUse" color-interpolation-filters="sRGB">
<feFlood flood-opacity="0" result="BackgroundImageFix"/>
<feBlend mode="normal" in="SourceGraphic" in2="BackgroundImageFix" result="shape"/>
<feGaussianBlur stdDeviation="1.00239" result="effect1_foregroundBlur"/>
</filter>
<filter id="filter8_f" x="106.99" y="80.9904" width="19.7767" height="19.7952" filterUnits="userSpaceOnUse" color-interpolation-filters="sRGB">
<feFlood flood-opacity="0" result="BackgroundImageFix"/>
<feBlend mode="normal" in="SourceGraphic" in2="BackgroundImageFix" result="shape"/>
<feGaussianBlur stdDeviation="2.00479" result="effect1_foregroundBlur"/>
</filter>
<filter id="filter9_f" x="111.935" y="85.9392" width="9.88835" height="9.89759" filterUnits="userSpaceOnUse" color-interpolation-filters="sRGB">
<feFlood flood-opacity="0" result="BackgroundImageFix"/>
<feBlend mode="normal" in="SourceGraphic" in2="BackgroundImageFix" result="shape"/>
<feGaussianBlur stdDeviation="1.00239" result="effect1_foregroundBlur"/>
</filter>
</defs>
</svg>
