<svg width="185" height="14" viewBox="0 0 185 14" fill="none" xmlns="http://www.w3.org/2000/svg">
<path d="M6.37 9.002C6.80867 9.198 7.182 9.48733 7.49 9.87C7.798 10.2433 7.952 10.738 7.952 11.354C7.952 12.2593 7.658 12.9267 7.07 13.356C6.482 13.7853 5.64667 14 4.564 14H1.19V4.662H4.284C6.356 4.662 7.392 5.49733 7.392 7.168C7.392 7.616 7.31733 7.95667 7.168 8.19C7.01867 8.414 6.86 8.596 6.692 8.736C6.524 8.876 6.41667 8.96467 6.37 9.002ZM2.198 8.708H4.508C5.07733 8.708 5.53 8.61 5.866 8.414C6.21133 8.218 6.384 7.826 6.384 7.238C6.384 6.63133 6.216 6.21133 5.88 5.978C5.55333 5.74467 5.054 5.628 4.382 5.628H2.198V8.708ZM4.648 13.062C5.35733 13.062 5.91733 12.9407 6.328 12.698C6.73867 12.446 6.944 11.9793 6.944 11.298C6.944 10.626 6.72933 10.1873 6.3 9.982C5.88 9.76733 5.31533 9.66 4.606 9.66H2.198V13.062H4.648ZM12.627 6.888C13.691 6.888 14.4703 7.23333 14.965 7.924C15.4597 8.61467 15.6977 9.534 15.679 10.682H10.583C10.583 11.522 10.779 12.166 11.171 12.614C11.563 13.062 12.123 13.286 12.851 13.286C13.7843 13.286 14.5823 13.0853 15.245 12.684V13.72C14.5637 14.0467 13.747 14.21 12.795 14.21C11.7777 14.21 10.9843 13.8973 10.415 13.272C9.84568 12.6373 9.56102 11.7133 9.56102 10.5C9.56102 9.31467 9.82702 8.41867 10.359 7.812C10.9003 7.196 11.6563 6.888 12.627 6.888ZM12.627 7.812C12.011 7.812 11.5443 7.95667 11.227 8.246C10.9097 8.526 10.709 9.03 10.625 9.758H14.615C14.5683 9.10467 14.3817 8.61933 14.055 8.302C13.7377 7.97533 13.2617 7.812 12.627 7.812ZM19.5413 14.21C19.0653 14.21 18.6593 14.1633 18.3233 14.07C17.9873 13.9767 17.6186 13.8273 17.2173 13.622V12.558C17.6933 12.8287 18.0806 13.02 18.3793 13.132C18.6873 13.2347 19.0513 13.286 19.4713 13.286C19.9379 13.286 20.3159 13.1833 20.6053 12.978C20.9039 12.7727 21.0533 12.5067 21.0533 12.18C21.0533 11.8907 20.9646 11.676 20.7873 11.536C20.6099 11.3867 20.3299 11.2373 19.9473 11.088L19.5833 10.934C19.0513 10.7847 18.6359 10.6493 18.3373 10.528C18.0479 10.4067 17.7913 10.2153 17.5673 9.954C17.3526 9.69267 17.2453 9.338 17.2453 8.89C17.2453 8.442 17.3619 8.06867 17.5953 7.77C17.8286 7.47133 18.1319 7.252 18.5053 7.112C18.8786 6.96267 19.2706 6.888 19.6813 6.888C20.0546 6.888 20.3673 6.93 20.6193 7.014C20.8806 7.098 21.2353 7.238 21.6833 7.434V8.442C21.2166 8.20867 20.8573 8.04533 20.6053 7.952C20.3626 7.85867 20.0733 7.812 19.7373 7.812C19.3266 7.812 18.9766 7.896 18.6873 8.064C18.3979 8.22267 18.2533 8.45133 18.2533 8.75C18.2533 8.99267 18.3233 9.19333 18.4633 9.352C18.6126 9.50133 18.7946 9.62267 19.0093 9.716C19.2333 9.8 19.5319 9.89333 19.9053 9.996C20.3719 10.1453 20.7406 10.2807 21.0113 10.402C21.2913 10.5233 21.5339 10.7193 21.7393 10.99C21.9539 11.2513 22.0613 11.606 22.0613 12.054C22.0613 12.53 21.9399 12.9313 21.6973 13.258C21.4546 13.5753 21.1373 13.8133 20.7453 13.972C20.3626 14.1307 19.9613 14.21 19.5413 14.21ZM23.952 4.662H25.072V5.768H23.952V4.662ZM24.008 7.014H25.016V14H24.008V7.014ZM30.2413 14.112C29.3173 14.112 28.538 13.8507 27.9033 13.328C27.278 12.796 26.9653 11.8533 26.9653 10.5C26.9653 9.156 27.278 8.218 27.9033 7.686C28.538 7.154 29.3173 6.888 30.2413 6.888C30.9413 6.888 31.632 7.01867 32.3133 7.28V8.246C31.6786 7.98467 31.0253 7.854 30.3533 7.854C29.5226 7.854 28.916 8.064 28.5333 8.484C28.16 8.904 27.9733 9.576 27.9733 10.5C27.9733 11.4333 28.16 12.11 28.5333 12.53C28.916 12.9407 29.5226 13.146 30.3533 13.146C31.0533 13.146 31.7066 13.0153 32.3133 12.754V13.734C31.66 13.986 30.9693 14.112 30.2413 14.112ZM37.3279 6.888C38.2053 6.888 38.8726 7.13533 39.3299 7.63C39.7873 8.11533 40.0159 8.85733 40.0159 9.856V14H39.0079V9.856C39.0079 9.20267 38.8539 8.69867 38.5459 8.344C38.2473 7.98933 37.8039 7.812 37.2159 7.812C36.5626 7.812 35.8953 7.99867 35.2139 8.372V14H34.2059V3.92H35.2139V7.476C35.5593 7.28933 35.9139 7.14467 36.2779 7.042C36.6513 6.93933 37.0013 6.888 37.3279 6.888ZM44.4567 14.112C43.9433 14.112 43.5233 13.958 43.1967 13.65C42.87 13.3327 42.7067 12.8847 42.7067 12.306V7.938H41.4887V7.014H42.7067V5.04H43.7147V7.014H45.5207V7.938H43.7147V11.984C43.7147 12.3947 43.78 12.6933 43.9107 12.88C44.0413 13.0667 44.284 13.16 44.6387 13.16C44.984 13.16 45.278 13.104 45.5207 12.992V13.944C45.39 13.9907 45.222 14.028 45.0167 14.056C44.8207 14.0933 44.634 14.112 44.4567 14.112ZM47.3446 4.662H48.4646V5.768H47.3446V4.662ZM47.4006 7.014H48.4086V14H47.4006V7.014ZM53.7599 6.902C54.5066 6.902 55.1366 7.04667 55.6499 7.336C56.1726 7.616 56.4339 8.05 56.4339 8.638V14.294C56.4339 14.9847 56.2099 15.568 55.7619 16.044C55.3139 16.5293 54.5252 16.772 53.3959 16.772C53.0786 16.772 52.7799 16.744 52.4999 16.688C52.2292 16.6413 51.9912 16.59 51.7859 16.534C51.5899 16.4873 51.4639 16.4593 51.4079 16.45V15.498C51.7719 15.6007 52.0892 15.68 52.3599 15.736C52.6399 15.792 52.9479 15.82 53.2839 15.82C54.1332 15.82 54.7026 15.68 54.9919 15.4C55.2812 15.12 55.4259 14.7607 55.4259 14.322V13.804C55.1366 13.916 54.8099 14.0093 54.4459 14.084C54.0912 14.168 53.7926 14.21 53.5499 14.21C52.4952 14.21 51.6972 13.902 51.1559 13.286C50.6239 12.6607 50.3579 11.7973 50.3579 10.696C50.3672 9.268 50.6986 8.27867 51.3519 7.728C52.0052 7.17733 52.8079 6.902 53.7599 6.902ZM51.4219 10.696C51.4219 11.4987 51.5946 12.1333 51.9399 12.6C52.2852 13.0573 52.8219 13.286 53.5499 13.286C53.8579 13.286 54.1752 13.244 54.5019 13.16C54.8379 13.076 55.1459 12.9547 55.4259 12.796V8.778C55.4259 8.414 55.2812 8.16667 54.9919 8.036C54.7119 7.896 54.3292 7.826 53.8439 7.826C52.9106 7.826 52.2712 8.08267 51.9259 8.596C51.5899 9.10933 51.4219 9.80933 51.4219 10.696ZM61.6046 14.21C60.6713 14.21 59.9479 13.972 59.4346 13.496C58.9306 13.0107 58.6786 12.3247 58.6786 11.438V7.014H59.6866V11.214C59.6866 11.9233 59.8406 12.446 60.1486 12.782C60.4566 13.1087 60.9419 13.272 61.6046 13.272C62.2579 13.272 62.7386 13.1087 63.0466 12.782C63.3639 12.446 63.5226 11.9233 63.5226 11.214V7.014H64.5306V11.438C64.5306 12.3247 64.2739 13.0107 63.7606 13.496C63.2566 13.972 62.5379 14.21 61.6046 14.21ZM66.7723 7.574C67.6777 7.11667 68.6623 6.888 69.7263 6.888C70.7063 6.888 71.411 7.10267 71.8403 7.532C72.279 7.96133 72.4983 8.60067 72.4983 9.45V14H71.4903V9.45C71.4903 8.34867 70.865 7.798 69.6143 7.798C69.0357 7.798 68.4243 7.89133 67.7803 8.078V14H66.7723V7.574ZM77.795 6.902C78.5417 6.902 79.1717 7.04667 79.685 7.336C80.2077 7.616 80.469 8.05 80.469 8.638V14.294C80.469 14.9847 80.245 15.568 79.797 16.044C79.349 16.5293 78.5604 16.772 77.431 16.772C77.1137 16.772 76.815 16.744 76.535 16.688C76.2644 16.6413 76.0264 16.59 75.821 16.534C75.625 16.4873 75.499 16.4593 75.443 16.45V15.498C75.807 15.6007 76.1244 15.68 76.395 15.736C76.675 15.792 76.983 15.82 77.319 15.82C78.1684 15.82 78.7377 15.68 79.027 15.4C79.3164 15.12 79.461 14.7607 79.461 14.322V13.804C79.1717 13.916 78.845 14.0093 78.481 14.084C78.1264 14.168 77.8277 14.21 77.585 14.21C76.5304 14.21 75.7324 13.902 75.191 13.286C74.659 12.6607 74.393 11.7973 74.393 10.696C74.4024 9.268 74.7337 8.27867 75.387 7.728C76.0404 7.17733 76.843 6.902 77.795 6.902ZM75.457 10.696C75.457 11.4987 75.6297 12.1333 75.975 12.6C76.3204 13.0573 76.857 13.286 77.585 13.286C77.893 13.286 78.2104 13.244 78.537 13.16C78.873 13.076 79.181 12.9547 79.461 12.796V8.778C79.461 8.414 79.3164 8.16667 79.027 8.036C78.747 7.896 78.3644 7.826 77.879 7.826C76.9457 7.826 76.3064 8.08267 75.961 8.596C75.625 9.10933 75.457 9.80933 75.457 10.696ZM92.5003 4.06V12.796C92.5003 13.272 92.197 13.6267 91.5903 13.86C90.993 14.0933 90.3396 14.21 89.6303 14.21C88.7716 14.21 88.025 13.9347 87.3903 13.384C86.7556 12.824 86.4336 11.8347 86.4243 10.416C86.4243 9.31467 86.6903 8.456 87.2223 7.84C87.7636 7.21467 88.5616 6.902 89.6163 6.902C89.859 6.902 90.1576 6.944 90.5123 7.028C90.8763 7.10267 91.203 7.196 91.4923 7.308V4.06H92.5003ZM91.4923 8.316C91.2123 8.15733 90.9043 8.036 90.5683 7.952C90.2416 7.868 89.9243 7.826 89.6163 7.826C88.8883 7.826 88.3516 8.05933 88.0063 8.526C87.661 8.98333 87.4883 9.61333 87.4883 10.416C87.4883 11.2933 87.647 11.9933 87.9643 12.516C88.2816 13.0293 88.8556 13.286 89.6863 13.286C90.181 13.286 90.6056 13.23 90.9603 13.118C91.315 13.006 91.4923 12.866 91.4923 12.698V8.316ZM97.461 6.888C98.525 6.888 99.3043 7.23333 99.799 7.924C100.294 8.61467 100.532 9.534 100.513 10.682H95.417C95.417 11.522 95.613 12.166 96.005 12.614C96.397 13.062 96.957 13.286 97.685 13.286C98.6183 13.286 99.4163 13.0853 100.079 12.684V13.72C99.3977 14.0467 98.581 14.21 97.629 14.21C96.6117 14.21 95.8183 13.8973 95.249 13.272C94.6797 12.6373 94.395 11.7133 94.395 10.5C94.395 9.31467 94.661 8.41867 95.193 7.812C95.7343 7.196 96.4903 6.888 97.461 6.888ZM97.461 7.812C96.845 7.812 96.3783 7.95667 96.061 8.246C95.7437 8.526 95.543 9.03 95.459 9.758H99.449C99.4023 9.10467 99.2157 8.61933 98.889 8.302C98.5717 7.97533 98.0957 7.812 97.461 7.812ZM104.375 14.21C103.899 14.21 103.493 14.1633 103.157 14.07C102.821 13.9767 102.453 13.8273 102.051 13.622V12.558C102.527 12.8287 102.915 13.02 103.213 13.132C103.521 13.2347 103.885 13.286 104.305 13.286C104.772 13.286 105.15 13.1833 105.439 12.978C105.738 12.7727 105.887 12.5067 105.887 12.18C105.887 11.8907 105.799 11.676 105.621 11.536C105.444 11.3867 105.164 11.2373 104.781 11.088L104.417 10.934C103.885 10.7847 103.47 10.6493 103.171 10.528C102.882 10.4067 102.625 10.2153 102.401 9.954C102.187 9.69267 102.079 9.338 102.079 8.89C102.079 8.442 102.196 8.06867 102.429 7.77C102.663 7.47133 102.966 7.252 103.339 7.112C103.713 6.96267 104.105 6.888 104.515 6.888C104.889 6.888 105.201 6.93 105.453 7.014C105.715 7.098 106.069 7.238 106.517 7.434V8.442C106.051 8.20867 105.691 8.04533 105.439 7.952C105.197 7.85867 104.907 7.812 104.571 7.812C104.161 7.812 103.811 7.896 103.521 8.064C103.232 8.22267 103.087 8.45133 103.087 8.75C103.087 8.99267 103.157 9.19333 103.297 9.352C103.447 9.50133 103.629 9.62267 103.843 9.716C104.067 9.8 104.366 9.89333 104.739 9.996C105.206 10.1453 105.575 10.2807 105.845 10.402C106.125 10.5233 106.368 10.7193 106.573 10.99C106.788 11.2513 106.895 11.606 106.895 12.054C106.895 12.53 106.774 12.9313 106.531 13.258C106.289 13.5753 105.971 13.8133 105.579 13.972C105.197 14.1307 104.795 14.21 104.375 14.21ZM115.563 14.14C114.919 14.14 114.405 14.0793 114.023 13.958C113.64 13.8367 113.178 13.6313 112.637 13.342V12.25C112.973 12.53 113.393 12.7633 113.897 12.95C114.41 13.1273 114.979 13.216 115.605 13.216C116.286 13.216 116.795 13.0713 117.131 12.782C117.467 12.4927 117.635 12.1007 117.635 11.606C117.635 11.242 117.537 10.9433 117.341 10.71C117.145 10.4673 116.911 10.2807 116.641 10.15C116.37 10.01 115.964 9.83733 115.423 9.632C114.844 9.436 114.382 9.24933 114.037 9.072C113.701 8.89467 113.411 8.63333 113.169 8.288C112.926 7.94267 112.805 7.48533 112.805 6.916C112.805 6.53333 112.898 6.16 113.085 5.796C113.281 5.432 113.589 5.12867 114.009 4.886C114.438 4.64333 114.989 4.522 115.661 4.522C116.155 4.522 116.557 4.56867 116.865 4.662C117.182 4.75533 117.597 4.928 118.111 5.18V6.216C118.045 6.17867 117.868 6.08067 117.579 5.922C117.299 5.754 117.005 5.63267 116.697 5.558C116.398 5.48333 116.071 5.446 115.717 5.446C115.073 5.446 114.597 5.58133 114.289 5.852C113.981 6.11333 113.827 6.44467 113.827 6.846C113.827 7.21 113.906 7.504 114.065 7.728C114.233 7.952 114.452 8.134 114.723 8.274C115.003 8.414 115.395 8.568 115.899 8.736C116.477 8.932 116.949 9.128 117.313 9.324C117.686 9.51067 118.003 9.78133 118.265 10.136C118.526 10.4907 118.657 10.9433 118.657 11.494C118.657 12.2313 118.409 12.8567 117.915 13.37C117.429 13.8833 116.645 14.14 115.563 14.14ZM123.734 6.888C124.612 6.888 125.279 7.13533 125.736 7.63C126.194 8.11533 126.422 8.85733 126.422 9.856V14H125.414V9.856C125.414 9.20267 125.26 8.69867 124.952 8.344C124.654 7.98933 124.21 7.812 123.622 7.812C122.969 7.812 122.302 7.99867 121.62 8.372V14H120.612V3.92H121.62V7.476C121.966 7.28933 122.32 7.14467 122.684 7.042C123.058 6.93933 123.408 6.888 123.734 6.888ZM131.535 14.21C130.462 14.21 129.654 13.8927 129.113 13.258C128.581 12.6233 128.315 11.7133 128.315 10.528C128.315 9.324 128.586 8.41867 129.127 7.812C129.678 7.196 130.471 6.888 131.507 6.888C132.599 6.888 133.411 7.21467 133.943 7.868C134.475 8.512 134.741 9.39867 134.741 10.528C134.741 11.6853 134.461 12.5907 133.901 13.244C133.341 13.888 132.552 14.21 131.535 14.21ZM131.521 13.286C132.996 13.286 133.733 12.3667 133.733 10.528C133.733 9.65067 133.56 8.97867 133.215 8.512C132.87 8.04533 132.305 7.812 131.521 7.812C130.056 7.812 129.323 8.71733 129.323 10.528C129.323 12.3667 130.056 13.286 131.521 13.286ZM145.814 7.014L143.49 14H142.468L140.718 8.204L138.996 14H137.974L135.65 7.014H136.714L138.534 12.852L140.242 7.014H141.208L142.972 12.866L144.82 7.014H145.814ZM147.423 7.574C147.777 7.42467 148.244 7.27533 148.823 7.126C149.411 6.96733 150.017 6.888 150.643 6.888C150.736 6.888 150.885 6.916 151.091 6.972V7.868C150.867 7.84 150.643 7.826 150.419 7.826C150.111 7.826 149.826 7.84467 149.565 7.882C149.303 7.91933 148.925 7.98 148.431 8.064V14H147.423V7.574ZM155.078 14.21C154.005 14.21 153.197 13.8927 152.656 13.258C152.124 12.6233 151.858 11.7133 151.858 10.528C151.858 9.324 152.129 8.41867 152.67 7.812C153.221 7.196 154.014 6.888 155.05 6.888C156.142 6.888 156.954 7.21467 157.486 7.868C158.018 8.512 158.284 9.39867 158.284 10.528C158.284 11.6853 158.004 12.5907 157.444 13.244C156.884 13.888 156.095 14.21 155.078 14.21ZM155.064 13.286C156.539 13.286 157.276 12.3667 157.276 10.528C157.276 9.65067 157.103 8.97867 156.758 8.512C156.413 8.04533 155.848 7.812 155.064 7.812C153.599 7.812 152.866 8.71733 152.866 10.528C152.866 12.3667 153.599 13.286 155.064 13.286ZM163.049 14.21C161.975 14.21 161.168 13.8927 160.627 13.258C160.095 12.6233 159.829 11.7133 159.829 10.528C159.829 9.324 160.099 8.41867 160.641 7.812C161.191 7.196 161.985 6.888 163.021 6.888C164.113 6.888 164.925 7.21467 165.457 7.868C165.989 8.512 166.255 9.39867 166.255 10.528C166.255 11.6853 165.975 12.5907 165.415 13.244C164.855 13.888 164.066 14.21 163.049 14.21ZM163.035 13.286C164.509 13.286 165.247 12.3667 165.247 10.528C165.247 9.65067 165.074 8.97867 164.729 8.512C164.383 8.04533 163.819 7.812 163.035 7.812C161.569 7.812 160.837 8.71733 160.837 10.528C160.837 12.3667 161.569 13.286 163.035 13.286ZM175.499 6.888C176.479 6.888 177.184 7.10267 177.613 7.532C178.052 7.96133 178.271 8.60067 178.271 9.45V14H177.263V9.45C177.263 8.34867 176.638 7.798 175.387 7.798C174.79 7.798 174.225 7.95667 173.693 8.274C173.815 8.60067 173.875 8.99267 173.875 9.45V14H172.867V9.45C172.867 8.34867 172.242 7.798 170.991 7.798C170.413 7.798 169.801 7.89133 169.157 8.078V14H168.149V7.574C169.055 7.11667 170.039 6.888 171.103 6.888C172.009 6.888 172.69 7.07933 173.147 7.462C173.847 7.07933 174.631 6.888 175.499 6.888ZM182.483 14.21C182.007 14.21 181.601 14.1633 181.265 14.07C180.929 13.9767 180.56 13.8273 180.159 13.622V12.558C180.635 12.8287 181.022 13.02 181.321 13.132C181.629 13.2347 181.993 13.286 182.413 13.286C182.879 13.286 183.257 13.1833 183.547 12.978C183.845 12.7727 183.995 12.5067 183.995 12.18C183.995 11.8907 183.906 11.676 183.729 11.536C183.551 11.3867 183.271 11.2373 182.889 11.088L182.525 10.934C181.993 10.7847 181.577 10.6493 181.279 10.528C180.989 10.4067 180.733 10.2153 180.509 9.954C180.294 9.69267 180.187 9.338 180.187 8.89C180.187 8.442 180.303 8.06867 180.537 7.77C180.77 7.47133 181.073 7.252 181.447 7.112C181.82 6.96267 182.212 6.888 182.623 6.888C182.996 6.888 183.309 6.93 183.561 7.014C183.822 7.098 184.177 7.238 184.625 7.434V8.442C184.158 8.20867 183.799 8.04533 183.547 7.952C183.304 7.85867 183.015 7.812 182.679 7.812C182.268 7.812 181.918 7.896 181.629 8.064C181.339 8.22267 181.195 8.45133 181.195 8.75C181.195 8.99267 181.265 9.19333 181.405 9.352C181.554 9.50133 181.736 9.62267 181.951 9.716C182.175 9.8 182.473 9.89333 182.847 9.996C183.313 10.1453 183.682 10.2807 183.953 10.402C184.233 10.5233 184.475 10.7193 184.681 10.99C184.895 11.2513 185.003 11.606 185.003 12.054C185.003 12.53 184.881 12.9313 184.639 13.258C184.396 13.5753 184.079 13.8133 183.687 13.972C183.304 14.1307 182.903 14.21 182.483 14.21Z" transform="translate(-1 -3)" fill="#666666"/>
</svg>
