<svg width="212" height="51" viewBox="0 0 212 51" fill="none" xmlns="http://www.w3.org/2000/svg">
<rect width="210.992" height="51" transform="translate(0.992188)" fill="#E1DFE9"/>
<path d="M19.5292 26.002C20.0145 26.17 20.4112 26.4453 20.7192 26.828C21.0272 27.2107 21.1812 27.696 21.1812 28.284C21.1812 29.1987 20.8732 29.88 20.2572 30.328C19.6412 30.776 18.8058 31 17.7512 31H13.9712V21.662H17.4292C18.5212 21.662 19.3285 21.8813 19.8512 22.32C20.3832 22.7587 20.6492 23.384 20.6492 24.196C20.6492 24.6533 20.5465 25.0173 20.3412 25.288C20.1452 25.5493 19.8745 25.7873 19.5292 26.002ZM15.5112 25.554H17.6112C18.0498 25.554 18.4045 25.4653 18.6752 25.288C18.9552 25.1107 19.0952 24.7887 19.0952 24.322C19.0952 23.8273 18.9552 23.4773 18.6752 23.272C18.4045 23.0667 18.0078 22.964 17.4852 22.964H15.5112V25.554ZM17.7372 29.712C18.3065 29.712 18.7592 29.6047 19.0952 29.39C19.4312 29.166 19.5992 28.774 19.5992 28.214C19.5992 27.654 19.4218 27.2807 19.0672 27.094C18.7218 26.898 18.2645 26.8 17.6952 26.8H15.5252V29.712H17.7372ZM22.9519 24.616C23.2133 24.4573 23.6566 24.2847 24.2819 24.098C24.9073 23.9113 25.5279 23.818 26.1439 23.818C26.5173 23.818 26.8346 23.8787 27.0959 24V25.176C26.8346 25.1387 26.5219 25.12 26.1579 25.12C25.5419 25.12 24.9633 25.1667 24.4219 25.26V31H22.9519V24.616ZM31.6517 31.21C30.6717 31.21 29.9064 30.972 29.3557 30.496C28.8144 30.0107 28.5437 29.306 28.5437 28.382V23.972H30.0137V28.172C30.0137 28.7693 30.1444 29.2127 30.4057 29.502C30.6764 29.782 31.0917 29.922 31.6517 29.922C32.2117 29.922 32.6224 29.782 32.8837 29.502C33.1544 29.2127 33.2897 28.7693 33.2897 28.172V23.972H34.7037V28.382C34.7037 29.306 34.4377 30.0107 33.9057 30.496C33.3737 30.972 32.6224 31.21 31.6517 31.21ZM39.8682 31.14C38.8789 31.14 38.0529 30.8553 37.3902 30.286C36.7369 29.7167 36.4102 28.7973 36.4102 27.528C36.4102 26.2213 36.7322 25.2787 37.3762 24.7C38.0295 24.112 38.8555 23.818 39.8542 23.818C40.6102 23.818 41.3289 23.958 42.0102 24.238V25.554C41.3009 25.2553 40.6522 25.106 40.0642 25.106C39.3269 25.106 38.7762 25.2927 38.4122 25.666C38.0482 26.03 37.8662 26.6133 37.8662 27.416C37.8662 28.256 38.0435 28.872 38.3982 29.264C38.7529 29.6467 39.3222 29.838 40.1062 29.838C40.7409 29.838 41.3802 29.684 42.0242 29.376V30.692C41.3522 30.9907 40.6335 31.14 39.8682 31.14ZM48.0035 31L45.1755 27.85V31H43.7195V21.312H45.1895L45.1755 26.604L47.7375 23.972H49.5435L46.3515 27.024L49.9075 31H48.0035ZM53.5765 23.804C54.6685 23.804 55.4665 24.1587 55.9705 24.868C56.4838 25.568 56.7358 26.5527 56.7265 27.822H51.7985C51.8452 28.5127 52.0458 29.04 52.4005 29.404C52.7645 29.7587 53.2778 29.936 53.9405 29.936C54.3698 29.936 54.7805 29.8847 55.1725 29.782C55.5645 29.67 55.9098 29.53 56.2085 29.362V30.734C55.4805 31.0513 54.6452 31.21 53.7025 31.21C52.6478 31.21 51.8172 30.8927 51.2105 30.258C50.6132 29.614 50.3145 28.704 50.3145 27.528C50.3145 26.324 50.5992 25.4047 51.1685 24.77C51.7378 24.126 52.5405 23.804 53.5765 23.804ZM53.5345 25.008C53.0398 25.008 52.6525 25.1387 52.3725 25.4C52.0925 25.6613 51.9105 26.1047 51.8265 26.73H55.2285C55.1632 26.1327 54.9952 25.6987 54.7245 25.428C54.4538 25.148 54.0572 25.008 53.5345 25.008ZM58.4168 24.616C58.6781 24.4573 59.1214 24.2847 59.7468 24.098C60.3721 23.9113 60.9928 23.818 61.6088 23.818C61.9821 23.818 62.2994 23.8787 62.5608 24V25.176C62.2994 25.1387 61.9868 25.12 61.6228 25.12C61.0068 25.12 60.4281 25.1667 59.8868 25.26V31H58.4168V24.616ZM66.5146 31.182C65.8706 31.182 65.3666 31.0093 65.0026 30.664C64.6386 30.3187 64.4566 29.8287 64.4566 29.194V25.19H63.3226V23.972H64.4566V22.012H65.9686V23.972H67.6766V25.19H65.9686V28.9C65.9686 29.2453 66.0292 29.4973 66.1506 29.656C66.2719 29.8053 66.4866 29.88 66.7946 29.88C66.9439 29.88 67.0979 29.8613 67.2566 29.824C67.4246 29.7773 67.5646 29.7213 67.6766 29.656V30.958C67.3499 31.1073 66.9626 31.182 66.5146 31.182ZM72.4196 23.818C73.185 23.818 73.8336 24.0047 74.3656 24.378C74.907 24.742 75.173 25.3347 75.1636 26.156V29.516C75.1636 30.1507 74.8836 30.594 74.3236 30.846C73.7636 31.0887 72.9656 31.21 71.9296 31.21C71.099 31.21 70.413 31.0373 69.8716 30.692C69.3303 30.3467 69.0596 29.768 69.0596 28.956C69.0596 28.1907 69.279 27.6167 69.7176 27.234C70.1656 26.8513 70.7956 26.66 71.6076 26.66C72.4476 26.66 73.1476 26.828 73.7076 27.164V26.492C73.7076 25.54 73.1336 25.064 71.9856 25.064C71.575 25.064 71.1643 25.1293 70.7536 25.26C70.343 25.3813 70.0023 25.554 69.7316 25.778V24.406C69.993 24.238 70.371 24.098 70.8656 23.986C71.3696 23.874 71.8876 23.818 72.4196 23.818ZM72.0976 30.062C72.6856 30.062 73.101 30.02 73.3436 29.936C73.5863 29.852 73.7076 29.684 73.7076 29.432V28.074C73.2316 27.8687 72.709 27.766 72.1396 27.766C71.6076 27.766 71.2016 27.8593 70.9216 28.046C70.651 28.2327 70.5156 28.5127 70.5156 28.886C70.5156 29.278 70.6696 29.572 70.9776 29.768C71.295 29.964 71.6683 30.062 72.0976 30.062ZM80.575 23.818C81.3683 23.818 82.0216 23.972 82.535 24.28C83.0576 24.588 83.319 25.0407 83.319 25.638V31.21C83.319 32.0127 83.0576 32.666 82.535 33.17C82.0123 33.674 81.1816 33.926 80.043 33.926C79.2123 33.926 78.4563 33.8 77.775 33.548V32.204C78.5496 32.4933 79.2683 32.638 79.931 32.638C80.6776 32.638 81.1863 32.5027 81.457 32.232C81.7276 31.9707 81.863 31.6207 81.863 31.182V30.706C81.5923 30.8553 81.2936 30.9767 80.967 31.07C80.6496 31.1633 80.337 31.21 80.029 31.21C79.0023 31.1913 78.2183 30.8787 77.677 30.272C77.145 29.6653 76.879 28.802 76.879 27.682C76.879 26.226 77.215 25.218 77.887 24.658C78.559 24.098 79.455 23.818 80.575 23.818ZM78.377 27.64C78.377 28.368 78.5356 28.9467 78.853 29.376C79.1703 29.796 79.6416 30.006 80.267 30.006C80.8736 30.006 81.4056 29.8707 81.863 29.6V25.918C81.863 25.5913 81.737 25.3673 81.485 25.246C81.2423 25.1247 80.911 25.064 80.491 25.064C79.6976 25.064 79.147 25.2927 78.839 25.75C78.531 26.2073 78.377 26.8373 78.377 27.64ZM88.2484 23.804C89.3404 23.804 90.1384 24.1587 90.6424 24.868C91.1557 25.568 91.4077 26.5527 91.3984 27.822H86.4704C86.517 28.5127 86.7177 29.04 87.0724 29.404C87.4364 29.7587 87.9497 29.936 88.6124 29.936C89.0417 29.936 89.4524 29.8847 89.8444 29.782C90.2364 29.67 90.5817 29.53 90.8804 29.362V30.734C90.1524 31.0513 89.317 31.21 88.3744 31.21C87.3197 31.21 86.489 30.8927 85.8824 30.258C85.285 29.614 84.9864 28.704 84.9864 27.528C84.9864 26.324 85.271 25.4047 85.8404 24.77C86.4097 24.126 87.2124 23.804 88.2484 23.804ZM88.2064 25.008C87.7117 25.008 87.3244 25.1387 87.0444 25.4C86.7644 25.6613 86.5824 26.1047 86.4984 26.73H89.9004C89.835 26.1327 89.667 25.6987 89.3964 25.428C89.1257 25.148 88.729 25.008 88.2064 25.008ZM100.609 31.168C99.3212 31.168 98.3598 30.7667 97.7252 29.964C97.0905 29.1613 96.7732 27.9573 96.7732 26.352C96.7732 23.1413 98.0518 21.536 100.609 21.536C101.907 21.536 102.873 21.9373 103.507 22.74C104.142 23.5427 104.459 24.7467 104.459 26.352C104.459 27.9667 104.142 29.1753 103.507 29.978C102.882 30.7713 101.916 31.168 100.609 31.168ZM100.609 29.852C101.039 29.852 101.417 29.768 101.743 29.6C102.079 29.4227 102.355 29.0773 102.569 28.564C102.793 28.0507 102.905 27.3133 102.905 26.352C102.905 24.98 102.691 24.056 102.261 23.58C101.841 23.0947 101.291 22.852 100.609 22.852C99.9372 22.852 99.3865 23.0947 98.9572 23.58C98.5372 24.056 98.3272 24.98 98.3272 26.352C98.3272 27.7333 98.5372 28.662 98.9572 29.138C99.3772 29.614 99.9278 29.852 100.609 29.852ZM108.887 31.112C108.01 31.112 107.142 30.8973 106.283 30.468V29.04C107.132 29.544 107.958 29.796 108.761 29.796C109.47 29.796 110.016 29.67 110.399 29.418C110.782 29.1567 110.973 28.7833 110.973 28.298C110.973 27.794 110.782 27.4067 110.399 27.136C110.026 26.8653 109.466 26.73 108.719 26.73H107.543V25.456H108.747C109.316 25.456 109.75 25.344 110.049 25.12C110.357 24.8867 110.511 24.5693 110.511 24.168C110.511 23.7387 110.343 23.4167 110.007 23.202C109.671 22.978 109.2 22.866 108.593 22.866C108.229 22.866 107.879 22.908 107.543 22.992C107.207 23.076 106.857 23.2067 106.493 23.384V22.068C107.202 21.7133 107.954 21.536 108.747 21.536C109.41 21.536 109.984 21.648 110.469 21.872C110.954 22.0867 111.323 22.3853 111.575 22.768C111.827 23.1507 111.953 23.5847 111.953 24.07C111.953 24.4433 111.869 24.77 111.701 25.05C111.533 25.3207 111.342 25.5353 111.127 25.694C110.922 25.8433 110.768 25.9273 110.665 25.946C110.824 25.9833 111.038 26.1 111.309 26.296C111.589 26.492 111.836 26.7673 112.051 27.122C112.275 27.4673 112.387 27.878 112.387 28.354C112.387 28.8953 112.252 29.376 111.981 29.796C111.71 30.2067 111.309 30.5287 110.777 30.762C110.254 30.9953 109.624 31.112 108.887 31.112ZM114.429 29.362H116.095V31H114.429V29.362ZM118.192 26.184H122.462V27.374H118.192V26.184ZM128.158 31.168C126.87 31.168 125.909 30.7667 125.274 29.964C124.639 29.1613 124.322 27.9573 124.322 26.352C124.322 23.1413 125.601 21.536 128.158 21.536C129.455 21.536 130.421 21.9373 131.056 22.74C131.691 23.5427 132.008 24.7467 132.008 26.352C132.008 27.9667 131.691 29.1753 131.056 29.978C130.431 30.7713 129.465 31.168 128.158 31.168ZM128.158 29.852C128.587 29.852 128.965 29.768 129.292 29.6C129.628 29.4227 129.903 29.0773 130.118 28.564C130.342 28.0507 130.454 27.3133 130.454 26.352C130.454 24.98 130.239 24.056 129.81 23.58C129.39 23.0947 128.839 22.852 128.158 22.852C127.486 22.852 126.935 23.0947 126.506 23.58C126.086 24.056 125.876 24.98 125.876 26.352C125.876 27.7333 126.086 28.662 126.506 29.138C126.926 29.614 127.477 29.852 128.158 29.852ZM137.052 24.98C137.929 24.98 138.662 25.2133 139.25 25.68C139.838 26.1467 140.132 26.9213 140.132 28.004C140.132 29.152 139.814 29.964 139.18 30.44C138.545 30.9067 137.747 31.14 136.786 31.14C136.216 31.14 135.698 31.0793 135.232 30.958C134.765 30.8273 134.378 30.6687 134.07 30.482V28.984C134.331 29.1893 134.681 29.376 135.12 29.544C135.568 29.7027 136.072 29.782 136.632 29.782C137.929 29.782 138.578 29.2127 138.578 28.074C138.578 27.4207 138.41 26.9773 138.074 26.744C137.747 26.5013 137.304 26.38 136.744 26.38C136.23 26.38 135.829 26.422 135.54 26.506C135.26 26.59 134.989 26.688 134.728 26.8L133.93 25.96L134.462 21.662H139.474V23.062H135.568L135.344 25.19C135.866 25.05 136.436 24.98 137.052 24.98ZM141.869 29.362H143.535V31H141.869V29.362ZM149.103 31.168C147.815 31.168 146.854 30.7667 146.219 29.964C145.585 29.1613 145.267 27.9573 145.267 26.352C145.267 23.1413 146.546 21.536 149.103 21.536C150.401 21.536 151.367 21.9373 152.001 22.74C152.636 23.5427 152.953 24.7467 152.953 26.352C152.953 27.9667 152.636 29.1753 152.001 29.978C151.376 30.7713 150.41 31.168 149.103 31.168ZM149.103 29.852C149.533 29.852 149.911 29.768 150.237 29.6C150.573 29.4227 150.849 29.0773 151.063 28.564C151.287 28.0507 151.399 27.3133 151.399 26.352C151.399 24.98 151.185 24.056 150.755 23.58C150.335 23.0947 149.785 22.852 149.103 22.852C148.431 22.852 147.881 23.0947 147.451 23.58C147.031 24.056 146.821 24.98 146.821 26.352C146.821 27.7333 147.031 28.662 147.451 29.138C147.871 29.614 148.422 29.852 149.103 29.852ZM157.927 31.14C157.143 31.14 156.49 31.0093 155.967 30.748C155.444 30.4867 155.057 30.1413 154.805 29.712C154.562 29.2733 154.441 28.7973 154.441 28.284C154.441 27.64 154.618 27.15 154.973 26.814C155.328 26.4687 155.687 26.212 156.051 26.044C155.79 25.932 155.51 25.7127 155.211 25.386C154.912 25.0593 154.763 24.6113 154.763 24.042C154.763 23.286 155.02 22.6747 155.533 22.208C156.056 21.7413 156.854 21.508 157.927 21.508C159 21.508 159.798 21.7413 160.321 22.208C160.844 22.6747 161.105 23.286 161.105 24.042C161.105 24.6207 160.965 25.064 160.685 25.372C160.414 25.68 160.134 25.904 159.845 26.044C160.172 26.1747 160.512 26.4173 160.867 26.772C161.231 27.1267 161.413 27.6307 161.413 28.284C161.413 28.7973 161.292 29.2733 161.049 29.712C160.806 30.1413 160.424 30.4867 159.901 30.748C159.378 31.0093 158.72 31.14 157.927 31.14ZM157.927 25.554C158.403 25.554 158.786 25.428 159.075 25.176C159.374 24.924 159.523 24.5787 159.523 24.14C159.523 23.692 159.369 23.3653 159.061 23.16C158.753 22.9453 158.375 22.838 157.927 22.838C157.479 22.838 157.101 22.9453 156.793 23.16C156.485 23.3653 156.331 23.692 156.331 24.14C156.331 24.5787 156.48 24.924 156.779 25.176C157.078 25.428 157.46 25.554 157.927 25.554ZM157.927 29.838C158.655 29.838 159.15 29.656 159.411 29.292C159.682 28.9187 159.817 28.5313 159.817 28.13C159.817 27.6633 159.654 27.2947 159.327 27.024C159 26.7533 158.534 26.618 157.927 26.618C157.33 26.618 156.868 26.7533 156.541 27.024C156.214 27.2947 156.051 27.6633 156.051 28.13C156.051 28.5313 156.182 28.9187 156.443 29.292C156.714 29.656 157.208 29.838 157.927 29.838ZM163.129 29.362H164.795V31H163.129V29.362ZM172.995 29.544V31H166.821V29.81C167.446 29.39 168.1 28.8673 168.781 28.242C169.472 27.6167 170.06 26.9587 170.545 26.268C171.04 25.5773 171.287 24.9473 171.287 24.378C171.287 23.9207 171.133 23.552 170.825 23.272C170.517 22.9827 170.022 22.838 169.341 22.838C168.529 22.838 167.717 23.1413 166.905 23.748V22.292C167.773 21.7693 168.697 21.508 169.677 21.508C170.732 21.508 171.52 21.7647 172.043 22.278C172.575 22.782 172.841 23.44 172.841 24.252C172.841 25.1293 172.468 26.0113 171.721 26.898C170.974 27.7753 170.046 28.6573 168.935 29.544H172.995ZM178.662 31.168C177.374 31.168 176.413 30.7667 175.778 29.964C175.143 29.1613 174.826 27.9573 174.826 26.352C174.826 23.1413 176.105 21.536 178.662 21.536C179.959 21.536 180.925 21.9373 181.56 22.74C182.195 23.5427 182.512 24.7467 182.512 26.352C182.512 27.9667 182.195 29.1753 181.56 29.978C180.935 30.7713 179.969 31.168 178.662 31.168ZM178.662 29.852C179.091 29.852 179.469 29.768 179.796 29.6C180.132 29.4227 180.407 29.0773 180.622 28.564C180.846 28.0507 180.958 27.3133 180.958 26.352C180.958 24.98 180.743 24.056 180.314 23.58C179.894 23.0947 179.343 22.852 178.662 22.852C177.99 22.852 177.439 23.0947 177.01 23.58C176.59 24.056 176.38 24.98 176.38 26.352C176.38 27.7333 176.59 28.662 177.01 29.138C177.43 29.614 177.981 29.852 178.662 29.852ZM186.282 23.202L184.434 24.336V22.796L186.31 21.662H187.822V31H186.282V23.202ZM193.912 31.14C193.128 31.14 192.474 31.0093 191.952 30.748C191.429 30.4867 191.042 30.1413 190.79 29.712C190.547 29.2733 190.426 28.7973 190.426 28.284C190.426 27.64 190.603 27.15 190.958 26.814C191.312 26.4687 191.672 26.212 192.036 26.044C191.774 25.932 191.494 25.7127 191.196 25.386C190.897 25.0593 190.748 24.6113 190.748 24.042C190.748 23.286 191.004 22.6747 191.518 22.208C192.04 21.7413 192.838 21.508 193.912 21.508C194.985 21.508 195.783 21.7413 196.306 22.208C196.828 22.6747 197.09 23.286 197.09 24.042C197.09 24.6207 196.95 25.064 196.67 25.372C196.399 25.68 196.119 25.904 195.83 26.044C196.156 26.1747 196.497 26.4173 196.852 26.772C197.216 27.1267 197.398 27.6307 197.398 28.284C197.398 28.7973 197.276 29.2733 197.034 29.712C196.791 30.1413 196.408 30.4867 195.886 30.748C195.363 31.0093 194.705 31.14 193.912 31.14ZM193.912 25.554C194.388 25.554 194.77 25.428 195.06 25.176C195.358 24.924 195.508 24.5787 195.508 24.14C195.508 23.692 195.354 23.3653 195.046 23.16C194.738 22.9453 194.36 22.838 193.912 22.838C193.464 22.838 193.086 22.9453 192.778 23.16C192.47 23.3653 192.316 23.692 192.316 24.14C192.316 24.5787 192.465 24.924 192.764 25.176C193.062 25.428 193.445 25.554 193.912 25.554ZM193.912 29.838C194.64 29.838 195.134 29.656 195.396 29.292C195.666 28.9187 195.802 28.5313 195.802 28.13C195.802 27.6633 195.638 27.2947 195.312 27.024C194.985 26.7533 194.518 26.618 193.912 26.618C193.314 26.618 192.852 26.7533 192.526 27.024C192.199 27.2947 192.036 27.6633 192.036 28.13C192.036 28.5313 192.166 28.9187 192.428 29.292C192.698 29.656 193.193 29.838 193.912 29.838Z" transform="translate(1)" fill="#6B5795"/>
<rect width="210.992" height="4" transform="translate(1 47)" fill="#7256AE"/>
</svg>
