<svg width="212" height="51" viewBox="0 0 212 51" fill="none" xmlns="http://www.w3.org/2000/svg">
<rect width="211" height="51" transform="translate(0.992188)" fill="#E1DFE9"/>
<path d="M19.5331 26.002C20.0184 26.17 20.4151 26.4453 20.7231 26.828C21.0311 27.2107 21.1851 27.696 21.1851 28.284C21.1851 29.1987 20.8771 29.88 20.2611 30.328C19.6451 30.776 18.8097 31 17.7551 31H13.9751V21.662H17.4331C18.5251 21.662 19.3324 21.8813 19.8551 22.32C20.3871 22.7587 20.6531 23.384 20.6531 24.196C20.6531 24.6533 20.5504 25.0173 20.3451 25.288C20.1491 25.5493 19.8784 25.7873 19.5331 26.002ZM15.5151 25.554H17.6151C18.0537 25.554 18.4084 25.4653 18.6791 25.288C18.9591 25.1107 19.0991 24.7887 19.0991 24.322C19.0991 23.8273 18.9591 23.4773 18.6791 23.272C18.4084 23.0667 18.0117 22.964 17.4891 22.964H15.5151V25.554ZM17.7411 29.712C18.3104 29.712 18.7631 29.6047 19.0991 29.39C19.4351 29.166 19.6031 28.774 19.6031 28.214C19.6031 27.654 19.4257 27.2807 19.0711 27.094C18.7257 26.898 18.2684 26.8 17.6991 26.8H15.5291V29.712H17.7411ZM22.9558 24.616C23.2172 24.4573 23.6605 24.2847 24.2858 24.098C24.9112 23.9113 25.5318 23.818 26.1478 23.818C26.5212 23.818 26.8385 23.8787 27.0998 24V25.176C26.8385 25.1387 26.5258 25.12 26.1618 25.12C25.5458 25.12 24.9672 25.1667 24.4258 25.26V31H22.9558V24.616ZM31.6556 31.21C30.6756 31.21 29.9103 30.972 29.3596 30.496C28.8183 30.0107 28.5476 29.306 28.5476 28.382V23.972H30.0176V28.172C30.0176 28.7693 30.1483 29.2127 30.4096 29.502C30.6803 29.782 31.0956 29.922 31.6556 29.922C32.2156 29.922 32.6263 29.782 32.8876 29.502C33.1583 29.2127 33.2936 28.7693 33.2936 28.172V23.972H34.7076V28.382C34.7076 29.306 34.4416 30.0107 33.9096 30.496C33.3776 30.972 32.6263 31.21 31.6556 31.21ZM39.8721 31.14C38.8828 31.14 38.0568 30.8553 37.3941 30.286C36.7408 29.7167 36.4141 28.7973 36.4141 27.528C36.4141 26.2213 36.7361 25.2787 37.3801 24.7C38.0334 24.112 38.8594 23.818 39.8581 23.818C40.6141 23.818 41.3328 23.958 42.0141 24.238V25.554C41.3048 25.2553 40.6561 25.106 40.0681 25.106C39.3308 25.106 38.7801 25.2927 38.4161 25.666C38.0521 26.03 37.8701 26.6133 37.8701 27.416C37.8701 28.256 38.0474 28.872 38.4021 29.264C38.7568 29.6467 39.3261 29.838 40.1101 29.838C40.7448 29.838 41.3841 29.684 42.0281 29.376V30.692C41.3561 30.9907 40.6374 31.14 39.8721 31.14ZM48.0074 31L45.1794 27.85V31H43.7234V21.312H45.1934L45.1794 26.604L47.7414 23.972H49.5474L46.3554 27.024L49.9114 31H48.0074ZM53.5804 23.804C54.6724 23.804 55.4704 24.1587 55.9744 24.868C56.4877 25.568 56.7397 26.5527 56.7304 27.822H51.8024C51.8491 28.5127 52.0497 29.04 52.4044 29.404C52.7684 29.7587 53.2817 29.936 53.9444 29.936C54.3737 29.936 54.7844 29.8847 55.1764 29.782C55.5684 29.67 55.9137 29.53 56.2124 29.362V30.734C55.4844 31.0513 54.6491 31.21 53.7064 31.21C52.6517 31.21 51.8211 30.8927 51.2144 30.258C50.6171 29.614 50.3184 28.704 50.3184 27.528C50.3184 26.324 50.6031 25.4047 51.1724 24.77C51.7417 24.126 52.5444 23.804 53.5804 23.804ZM53.5384 25.008C53.0437 25.008 52.6564 25.1387 52.3764 25.4C52.0964 25.6613 51.9144 26.1047 51.8304 26.73H55.2324C55.1671 26.1327 54.9991 25.6987 54.7284 25.428C54.4577 25.148 54.0611 25.008 53.5384 25.008ZM58.4207 24.616C58.682 24.4573 59.1254 24.2847 59.7507 24.098C60.376 23.9113 60.9967 23.818 61.6127 23.818C61.986 23.818 62.3034 23.8787 62.5647 24V25.176C62.3034 25.1387 61.9907 25.12 61.6267 25.12C61.0107 25.12 60.432 25.1667 59.8907 25.26V31H58.4207V24.616ZM66.5185 31.182C65.8745 31.182 65.3705 31.0093 65.0065 30.664C64.6425 30.3187 64.4605 29.8287 64.4605 29.194V25.19H63.3265V23.972H64.4605V22.012H65.9725V23.972H67.6805V25.19H65.9725V28.9C65.9725 29.2453 66.0332 29.4973 66.1545 29.656C66.2758 29.8053 66.4905 29.88 66.7985 29.88C66.9478 29.88 67.1018 29.8613 67.2605 29.824C67.4285 29.7773 67.5685 29.7213 67.6805 29.656V30.958C67.3538 31.1073 66.9665 31.182 66.5185 31.182ZM72.4235 23.818C73.1889 23.818 73.8375 24.0047 74.3695 24.378C74.9109 24.742 75.1769 25.3347 75.1675 26.156V29.516C75.1675 30.1507 74.8875 30.594 74.3275 30.846C73.7675 31.0887 72.9695 31.21 71.9335 31.21C71.1029 31.21 70.4169 31.0373 69.8755 30.692C69.3342 30.3467 69.0635 29.768 69.0635 28.956C69.0635 28.1907 69.2829 27.6167 69.7215 27.234C70.1695 26.8513 70.7995 26.66 71.6115 26.66C72.4515 26.66 73.1515 26.828 73.7115 27.164V26.492C73.7115 25.54 73.1375 25.064 71.9895 25.064C71.5789 25.064 71.1682 25.1293 70.7575 25.26C70.3469 25.3813 70.0062 25.554 69.7355 25.778V24.406C69.9969 24.238 70.3749 24.098 70.8695 23.986C71.3735 23.874 71.8915 23.818 72.4235 23.818ZM72.1015 30.062C72.6895 30.062 73.1049 30.02 73.3475 29.936C73.5902 29.852 73.7115 29.684 73.7115 29.432V28.074C73.2355 27.8687 72.7129 27.766 72.1435 27.766C71.6115 27.766 71.2055 27.8593 70.9255 28.046C70.6549 28.2327 70.5195 28.5127 70.5195 28.886C70.5195 29.278 70.6735 29.572 70.9815 29.768C71.2989 29.964 71.6722 30.062 72.1015 30.062ZM80.5789 23.818C81.3722 23.818 82.0255 23.972 82.5389 24.28C83.0615 24.588 83.3229 25.0407 83.3229 25.638V31.21C83.3229 32.0127 83.0615 32.666 82.5389 33.17C82.0162 33.674 81.1855 33.926 80.0469 33.926C79.2162 33.926 78.4602 33.8 77.7789 33.548V32.204C78.5535 32.4933 79.2722 32.638 79.9349 32.638C80.6815 32.638 81.1902 32.5027 81.4609 32.232C81.7315 31.9707 81.8669 31.6207 81.8669 31.182V30.706C81.5962 30.8553 81.2975 30.9767 80.9709 31.07C80.6535 31.1633 80.3409 31.21 80.0329 31.21C79.0062 31.1913 78.2222 30.8787 77.6809 30.272C77.1489 29.6653 76.8829 28.802 76.8829 27.682C76.8829 26.226 77.2189 25.218 77.8909 24.658C78.5629 24.098 79.4589 23.818 80.5789 23.818ZM78.3809 27.64C78.3809 28.368 78.5395 28.9467 78.8569 29.376C79.1742 29.796 79.6455 30.006 80.2709 30.006C80.8775 30.006 81.4095 29.8707 81.8669 29.6V25.918C81.8669 25.5913 81.7409 25.3673 81.4889 25.246C81.2462 25.1247 80.9149 25.064 80.4949 25.064C79.7015 25.064 79.1509 25.2927 78.8429 25.75C78.5349 26.2073 78.3809 26.8373 78.3809 27.64ZM88.2523 23.804C89.3443 23.804 90.1423 24.1587 90.6463 24.868C91.1596 25.568 91.4116 26.5527 91.4023 27.822H86.4743C86.5209 28.5127 86.7216 29.04 87.0763 29.404C87.4403 29.7587 87.9536 29.936 88.6163 29.936C89.0456 29.936 89.4563 29.8847 89.8483 29.782C90.2403 29.67 90.5856 29.53 90.8843 29.362V30.734C90.1563 31.0513 89.3209 31.21 88.3783 31.21C87.3236 31.21 86.4929 30.8927 85.8863 30.258C85.2889 29.614 84.9903 28.704 84.9903 27.528C84.9903 26.324 85.2749 25.4047 85.8443 24.77C86.4136 24.126 87.2163 23.804 88.2523 23.804ZM88.2103 25.008C87.7156 25.008 87.3283 25.1387 87.0483 25.4C86.7683 25.6613 86.5863 26.1047 86.5023 26.73H89.9043C89.8389 26.1327 89.6709 25.6987 89.4003 25.428C89.1296 25.148 88.7329 25.008 88.2103 25.008ZM100.613 31.168C99.3251 31.168 98.3637 30.7667 97.7291 29.964C97.0944 29.1613 96.7771 27.9573 96.7771 26.352C96.7771 23.1413 98.0557 21.536 100.613 21.536C101.91 21.536 102.876 21.9373 103.511 22.74C104.146 23.5427 104.463 24.7467 104.463 26.352C104.463 27.9667 104.146 29.1753 103.511 29.978C102.886 30.7713 101.92 31.168 100.613 31.168ZM100.613 29.852C101.042 29.852 101.42 29.768 101.747 29.6C102.083 29.4227 102.358 29.0773 102.573 28.564C102.797 28.0507 102.909 27.3133 102.909 26.352C102.909 24.98 102.694 24.056 102.265 23.58C101.845 23.0947 101.294 22.852 100.613 22.852C99.9411 22.852 99.3904 23.0947 98.9611 23.58C98.5411 24.056 98.3311 24.98 98.3311 26.352C98.3311 27.7333 98.5411 28.662 98.9611 29.138C99.3811 29.614 99.9317 29.852 100.613 29.852ZM108.891 31.112C108.014 31.112 107.146 30.8973 106.287 30.468V29.04C107.136 29.544 107.962 29.796 108.765 29.796C109.474 29.796 110.02 29.67 110.403 29.418C110.786 29.1567 110.977 28.7833 110.977 28.298C110.977 27.794 110.786 27.4067 110.403 27.136C110.03 26.8653 109.47 26.73 108.723 26.73H107.547V25.456H108.751C109.32 25.456 109.754 25.344 110.053 25.12C110.361 24.8867 110.515 24.5693 110.515 24.168C110.515 23.7387 110.347 23.4167 110.011 23.202C109.675 22.978 109.204 22.866 108.597 22.866C108.233 22.866 107.883 22.908 107.547 22.992C107.211 23.076 106.861 23.2067 106.497 23.384V22.068C107.206 21.7133 107.958 21.536 108.751 21.536C109.414 21.536 109.988 21.648 110.473 21.872C110.958 22.0867 111.327 22.3853 111.579 22.768C111.831 23.1507 111.957 23.5847 111.957 24.07C111.957 24.4433 111.873 24.77 111.705 25.05C111.537 25.3207 111.346 25.5353 111.131 25.694C110.926 25.8433 110.772 25.9273 110.669 25.946C110.828 25.9833 111.042 26.1 111.313 26.296C111.593 26.492 111.84 26.7673 112.055 27.122C112.279 27.4673 112.391 27.878 112.391 28.354C112.391 28.8953 112.256 29.376 111.985 29.796C111.714 30.2067 111.313 30.5287 110.781 30.762C110.258 30.9953 109.628 31.112 108.891 31.112ZM114.433 29.362H116.099V31H114.433V29.362ZM118.196 26.184H122.466V27.374H118.196V26.184ZM128.162 31.168C126.874 31.168 125.913 30.7667 125.278 29.964C124.643 29.1613 124.326 27.9573 124.326 26.352C124.326 23.1413 125.605 21.536 128.162 21.536C129.459 21.536 130.425 21.9373 131.06 22.74C131.695 23.5427 132.012 24.7467 132.012 26.352C132.012 27.9667 131.695 29.1753 131.06 29.978C130.435 30.7713 129.469 31.168 128.162 31.168ZM128.162 29.852C128.591 29.852 128.969 29.768 129.296 29.6C129.632 29.4227 129.907 29.0773 130.122 28.564C130.346 28.0507 130.458 27.3133 130.458 26.352C130.458 24.98 130.243 24.056 129.814 23.58C129.394 23.0947 128.843 22.852 128.162 22.852C127.49 22.852 126.939 23.0947 126.51 23.58C126.09 24.056 125.88 24.98 125.88 26.352C125.88 27.7333 126.09 28.662 126.51 29.138C126.93 29.614 127.481 29.852 128.162 29.852ZM137.056 24.98C137.933 24.98 138.666 25.2133 139.254 25.68C139.842 26.1467 140.136 26.9213 140.136 28.004C140.136 29.152 139.818 29.964 139.184 30.44C138.549 30.9067 137.751 31.14 136.79 31.14C136.22 31.14 135.702 31.0793 135.236 30.958C134.769 30.8273 134.382 30.6687 134.074 30.482V28.984C134.335 29.1893 134.685 29.376 135.124 29.544C135.572 29.7027 136.076 29.782 136.636 29.782C137.933 29.782 138.582 29.2127 138.582 28.074C138.582 27.4207 138.414 26.9773 138.078 26.744C137.751 26.5013 137.308 26.38 136.748 26.38C136.234 26.38 135.833 26.422 135.544 26.506C135.264 26.59 134.993 26.688 134.732 26.8L133.934 25.96L134.466 21.662H139.478V23.062H135.572L135.348 25.19C135.87 25.05 136.44 24.98 137.056 24.98ZM141.873 29.362H143.539V31H141.873V29.362ZM149.107 31.168C147.819 31.168 146.858 30.7667 146.223 29.964C145.589 29.1613 145.271 27.9573 145.271 26.352C145.271 23.1413 146.55 21.536 149.107 21.536C150.405 21.536 151.371 21.9373 152.005 22.74C152.64 23.5427 152.957 24.7467 152.957 26.352C152.957 27.9667 152.64 29.1753 152.005 29.978C151.38 30.7713 150.414 31.168 149.107 31.168ZM149.107 29.852C149.537 29.852 149.915 29.768 150.241 29.6C150.577 29.4227 150.853 29.0773 151.067 28.564C151.291 28.0507 151.403 27.3133 151.403 26.352C151.403 24.98 151.189 24.056 150.759 23.58C150.339 23.0947 149.789 22.852 149.107 22.852C148.435 22.852 147.885 23.0947 147.455 23.58C147.035 24.056 146.825 24.98 146.825 26.352C146.825 27.7333 147.035 28.662 147.455 29.138C147.875 29.614 148.426 29.852 149.107 29.852ZM157.931 31.14C157.147 31.14 156.494 31.0093 155.971 30.748C155.448 30.4867 155.061 30.1413 154.809 29.712C154.566 29.2733 154.445 28.7973 154.445 28.284C154.445 27.64 154.622 27.15 154.977 26.814C155.332 26.4687 155.691 26.212 156.055 26.044C155.794 25.932 155.514 25.7127 155.215 25.386C154.916 25.0593 154.767 24.6113 154.767 24.042C154.767 23.286 155.024 22.6747 155.537 22.208C156.06 21.7413 156.858 21.508 157.931 21.508C159.004 21.508 159.802 21.7413 160.325 22.208C160.848 22.6747 161.109 23.286 161.109 24.042C161.109 24.6207 160.969 25.064 160.689 25.372C160.418 25.68 160.138 25.904 159.849 26.044C160.176 26.1747 160.516 26.4173 160.871 26.772C161.235 27.1267 161.417 27.6307 161.417 28.284C161.417 28.7973 161.296 29.2733 161.053 29.712C160.81 30.1413 160.428 30.4867 159.905 30.748C159.382 31.0093 158.724 31.14 157.931 31.14ZM157.931 25.554C158.407 25.554 158.79 25.428 159.079 25.176C159.378 24.924 159.527 24.5787 159.527 24.14C159.527 23.692 159.373 23.3653 159.065 23.16C158.757 22.9453 158.379 22.838 157.931 22.838C157.483 22.838 157.105 22.9453 156.797 23.16C156.489 23.3653 156.335 23.692 156.335 24.14C156.335 24.5787 156.484 24.924 156.783 25.176C157.082 25.428 157.464 25.554 157.931 25.554ZM157.931 29.838C158.659 29.838 159.154 29.656 159.415 29.292C159.686 28.9187 159.821 28.5313 159.821 28.13C159.821 27.6633 159.658 27.2947 159.331 27.024C159.004 26.7533 158.538 26.618 157.931 26.618C157.334 26.618 156.872 26.7533 156.545 27.024C156.218 27.2947 156.055 27.6633 156.055 28.13C156.055 28.5313 156.186 28.9187 156.447 29.292C156.718 29.656 157.212 29.838 157.931 29.838ZM163.133 29.362H164.799V31H163.133V29.362ZM172.999 29.544V31H166.825V29.81C167.45 29.39 168.104 28.8673 168.785 28.242C169.476 27.6167 170.064 26.9587 170.549 26.268C171.044 25.5773 171.291 24.9473 171.291 24.378C171.291 23.9207 171.137 23.552 170.829 23.272C170.521 22.9827 170.026 22.838 169.345 22.838C168.533 22.838 167.721 23.1413 166.909 23.748V22.292C167.777 21.7693 168.701 21.508 169.681 21.508C170.736 21.508 171.524 21.7647 172.047 22.278C172.579 22.782 172.845 23.44 172.845 24.252C172.845 25.1293 172.472 26.0113 171.725 26.898C170.978 27.7753 170.05 28.6573 168.939 29.544H172.999ZM178.666 31.168C177.378 31.168 176.416 30.7667 175.782 29.964C175.147 29.1613 174.83 27.9573 174.83 26.352C174.83 23.1413 176.108 21.536 178.666 21.536C179.963 21.536 180.929 21.9373 181.564 22.74C182.198 23.5427 182.516 24.7467 182.516 26.352C182.516 27.9667 182.198 29.1753 181.564 29.978C180.938 30.7713 179.972 31.168 178.666 31.168ZM178.666 29.852C179.095 29.852 179.473 29.768 179.8 29.6C180.136 29.4227 180.411 29.0773 180.626 28.564C180.85 28.0507 180.962 27.3133 180.962 26.352C180.962 24.98 180.747 24.056 180.318 23.58C179.898 23.0947 179.347 22.852 178.666 22.852C177.994 22.852 177.443 23.0947 177.014 23.58C176.594 24.056 176.384 24.98 176.384 26.352C176.384 27.7333 176.594 28.662 177.014 29.138C177.434 29.614 177.984 29.852 178.666 29.852ZM186.286 23.202L184.438 24.336V22.796L186.314 21.662H187.826V31H186.286V23.202ZM193.915 31.14C193.131 31.14 192.478 31.0093 191.955 30.748C191.433 30.4867 191.045 30.1413 190.793 29.712C190.551 29.2733 190.429 28.7973 190.429 28.284C190.429 27.64 190.607 27.15 190.961 26.814C191.316 26.4687 191.675 26.212 192.039 26.044C191.778 25.932 191.498 25.7127 191.199 25.386C190.901 25.0593 190.751 24.6113 190.751 24.042C190.751 23.286 191.008 22.6747 191.521 22.208C192.044 21.7413 192.842 21.508 193.915 21.508C194.989 21.508 195.787 21.7413 196.309 22.208C196.832 22.6747 197.093 23.286 197.093 24.042C197.093 24.6207 196.953 25.064 196.673 25.372C196.403 25.68 196.123 25.904 195.833 26.044C196.16 26.1747 196.501 26.4173 196.855 26.772C197.219 27.1267 197.401 27.6307 197.401 28.284C197.401 28.7973 197.28 29.2733 197.037 29.712C196.795 30.1413 196.412 30.4867 195.889 30.748C195.367 31.0093 194.709 31.14 193.915 31.14ZM193.915 25.554C194.391 25.554 194.774 25.428 195.063 25.176C195.362 24.924 195.511 24.5787 195.511 24.14C195.511 23.692 195.357 23.3653 195.049 23.16C194.741 22.9453 194.363 22.838 193.915 22.838C193.467 22.838 193.089 22.9453 192.781 23.16C192.473 23.3653 192.319 23.692 192.319 24.14C192.319 24.5787 192.469 24.924 192.767 25.176C193.066 25.428 193.449 25.554 193.915 25.554ZM193.915 29.838C194.643 29.838 195.138 29.656 195.399 29.292C195.67 28.9187 195.805 28.5313 195.805 28.13C195.805 27.6633 195.642 27.2947 195.315 27.024C194.989 26.7533 194.522 26.618 193.915 26.618C193.318 26.618 192.856 26.7533 192.529 27.024C192.203 27.2947 192.039 27.6633 192.039 28.13C192.039 28.5313 192.17 28.9187 192.431 29.292C192.702 29.656 193.197 29.838 193.915 29.838Z" transform="translate(1)" fill="#6B5795"/>
</svg>
