<svg width="625" height="594" viewBox="0 0 625 594" fill="none" xmlns="http://www.w3.org/2000/svg">
<path d="M144.012 319.169C87.0277 363.962 16.1244 363.622 1.89057 440.387C-27.2306 597.44 288.546 575.199 365.574 440.387C392.363 393.501 366.512 343.81 400.129 302.923C425.122 272.526 457.366 283.081 483.644 254.099C509.238 225.871 525.518 204.051 528.316 163.765C534.853 69.6705 398.46 135.286 323.774 92.9986C306.571 83.2581 279.998 87.8944 280.602 66.1646C281.096 48.3895 301.478 50.3451 310.827 36.037C346.572 -18.6743 204.792 -4.85614 156.702 36.037C140.791 49.5662 120.25 56.8442 122.875 79.1457C125.813 104.09 153.985 96.8047 174.708 106.028C209.329 121.437 244.525 101.932 266.197 136.107C277.337 153.675 282.339 167.478 280.602 189C276.764 236.558 257.55 255.66 220.294 278.218C193.782 294.271 168.704 299.76 144.012 319.169Z" transform="translate(0 45.6574) rotate(-4.95087)" fill="#DDF1FD"/>
<path d="M39.2522 167.609C32.4398 169.836 26.0791 165.383 19.9219 163.284C18.9423 162.953 17.9882 162.578 17.0596 162.158C13.2859 160.498 9.90742 158.056 7.14755 154.993C4.38768 151.931 2.30924 148.317 1.0496 144.391C0.684656 143.431 0.413066 142.437 0.238603 141.424C-1.4788 131.456 6.37989 120.929 14.0128 114.39C14.0128 108.423 18.9773 96.2797 21.4612 90.9524C1.0337 52.5985 18.6243 40.8783 29.9719 39.8129C-3.00854 -8.13024 39.5479 -5.98657 46.9932 11.0483C87.8482 -2.58978 77.4929 35.9072 67.2076 56.8477C84.2289 61.9747 77.8459 94.5018 72.5156 110.128C88.2266 124.122 78.1576 155.431 55.8187 163.185C54.6311 163.597 53.4205 163.939 52.1931 164.209C48.6459 165.057 45.1475 166.005 41.6979 167.053C40.9314 167.253 40.1109 167.441 39.2522 167.609Z" transform="translate(223.352 65.5512)" fill="#A090C1"/>
<path d="M37.2631 122.493C35.4315 121.891 33.4532 121.906 31.6306 122.534C25.906 124.443 20.1813 126.351 14.7524 122.156C13.8259 121.605 12.9216 121.026 12.0396 120.419C7.74125 117.49 3.99533 113.822 0.975063 109.587C0.546299 108.57 0.255379 107.5 0.110012 106.406C-0.0366645 105.245 -0.0366645 104.069 0.110012 102.908C0.300805 101.763 0.564242 100.631 0.898737 99.5203C1.93562 96.0881 3.62328 92.8876 5.86965 90.0932C6.25321 89.3193 6.57233 88.5151 6.82376 87.6887C8.1627 80.6916 10.2808 74.0634 12.6534 67.607C12.9937 66.6846 13.3372 65.7654 13.6806 64.8431C15.9069 59.0705 15.5888 53.2565 14.2849 47.557C14.1004 46.7428 13.8969 45.9317 13.6743 45.1239C9.36806 35.0703 10.3222 20.758 22.7447 17.3802C23.6543 16.9095 24.5448 16.4261 25.413 15.8854C28.886 13.764 31.9741 11.0955 34.318 7.40933C34.9437 6.54263 35.4368 5.58753 35.781 4.57549C36.1648 3.43457 36.3739 2.24218 36.4012 1.03875C36.7192 0.402649 37.3553 -0.233454 37.9914 0.0845974C42.4439 1.03875 44.0341 5.49148 46.0822 9.45122C46.537 10.3831 46.9409 11.3245 47.3098 12.2755C49.1544 17.0463 50.1086 22.0079 51.8673 26.6705C52.1853 27.6247 52.5543 28.5788 52.9359 29.533C53.3175 30.4872 53.7278 31.3936 54.1762 32.3032C54.6629 32.9885 55.2251 33.6169 55.8523 34.1766C56.5221 34.7694 57.2636 35.2758 58.0595 35.6841C58.6757 36.1119 59.2065 36.6512 59.6242 37.2744C60.432 38.5211 60.731 40.1718 60.2603 42.3982C59.3062 46.5329 57.0799 50.6675 58.7464 55.0503C59.2305 55.6924 59.6026 56.4118 59.8468 57.1781C61.2653 62.0474 54.0999 67.4066 53.2635 73.2492C53.2635 74.2034 53.2635 75.1575 53.6165 76.0449C54.1137 76.8688 54.5393 77.7339 54.8886 78.6306C57.2103 84.5369 54.6056 90.6435 55.1876 96.626C55.1653 97.7392 55.1081 98.8524 55.1145 99.9274C54.5293 103.451 58.6637 105.996 56.7555 108.858C56.3002 109.552 55.7908 110.208 55.2321 110.821C53.9441 112.001 52.6878 113.171 51.4857 114.338C50.9323 114.974 50.3662 115.579 49.7969 116.196C49.2276 116.813 48.6488 117.427 48.0795 118.044C45.9423 120.626 42.7619 121.898 39.1617 122.48C38.5734 122.506 37.9373 122.509 37.2631 122.493Z" transform="translate(232.114 95.0414)" fill="#9681C2"/>
<path d="M25.56 93.9118C-12.2863 87.0482 0.342897 76.0532 10.3738 66.6929C10.3738 62.3261 11.7063 53.4365 13.3792 49.5372C5.96896 32.9667 13.3792 7.43354 25.56 0.907121C38.3196 -3.72053 33.2724 10.6999 39.8144 13.9631C46.3564 17.2264 45.167 31.844 41.4523 40.0752C52.9016 43.8186 40.9466 55.2621 37.3624 66.6993C50.2556 79.1701 47.7717 97.9415 25.56 93.9118Z" transform="translate(238.614 114.526)" fill="#8C74C0"/>
<g filter="url(#filter0_i)">
<path d="M1.80963 135.302H7.13038L8.19263 86.297L18.831 66.053L8.19263 80.9696L9.25804 70.3149C11.7387 58.2289 16.7033 33.4527 16.7033 30.8955C16.7033 29.1113 16.7033 14.7544 15.9782 6.2529C15.9018 2.58258 15.5138 0 14.5756 0C15.2117 0 15.6665 2.5794 15.9782 6.2529C16.1658 15.0629 14.5756 30.1449 14.5756 30.8955C14.5756 31.7479 11.0295 46.8776 9.25804 54.3328L3.57791 42.3263L2.71286 40.4975C1.56661 38.4519 0.656479 36.2827 0 34.0315C0.636073 35.9398 0.636064 38.1662 1.66014 40.0236C1.88595 40.7106 2.12448 41.4326 2.37572 42.1832L8.19263 59.6601L5.01226 77.7732L1.80963 135.302Z" transform="translate(257.385 120.02)" fill="#937B7B"/>
</g>
<path d="M479.274 53.2369H438.638V46.4083C417.058 46.8724 351.986 32.1543 351.986 32.1543C351.986 32.1543 261.748 0 238.774 0C208.562 0 127.554 32.1543 127.554 32.1543C127.554 32.1543 94.155 54.5629 33.5983 50.0547H0V126.628H33.5983V126.96H127.554C142.826 57.6789 280.274 -22.5412 348.666 126.96H438.638V126.429H479.341V53.2369H479.274Z" transform="translate(104.581 182.653)" fill="#605B52"/>
<path d="M0 69.6124H25.896M2.656 92.8166H15.936M0 60.3308H13.28M0 104.087L39.1759 106.076M44.4879 82.209L87.6479 82.8719M23.24 94.1425L64.4079 94.8055M72.3759 94.8055H81.6719M48.4719 104.087L79.6799 106.076M32.5359 72.2643L75.0319 72.9273M53.7839 60.9937L102.92 60.3308M23.24 50.3861H84.3279M87.6479 50.3861H111.552M84.3279 37.1266H132.136M111.552 25.1931L148.736 25.856M155.376 13.2595L192.56 13.9225M195.88 7.29274H214.472M214.405 10.6076L250.261 9.94464M236.317 20.5522L272.173 19.8893M264.205 31.8228L291.429 30.4969M298.069 35.1377L319.317 33.8118M277.485 45.0823L308.693 43.7564M293.488 55.027L322.703 55.6899M322.637 44.4194L354.509 43.7564M331.335 55.027H367.191M370.445 55.6899L395.013 55.027M308.76 66.9605L395.079 68.9495M326.023 79.5571L367.191 78.8941M308.76 79.5571H319.383M315.4 91.4906L363.871 90.8276M373.167 82.209H395.079M367.191 94.1425L395.079 95.4685M319.383 105.413L395.079 106.142M148.736 17.2374H155.376M0 82.8719H42.4959M78.3519 72.2643H96.9438M23.24 60.3308H41.8319M7.30399 73.5903V82.8719M7.30399 46.4083V60.9937M37.1839 51.0491V60.9937M51.7919 51.0491V60.9937M84.9919 51.7121V61.6567M90.9679 61.6567V71.6014M74.3679 61.6567V71.6014M61.0879 61.6567V71.6014M43.8239 62.9827V72.9273M31.208 60.9937V70.9384M13.944 59.6678V69.6124M15.272 83.5349V93.4795M32.5359 83.5349V93.4795M47.1439 83.5349V93.4795M53.1199 72.2643V82.209M38.5119 72.2643V82.209M41.8319 94.8055V104.75M53.1199 94.8055V104.75M23.904 94.8055V104.75M7.96799 93.4795V103.424M17.264 105.413V115.358M32.5359 105.413V115.358M49.1359 105.413V115.358M65.0719 105.413V115.358M62.4159 82.8719V92.8166M77.6879 82.8719V92.8166M69.0559 72.9273V82.8719M69.0559 50.3861V60.3308M23.904 50.3861V60.3308M45.1519 43.7564V50.3861M60.4239 40.4415L61.0879 50.3861M1.992 83.5349V93.4795M82.3359 51.0491V60.9937M103.584 51.7121V61.6567M77.6879 39.1156V49.0602M93.6239 39.1156V49.0602M115.536 39.1156V49.0602M104.912 25.856V35.8007M119.52 25.856V35.8007M131.472 26.519V36.4637M138.776 15.2484V25.1931M152.056 17.2374V27.182M174.632 13.2595V20.5522M204.512 8.09296e-06V7.29274M224.432 2.65191V9.94464M239.704 9.28166V20.5522M265.6 20.5522V31.8228M278.88 20.5522V31.8228M283.528 31.8228V43.0934M288.84 43.7564V53.701M298.8 44.4194V54.364M308.096 44.4194V54.364M306.104 55.6899V65.6346M315.4 69.6124V79.5571M324.695 81.546V91.4906M339.303 81.546V91.4906M354.575 81.546V91.4906M374.495 84.1979V94.1425M383.791 95.4685V105.413M368.519 94.8055V104.75M348.599 92.1536V104.75M333.327 92.1536V104.75M318.055 92.1536V104.75M326.355 120.065V105.479M341.627 120.065V105.479M359.555 120.065V105.479M377.483 120.065V105.479M391.892 120.065V108.728M331.999 68.2865V78.2311M346.607 68.2865V78.2311M363.871 68.2865V78.2311M377.151 71.6014V81.546M389.103 69.6124V79.5571M322.039 55.6899V65.6346M338.639 55.6899V65.6346M353.247 57.6789V67.6235M370.511 55.6899V65.6346M385.783 55.6899V65.6346M379.807 45.0823V55.027M392.423 45.0823V55.027M304.776 34.4747V44.4194M319.383 33.8118V43.7564M331.999 44.4194V54.364M342.623 44.4194V54.364M352.583 44.4194V54.364M363.207 44.4194V54.364M254.976 11.2706L255.64 20.5522M168.656 3.97786V13.9225M185.92 3.31489V13.2595M23.904 72.9273V82.209M73.7039 119.667C87.6479 35.4692 253.98 -52.7065 322.039 120.993" transform="translate(143.491 188.289)" stroke="#837B74" stroke-width="2.00479" stroke-miterlimit="10"/>
<path d="M59.7671 242.618C142.483 228.786 119.297 187.609 97.3668 168.748C97.3668 159.95 90.0567 142.032 86.3993 134.173C116.478 77.5927 90.5765 60.3029 73.8676 58.7311C122.43 -11.9905 59.7671 -8.83278 48.8042 16.2972C-11.3535 -3.82179 3.89431 52.9694 19.0391 83.8612C-6.02426 91.4246 3.3745 139.414 11.2279 162.461C-16.9918 187.609 11.2279 250.739 59.7671 242.618Z" transform="translate(506.836 122.665)" fill="#A090C1"/>
<path d="M41.2806 181.46C44.5099 181.115 47.7114 180.546 50.862 179.757C52.5244 179.344 54.2103 178.865 55.957 178.349C57.5256 177.966 59.1332 177.766 60.7477 177.753C70.8958 178.495 81.1984 181.31 91.5009 178.025C98.9937 175.21 103.677 166.765 98.5254 159.258C94.779 153.627 88.2229 149.874 86.2935 143.207C86.0338 142.06 85.7038 140.93 85.3053 139.824C85.1035 138.868 84.9767 137.899 84.926 136.924C84.7106 133.865 84.7106 130.52 82.5845 128.76C79.5533 126.362 77.3875 123.037 76.417 119.292C74.6422 111.4 75.5788 102.485 72.769 94.5089C70.4275 87.9401 69.0226 79.9638 71.1908 72.9259C71.6832 71.4241 72.3102 69.9699 73.064 68.5812C73.6091 67.3122 74.0782 66.0118 74.4689 64.6869C74.867 63.3638 75.2135 62.0125 75.6162 60.5955C84.9448 42.8975 77.452 26.9449 60.5932 18.0912C59.8233 17.0274 59.118 15.9181 58.4812 14.7693C57.0954 12.2602 56.0721 9.5668 55.4419 6.76958C54.5053 3.01602 49.354 1.13925 45.0785 0.257164C43.5925 0.00318836 42.0805 -0.0630157 40.5781 0.0601026C37.52 0.285085 34.573 1.3038 32.027 3.01602C22.661 10.0539 18.9146 21.3146 15.6365 31.4351C15.1682 32.9412 14.6156 34.452 14.0396 35.8925C12.346 40.3968 9.97732 44.6164 7.01512 48.4059C6.27052 49.6398 5.57744 50.8832 4.96865 52.1594C4.36165 53.408 3.85733 54.7042 3.46073 56.035C1.11923 64.4804 2.05583 72.4567 2.85827e-07 80.7474C0.195246 81.7225 0.575175 82.651 1.11923 83.4828C2.02389 84.8274 3.14049 86.0158 4.42543 87.0018C5.80222 87.9401 6.73882 89.3477 8.14372 90.2861C5.80222 91.2245 5.80222 93.1013 6.27052 94.9781C7.67542 98.2624 8.14372 101.078 9.08032 104.362C9.54862 107.177 9.78277 110.227 10.0684 113.277C10.2089 114.811 10.3447 116.369 10.4665 117.969C10.458 119.484 10.3296 120.996 10.0825 122.492C4.96397 135.329 3.69488 149.517 8.97261 162.214C9.56351 163.641 10.2326 165.035 10.9769 166.389C11.5657 168.405 12.4411 170.325 13.576 172.09C14.1197 172.932 14.7222 173.735 15.3789 174.492C21.2561 181.31 31.0904 181.779 40.0255 181.676C40.4564 181.596 40.8731 181.516 41.2806 181.46Z" transform="translate(510.856 165.153)" fill="#9681C2"/>
<path d="M30.538 138.54C86.2656 128.415 67.6647 112.195 52.8946 98.3863C52.9086 91.963 50.9371 78.8256 48.4738 73.078C59.3852 48.6329 48.4738 10.9661 30.538 1.3382C11.7498 -5.48857 19.1911 15.7847 9.54414 20.5986C-0.102824 25.4125 1.66735 46.9767 7.13708 59.1194C-9.72169 64.6418 7.88167 81.5234 13.1594 98.3957C-5.83012 116.793 -2.16802 144.485 30.538 138.54Z" transform="translate(521.351 193.036)" fill="#8E77C0"/>
<g filter="url(#filter1_i)">
<path d="M25.0634 199.6H17.2334L15.6646 127.306L0 97.4422L15.6646 119.447L14.1005 103.729C10.4431 85.9 3.13292 49.3498 3.13292 45.5775C3.13292 42.9453 3.13292 21.7659 4.20064 9.22436C4.31303 3.80986 4.88436 0 6.26584 0C5.32924 0 4.65957 3.80517 4.20064 9.22436C3.92435 22.221 6.26584 44.4702 6.26584 45.5775C6.26584 46.8349 11.4874 69.1545 14.1005 80.1524L28.1963 50.2929L15.6646 88.0114L20.3476 114.732L25.0634 199.6Z" transform="translate(537.732 223.065)" fill="#937B7B"/>
</g>
<path d="M46.0916 186.007C109.881 175.402 92.0004 143.834 75.088 129.373C75.088 122.629 69.4505 108.891 66.6299 102.866C89.8263 59.4878 69.8513 46.2323 56.9657 45.0272C94.4165 -9.19268 46.0916 -6.7718 37.6371 12.4946C-8.75567 -2.93004 3.00324 40.6099 14.6827 64.2936C-4.64583 70.0922 2.60237 106.884 8.65879 124.553C-13.1039 143.834 8.65879 192.234 46.0916 186.007Z" transform="translate(78.8359 133.665)" fill="#A090C1"/>
<path d="M31.835 139.119C34.3254 138.855 36.7944 138.419 39.2241 137.813C40.5061 137.497 41.8062 137.13 43.1533 136.734C44.363 136.44 45.6028 136.287 46.8478 136.278C54.6739 136.846 62.6191 139.004 70.5643 136.486C76.3426 134.328 79.9541 127.853 75.9815 122.098C73.0923 117.781 68.0363 114.903 66.5483 109.792C66.3481 108.912 66.0936 108.046 65.7863 107.198C65.6307 106.466 65.5329 105.723 65.4938 104.975C65.3277 102.63 65.3277 100.065 63.6881 98.716C61.3504 96.8776 59.6802 94.3285 58.9318 91.457C57.563 85.4066 58.2853 78.572 56.1185 72.4568C54.3127 67.4208 53.2293 61.3056 54.9014 55.9099C55.2811 54.7585 55.7646 53.6436 56.346 52.5789C56.7663 51.606 57.1281 50.6091 57.4294 49.5933C57.7364 48.5789 58.0036 47.5429 58.3142 46.4566C65.5082 32.8881 59.7299 20.6578 46.7287 13.8699C46.1349 13.0543 45.591 12.2039 45.0999 11.3232C44.0312 9.39952 43.2421 7.33455 42.7561 5.19001C42.0338 2.31229 38.0612 0.873424 34.7639 0.197159C33.6179 0.00244441 32.452 -0.048312 31.2933 0.0460787C28.9349 0.218565 26.6622 0.999576 24.6988 2.31229C17.4758 7.70802 14.5867 16.3412 12.0587 24.1003C11.6975 25.2549 11.2714 26.4132 10.8272 27.5175C9.52106 30.9709 7.69438 34.2059 5.40997 37.1112C4.83574 38.0572 4.30125 39.0105 3.83176 39.9889C3.36364 40.9462 2.97472 41.9399 2.66887 42.9601C0.863139 49.435 1.58543 55.5502 2.20426e-07 61.9063C0.150571 62.6539 0.443567 63.3658 0.863139 64.0035C1.5608 65.0343 2.4219 65.9455 3.41283 66.7014C4.4746 67.4208 5.19689 68.4999 6.28033 69.2194C4.4746 69.9388 4.4746 71.3777 4.83574 72.8165C5.91918 75.3345 6.28033 77.4928 7.00262 80.0108C7.36376 82.1691 7.54434 84.5073 7.76464 86.8454C7.87298 88.0217 7.97771 89.2159 8.07161 90.4426C8.06506 91.6044 7.96603 92.764 7.77547 93.9102C3.82815 103.752 2.84944 114.63 6.91955 124.364C7.37525 125.458 7.89127 126.527 8.46526 127.565C8.91934 129.11 9.59438 130.582 10.4696 131.936C10.8889 132.582 11.3535 133.197 11.86 133.777C16.3924 139.004 23.9765 139.364 30.8671 139.285C31.1994 139.224 31.5208 139.162 31.835 139.119Z" transform="translate(81.9365 166.239)" fill="#9681C2"/>
<path d="M23.5505 106.214C66.5268 98.4512 52.1821 86.0159 40.7916 75.4295C40.8024 70.505 39.282 60.4329 37.3824 56.0264C45.7971 37.2853 37.3824 8.40731 23.5505 1.02595C9.06131 -4.20791 14.7999 12.1016 7.36031 15.7923C-0.0792962 19.4829 1.28584 36.0155 5.50402 45.3249C-7.49723 49.5587 6.07824 62.5013 10.1484 75.4367C-4.49611 89.5411 -1.67195 110.771 23.5505 106.214Z" transform="translate(90.0293 187.616)" fill="#8E77C0"/>
<g filter="url(#filter2_i)">
<path d="M19.3285 153.027H13.2902L12.0803 97.6016L0 74.7057L12.0803 91.5763L10.8741 79.5259C8.05355 65.8567 2.41607 37.8349 2.41607 34.9428C2.41607 32.9248 2.41607 16.6872 3.23948 7.07201C3.32615 2.92089 3.76675 0 4.83213 0C4.10984 0 3.5934 2.91729 3.23948 7.07201C3.0264 17.0361 4.83213 34.0938 4.83213 34.9428C4.83213 35.9068 8.85891 53.0184 10.8741 61.4502L21.7446 38.5579L12.0803 67.4754L15.6918 87.9612L19.3285 153.027Z" transform="translate(102.663 210.638)" fill="#937B7B"/>
</g>
<g filter="url(#filter3_f)">
<circle cx="8" cy="8" r="8" transform="translate(116.164 241)" fill="#F4EABB" fill-opacity="0.4"/>
</g>
<g filter="url(#filter4_f)">
<circle cx="4" cy="4" r="4" transform="translate(120.164 245)" fill="#F4EABB"/>
</g>
<g filter="url(#filter5_f)">
<circle cx="8" cy="8" r="8" transform="translate(127.164 141)" fill="#F4EABB" fill-opacity="0.4"/>
</g>
<g filter="url(#filter6_f)">
<circle cx="4" cy="4" r="4" transform="translate(131.164 145)" fill="#F4EABB"/>
</g>
<g filter="url(#filter7_f)">
<circle cx="8" cy="8" r="8" transform="translate(97.1641 207)" fill="#F4EABB" fill-opacity="0.4"/>
</g>
<g filter="url(#filter8_f)">
<circle cx="4" cy="4" r="4" transform="translate(101.164 211)" fill="#F4EABB"/>
</g>
<g filter="url(#filter9_f)">
<circle cx="8" cy="8" r="8" transform="translate(88.1641 262)" fill="#F4EABB" fill-opacity="0.4"/>
</g>
<g filter="url(#filter10_f)">
<circle cx="4" cy="4" r="4" transform="translate(92.1641 266)" fill="#F4EABB"/>
</g>
<g filter="url(#filter11_f)">
<circle cx="8" cy="8" r="8" transform="translate(96.1641 297)" fill="#F4EABB" fill-opacity="0.4"/>
</g>
<g filter="url(#filter12_f)">
<circle cx="4" cy="4" r="4" transform="translate(100.164 301)" fill="#F4EABB"/>
</g>
<g filter="url(#filter13_f)">
<circle cx="8" cy="8" r="8" transform="translate(146.164 287)" fill="#F4EABB" fill-opacity="0.4"/>
</g>
<g filter="url(#filter14_f)">
<circle cx="4" cy="4" r="4" transform="translate(150.164 291)" fill="#F4EABB"/>
</g>
<g filter="url(#filter15_f)">
<circle cx="8" cy="8" r="8" transform="translate(132.164 188)" fill="#F4EABB" fill-opacity="0.4"/>
</g>
<g filter="url(#filter16_f)">
<circle cx="4" cy="4" r="4" transform="translate(136.164 192)" fill="#F4EABB"/>
</g>
<g filter="url(#filter17_f)">
<circle cx="8" cy="8" r="8" transform="translate(94.1641 157)" fill="#F4EABB" fill-opacity="0.4"/>
</g>
<g filter="url(#filter18_f)">
<circle cx="4" cy="4" r="4" transform="translate(98.1641 161)" fill="#F4EABB"/>
</g>
<g filter="url(#filter19_f)">
<circle cx="8" cy="8" r="8" transform="translate(241.164 122)" fill="#F4EABB" fill-opacity="0.4"/>
</g>
<g filter="url(#filter20_f)">
<circle cx="4" cy="4" r="4" transform="translate(245.164 126)" fill="#F4EABB"/>
</g>
<g filter="url(#filter21_f)">
<circle cx="8" cy="8" r="8" transform="translate(253.164 79)" fill="#F4EABB" fill-opacity="0.4"/>
</g>
<g filter="url(#filter22_f)">
<circle cx="4" cy="4" r="4" transform="translate(257.164 82.9998)" fill="#F4EABB"/>
</g>
<g filter="url(#filter23_f)">
<circle cx="8" cy="8" r="8" transform="translate(271.164 104)" fill="#F4EABB" fill-opacity="0.4"/>
</g>
<g filter="url(#filter24_f)">
<circle cx="4" cy="4" r="4" transform="translate(275.164 108)" fill="#F4EABB"/>
</g>
<g filter="url(#filter25_f)">
<circle cx="8" cy="8" r="8" transform="translate(289.164 129)" fill="#F4EABB" fill-opacity="0.4"/>
</g>
<g filter="url(#filter26_f)">
<circle cx="4" cy="4" r="4" transform="translate(293.164 133)" fill="#F4EABB"/>
</g>
<g filter="url(#filter27_f)">
<circle cx="8" cy="8" r="8" transform="translate(259.164 145)" fill="#F4EABB" fill-opacity="0.4"/>
</g>
<g filter="url(#filter28_f)">
<circle cx="4" cy="4" r="4" transform="translate(263.164 149)" fill="#F4EABB"/>
</g>
<g filter="url(#filter29_f)">
<circle cx="8" cy="8" r="8" transform="translate(232.164 177)" fill="#F4EABB" fill-opacity="0.4"/>
</g>
<g filter="url(#filter30_f)">
<circle cx="4" cy="4" r="4" transform="translate(236.164 181)" fill="#F4EABB"/>
</g>
<g filter="url(#filter31_f)">
<circle cx="8" cy="8" r="8" transform="translate(279.164 177)" fill="#F4EABB" fill-opacity="0.4"/>
</g>
<g filter="url(#filter32_f)">
<circle cx="4" cy="4" r="4" transform="translate(283.164 181)" fill="#F4EABB"/>
</g>
<g filter="url(#filter33_f)">
<circle cx="8" cy="8" r="8" transform="translate(573.164 138)" fill="#F4EABB" fill-opacity="0.4"/>
</g>
<g filter="url(#filter34_f)">
<circle cx="4" cy="4" r="4" transform="translate(577.164 142)" fill="#F4EABB"/>
</g>
<g filter="url(#filter35_f)">
<circle cx="8" cy="8" r="8" transform="translate(521.164 150)" fill="#F4EABB" fill-opacity="0.4"/>
</g>
<g filter="url(#filter36_f)">
<circle cx="4" cy="4" r="4" transform="translate(525.164 154)" fill="#F4EABB"/>
</g>
<g filter="url(#filter37_f)">
<circle cx="8" cy="8" r="8" transform="translate(538.164 185)" fill="#F4EABB" fill-opacity="0.4"/>
</g>
<g filter="url(#filter38_f)">
<circle cx="4" cy="4" r="4" transform="translate(542.164 189)" fill="#F4EABB"/>
</g>
<g filter="url(#filter39_f)">
<circle cx="8" cy="8" r="8" transform="translate(515.164 219)" fill="#F4EABB" fill-opacity="0.4"/>
</g>
<g filter="url(#filter40_f)">
<circle cx="4" cy="4" r="4" transform="translate(519.164 223)" fill="#F4EABB"/>
</g>
<g filter="url(#filter41_f)">
<circle cx="8" cy="8" r="8" transform="translate(523.164 283)" fill="#F4EABB" fill-opacity="0.4"/>
</g>
<g filter="url(#filter42_f)">
<circle cx="4" cy="4" r="4" transform="translate(527.164 287)" fill="#F4EABB"/>
</g>
<g filter="url(#filter43_f)">
<circle cx="8" cy="8" r="8" transform="translate(553.164 339)" fill="#F4EABB" fill-opacity="0.4"/>
</g>
<g filter="url(#filter44_f)">
<circle cx="4" cy="4" r="4" transform="translate(557.164 343)" fill="#F4EABB"/>
</g>
<g filter="url(#filter45_f)">
<circle cx="8" cy="8" r="8" transform="translate(580.164 287)" fill="#F4EABB" fill-opacity="0.4"/>
</g>
<g filter="url(#filter46_f)">
<circle cx="4" cy="4" r="4" transform="translate(584.164 291)" fill="#F4EABB"/>
</g>
<g filter="url(#filter47_f)">
<circle cx="8" cy="8" r="8" transform="translate(584.164 207)" fill="#F4EABB" fill-opacity="0.4"/>
</g>
<g filter="url(#filter48_f)">
<circle cx="4" cy="4" r="4" transform="translate(588.164 211)" fill="#F4EABB"/>
</g>
<g filter="url(#filter49_f)">
<circle cx="8" cy="8" r="8" transform="translate(550.164 238)" fill="#F4EABB" fill-opacity="0.4"/>
</g>
<g filter="url(#filter50_f)">
<circle cx="4" cy="4" r="4" transform="translate(554.164 242)" fill="#F4EABB"/>
</g>
<path d="M17.1293 21.2166C17.2842 21.4373 17.4157 21.7595 17.4157 22.1941C17.4157 23.1859 16.4299 25.5 11.5009 25.8306C7.22916 24.8388 6.90056 22.1941 6.57197 21.8635V23.1859C5.47664 23.0757 3.22026 22.6569 2.95739 21.8635C2.69451 21.0701 5.25757 20.2105 6.57197 19.88C4.16225 18.4474 -0.460036 15.3839 0.3286 14.5905L0.328626 14.5905C1.3144 13.5987 1.643 13.2681 2.30019 12.9375C1.97159 12.607 -6.05103e-05 9.66437 0 7.97868C2.2048e-05 7.36452 2.74075 7.98642 4.27178 8.78454C3.39551 7.41395 1.84015 4.67278 2.62879 4.67278C3.61458 4.67278 5.25757 5.99514 6.90056 5.99514C7.55776 5.99514 5.91477 1.69746 7.22916 2.02805C8.98168 2.57904 12.5525 3.9455 12.8153 5.00339C13.1439 6.32575 14.7869 -0.61666 15.7727 0.0445226L15.7727 0.0445243C16.7585 0.705706 17.7443 1.36689 18.7301 3.01983C18.9273 3.35042 19.7159 2.35865 20.3731 2.02805C20.8112 2.02805 21.0303 4.20996 22.3447 3.68101C23.9877 3.01983 25.1925 2.24845 26.2879 0.705694C26.726 3.01984 26.7397 9.96224 26.6165 10.2928C26.4932 10.6234 34.1742 5.00339 33.8456 6.32574C33.0789 10.5132 30.6911 18.756 27.2737 18.227C27.2737 18.8882 27.6023 18.8882 27.2737 19.5494C26.9451 20.2106 32.2026 18.8882 32.2026 20.2106C32.2026 21.5329 28.2594 25.1694 23.6591 23.1859C21.0495 23.9019 18.4222 22.3384 17.1293 21.2166Z" transform="translate(120.322 337.504)" fill="#6B5795" fill-opacity="0.5"/>
<path d="M13.3003 16.8355C13.4206 17.0105 13.5227 17.2662 13.5227 17.6111C13.5227 18.398 12.7572 20.2343 8.93007 20.4966C5.61318 19.7097 5.35804 17.6111 5.10289 17.3487V18.398C4.25241 18.3106 2.50042 17.9783 2.2963 17.3487C2.09219 16.7192 4.08232 16.0371 5.10289 15.7748C3.23183 14.6381 -0.357201 12.2072 0.255146 11.5776L0.255173 11.5776C1.02059 10.7906 1.27573 10.5283 1.78601 10.266C1.53087 10.0036 -4.69841e-05 7.6687 0 6.3311C1.71195e-05 5.84377 2.12809 6.33724 3.31688 6.97055C2.6365 5.88299 1.42881 3.70786 2.04116 3.70786C2.80659 3.70786 4.08231 4.75716 5.35804 4.75716C5.86833 4.75716 4.5926 1.34694 5.61318 1.60926C6.97396 2.04647 9.74653 3.13076 9.95064 3.9702C10.2058 5.0195 11.4815 -0.489321 12.2469 0.0353288C13.0124 0.559978 13.7778 1.08463 14.5432 2.39624C14.6963 2.65857 15.3087 1.87159 15.819 1.60926C16.1592 1.60926 16.3293 3.34061 17.3498 2.92089C18.6256 2.39624 19.5611 1.78415 20.4116 0.55997C20.7518 2.39625 20.7624 7.90507 20.6667 8.16739C20.571 8.42972 26.535 3.9702 26.2799 5.01949C25.6846 8.34227 23.8305 14.8829 21.177 14.4632C21.177 14.9878 21.4322 14.9878 21.177 15.5125C20.9219 16.0371 25.0042 14.9878 25.0042 16.0371C25.0042 17.0864 21.9424 19.972 18.3704 18.398C16.3442 18.9662 14.3042 17.7256 13.3003 16.8355Z" transform="translate(123.937 341.846)" fill="#6B5795" fill-opacity="0.5"/>
<path d="M42.4775 52.4636C42.8616 53.0092 43.1876 53.8059 43.1876 54.8806C43.1876 57.333 40.7431 63.0553 28.5201 63.8728C17.9269 61.4204 17.1121 54.8806 16.2972 54.0632V57.333C13.581 57.0605 7.98564 56.0251 7.33375 54.0632C6.68187 52.1012 13.0378 49.9758 16.2972 49.1583C10.3216 45.6159 -1.1408 38.0407 0.814865 36.0788L0.814953 36.0787C3.25947 33.6263 4.07432 32.8089 5.70403 31.9914C4.88917 31.1739 -0.000150054 23.8976 0 19.7293C5.46749e-05 18.2107 6.79654 19.7485 10.5932 21.722C8.42023 18.3329 4.56322 11.5546 6.51889 11.5546C8.96347 11.5546 13.0378 14.8245 17.1121 14.8245C18.7418 14.8245 14.6675 4.1974 17.9269 5.01487C22.2729 6.37734 31.1277 9.75626 31.7796 12.3722C32.5944 15.6421 36.6688 -1.52485 39.1133 0.110094C41.5579 1.74504 44.0025 3.37998 46.4471 7.46731C46.936 8.28478 48.8917 5.83237 50.5214 5.01487C51.6079 5.01488 52.1511 10.4102 55.4106 9.10225C59.4849 7.46731 62.4727 5.55988 65.1889 1.74501C66.2754 7.46733 66.3093 24.6342 66.0038 25.4517C65.6982 26.2692 84.7456 12.3722 83.9307 15.642C82.0294 25.9967 76.108 46.379 67.6335 45.071C67.6335 46.706 68.4483 46.706 67.6335 48.3409C66.8186 49.9758 79.8564 46.706 79.8564 49.9758C79.8564 53.2457 70.0781 62.2378 58.67 57.333C52.1989 59.1036 45.6835 55.2375 42.4775 52.4636Z" transform="translate(40.6377 310.942)" fill="#6B5795" fill-opacity="0.5"/>
<path d="M32.9822 41.63C33.2805 42.0629 33.5336 42.6951 33.5336 43.5479C33.5336 45.4939 31.6355 50.0346 22.1449 50.6832C13.9196 48.7372 13.2869 43.5479 12.6542 42.8992V45.4939C10.5452 45.2777 6.20056 44.456 5.6944 42.8992C5.18823 41.3424 10.1234 39.6559 12.6542 39.0073C8.01433 36.1964 -0.885792 30.1854 0.632713 28.6286L0.632756 28.6286C2.53085 26.6826 3.16356 26.0339 4.42897 25.3853C3.79626 24.7366 -0.000116512 18.9628 0 15.6553C4.24531e-05 14.4502 5.27727 15.6705 8.22523 17.2365C6.53801 14.5472 3.54318 9.16864 5.06168 9.16864C6.95981 9.16864 10.1234 11.7633 13.2869 11.7633C14.5523 11.7633 11.3888 3.33065 13.9196 3.97931C17.2941 5.06044 24.1695 7.74162 24.6757 9.81735C25.3084 12.412 28.472 -1.20997 30.3701 0.0873595C32.2682 1.38469 34.1664 2.68202 36.0645 5.92533C36.4441 6.574 37.9626 4.628 39.228 3.97931C40.0717 3.97932 40.4935 8.26053 43.0243 7.22266C46.1879 5.92533 48.5078 4.41178 50.6168 1.38467C51.4604 5.92534 51.4868 19.5473 51.2495 20.196C51.0123 20.8446 65.8019 9.81735 65.1692 12.412C63.6928 20.6284 59.0951 36.8018 52.515 35.764C52.515 37.0613 53.1477 37.0613 52.515 38.3586C51.8822 39.656 62.0056 37.0613 62.0056 39.656C62.0056 42.2506 54.4131 49.3859 45.5551 45.4939C40.5305 46.8988 35.4716 43.8311 32.9822 41.63Z" transform="translate(49.6006 321.679)" fill="#6B5795" fill-opacity="0.5"/>
<path d="M0.127198 1.89521C-0.082746 2.49947 0.00332354 2.90803 0.127198 3.53644C0.729458 6.5917 5.48967 6.19819 7.9279 4.3143C8.67703 3.73549 9.45053 3.41331 9.50005 2.45722C9.5637 1.22805 8.27857 0.870512 7.16783 0.384297C5.73695 -0.242058 4.69058 -4.29712e-05 3.17947 0.384297C1.89357 0.711359 0.569182 0.6231 0.127198 1.89521Z" transform="matrix(0.924837 0.380363 -0.364144 0.931343 83.5205 366.002)" fill="url(#paint0_linear)"/>
<path d="M0.127869 1.88552C-0.0831826 2.48669 0.00334107 2.89316 0.127869 3.51836C0.733306 6.558 5.51863 6.1665 7.96973 4.29224C8.72281 3.71639 9.5004 3.39585 9.55017 2.44466C9.61416 1.22177 8.32225 0.86606 7.20565 0.382332C5.76722 -0.24082 4.71533 -4.27578e-05 3.19625 0.382332C1.90356 0.707721 0.572185 0.619914 0.127869 1.88552Z" transform="matrix(0.802863 0.596164 -0.576704 0.816953 117.495 356.939)" fill="url(#paint1_linear)"/>
<path d="M0.127869 1.88552C-0.0831826 2.48669 0.00334107 2.89316 0.127869 3.51836C0.733307 6.558 5.51863 6.1665 7.96973 4.29224C8.72281 3.71639 9.5004 3.39585 9.55017 2.44466C9.61416 1.22177 8.32225 0.86606 7.20565 0.382332C5.76722 -0.24082 4.71533 -4.27515e-05 3.19625 0.382332C1.90356 0.707721 0.572185 0.619914 0.127869 1.88552Z" transform="matrix(0.802863 0.596164 -0.576704 0.816953 55.4414 367)" fill="url(#paint2_linear)"/>
<path d="M17.4374 3.40815C17.4374 5.51128 13.4079 7.24725 8.25117 7.45772C3.09449 7.66819 0.165188 6.45839 0 3.90428C0 1.80115 3.90641 0 8.65668 0C13.407 0 17.4374 1.30503 17.4374 3.40815Z" transform="matrix(0.978204 0.207648 -0.196093 0.980585 48.6309 370.286)" fill="url(#paint3_linear)"/>
<path d="M0.127869 1.88552C-0.0831826 2.48669 0.00334107 2.89316 0.127869 3.51836C0.733307 6.558 5.51863 6.1665 7.96973 4.29224C8.72281 3.71639 9.5004 3.39585 9.55017 2.44466C9.61416 1.22177 8.32225 0.86606 7.20565 0.382332C5.76722 -0.24082 4.71533 -4.27515e-05 3.19625 0.382332C1.90356 0.707721 0.572185 0.619914 0.127869 1.88552Z" transform="matrix(0.802863 0.596164 -0.576704 0.816953 112.247 357.659)" fill="url(#paint4_linear)"/>
<path d="M0.126566 1.9044C-0.0823351 2.51158 0.00330703 2.92213 0.126566 3.55359C0.725835 6.62366 5.4624 6.22824 7.88853 4.33521C8.63393 3.7536 9.4036 3.42985 9.45287 2.46913C9.51621 1.234 8.23746 0.874731 7.13224 0.38616C5.70846 -0.243231 4.66729 -4.31795e-05 3.16368 0.38616C1.88417 0.714807 0.566356 0.62612 0.126566 1.9044Z" transform="matrix(0.984695 0.174287 -0.169959 0.985451 56.6699 376.063)" fill="url(#paint5_linear)"/>
<path d="M17.4147 3.41237C17.4147 5.5181 13.3904 7.25622 8.24041 7.46695C3.09045 7.67768 0.164972 6.46639 0 3.90911C0 1.80338 3.90131 0 8.64539 0C13.3895 0 17.4147 1.30664 17.4147 3.41237Z" transform="matrix(0.99936 0.0357681 -0.0344318 0.999407 100.096 362.641)" fill="url(#paint6_linear)"/>
<path d="M9.99637 2.34523C7.52506 2.25482 2.86104 1.98609 3.33212 0L0 4.69046C4.26754 6.40001 12.4677 2.43564 9.99637 2.34523Z" transform="translate(222.712 406.051)" fill="#F2DB93"/>
<path d="M0.197702 6.1383C-0.158487 8.66253 0.0753531 13.1694 0.0753531 13.1694L0.376081 14.4322H8.22476L8.1426 13.1694C8.1426 13.1694 8.06161 11.5085 8.22476 10.4655C8.62993 7.87529 11.7192 7.08733 11.2572 4.51559C10.7807 1.863 8.74735 0.157035 6.08421 0.00804753C2.7886 -0.176322 0.663754 2.8355 0.197702 6.1383Z" transform="translate(214.745 401)" fill="#8E80AC"/>
<path d="M26.3062 1.80402C15.2576 1.80402 0 7.93769 0 7.93769C0 7.93769 7.47342 16.364 14.2054 18.7618C22.6488 21.7692 34.1981 18.9422 37.3549 17.499C40.5116 16.0558 43.1057 12.1986 42.6161 7.93769C42.1435 3.82404 35.7765 0 35.7765 0C35.7765 0 30.0675 1.80402 26.3062 1.80402Z" transform="translate(188.69 414.891)" fill="#988CB3"/>
<path d="M21.2616 0.12958C17.2272 -0.592019 -2.25924 1.7093 0.216571 6.80447C2.67104 11.8557 26.5224 10.593 28.2766 6.80447C29.8813 3.3387 24.9382 0.787192 21.2616 0.12958Z" transform="translate(198.822 424.864)" fill="#BCAED5"/>
<path d="M29.657 5.41202C31.5866 4.6859 29.4808 0 29.4808 0C29.4808 0 -0.858955 4.87086 0.0186798 6.31403C1.18834 8.23741 2.37912 9.57197 4.57843 9.74167C11.5927 10.2829 22.4659 8.1181 29.657 5.41202Z" transform="translate(190.602 419.762)" fill="#A090C1"/>
<path d="M0 3.42764V0.360804C3.88192 2.01784 5.68113 2.01967 8.06725 0L9.821 1.62362C7.06737 3.72361 4.61671 4.02316 0 3.42764Z" transform="translate(214.821 413.448)" fill="#EEEAE8"/>
<path d="M27.0078 0.120288C22.9752 -0.972503 0.70185 5.74011 0.70185 5.74011C0.70185 5.74011 -2.10507 6.05232 3.50782 8.2378C9.1207 10.4233 31.9182 3.24724 31.9182 3.24724C31.9182 3.24724 31.0404 1.21308 27.0078 0.120288Z" transform="translate(188.164 416.515)" fill="#826BB2"/>
<ellipse cx="1.41413" cy="0.895195" rx="1.41413" ry="0.895195" transform="matrix(0.845383 0.534161 -0.512684 0.858578 222.053 404.247)" fill="#C4C4C4"/>
<ellipse cx="0.526125" cy="0.180402" rx="0.526125" ry="0.180402" transform="translate(226.045 408.216)" fill="#4B3D3D"/>
<path d="M3.55428 0.827728C2.67559 0.795819 1.01726 0.700974 1.18476 0L0 1.65546C1.51736 2.25883 4.43298 0.859638 3.55428 0.827728Z" transform="translate(186.448 438.783)" fill="#F2DB93"/>
<path d="M0.0702944 2.16646C-0.0563513 3.05737 0.0267924 4.64801 0.0267924 4.64801L0.133718 5.09371H2.92437L2.89516 4.64801C2.89516 4.64801 2.86637 4.06184 2.92437 3.69372C3.06844 2.77952 4.16685 2.50141 4.00258 1.59374C3.83315 0.657529 3.11019 0.055424 2.16329 0.00284031C0.991508 -0.0622314 0.236003 1.00077 0.0702944 2.16646Z" transform="translate(183.615 437)" fill="#8E80AC"/>
<path d="M9.35338 0.636714C5.42496 0.636714 0 2.80154 0 2.80154C0 2.80154 2.65723 5.77554 5.05083 6.62183C8.05296 7.68327 12.1594 6.6855 13.2818 6.17613C14.4042 5.66675 15.3265 4.30541 15.1525 2.80154C14.9844 1.34966 12.7206 0 12.7206 0C12.7206 0 10.6907 0.636714 9.35338 0.636714Z" transform="translate(174.352 441.903)" fill="#988CB3"/>
<path d="M7.55971 0.0457343C6.12525 -0.208948 -0.80329 0.603281 0.0770036 2.40158C0.949709 4.18437 9.43023 3.73872 10.0539 2.40158C10.6245 1.17837 8.86697 0.277833 7.55971 0.0457343Z" transform="translate(177.954 445.423)" fill="#BCAED5"/>
<path d="M10.5448 1.91013C11.2309 1.65385 10.4821 0 10.4821 0C10.4821 0 -0.305408 1.71913 0.00664175 2.22848C0.422523 2.90732 0.845913 3.37834 1.62789 3.43824C4.12186 3.62927 7.98792 2.86521 10.5448 1.91013Z" transform="translate(175.03 443.622)" fill="#A090C1"/>
<path d="M0 1.20976V0.127343C1.38024 0.712181 2.01997 0.712826 2.86837 0L3.49193 0.573043C2.51286 1.31422 1.64151 1.41994 0 1.20976Z" transform="translate(183.642 441.393)" fill="#EEEAE8"/>
<path d="M9.60283 0.0424546C8.16902 -0.343237 0.249548 2.02592 0.249548 2.02592C0.249548 2.02592 -0.748474 2.13611 1.24723 2.90746C3.24293 3.67881 11.3488 1.14609 11.3488 1.14609C11.3488 1.14609 11.0366 0.428146 9.60283 0.0424546Z" transform="translate(174.164 442.476)" fill="#826BB2"/>
<ellipse cx="0.501752" cy="0.316569" rx="0.501752" ry="0.316569" transform="matrix(0.847157 0.531343 -0.515477 0.856904 186.214 438.146)" fill="#C4C4C4"/>
<ellipse cx="0.187068" cy="0.0636714" rx="0.187068" ry="0.0636714" transform="translate(187.633 439.547)" fill="#4B3D3D"/>
<path d="M3.55428 0.827728C2.67559 0.795819 1.01726 0.700974 1.18476 0L0 1.65546C1.51736 2.25883 4.43298 0.859638 3.55428 0.827728Z" transform="translate(168.448 429.783)" fill="#F2DB93"/>
<path d="M0.0702944 2.16646C-0.0563513 3.05737 0.0267924 4.64801 0.0267924 4.64801L0.133718 5.09371H2.92437L2.89516 4.64801C2.89516 4.64801 2.86637 4.06184 2.92437 3.69372C3.06844 2.77952 4.16685 2.50141 4.00258 1.59374C3.83315 0.657529 3.11019 0.055424 2.16329 0.00284031C0.991508 -0.0622314 0.236003 1.00077 0.0702944 2.16646Z" transform="translate(165.615 428)" fill="#8E80AC"/>
<path d="M9.35338 0.636714C5.42496 0.636714 0 2.80154 0 2.80154C0 2.80154 2.65723 5.77554 5.05083 6.62183C8.05296 7.68327 12.1594 6.6855 13.2818 6.17613C14.4042 5.66675 15.3265 4.30541 15.1525 2.80154C14.9844 1.34966 12.7206 0 12.7206 0C12.7206 0 10.6907 0.636714 9.35338 0.636714Z" transform="translate(156.352 432.903)" fill="#988CB3"/>
<path d="M7.55971 0.0457343C6.12525 -0.208948 -0.80329 0.603281 0.0770036 2.40158C0.949709 4.18437 9.43023 3.73872 10.0539 2.40158C10.6245 1.17837 8.86697 0.277833 7.55971 0.0457343Z" transform="translate(159.954 436.423)" fill="#BCAED5"/>
<path d="M10.5448 1.91013C11.2309 1.65385 10.4821 0 10.4821 0C10.4821 0 -0.305408 1.71913 0.00664175 2.22848C0.422523 2.90732 0.845913 3.37834 1.62789 3.43824C4.12186 3.62927 7.98792 2.86521 10.5448 1.91013Z" transform="translate(157.03 434.622)" fill="#A090C1"/>
<path d="M0 1.20976V0.127343C1.38024 0.712181 2.01997 0.712826 2.86837 0L3.49193 0.573043C2.51286 1.31422 1.64151 1.41994 0 1.20976Z" transform="translate(165.642 432.393)" fill="#EEEAE8"/>
<path d="M9.60283 0.0424546C8.16902 -0.343237 0.249548 2.02592 0.249548 2.02592C0.249548 2.02592 -0.748474 2.13611 1.24723 2.90746C3.24293 3.67881 11.3488 1.14609 11.3488 1.14609C11.3488 1.14609 11.0366 0.428146 9.60283 0.0424546Z" transform="translate(156.164 433.476)" fill="#826BB2"/>
<ellipse cx="0.501752" cy="0.316569" rx="0.501752" ry="0.316569" transform="matrix(0.847157 0.531343 -0.515477 0.856904 168.214 429.146)" fill="#C4C4C4"/>
<ellipse cx="0.187068" cy="0.0636714" rx="0.187068" ry="0.0636714" transform="translate(169.633 430.547)" fill="#4B3D3D"/>
<path d="M3.55428 0.827728C2.67559 0.795819 1.01726 0.700974 1.18476 0L0 1.65546C1.51736 2.25883 4.43298 0.859638 3.55428 0.827728Z" transform="translate(144.448 442.783)" fill="#F2DB93"/>
<path d="M0.0702944 2.16646C-0.0563513 3.05737 0.0267924 4.64801 0.0267924 4.64801L0.133718 5.09371H2.92437L2.89516 4.64801C2.89516 4.64801 2.86637 4.06184 2.92437 3.69372C3.06844 2.77952 4.16685 2.50141 4.00258 1.59374C3.83315 0.657529 3.11019 0.055424 2.16329 0.00284031C0.991508 -0.0622314 0.236003 1.00077 0.0702944 2.16646Z" transform="translate(141.615 441)" fill="#8E80AC"/>
<path d="M9.35338 0.636714C5.42496 0.636714 0 2.80154 0 2.80154C0 2.80154 2.65723 5.77554 5.05083 6.62183C8.05296 7.68327 12.1594 6.6855 13.2818 6.17613C14.4042 5.66675 15.3265 4.30541 15.1525 2.80154C14.9844 1.34966 12.7206 0 12.7206 0C12.7206 0 10.6907 0.636714 9.35338 0.636714Z" transform="translate(132.352 445.903)" fill="#988CB3"/>
<path d="M7.55971 0.0457343C6.12525 -0.208948 -0.80329 0.603281 0.0770036 2.40158C0.949709 4.18437 9.43023 3.73872 10.0539 2.40158C10.6245 1.17837 8.86697 0.277833 7.55971 0.0457343Z" transform="translate(135.954 449.423)" fill="#BCAED5"/>
<path d="M10.5448 1.91013C11.2309 1.65385 10.4821 0 10.4821 0C10.4821 0 -0.305408 1.71913 0.00664175 2.22848C0.422523 2.90732 0.845913 3.37834 1.62789 3.43824C4.12186 3.62927 7.98792 2.86521 10.5448 1.91013Z" transform="translate(133.03 447.622)" fill="#A090C1"/>
<path d="M0 1.20976V0.127343C1.38024 0.712181 2.01997 0.712826 2.86837 0L3.49193 0.573043C2.51286 1.31422 1.64151 1.41994 0 1.20976Z" transform="translate(141.642 445.393)" fill="#EEEAE8"/>
<path d="M9.60283 0.0424546C8.16902 -0.343237 0.249548 2.02592 0.249548 2.02592C0.249548 2.02592 -0.748474 2.13611 1.24723 2.90746C3.24293 3.67881 11.3488 1.14609 11.3488 1.14609C11.3488 1.14609 11.0366 0.428146 9.60283 0.0424546Z" transform="translate(132.164 446.476)" fill="#826BB2"/>
<ellipse cx="0.501752" cy="0.316569" rx="0.501752" ry="0.316569" transform="matrix(0.847157 0.531343 -0.515477 0.856904 144.214 442.146)" fill="#C4C4C4"/>
<ellipse cx="0.187068" cy="0.0636714" rx="0.187068" ry="0.0636714" transform="translate(145.633 443.547)" fill="#4B3D3D"/>
<defs>
<filter id="filter0_i" x="257.385" y="120.02" width="18.831" height="145.326" filterUnits="userSpaceOnUse" color-interpolation-filters="sRGB">
<feFlood flood-opacity="0" result="BackgroundImageFix"/>
<feBlend mode="normal" in="SourceGraphic" in2="BackgroundImageFix" result="shape"/>
<feColorMatrix in="SourceAlpha" type="matrix" values="0 0 0 0 0 0 0 0 0 0 0 0 0 0 0 0 0 0 255 0" result="hardAlpha"/>
<feOffset dy="10.0239"/>
<feGaussianBlur stdDeviation="5.01197"/>
<feComposite in2="hardAlpha" operator="arithmetic" k2="-1" k3="1"/>
<feColorMatrix type="matrix" values="0 0 0 0 0 0 0 0 0 0 0 0 0 0 0 0 0 0 0.25 0"/>
<feBlend mode="normal" in2="shape" result="effect1_innerShadow"/>
</filter>
<filter id="filter1_i" x="537.732" y="223.065" width="28.1963" height="209.624" filterUnits="userSpaceOnUse" color-interpolation-filters="sRGB">
<feFlood flood-opacity="0" result="BackgroundImageFix"/>
<feBlend mode="normal" in="SourceGraphic" in2="BackgroundImageFix" result="shape"/>
<feColorMatrix in="SourceAlpha" type="matrix" values="0 0 0 0 0 0 0 0 0 0 0 0 0 0 0 0 0 0 255 0" result="hardAlpha"/>
<feOffset dy="10.0239"/>
<feGaussianBlur stdDeviation="5.01197"/>
<feComposite in2="hardAlpha" operator="arithmetic" k2="-1" k3="1"/>
<feColorMatrix type="matrix" values="0 0 0 0 0 0 0 0 0 0 0 0 0 0 0 0 0 0 0.25 0"/>
<feBlend mode="normal" in2="shape" result="effect1_innerShadow"/>
</filter>
<filter id="filter2_i" x="102.663" y="210.638" width="21.7446" height="163.05" filterUnits="userSpaceOnUse" color-interpolation-filters="sRGB">
<feFlood flood-opacity="0" result="BackgroundImageFix"/>
<feBlend mode="normal" in="SourceGraphic" in2="BackgroundImageFix" result="shape"/>
<feColorMatrix in="SourceAlpha" type="matrix" values="0 0 0 0 0 0 0 0 0 0 0 0 0 0 0 0 0 0 255 0" result="hardAlpha"/>
<feOffset dy="10.0239"/>
<feGaussianBlur stdDeviation="5.01197"/>
<feComposite in2="hardAlpha" operator="arithmetic" k2="-1" k3="1"/>
<feColorMatrix type="matrix" values="0 0 0 0 0 0 0 0 0 0 0 0 0 0 0 0 0 0 0.25 0"/>
<feBlend mode="normal" in2="shape" result="effect1_innerShadow"/>
</filter>
<filter id="filter3_f" x="112.154" y="236.99" width="24.0191" height="24.0191" filterUnits="userSpaceOnUse" color-interpolation-filters="sRGB">
<feFlood flood-opacity="0" result="BackgroundImageFix"/>
<feBlend mode="normal" in="SourceGraphic" in2="BackgroundImageFix" result="shape"/>
<feGaussianBlur stdDeviation="2.00479" result="effect1_foregroundBlur"/>
</filter>
<filter id="filter4_f" x="118.159" y="242.995" width="12.0096" height="12.0096" filterUnits="userSpaceOnUse" color-interpolation-filters="sRGB">
<feFlood flood-opacity="0" result="BackgroundImageFix"/>
<feBlend mode="normal" in="SourceGraphic" in2="BackgroundImageFix" result="shape"/>
<feGaussianBlur stdDeviation="1.00239" result="effect1_foregroundBlur"/>
</filter>
<filter id="filter5_f" x="123.154" y="136.99" width="24.0191" height="24.0191" filterUnits="userSpaceOnUse" color-interpolation-filters="sRGB">
<feFlood flood-opacity="0" result="BackgroundImageFix"/>
<feBlend mode="normal" in="SourceGraphic" in2="BackgroundImageFix" result="shape"/>
<feGaussianBlur stdDeviation="2.00479" result="effect1_foregroundBlur"/>
</filter>
<filter id="filter6_f" x="129.159" y="142.995" width="12.0096" height="12.0096" filterUnits="userSpaceOnUse" color-interpolation-filters="sRGB">
<feFlood flood-opacity="0" result="BackgroundImageFix"/>
<feBlend mode="normal" in="SourceGraphic" in2="BackgroundImageFix" result="shape"/>
<feGaussianBlur stdDeviation="1.00239" result="effect1_foregroundBlur"/>
</filter>
<filter id="filter7_f" x="93.1545" y="202.99" width="24.0191" height="24.0191" filterUnits="userSpaceOnUse" color-interpolation-filters="sRGB">
<feFlood flood-opacity="0" result="BackgroundImageFix"/>
<feBlend mode="normal" in="SourceGraphic" in2="BackgroundImageFix" result="shape"/>
<feGaussianBlur stdDeviation="2.00479" result="effect1_foregroundBlur"/>
</filter>
<filter id="filter8_f" x="99.1593" y="208.995" width="12.0096" height="12.0096" filterUnits="userSpaceOnUse" color-interpolation-filters="sRGB">
<feFlood flood-opacity="0" result="BackgroundImageFix"/>
<feBlend mode="normal" in="SourceGraphic" in2="BackgroundImageFix" result="shape"/>
<feGaussianBlur stdDeviation="1.00239" result="effect1_foregroundBlur"/>
</filter>
<filter id="filter9_f" x="84.1545" y="257.99" width="24.0191" height="24.0191" filterUnits="userSpaceOnUse" color-interpolation-filters="sRGB">
<feFlood flood-opacity="0" result="BackgroundImageFix"/>
<feBlend mode="normal" in="SourceGraphic" in2="BackgroundImageFix" result="shape"/>
<feGaussianBlur stdDeviation="2.00479" result="effect1_foregroundBlur"/>
</filter>
<filter id="filter10_f" x="90.1593" y="263.995" width="12.0096" height="12.0096" filterUnits="userSpaceOnUse" color-interpolation-filters="sRGB">
<feFlood flood-opacity="0" result="BackgroundImageFix"/>
<feBlend mode="normal" in="SourceGraphic" in2="BackgroundImageFix" result="shape"/>
<feGaussianBlur stdDeviation="1.00239" result="effect1_foregroundBlur"/>
</filter>
<filter id="filter11_f" x="92.1545" y="292.99" width="24.0191" height="24.0191" filterUnits="userSpaceOnUse" color-interpolation-filters="sRGB">
<feFlood flood-opacity="0" result="BackgroundImageFix"/>
<feBlend mode="normal" in="SourceGraphic" in2="BackgroundImageFix" result="shape"/>
<feGaussianBlur stdDeviation="2.00479" result="effect1_foregroundBlur"/>
</filter>
<filter id="filter12_f" x="98.1593" y="298.995" width="12.0096" height="12.0096" filterUnits="userSpaceOnUse" color-interpolation-filters="sRGB">
<feFlood flood-opacity="0" result="BackgroundImageFix"/>
<feBlend mode="normal" in="SourceGraphic" in2="BackgroundImageFix" result="shape"/>
<feGaussianBlur stdDeviation="1.00239" result="effect1_foregroundBlur"/>
</filter>
<filter id="filter13_f" x="142.154" y="282.99" width="24.0191" height="24.0191" filterUnits="userSpaceOnUse" color-interpolation-filters="sRGB">
<feFlood flood-opacity="0" result="BackgroundImageFix"/>
<feBlend mode="normal" in="SourceGraphic" in2="BackgroundImageFix" result="shape"/>
<feGaussianBlur stdDeviation="2.00479" result="effect1_foregroundBlur"/>
</filter>
<filter id="filter14_f" x="148.159" y="288.995" width="12.0096" height="12.0096" filterUnits="userSpaceOnUse" color-interpolation-filters="sRGB">
<feFlood flood-opacity="0" result="BackgroundImageFix"/>
<feBlend mode="normal" in="SourceGraphic" in2="BackgroundImageFix" result="shape"/>
<feGaussianBlur stdDeviation="1.00239" result="effect1_foregroundBlur"/>
</filter>
<filter id="filter15_f" x="128.154" y="183.99" width="24.0191" height="24.0191" filterUnits="userSpaceOnUse" color-interpolation-filters="sRGB">
<feFlood flood-opacity="0" result="BackgroundImageFix"/>
<feBlend mode="normal" in="SourceGraphic" in2="BackgroundImageFix" result="shape"/>
<feGaussianBlur stdDeviation="2.00479" result="effect1_foregroundBlur"/>
</filter>
<filter id="filter16_f" x="134.159" y="189.995" width="12.0096" height="12.0096" filterUnits="userSpaceOnUse" color-interpolation-filters="sRGB">
<feFlood flood-opacity="0" result="BackgroundImageFix"/>
<feBlend mode="normal" in="SourceGraphic" in2="BackgroundImageFix" result="shape"/>
<feGaussianBlur stdDeviation="1.00239" result="effect1_foregroundBlur"/>
</filter>
<filter id="filter17_f" x="90.1545" y="152.99" width="24.0191" height="24.0191" filterUnits="userSpaceOnUse" color-interpolation-filters="sRGB">
<feFlood flood-opacity="0" result="BackgroundImageFix"/>
<feBlend mode="normal" in="SourceGraphic" in2="BackgroundImageFix" result="shape"/>
<feGaussianBlur stdDeviation="2.00479" result="effect1_foregroundBlur"/>
</filter>
<filter id="filter18_f" x="96.1593" y="158.995" width="12.0096" height="12.0096" filterUnits="userSpaceOnUse" color-interpolation-filters="sRGB">
<feFlood flood-opacity="0" result="BackgroundImageFix"/>
<feBlend mode="normal" in="SourceGraphic" in2="BackgroundImageFix" result="shape"/>
<feGaussianBlur stdDeviation="1.00239" result="effect1_foregroundBlur"/>
</filter>
<filter id="filter19_f" x="237.154" y="117.99" width="24.0191" height="24.0191" filterUnits="userSpaceOnUse" color-interpolation-filters="sRGB">
<feFlood flood-opacity="0" result="BackgroundImageFix"/>
<feBlend mode="normal" in="SourceGraphic" in2="BackgroundImageFix" result="shape"/>
<feGaussianBlur stdDeviation="2.00479" result="effect1_foregroundBlur"/>
</filter>
<filter id="filter20_f" x="243.159" y="123.995" width="12.0096" height="12.0096" filterUnits="userSpaceOnUse" color-interpolation-filters="sRGB">
<feFlood flood-opacity="0" result="BackgroundImageFix"/>
<feBlend mode="normal" in="SourceGraphic" in2="BackgroundImageFix" result="shape"/>
<feGaussianBlur stdDeviation="1.00239" result="effect1_foregroundBlur"/>
</filter>
<filter id="filter21_f" x="249.154" y="74.9904" width="24.0191" height="24.0191" filterUnits="userSpaceOnUse" color-interpolation-filters="sRGB">
<feFlood flood-opacity="0" result="BackgroundImageFix"/>
<feBlend mode="normal" in="SourceGraphic" in2="BackgroundImageFix" result="shape"/>
<feGaussianBlur stdDeviation="2.00479" result="effect1_foregroundBlur"/>
</filter>
<filter id="filter22_f" x="255.159" y="80.995" width="12.0096" height="12.0096" filterUnits="userSpaceOnUse" color-interpolation-filters="sRGB">
<feFlood flood-opacity="0" result="BackgroundImageFix"/>
<feBlend mode="normal" in="SourceGraphic" in2="BackgroundImageFix" result="shape"/>
<feGaussianBlur stdDeviation="1.00239" result="effect1_foregroundBlur"/>
</filter>
<filter id="filter23_f" x="267.154" y="99.9904" width="24.0191" height="24.0191" filterUnits="userSpaceOnUse" color-interpolation-filters="sRGB">
<feFlood flood-opacity="0" result="BackgroundImageFix"/>
<feBlend mode="normal" in="SourceGraphic" in2="BackgroundImageFix" result="shape"/>
<feGaussianBlur stdDeviation="2.00479" result="effect1_foregroundBlur"/>
</filter>
<filter id="filter24_f" x="273.159" y="105.995" width="12.0096" height="12.0096" filterUnits="userSpaceOnUse" color-interpolation-filters="sRGB">
<feFlood flood-opacity="0" result="BackgroundImageFix"/>
<feBlend mode="normal" in="SourceGraphic" in2="BackgroundImageFix" result="shape"/>
<feGaussianBlur stdDeviation="1.00239" result="effect1_foregroundBlur"/>
</filter>
<filter id="filter25_f" x="285.154" y="124.99" width="24.0191" height="24.0191" filterUnits="userSpaceOnUse" color-interpolation-filters="sRGB">
<feFlood flood-opacity="0" result="BackgroundImageFix"/>
<feBlend mode="normal" in="SourceGraphic" in2="BackgroundImageFix" result="shape"/>
<feGaussianBlur stdDeviation="2.00479" result="effect1_foregroundBlur"/>
</filter>
<filter id="filter26_f" x="291.159" y="130.995" width="12.0096" height="12.0096" filterUnits="userSpaceOnUse" color-interpolation-filters="sRGB">
<feFlood flood-opacity="0" result="BackgroundImageFix"/>
<feBlend mode="normal" in="SourceGraphic" in2="BackgroundImageFix" result="shape"/>
<feGaussianBlur stdDeviation="1.00239" result="effect1_foregroundBlur"/>
</filter>
<filter id="filter27_f" x="255.154" y="140.99" width="24.0191" height="24.0191" filterUnits="userSpaceOnUse" color-interpolation-filters="sRGB">
<feFlood flood-opacity="0" result="BackgroundImageFix"/>
<feBlend mode="normal" in="SourceGraphic" in2="BackgroundImageFix" result="shape"/>
<feGaussianBlur stdDeviation="2.00479" result="effect1_foregroundBlur"/>
</filter>
<filter id="filter28_f" x="261.159" y="146.995" width="12.0096" height="12.0096" filterUnits="userSpaceOnUse" color-interpolation-filters="sRGB">
<feFlood flood-opacity="0" result="BackgroundImageFix"/>
<feBlend mode="normal" in="SourceGraphic" in2="BackgroundImageFix" result="shape"/>
<feGaussianBlur stdDeviation="1.00239" result="effect1_foregroundBlur"/>
</filter>
<filter id="filter29_f" x="228.154" y="172.99" width="24.0191" height="24.0191" filterUnits="userSpaceOnUse" color-interpolation-filters="sRGB">
<feFlood flood-opacity="0" result="BackgroundImageFix"/>
<feBlend mode="normal" in="SourceGraphic" in2="BackgroundImageFix" result="shape"/>
<feGaussianBlur stdDeviation="2.00479" result="effect1_foregroundBlur"/>
</filter>
<filter id="filter30_f" x="234.159" y="178.995" width="12.0096" height="12.0096" filterUnits="userSpaceOnUse" color-interpolation-filters="sRGB">
<feFlood flood-opacity="0" result="BackgroundImageFix"/>
<feBlend mode="normal" in="SourceGraphic" in2="BackgroundImageFix" result="shape"/>
<feGaussianBlur stdDeviation="1.00239" result="effect1_foregroundBlur"/>
</filter>
<filter id="filter31_f" x="275.154" y="172.99" width="24.0191" height="24.0191" filterUnits="userSpaceOnUse" color-interpolation-filters="sRGB">
<feFlood flood-opacity="0" result="BackgroundImageFix"/>
<feBlend mode="normal" in="SourceGraphic" in2="BackgroundImageFix" result="shape"/>
<feGaussianBlur stdDeviation="2.00479" result="effect1_foregroundBlur"/>
</filter>
<filter id="filter32_f" x="281.159" y="178.995" width="12.0096" height="12.0096" filterUnits="userSpaceOnUse" color-interpolation-filters="sRGB">
<feFlood flood-opacity="0" result="BackgroundImageFix"/>
<feBlend mode="normal" in="SourceGraphic" in2="BackgroundImageFix" result="shape"/>
<feGaussianBlur stdDeviation="1.00239" result="effect1_foregroundBlur"/>
</filter>
<filter id="filter33_f" x="569.154" y="133.99" width="24.0191" height="24.0191" filterUnits="userSpaceOnUse" color-interpolation-filters="sRGB">
<feFlood flood-opacity="0" result="BackgroundImageFix"/>
<feBlend mode="normal" in="SourceGraphic" in2="BackgroundImageFix" result="shape"/>
<feGaussianBlur stdDeviation="2.00479" result="effect1_foregroundBlur"/>
</filter>
<filter id="filter34_f" x="575.159" y="139.995" width="12.0096" height="12.0096" filterUnits="userSpaceOnUse" color-interpolation-filters="sRGB">
<feFlood flood-opacity="0" result="BackgroundImageFix"/>
<feBlend mode="normal" in="SourceGraphic" in2="BackgroundImageFix" result="shape"/>
<feGaussianBlur stdDeviation="1.00239" result="effect1_foregroundBlur"/>
</filter>
<filter id="filter35_f" x="517.154" y="145.99" width="24.0191" height="24.0191" filterUnits="userSpaceOnUse" color-interpolation-filters="sRGB">
<feFlood flood-opacity="0" result="BackgroundImageFix"/>
<feBlend mode="normal" in="SourceGraphic" in2="BackgroundImageFix" result="shape"/>
<feGaussianBlur stdDeviation="2.00479" result="effect1_foregroundBlur"/>
</filter>
<filter id="filter36_f" x="523.159" y="151.995" width="12.0096" height="12.0096" filterUnits="userSpaceOnUse" color-interpolation-filters="sRGB">
<feFlood flood-opacity="0" result="BackgroundImageFix"/>
<feBlend mode="normal" in="SourceGraphic" in2="BackgroundImageFix" result="shape"/>
<feGaussianBlur stdDeviation="1.00239" result="effect1_foregroundBlur"/>
</filter>
<filter id="filter37_f" x="534.154" y="180.99" width="24.0191" height="24.0191" filterUnits="userSpaceOnUse" color-interpolation-filters="sRGB">
<feFlood flood-opacity="0" result="BackgroundImageFix"/>
<feBlend mode="normal" in="SourceGraphic" in2="BackgroundImageFix" result="shape"/>
<feGaussianBlur stdDeviation="2.00479" result="effect1_foregroundBlur"/>
</filter>
<filter id="filter38_f" x="540.159" y="186.995" width="12.0096" height="12.0096" filterUnits="userSpaceOnUse" color-interpolation-filters="sRGB">
<feFlood flood-opacity="0" result="BackgroundImageFix"/>
<feBlend mode="normal" in="SourceGraphic" in2="BackgroundImageFix" result="shape"/>
<feGaussianBlur stdDeviation="1.00239" result="effect1_foregroundBlur"/>
</filter>
<filter id="filter39_f" x="511.154" y="214.99" width="24.0191" height="24.0191" filterUnits="userSpaceOnUse" color-interpolation-filters="sRGB">
<feFlood flood-opacity="0" result="BackgroundImageFix"/>
<feBlend mode="normal" in="SourceGraphic" in2="BackgroundImageFix" result="shape"/>
<feGaussianBlur stdDeviation="2.00479" result="effect1_foregroundBlur"/>
</filter>
<filter id="filter40_f" x="517.159" y="220.995" width="12.0096" height="12.0096" filterUnits="userSpaceOnUse" color-interpolation-filters="sRGB">
<feFlood flood-opacity="0" result="BackgroundImageFix"/>
<feBlend mode="normal" in="SourceGraphic" in2="BackgroundImageFix" result="shape"/>
<feGaussianBlur stdDeviation="1.00239" result="effect1_foregroundBlur"/>
</filter>
<filter id="filter41_f" x="519.154" y="278.99" width="24.0191" height="24.0191" filterUnits="userSpaceOnUse" color-interpolation-filters="sRGB">
<feFlood flood-opacity="0" result="BackgroundImageFix"/>
<feBlend mode="normal" in="SourceGraphic" in2="BackgroundImageFix" result="shape"/>
<feGaussianBlur stdDeviation="2.00479" result="effect1_foregroundBlur"/>
</filter>
<filter id="filter42_f" x="525.159" y="284.995" width="12.0096" height="12.0096" filterUnits="userSpaceOnUse" color-interpolation-filters="sRGB">
<feFlood flood-opacity="0" result="BackgroundImageFix"/>
<feBlend mode="normal" in="SourceGraphic" in2="BackgroundImageFix" result="shape"/>
<feGaussianBlur stdDeviation="1.00239" result="effect1_foregroundBlur"/>
</filter>
<filter id="filter43_f" x="549.154" y="334.99" width="24.0191" height="24.0191" filterUnits="userSpaceOnUse" color-interpolation-filters="sRGB">
<feFlood flood-opacity="0" result="BackgroundImageFix"/>
<feBlend mode="normal" in="SourceGraphic" in2="BackgroundImageFix" result="shape"/>
<feGaussianBlur stdDeviation="2.00479" result="effect1_foregroundBlur"/>
</filter>
<filter id="filter44_f" x="555.159" y="340.995" width="12.0096" height="12.0096" filterUnits="userSpaceOnUse" color-interpolation-filters="sRGB">
<feFlood flood-opacity="0" result="BackgroundImageFix"/>
<feBlend mode="normal" in="SourceGraphic" in2="BackgroundImageFix" result="shape"/>
<feGaussianBlur stdDeviation="1.00239" result="effect1_foregroundBlur"/>
</filter>
<filter id="filter45_f" x="576.154" y="282.99" width="24.0191" height="24.0191" filterUnits="userSpaceOnUse" color-interpolation-filters="sRGB">
<feFlood flood-opacity="0" result="BackgroundImageFix"/>
<feBlend mode="normal" in="SourceGraphic" in2="BackgroundImageFix" result="shape"/>
<feGaussianBlur stdDeviation="2.00479" result="effect1_foregroundBlur"/>
</filter>
<filter id="filter46_f" x="582.159" y="288.995" width="12.0096" height="12.0096" filterUnits="userSpaceOnUse" color-interpolation-filters="sRGB">
<feFlood flood-opacity="0" result="BackgroundImageFix"/>
<feBlend mode="normal" in="SourceGraphic" in2="BackgroundImageFix" result="shape"/>
<feGaussianBlur stdDeviation="1.00239" result="effect1_foregroundBlur"/>
</filter>
<filter id="filter47_f" x="580.154" y="202.99" width="24.0191" height="24.0191" filterUnits="userSpaceOnUse" color-interpolation-filters="sRGB">
<feFlood flood-opacity="0" result="BackgroundImageFix"/>
<feBlend mode="normal" in="SourceGraphic" in2="BackgroundImageFix" result="shape"/>
<feGaussianBlur stdDeviation="2.00479" result="effect1_foregroundBlur"/>
</filter>
<filter id="filter48_f" x="586.159" y="208.995" width="12.0096" height="12.0096" filterUnits="userSpaceOnUse" color-interpolation-filters="sRGB">
<feFlood flood-opacity="0" result="BackgroundImageFix"/>
<feBlend mode="normal" in="SourceGraphic" in2="BackgroundImageFix" result="shape"/>
<feGaussianBlur stdDeviation="1.00239" result="effect1_foregroundBlur"/>
</filter>
<filter id="filter49_f" x="546.154" y="233.99" width="24.0191" height="24.0191" filterUnits="userSpaceOnUse" color-interpolation-filters="sRGB">
<feFlood flood-opacity="0" result="BackgroundImageFix"/>
<feBlend mode="normal" in="SourceGraphic" in2="BackgroundImageFix" result="shape"/>
<feGaussianBlur stdDeviation="2.00479" result="effect1_foregroundBlur"/>
</filter>
<filter id="filter50_f" x="552.159" y="239.995" width="12.0096" height="12.0096" filterUnits="userSpaceOnUse" color-interpolation-filters="sRGB">
<feFlood flood-opacity="0" result="BackgroundImageFix"/>
<feBlend mode="normal" in="SourceGraphic" in2="BackgroundImageFix" result="shape"/>
<feGaussianBlur stdDeviation="1.00239" result="effect1_foregroundBlur"/>
</filter>
<linearGradient id="paint0_linear" x2="1" gradientUnits="userSpaceOnUse" gradientTransform="translate(9.50232) scale(9.50232 5.78037) rotate(90)">
<stop stop-color="#FAF6D3"/>
<stop offset="1" stop-color="#F4EABB"/>
</linearGradient>
<linearGradient id="paint1_linear" x2="1" gradientUnits="userSpaceOnUse" gradientTransform="translate(9.55246) scale(9.55246 5.75082) rotate(90)">
<stop stop-color="#FAF6D3"/>
<stop offset="1" stop-color="#F4EABB"/>
</linearGradient>
<linearGradient id="paint2_linear" x2="1" gradientUnits="userSpaceOnUse" gradientTransform="translate(9.55246) scale(9.55246 5.75082) rotate(90)">
<stop stop-color="#F4EABB"/>
<stop offset="1" stop-color="#FAF6D3"/>
</linearGradient>
<linearGradient id="paint3_linear" x2="1" gradientUnits="userSpaceOnUse" gradientTransform="translate(17.4374) scale(17.4374 7.48114) rotate(90)">
<stop stop-color="#FAF6D3"/>
<stop offset="1" stop-color="#F4EABB"/>
</linearGradient>
<linearGradient id="paint4_linear" x2="1" gradientUnits="userSpaceOnUse" gradientTransform="translate(9.55246) scale(9.55246 5.75082) rotate(90)">
<stop stop-color="#FAF6D3"/>
<stop offset="1" stop-color="#F4EABB"/>
</linearGradient>
<linearGradient id="paint5_linear" x2="1" gradientUnits="userSpaceOnUse" gradientTransform="translate(9.45513) scale(9.45513 5.80839) rotate(90)">
<stop stop-color="#FAF6D3"/>
<stop offset="1" stop-color="#FAF6D3"/>
</linearGradient>
<linearGradient id="paint6_linear" x2="1" gradientUnits="userSpaceOnUse" gradientTransform="translate(17.4147) scale(17.4147 7.4904) rotate(90)">
<stop stop-color="#FAF6D3"/>
<stop offset="1" stop-color="#F4EABB"/>
</linearGradient>
</defs>
</svg>
