<svg width="87" height="112" viewBox="0 0 87 112" fill="none" xmlns="http://www.w3.org/2000/svg">
<path fill-rule="evenodd" clip-rule="evenodd" d="M3.68335 22.3861C3.68614 22.4451 3.63904 22.4945 3.57996 22.4945H1.80065C0.806178 22.4945 0 23.3007 0 24.2951V49.0561C0 52.826 3.05615 55.8822 6.82609 55.8822H34.6949C38.4649 55.8822 41.521 52.826 41.521 49.0561V24.207C41.521 23.2612 40.7543 22.4945 39.8085 22.4945C38.7873 22.4945 37.9952 21.606 38.0447 20.5859C38.0522 20.4326 38.0587 20.2747 38.0642 20.1127C38.1328 18.0775 38.0344 15.2923 37.3188 12.4398C36.6035 9.58726 35.2339 6.52379 32.6555 4.12828C30.0356 1.69468 26.3865 0.153668 21.5161 0.0101134C16.6172 -0.133441 12.8621 1.26011 10.093 3.62632C7.37476 5.94859 5.81714 9.02672 4.91992 11.9212C4.02124 14.8216 3.73706 17.6908 3.6687 19.8002C3.63428 20.8627 3.65405 21.7533 3.68335 22.3861ZM32.8074 22.016C32.7755 22.291 32.5403 22.4945 32.2634 22.4945H9.14845C8.9554 22.4945 8.79605 22.3435 8.78564 22.1507C8.76147 21.6302 8.74438 20.8744 8.77368 19.9652C8.83325 18.1293 9.08081 15.7503 9.79883 13.433C10.5183 11.1117 11.6621 9.00425 13.4109 7.51011C15.1086 6.05894 17.5862 5.00425 21.3657 5.11558C25.1741 5.22789 27.5869 6.39195 29.179 7.87046C30.812 9.38804 31.8037 11.4457 32.3645 13.682C32.9253 15.9183 33.0183 18.1908 32.9592 19.9408C32.9302 20.807 32.8645 21.5238 32.8074 22.016ZM23.4832 36.6332C23.4832 36.9564 23.4232 37.2657 23.3137 37.5504C22.8616 38.7261 22.0291 40.0513 22.4326 41.2446L22.6335 41.8389C23.0276 43.0043 22.1609 44.2123 20.9307 44.2123C19.7005 44.2123 18.8337 43.0043 19.2278 41.8389L19.4288 41.2446C19.8322 40.0513 18.9997 38.7261 18.5476 37.5504C18.4382 37.2657 18.3782 36.9564 18.3782 36.6332C18.3782 35.2211 19.521 34.0775 20.9307 34.0775C22.3403 34.0775 23.4832 35.2211 23.4832 36.6332Z" transform="translate(22.6243 22.9766)" fill="#4F4F4F"/>
<path d="M0 74.8659V17.9533C0 14.9732 1.93322 12.3376 4.77567 11.4424L39.028 0.655579C40.382 0.229159 41.8353 0.235505 43.1856 0.673734L76.2811 11.4149C79.0947 12.328 81 14.9495 81 17.9076V74.9275C81 77.0868 79.9783 79.1188 78.2451 80.4066L45.1202 105.02C42.7322 106.794 39.47 106.818 37.0568 105.078L2.8339 80.4029C1.0544 79.1199 0 77.0597 0 74.8659Z" transform="translate(3.2251 2.88281)" stroke="#6B5795" stroke-width="5.10773"/>
</svg>
