<svg width="211" height="51" viewBox="0 0 211 51" fill="none" xmlns="http://www.w3.org/2000/svg">
<rect width="210.008" height="51" fill="#E1DFE9"/>
<rect width="210" height="4" transform="translate(0 47)" fill="#7356B1"/>
<path d="M3.682 31.112C2.80467 31.112 1.93667 30.8973 1.078 30.468V29.04C1.92733 29.544 2.75333 29.796 3.556 29.796C4.26533 29.796 4.81133 29.67 5.194 29.418C5.57667 29.1567 5.768 28.7833 5.768 28.298C5.768 27.794 5.57667 27.4067 5.194 27.136C4.82067 26.8653 4.26067 26.73 3.514 26.73H2.338V25.456H3.542C4.11133 25.456 4.54533 25.344 4.844 25.12C5.152 24.8867 5.306 24.5693 5.306 24.168C5.306 23.7387 5.138 23.4167 4.802 23.202C4.466 22.978 3.99467 22.866 3.388 22.866C3.024 22.866 2.674 22.908 2.338 22.992C2.002 23.076 1.652 23.2067 1.288 23.384V22.068C1.99733 21.7133 2.74867 21.536 3.542 21.536C4.20467 21.536 4.77867 21.648 5.264 21.872C5.74933 22.0867 6.118 22.3853 6.37 22.768C6.622 23.1507 6.748 23.5847 6.748 24.07C6.748 24.4433 6.664 24.77 6.496 25.05C6.328 25.3207 6.13667 25.5353 5.922 25.694C5.71667 25.8433 5.56267 25.9273 5.46 25.946C5.61867 25.9833 5.83333 26.1 6.104 26.296C6.384 26.492 6.63133 26.7673 6.846 27.122C7.07 27.4673 7.182 27.878 7.182 28.354C7.182 28.8953 7.04667 29.376 6.776 29.796C6.50533 30.2067 6.104 30.5287 5.572 30.762C5.04933 30.9953 4.41933 31.112 3.682 31.112ZM9.22447 29.362H10.8905V31H9.22447V29.362ZM16.9654 21.662H20.2414C23.228 21.662 24.7214 23.216 24.7214 26.324C24.7214 29.4413 23.228 31 20.2414 31H16.9654V21.662ZM20.0874 29.698C21.1327 29.698 21.9027 29.4273 22.3974 28.886C22.892 28.3447 23.1394 27.4907 23.1394 26.324C23.1394 25.1573 22.892 24.3033 22.3974 23.762C21.9027 23.2207 21.1327 22.95 20.0874 22.95H18.5054V29.698H20.0874ZM29.531 23.818C30.2964 23.818 30.945 24.0047 31.477 24.378C32.0184 24.742 32.2844 25.3347 32.275 26.156V29.516C32.275 30.1507 31.995 30.594 31.435 30.846C30.875 31.0887 30.077 31.21 29.041 31.21C28.2104 31.21 27.5244 31.0373 26.983 30.692C26.4417 30.3467 26.171 29.768 26.171 28.956C26.171 28.1907 26.3904 27.6167 26.829 27.234C27.277 26.8513 27.907 26.66 28.719 26.66C29.559 26.66 30.259 26.828 30.819 27.164V26.492C30.819 25.54 30.245 25.064 29.097 25.064C28.6864 25.064 28.2757 25.1293 27.865 25.26C27.4544 25.3813 27.1137 25.554 26.843 25.778V24.406C27.1044 24.238 27.4824 24.098 27.977 23.986C28.481 23.874 28.999 23.818 29.531 23.818ZM29.209 30.062C29.797 30.062 30.2124 30.02 30.455 29.936C30.6977 29.852 30.819 29.684 30.819 29.432V28.074C30.343 27.8687 29.8204 27.766 29.251 27.766C28.719 27.766 28.313 27.8593 28.033 28.046C27.7624 28.2327 27.627 28.5127 27.627 28.886C27.627 29.278 27.781 29.572 28.089 29.768C28.4064 29.964 28.7797 30.062 29.209 30.062ZM36.8604 31.182C36.2164 31.182 35.7124 31.0093 35.3484 30.664C34.9844 30.3187 34.8024 29.8287 34.8024 29.194V25.19H33.6684V23.972H34.8024V22.012H36.3144V23.972H38.0224V25.19H36.3144V28.9C36.3144 29.2453 36.375 29.4973 36.4964 29.656C36.6177 29.8053 36.8324 29.88 37.1404 29.88C37.2897 29.88 37.4437 29.8613 37.6024 29.824C37.7704 29.7773 37.9104 29.7213 38.0224 29.656V30.958C37.6957 31.1073 37.3084 31.182 36.8604 31.182ZM42.8354 31.21C41.8554 31.21 41.0901 30.972 40.5394 30.496C39.9981 30.0107 39.7274 29.306 39.7274 28.382V23.972H41.1974V28.172C41.1974 28.7693 41.3281 29.2127 41.5894 29.502C41.8601 29.782 42.2754 29.922 42.8354 29.922C43.3954 29.922 43.8061 29.782 44.0674 29.502C44.3381 29.2127 44.4734 28.7693 44.4734 28.172V23.972H45.8874V28.382C45.8874 29.306 45.6214 30.0107 45.0894 30.496C44.5574 30.972 43.8061 31.21 42.8354 31.21ZM55.6159 23.818C56.5959 23.818 57.3099 24.0233 57.7579 24.434C58.2152 24.8447 58.4439 25.484 58.4439 26.352V31H56.9739V26.548C56.9739 25.568 56.4185 25.078 55.3079 25.078C54.8132 25.078 54.3605 25.204 53.9499 25.456C54.0152 25.708 54.0479 26.0067 54.0479 26.352V31H52.5779V26.548C52.5779 25.568 52.0225 25.078 50.9119 25.078C50.4079 25.078 49.9132 25.1667 49.4279 25.344V31H47.9579V24.546C48.3779 24.3313 48.8865 24.1587 49.4839 24.028C50.0905 23.888 50.6692 23.818 51.2199 23.818C52.1345 23.818 52.8159 23.9953 53.2639 24.35C54.0199 23.9953 54.8039 23.818 55.6159 23.818Z" transform="translate(15)" fill="#6B5795"/>
</svg>
