<svg width="211" height="51" viewBox="0 0 211 51" fill="none" xmlns="http://www.w3.org/2000/svg">
<rect width="210.008" height="51" transform="translate(0.660156)" fill="#E1DFE9"/>
<path d="M3.626 31.112C2.73 31.112 1.89933 30.916 1.134 30.524V29.488C1.862 29.8987 2.65067 30.104 3.5 30.104C4.33067 30.104 4.96533 29.95 5.404 29.642C5.84267 29.334 6.062 28.8907 6.062 28.312C6.062 27.7333 5.838 27.29 5.39 26.982C4.942 26.674 4.29333 26.52 3.444 26.52H2.422V25.554H3.486C4.16733 25.554 4.68533 25.428 5.04 25.176C5.404 24.9147 5.586 24.5413 5.586 24.056C5.586 23.5707 5.39467 23.1973 5.012 22.936C4.63867 22.6747 4.09267 22.544 3.374 22.544C2.68333 22.544 2.01133 22.7073 1.358 23.034V22.012C2.03 21.6947 2.73933 21.536 3.486 21.536C4.214 21.536 4.80667 21.6573 5.264 21.9C5.73067 22.1333 6.06667 22.4413 6.272 22.824C6.48667 23.2067 6.594 23.6173 6.594 24.056C6.594 24.4667 6.50533 24.812 6.328 25.092C6.15067 25.372 5.95 25.5913 5.726 25.75C5.502 25.9087 5.39 25.974 5.39 25.946C5.39 25.918 5.544 26.0067 5.852 26.212C6.16933 26.408 6.44933 26.6833 6.692 27.038C6.944 27.3927 7.07 27.8267 7.07 28.34C7.07 28.8253 6.95333 29.278 6.72 29.698C6.48667 30.1087 6.11333 30.4493 5.6 30.72C5.08667 30.9813 4.42867 31.112 3.626 31.112ZM9.28211 29.6H10.6821V31H9.28211V29.6ZM17.0494 21.662H19.9754C21.4314 21.662 22.5234 22.054 23.2514 22.838C23.9887 23.6127 24.3574 24.7747 24.3574 26.324C24.3574 29.4413 22.8967 31 19.9754 31H17.0494V21.662ZM19.9054 30.048C21.0907 30.048 21.954 29.7493 22.4954 29.152C23.046 28.5547 23.3214 27.612 23.3214 26.324C23.3214 25.036 23.046 24.0933 22.4954 23.496C21.954 22.8987 21.0907 22.6 19.9054 22.6H18.0574V30.048H19.9054ZM29.2993 23.888C30.0833 23.888 30.6993 24.0793 31.1473 24.462C31.6046 24.8447 31.8333 25.4 31.8333 26.128V29.516C31.8333 30.188 31.5579 30.6407 31.0073 30.874C30.4566 31.098 29.6959 31.21 28.7253 31.21C27.9879 31.21 27.3533 31.0467 26.8213 30.72C26.2986 30.3933 26.0373 29.8473 26.0373 29.082C26.0373 28.2513 26.2659 27.6493 26.7233 27.276C27.1806 26.8933 27.8106 26.702 28.6133 26.702C29.5186 26.702 30.2513 26.8653 30.8113 27.192V26.366C30.8113 25.3207 30.1999 24.798 28.9773 24.798C28.5759 24.798 28.1699 24.854 27.7593 24.966C27.3486 25.078 27.0033 25.246 26.7233 25.47V24.462C27.0033 24.2847 27.3813 24.1447 27.8573 24.042C28.3426 23.9393 28.8233 23.888 29.2993 23.888ZM28.9633 30.314C29.6166 30.314 30.0879 30.2673 30.3773 30.174C30.6666 30.0713 30.8113 29.8707 30.8113 29.572V28.004C30.5593 27.8827 30.2653 27.7893 29.9293 27.724C29.5933 27.6493 29.2433 27.612 28.8793 27.612C28.2913 27.612 27.8386 27.724 27.5213 27.948C27.2039 28.172 27.0453 28.4987 27.0453 28.928C27.0453 29.4133 27.2319 29.768 27.6053 29.992C27.9786 30.2067 28.4313 30.314 28.9633 30.314ZM36.2672 31.112C35.7539 31.112 35.3339 30.958 35.0072 30.65C34.6806 30.3327 34.5172 29.8847 34.5172 29.306V24.938H33.2992V24.014H34.5172V22.04H35.5252V24.014H37.3312V24.938H35.5252V28.984C35.5252 29.3947 35.5906 29.6933 35.7212 29.88C35.8519 30.0667 36.0946 30.16 36.4492 30.16C36.7946 30.16 37.0886 30.104 37.3312 29.992V30.944C37.2006 30.9907 37.0326 31.028 36.8272 31.056C36.6312 31.0933 36.4446 31.112 36.2672 31.112ZM42.0812 31.21C41.1478 31.21 40.4245 30.972 39.9112 30.496C39.4072 30.0107 39.1552 29.3247 39.1552 28.438V24.014H40.1632V28.214C40.1632 28.9233 40.3172 29.446 40.6252 29.782C40.9332 30.1087 41.4185 30.272 42.0812 30.272C42.7345 30.272 43.2152 30.1087 43.5232 29.782C43.8405 29.446 43.9992 28.9233 43.9992 28.214V24.014H45.0072V28.438C45.0072 29.3247 44.7505 30.0107 44.2372 30.496C43.7332 30.972 43.0145 31.21 42.0812 31.21ZM54.5989 23.888C55.5789 23.888 56.2836 24.1027 56.7129 24.532C57.1516 24.9613 57.3709 25.6007 57.3709 26.45V31H56.3629V26.45C56.3629 25.3487 55.7376 24.798 54.4869 24.798C53.8896 24.798 53.3249 24.9567 52.7929 25.274C52.9142 25.6007 52.9749 25.9927 52.9749 26.45V31H51.9669V26.45C51.9669 25.3487 51.3416 24.798 50.0909 24.798C49.5122 24.798 48.9009 24.8913 48.2569 25.078V31H47.2489V24.574C48.1542 24.1167 49.1389 23.888 50.2029 23.888C51.1082 23.888 51.7896 24.0793 52.2469 24.462C52.9469 24.0793 53.7309 23.888 54.5989 23.888Z" transform="translate(16)" fill="#666666"/>
</svg>
