<svg width="37" height="11" viewBox="0 0 37 11" fill="none" xmlns="http://www.w3.org/2000/svg">
<path d="M1.19 4.662H4.116C5.572 4.662 6.664 5.054 7.392 5.838C8.12933 6.61267 8.498 7.77467 8.498 9.324C8.498 12.4413 7.03733 14 4.116 14H1.19V4.662ZM4.046 13.048C5.23133 13.048 6.09467 12.7493 6.636 12.152C7.18667 11.5547 7.462 10.612 7.462 9.324C7.462 8.036 7.18667 7.09333 6.636 6.496C6.09467 5.89867 5.23133 5.6 4.046 5.6H2.198V13.048H4.046ZM13.4399 6.888C14.2239 6.888 14.8399 7.07933 15.2879 7.462C15.7452 7.84467 15.9739 8.4 15.9739 9.128V12.516C15.9739 13.188 15.6986 13.6407 15.1479 13.874C14.5972 14.098 13.8366 14.21 12.8659 14.21C12.1286 14.21 11.4939 14.0467 10.9619 13.72C10.4392 13.3933 10.1779 12.8473 10.1779 12.082C10.1779 11.2513 10.4066 10.6493 10.8639 10.276C11.3212 9.89333 11.9512 9.702 12.7539 9.702C13.6592 9.702 14.3919 9.86533 14.9519 10.192V9.366C14.9519 8.32067 14.3406 7.798 13.1179 7.798C12.7166 7.798 12.3106 7.854 11.8999 7.966C11.4892 8.078 11.1439 8.246 10.8639 8.47V7.462C11.1439 7.28467 11.5219 7.14467 11.9979 7.042C12.4832 6.93933 12.9639 6.888 13.4399 6.888ZM13.1039 13.314C13.7572 13.314 14.2286 13.2673 14.5179 13.174C14.8072 13.0713 14.9519 12.8707 14.9519 12.572V11.004C14.6999 10.8827 14.4059 10.7893 14.0699 10.724C13.7339 10.6493 13.3839 10.612 13.0199 10.612C12.4319 10.612 11.9792 10.724 11.6619 10.948C11.3446 11.172 11.1859 11.4987 11.1859 11.928C11.1859 12.4133 11.3726 12.768 11.7459 12.992C12.1192 13.2067 12.5719 13.314 13.1039 13.314ZM21.1358 14.21C20.2025 14.21 19.4792 13.972 18.9658 13.496C18.4618 13.0107 18.2098 12.3247 18.2098 11.438V7.014H19.2178V11.214C19.2178 11.9233 19.3718 12.446 19.6798 12.782C19.9878 13.1087 20.4732 13.272 21.1358 13.272C21.7892 13.272 22.2698 13.1087 22.5778 12.782C22.8952 12.446 23.0538 11.9233 23.0538 11.214V7.014H24.0618V11.438C24.0618 12.3247 23.8052 13.0107 23.2918 13.496C22.7878 13.972 22.0692 14.21 21.1358 14.21ZM29.0196 6.888C30.0836 6.888 30.8629 7.23333 31.3576 7.924C31.8523 8.61467 32.0903 9.534 32.0716 10.682H26.9756C26.9756 11.522 27.1716 12.166 27.5636 12.614C27.9556 13.062 28.5156 13.286 29.2436 13.286C30.1769 13.286 30.9749 13.0853 31.6376 12.684V13.72C30.9563 14.0467 30.1396 14.21 29.1876 14.21C28.1703 14.21 27.3769 13.8973 26.8076 13.272C26.2383 12.6373 25.9536 11.7133 25.9536 10.5C25.9536 9.31467 26.2196 8.41867 26.7516 7.812C27.2929 7.196 28.0489 6.888 29.0196 6.888ZM29.0196 7.812C28.4036 7.812 27.9369 7.95667 27.6196 8.246C27.3023 8.526 27.1016 9.03 27.0176 9.758H31.0076C30.9609 9.10467 30.7743 8.61933 30.4476 8.302C30.1303 7.97533 29.6543 7.812 29.0196 7.812ZM33.9598 7.574C34.3145 7.42467 34.7812 7.27533 35.3598 7.126C35.9478 6.96733 36.5545 6.888 37.1798 6.888C37.2732 6.888 37.4225 6.916 37.6278 6.972V7.868C37.4038 7.84 37.1798 7.826 36.9558 7.826C36.6478 7.826 36.3632 7.84467 36.1018 7.882C35.8405 7.91933 35.4625 7.98 34.9678 8.064V14H33.9598V7.574Z" transform="translate(-1 -4)" fill="#666666"/>
</svg>
