<svg width="136" height="121" viewBox="0 0 136 121" fill="none" xmlns="http://www.w3.org/2000/svg">
<ellipse cx="3" cy="6" rx="3" ry="6" transform="translate(89.532 49.2236)" fill="#6B5795"/>
<path d="M2.68574 0C-9.37326 15.2273 23.5428 16.5527 15.7304 0" transform="matrix(-0.151407 0.988472 -0.988955 -0.14822 36.8044 56.2529)" stroke="#6B5795" stroke-width="4"/>
<path d="M0.210579 31.2801C3.93816 13.5812 19.6817 0 38.6546 0C59.5247 0 76.3073 14.6576 77.6447 34.9971C77.6927 35.7278 82.0766 41.2756 83.311 43.3726C83.5786 43.8271 83.7573 44.5386 83.2431 44.6559C81.8886 44.965 77.6479 43.5084 77.4455 44.9472C77.2513 46.3276 76.9852 47.6822 76.651 49.0073C76.3717 50.1151 62.7291 48.0571 62.3569 49.1217C61.8838 50.4749 74.4184 55.1083 73.8034 56.3842C67.5284 69.4021 54.3425 78 38.6546 78C19.4779 78 3.5036 64.4175 0 46.434" transform="translate(28.877 25.2236)" stroke="#6B5795" stroke-width="4.5"/>
<line y1="-1.80013" x2="38.8096" y2="-1.80013" transform="translate(3.03271 120.223) rotate(-38.1988)" stroke="#4F4F4F" stroke-width="3.60027"/>
<line y1="-1.80013" x2="39.0516" y2="-1.80013" transform="translate(103.532 95.2231) rotate(39.8061)" stroke="#4F4F4F" stroke-width="3.60027"/>
<line y1="-1.80013" x2="14.9999" y2="-1.80013" transform="translate(117.532 62.2231) rotate(0.218215)" stroke="#4F4F4F" stroke-width="3.60027"/>
<line y1="-1.80013" x2="42.2325" y2="-1.80013" transform="translate(2.53198 3.54248) rotate(42.7745)" stroke="#4F4F4F" stroke-width="3.60027"/>
<line y1="-1.80013" x2="42.9709" y2="-1.80013" transform="translate(101.532 32.2231) rotate(-41.8683)" stroke="#4F4F4F" stroke-width="3.60027"/>
<path d="M0 0L16.0241 0.478262" transform="translate(70.2712 19.2354) scale(-1 1) rotate(-90)" stroke="#4F4F4F" stroke-width="3.60027"/>
</svg>
