<?xml version="1.0" encoding="utf-8"?>
<!-- Generator: Adobe Illustrator 22.1.0, SVG Export Plug-In . SVG Version: 6.00 Build 0)  -->
<svg version="1.1" id="Layer_1" xmlns="http://www.w3.org/2000/svg" xmlns:xlink="http://www.w3.org/1999/xlink" x="0px" y="0px"
	 viewBox="0 0 458 457" style="enable-background:new 0 0 458 457;" xml:space="preserve">
<style type="text/css">
	.st0{fill:#6B5795;}
	.st1{fill:#988CB3;stroke:#FFFFFF;stroke-width:2.1772;}
	.st2{fill:#B4ACC5;}
	.st3{fill:#219653;}
	.st4{fill:#C4C4C4;}
	.st5{fill:#828282;}
</style>
<path class="st0" d="M218.9,153.7l91.2,107.6l-27.4,23.2l-13.6-16L116,398.2l13.6,16l-6.9,5.8L31.5,312.4l6.9-5.8l13.6,16L205.1,193
	l-13.6-16L218.9,153.7z"/>
<rect x="149.3" y="319.3" transform="matrix(0.7629 -0.6465 0.6465 0.7629 -173.8602 183.4241)" class="st1" width="27.8" height="18.8"/>
<rect x="175.7" y="194.5" transform="matrix(0.7629 -0.6465 0.6465 0.7629 -89.1952 163.7864)" class="st2" width="6" height="18"/>
<rect x="152.8" y="213.8" transform="matrix(0.7629 -0.6465 0.6465 0.7629 -107.1233 153.5912)" class="st2" width="6" height="18"/>
<rect x="130" y="233.2" transform="matrix(0.7629 -0.6465 0.6465 0.7629 -125.0516 143.3976)" class="st2" width="6" height="18"/>
<rect x="107.1" y="252.5" transform="matrix(0.7629 -0.6465 0.6465 0.7629 -142.9797 133.2024)" class="st2" width="6" height="18"/>
<rect x="84.3" y="271.9" transform="matrix(0.7629 -0.6465 0.6465 0.7629 -160.9078 123.0075)" class="st2" width="6" height="18"/>
<rect x="61.4" y="291.2" transform="matrix(0.7629 -0.6465 0.6465 0.7629 -178.8368 112.814)" class="st2" width="6" height="18"/>
<path class="st3" d="M191.5,176.9l13.6,16l-18.3,15.5l-13.6-16l2.3-1.9l9.7,11.5l13.7-11.6l-9.7-11.5L191.5,176.9z"/>
<path class="st3" d="M168.6,196.3l13.6,16l-18.3,15.5l-13.6-16l2.3-1.9l9.7,11.5l13.7-11.6l-9.7-11.5L168.6,196.3z"/>
<path class="st3" d="M145.8,215.6l13.6,16l-18.3,15.5l-13.6-16l2.3-1.9l9.7,11.5l13.7-11.6l-9.7-11.5L145.8,215.6z"/>
<path class="st3" d="M122.9,235l13.6,16l-18.3,15.5l-13.6-16l2.3-1.9l9.7,11.5l13.7-11.6l-9.7-11.5L122.9,235z"/>
<path class="st3" d="M100.1,254.3l13.6,16l-18.3,15.5l-13.6-16l2.3-1.9l9.7,11.5l13.7-11.6l-9.7-11.5L100.1,254.3z"/>
<path class="st3" d="M77.2,273.7l13.6,16l-18.3,15.5l-13.6-16l2.3-1.9l9.7,11.5L84.6,287l-9.7-11.5L77.2,273.7z"/>
<path class="st3" d="M54.3,293l13.6,16l-18.3,15.5l-13.6-16l2.3-1.9L48,318l13.7-11.6L52,294.9L54.3,293z"/>
<rect x="137.1" y="380.5" transform="matrix(0.7629 -0.6465 0.6465 0.7629 -218.6399 182.9313)" class="st4" width="6" height="18"/>
<rect x="159.9" y="361.2" transform="matrix(0.7629 -0.6465 0.6465 0.7629 -200.7121 193.1242)" class="st4" width="6" height="18"/>
<rect x="182.8" y="341.9" transform="matrix(0.7629 -0.6465 0.6465 0.7629 -182.7839 203.32)" class="st4" width="6" height="18"/>
<rect x="205.7" y="322.5" transform="matrix(0.7629 -0.6465 0.6465 0.7629 -164.8559 213.5136)" class="st4" width="6" height="18"/>
<rect x="228.5" y="303.2" transform="matrix(0.7629 -0.6465 0.6465 0.7629 -146.9275 223.7079)" class="st4" width="6" height="18"/>
<rect x="251.4" y="283.8" transform="matrix(0.7629 -0.6465 0.6465 0.7629 -128.9999 233.9024)" class="st4" width="6" height="18"/>
<path class="st3" d="M127.3,416.1l-13.6-16l18.3-15.5l13.6,16l-2.3,1.9l-9.7-11.5l-13.7,11.6l9.7,11.5L127.3,416.1z"/>
<path class="st3" d="M150.1,396.8l-13.6-16l18.3-15.5l13.6,16l-2.3,1.9l-9.7-11.5l-13.7,11.6l9.7,11.5L150.1,396.8z"/>
<path class="st3" d="M173,377.4l-13.6-16l18.3-15.5l13.6,16l-2.3,1.9l-9.7-11.5L165.6,364l9.7,11.5L173,377.4z"/>
<path class="st3" d="M195.9,358.1l-13.6-16l18.3-15.5l13.6,16l-2.3,1.9l-9.7-11.5l-13.7,11.6l9.7,11.5L195.9,358.1z"/>
<path class="st3" d="M218.7,338.7l-13.6-16l18.3-15.5l13.6,16l-2.3,1.9l-9.7-11.5l-13.7,11.6l9.7,11.5L218.7,338.7z"/>
<path class="st3" d="M241.6,319.4l-13.6-16l18.3-15.5l13.6,16l-2.3,1.9l-9.7-11.5L234.2,306l9.7,11.5L241.6,319.4z"/>
<path class="st3" d="M264.4,300l-13.6-16l18.3-15.5l13.6,16l-2.3,1.9l-9.7-11.5L257,286.7l9.7,11.5L264.4,300z"/>
<rect x="163.6" y="234.5" transform="matrix(0.7629 -0.6465 0.6465 0.7629 -124.088 185.5645)" class="st1" width="54.7" height="54.8"/>
<rect x="89.3" y="300.2" transform="matrix(0.7629 -0.6465 0.6465 0.7629 -180.7005 147.4281)" class="st1" width="42.7" height="39.8"/>
<rect x="239.6" y="159.5" transform="matrix(0.7629 -0.6465 0.6465 0.7629 -83.9951 213.1168)" class="st2" width="18" height="123.1"/>
<path class="st5" d="M443.9,206c0.4,2.2-0.4,4.5-2,6l-2.7,2.4c-3.9,3.6-10.4,1.3-11.2-4.1C416.2,131,387.4,88.6,295.6,56
	c-4.2-1.5-5.9-6.7-3.1-10.3l2.3-3c1.7-2.3,4.8-3.2,7.5-2.2C393.2,74.3,427.7,113.3,443.9,206z"/>
<path class="st5" d="M397.4,199.9c0.3,2-0.3,4.1-1.8,5.6l-3.1,3.2c-4,4.1-11.1,1.5-11.6-4.3c-5-54.5-23.3-83.1-85.5-98.1
	c-4.9-1.2-7-7.2-3.7-11l2.5-2.9c1.7-1.9,4.4-2.7,6.8-2C364.5,109.7,387,135.2,397.4,199.9z"/>
<path class="st5" d="M344.7,195.2c-0.4,0.8-0.9,1.6-1.6,2.2l-0.9,0.8c-4.9,4.3-12.6-0.4-11.8-6.8c3.3-25.3-4.2-37.6-32.2-38.6
	c-6.3-0.2-9.9-8.3-5.2-12.6l0.5-0.4c0.8-0.7,1.7-1.2,2.8-1.5C333,129.8,357.3,165.9,344.7,195.2z"/>
<ellipse transform="matrix(0.6584 -0.7527 0.7527 0.6584 -37.3824 286.9586)" class="st5" cx="297.4" cy="184.7" rx="14.6" ry="14.6"/>
</svg>
