<svg width="49" height="11" viewBox="0 0 49 11" fill="none" xmlns="http://www.w3.org/2000/svg">
<path d="M6.972 12.992V14H1.078V13.118C1.75 12.6233 2.44533 12.0447 3.164 11.382C3.88267 10.71 4.50333 9.996 5.026 9.24C5.558 8.484 5.824 7.79333 5.824 7.168C5.824 6.71067 5.66067 6.328 5.334 6.02C5.01667 5.70267 4.44733 5.544 3.626 5.544C2.758 5.544 1.94133 5.81467 1.176 6.356V5.25C1.96 4.774 2.80467 4.536 3.71 4.536C4.438 4.536 5.03533 4.662 5.502 4.914C5.96867 5.166 6.30467 5.49267 6.51 5.894C6.72467 6.286 6.832 6.71067 6.832 7.168C6.832 8.036 6.412 8.988 5.572 10.024C4.732 11.06 3.752 12.0493 2.632 12.992H6.972ZM12.6568 14.154C11.4341 14.154 10.5148 13.7527 9.89877 12.95C9.28277 12.1473 8.97477 10.9527 8.97477 9.366C8.97477 7.77933 9.28277 6.58467 9.89877 5.782C10.5148 4.97933 11.4341 4.578 12.6568 4.578C15.1114 4.578 16.3388 6.174 16.3388 9.366C16.3388 12.558 15.1114 14.154 12.6568 14.154ZM12.6568 13.23C13.1608 13.23 13.6041 13.1367 13.9868 12.95C14.3694 12.7633 14.6868 12.3853 14.9388 11.816C15.2001 11.2467 15.3308 10.43 15.3308 9.366C15.3308 8.302 15.2001 7.48533 14.9388 6.916C14.6868 6.34667 14.3648 5.96867 13.9728 5.782C13.5901 5.59533 13.1514 5.502 12.6568 5.502C12.1621 5.502 11.7188 5.59533 11.3268 5.782C10.9441 5.96867 10.6221 6.34667 10.3608 6.916C10.1088 7.48533 9.98277 8.302 9.98277 9.366C9.98277 10.43 10.1088 11.2467 10.3608 11.816C10.6221 12.3853 10.9441 12.7633 11.3268 12.95C11.7094 13.1367 12.1528 13.23 12.6568 13.23ZM22.4361 4.662H28.3301V5.614H23.4441V8.834H27.7421V9.814H23.4441V13.048H28.3301V14H22.4361V4.662ZM33.4269 14.21C32.4935 14.21 31.7702 13.972 31.2569 13.496C30.7529 13.0107 30.5009 12.3247 30.5009 11.438V7.014H31.5089V11.214C31.5089 11.9233 31.6629 12.446 31.9709 12.782C32.2789 13.1087 32.7642 13.272 33.4269 13.272C34.0802 13.272 34.5609 13.1087 34.8689 12.782C35.1862 12.446 35.3449 11.9233 35.3449 11.214V7.014H36.3529V11.438C36.3529 12.3247 36.0962 13.0107 35.5829 13.496C35.0789 13.972 34.3602 14.21 33.4269 14.21ZM38.5946 7.574C38.9493 7.42467 39.4159 7.27533 39.9946 7.126C40.5826 6.96733 41.1893 6.888 41.8146 6.888C41.9079 6.888 42.0573 6.916 42.2626 6.972V7.868C42.0386 7.84 41.8146 7.826 41.5906 7.826C41.2826 7.826 40.9979 7.84467 40.7366 7.882C40.4753 7.91933 40.0973 7.98 39.6026 8.064V14H38.5946V7.574ZM46.2498 14.21C45.1764 14.21 44.3691 13.8927 43.8278 13.258C43.2958 12.6233 43.0298 11.7133 43.0298 10.528C43.0298 9.324 43.3004 8.41867 43.8418 7.812C44.3924 7.196 45.1858 6.888 46.2218 6.888C47.3138 6.888 48.1258 7.21467 48.6578 7.868C49.1898 8.512 49.4558 9.39867 49.4558 10.528C49.4558 11.6853 49.1758 12.5907 48.6158 13.244C48.0558 13.888 47.2671 14.21 46.2498 14.21ZM46.2358 13.286C47.7104 13.286 48.4478 12.3667 48.4478 10.528C48.4478 9.65067 48.2751 8.97867 47.9298 8.512C47.5844 8.04533 47.0198 7.812 46.2358 7.812C44.7704 7.812 44.0378 8.71733 44.0378 10.528C44.0378 12.3667 44.7704 13.286 46.2358 13.286Z" transform="translate(-1 -4)" fill="#666666"/>
</svg>
