<svg width="19" height="11" viewBox="0 0 19 11" fill="none" xmlns="http://www.w3.org/2000/svg">
<path d="M6.524 11.088H2.492L1.372 14H0.28L4.004 4.662H5.012L8.722 14H7.644L6.524 11.088ZM6.146 10.122L4.508 5.852L2.87 10.122H6.146ZM10.1161 7.574C10.4708 7.42467 10.9374 7.27533 11.5161 7.126C12.1041 6.96733 12.7108 6.888 13.3361 6.888C13.4294 6.888 13.5788 6.916 13.7841 6.972V7.868C13.5601 7.84 13.3361 7.826 13.1121 7.826C12.8041 7.826 12.5194 7.84467 12.2581 7.882C11.9968 7.91933 11.6188 7.98 11.1241 8.064V14H10.1161V7.574ZM17.5914 14.112C17.0781 14.112 16.6581 13.958 16.3314 13.65C16.0048 13.3327 15.8414 12.8847 15.8414 12.306V7.938H14.6234V7.014H15.8414V5.04H16.8494V7.014H18.6554V7.938H16.8494V11.984C16.8494 12.3947 16.9148 12.6933 17.0454 12.88C17.1761 13.0667 17.4188 13.16 17.7734 13.16C18.1188 13.16 18.4128 13.104 18.6554 12.992V13.944C18.5248 13.9907 18.3568 14.028 18.1514 14.056C17.9554 14.0933 17.7688 14.112 17.5914 14.112Z" transform="translate(0 -4)" fill="#666666"/>
</svg>
