<svg width="182" height="159" viewBox="0 0 182 159" fill="none" xmlns="http://www.w3.org/2000/svg">
<path d="M49.6611 16H48.413V5.26637H54.3965V6.37497H49.6611V10.3028H54.1102V11.4114H49.6611V16ZM59.6679 7.80661C60.0252 7.80661 60.3457 7.83598 60.6296 7.89471L60.4608 9.02534C60.1279 8.95192 59.8343 8.91522 59.5798 8.91522C58.9288 8.91522 58.3708 9.17952 57.9058 9.70812C57.4458 10.2367 57.2157 10.895 57.2157 11.6831V16H55.997V7.95345H57.0028L57.1423 9.44382H57.201C57.4996 8.92011 57.8593 8.51631 58.2803 8.23243C58.7012 7.94855 59.1637 7.80661 59.6679 7.80661ZM63.3534 16H62.1347V7.95345H63.3534V16ZM62.0319 5.77295C62.0319 5.49396 62.1004 5.29084 62.2375 5.16358C62.3745 5.03143 62.5458 4.96536 62.7514 4.96536C62.9472 4.96536 63.116 5.03143 63.258 5.16358C63.3999 5.29573 63.4709 5.49886 63.4709 5.77295C63.4709 6.04704 63.3999 6.25261 63.258 6.38965C63.116 6.52181 62.9472 6.58788 62.7514 6.58788C62.5458 6.58788 62.3745 6.52181 62.2375 6.38965C62.1004 6.25261 62.0319 6.04704 62.0319 5.77295ZM69.3369 16.1468C68.1476 16.1468 67.2078 15.7846 66.5177 15.0603C65.8325 14.3359 65.4899 13.3301 65.4899 12.0428C65.4899 10.7458 65.808 9.71547 66.4443 8.95192C67.0855 8.18838 67.9445 7.80661 69.0212 7.80661C70.0295 7.80661 70.8273 8.13944 71.4147 8.80509C72.002 9.46585 72.2957 10.3395 72.2957 11.4261V12.197H66.7526C66.7771 13.1416 67.0145 13.8587 67.4648 14.3481C67.92 14.8376 68.5587 15.0823 69.381 15.0823C70.2473 15.0823 71.1039 14.9012 71.9506 14.539V15.6256C71.5199 15.8116 71.1112 15.9437 70.7245 16.022C70.3428 16.1052 69.8802 16.1468 69.3369 16.1468ZM69.0066 8.82711C68.3605 8.82711 67.8441 9.03758 67.4575 9.4585C67.0757 9.87943 66.8505 10.4619 66.782 11.2058H70.9888C70.9888 10.4374 70.8175 9.85006 70.4749 9.44382C70.1323 9.03268 69.6429 8.82711 69.0066 8.82711ZM79.8577 14.9208H79.7916C79.2287 15.7381 78.3869 16.1468 77.266 16.1468C76.2137 16.1468 75.3939 15.7871 74.8065 15.0676C74.2241 14.3481 73.9329 13.3252 73.9329 11.9987C73.9329 10.6723 74.2265 9.64205 74.8139 8.90787C75.4012 8.1737 76.2186 7.80661 77.266 7.80661C78.3575 7.80661 79.1945 8.20307 79.7769 8.99597H79.8724L79.821 8.41598L79.7916 7.85066V4.57624H81.0103V16H80.0192L79.8577 14.9208ZM77.4202 15.1263C78.2523 15.1263 78.8543 14.9012 79.2263 14.4509C79.6032 13.9957 79.7916 13.264 79.7916 12.2557V11.9987C79.7916 10.8583 79.6007 10.0458 79.2189 9.56129C78.8421 9.07184 78.2376 8.82711 77.4055 8.82711C76.6909 8.82711 76.1427 9.1061 75.761 9.66407C75.3841 10.2172 75.1957 11.0003 75.1957 12.0134C75.1957 13.0413 75.3841 13.8171 75.761 14.3408C76.1378 14.8645 76.6909 15.1263 77.4202 15.1263ZM89.1083 16V10.7947C89.1083 10.1388 88.959 9.64939 88.6604 9.32635C88.3619 9.00332 87.8944 8.8418 87.2581 8.8418C86.4114 8.8418 85.7922 9.07184 85.4007 9.53192C85.014 9.992 84.8207 10.7458 84.8207 11.7932V16H83.602V4.57624H84.8207V8.03421C84.8207 8.45024 84.8011 8.7953 84.7619 9.06939H84.8354C85.0752 8.68273 85.4154 8.37927 85.8559 8.15902C86.3013 7.93387 86.8078 7.8213 87.3756 7.8213C88.3594 7.8213 89.096 8.05623 89.5855 8.5261C90.0798 8.99108 90.327 9.7326 90.327 10.7507V16H89.1083ZM99.7832 11.9694C99.7832 13.2811 99.4528 14.3065 98.792 15.0456C98.1313 15.7797 97.2184 16.1468 96.0536 16.1468C95.3341 16.1468 94.6953 15.978 94.1374 15.6403C93.5794 15.3025 93.1487 14.818 92.8452 14.1866C92.5418 13.5552 92.39 12.8161 92.39 11.9694C92.39 10.6577 92.718 9.63715 93.3738 8.90787C94.0297 8.1737 94.9401 7.80661 96.1049 7.80661C97.2307 7.80661 98.1239 8.18104 98.7847 8.9299C99.4503 9.67876 99.7832 10.6919 99.7832 11.9694ZM93.6528 11.9694C93.6528 12.9972 93.8584 13.7803 94.2695 14.3187C94.6806 14.8571 95.2851 15.1263 96.0829 15.1263C96.8807 15.1263 97.4852 14.8596 97.8963 14.3261C98.3124 13.7877 98.5204 13.0021 98.5204 11.9694C98.5204 10.9464 98.3124 10.1707 97.8963 9.64205C97.4852 9.10855 96.8758 8.8418 96.0682 8.8418C95.2704 8.8418 94.6684 9.10365 94.2622 9.62736C93.8559 10.1511 93.6528 10.9317 93.6528 11.9694ZM105.554 8.90053H103.505V16H102.287V8.90053H100.848V8.3499L102.287 7.9094V7.46155C102.287 5.48417 103.151 4.49548 104.878 4.49548C105.304 4.49548 105.803 4.58114 106.376 4.75245L106.06 5.7289C105.59 5.57717 105.189 5.5013 104.856 5.5013C104.396 5.5013 104.056 5.65548 103.836 5.96383C103.616 6.26729 103.505 6.75674 103.505 7.43218V7.95345H105.554V8.90053ZM116.405 14.9208H116.339C115.776 15.7381 114.934 16.1468 113.813 16.1468C112.761 16.1468 111.941 15.7871 111.354 15.0676C110.771 14.3481 110.48 13.3252 110.48 11.9987C110.48 10.6723 110.774 9.64205 111.361 8.90787C111.948 8.1737 112.766 7.80661 113.813 7.80661C114.905 7.80661 115.742 8.20307 116.324 8.99597H116.42L116.368 8.41598L116.339 7.85066V4.57624H117.558V16H116.566L116.405 14.9208ZM113.967 15.1263C114.799 15.1263 115.402 14.9012 115.773 14.4509C116.15 13.9957 116.339 13.264 116.339 12.2557V11.9987C116.339 10.8583 116.148 10.0458 115.766 9.56129C115.389 9.07184 114.785 8.82711 113.953 8.82711C113.238 8.82711 112.69 9.1061 112.308 9.66407C111.931 10.2172 111.743 11.0003 111.743 12.0134C111.743 13.0413 111.931 13.8171 112.308 14.3408C112.685 14.8645 113.238 15.1263 113.967 15.1263ZM123.548 16.1468C122.359 16.1468 121.419 15.7846 120.729 15.0603C120.044 14.3359 119.701 13.3301 119.701 12.0428C119.701 10.7458 120.019 9.71547 120.656 8.95192C121.297 8.18838 122.156 7.80661 123.233 7.80661C124.241 7.80661 125.039 8.13944 125.626 8.80509C126.213 9.46585 126.507 10.3395 126.507 11.4261V12.197H120.964C120.989 13.1416 121.226 13.8587 121.676 14.3481C122.131 14.8376 122.77 15.0823 123.592 15.0823C124.459 15.0823 125.315 14.9012 126.162 14.539V15.6256C125.731 15.8116 125.323 15.9437 124.936 16.022C124.554 16.1052 124.092 16.1468 123.548 16.1468ZM123.218 8.82711C122.572 8.82711 122.056 9.03758 121.669 9.4585C121.287 9.87943 121.062 10.4619 120.993 11.2058H125.2C125.2 10.4374 125.029 9.85006 124.686 9.44382C124.344 9.03268 123.854 8.82711 123.218 8.82711ZM132.263 7.80661C132.62 7.80661 132.941 7.83598 133.225 7.89471L133.056 9.02534C132.723 8.95192 132.429 8.91522 132.175 8.91522C131.524 8.91522 130.966 9.17952 130.501 9.70812C130.041 10.2367 129.811 10.895 129.811 11.6831V16H128.592V7.95345H129.598L129.737 9.44382H129.796C130.095 8.92011 130.455 8.51631 130.875 8.23243C131.296 7.94855 131.759 7.80661 132.263 7.80661ZM28.6416 28.9534V29.7243L27.1513 29.9005C27.2883 30.0718 27.4107 30.297 27.5184 30.576C27.626 30.8501 27.6799 31.1609 27.6799 31.5084C27.6799 32.2964 27.4107 32.9253 26.8723 33.3952C26.3339 33.8651 25.5948 34.1 24.6551 34.1C24.4152 34.1 24.1901 34.0804 23.9796 34.0413C23.4608 34.3154 23.2014 34.6604 23.2014 35.0765C23.2014 35.2967 23.292 35.4607 23.4731 35.5684C23.6542 35.6711 23.965 35.7225 24.4055 35.7225H25.8298C26.701 35.7225 27.3691 35.9061 27.8341 36.2732C28.3039 36.6403 28.5389 37.1738 28.5389 37.8737C28.5389 38.7645 28.1816 39.4424 27.467 39.9073C26.7524 40.3772 25.7098 40.6121 24.3394 40.6121C23.2871 40.6121 22.4746 40.4164 21.9019 40.0248C21.3342 39.6332 21.0503 39.0802 21.0503 38.3656C21.0503 37.8761 21.2069 37.4527 21.5202 37.0954C21.8334 36.7381 22.2739 36.4959 22.8417 36.3686C22.6361 36.2756 22.4623 36.1312 22.3204 35.9354C22.1834 35.7397 22.1148 35.5121 22.1148 35.2527C22.1148 34.959 22.1931 34.702 22.3498 34.4818C22.5064 34.2615 22.7536 34.0486 23.0913 33.843C22.6753 33.6717 22.3351 33.3805 22.0708 32.9694C21.8114 32.5582 21.6817 32.0884 21.6817 31.5598C21.6817 30.6788 21.946 30.0009 22.4746 29.5261C23.0032 29.0464 23.752 28.8066 24.7212 28.8066C25.1421 28.8066 25.5214 28.8556 25.8591 28.9534H28.6416ZM22.225 38.3509C22.225 38.7865 22.4085 39.1169 22.7756 39.342C23.1427 39.5672 23.6688 39.6797 24.3541 39.6797C25.377 39.6797 26.1332 39.5256 26.6227 39.2172C27.117 38.9137 27.3642 38.5002 27.3642 37.9765C27.3642 37.5408 27.2296 37.2374 26.9604 37.0661C26.6912 36.8997 26.1846 36.8165 25.4406 36.8165H23.9796C23.4266 36.8165 22.9958 36.9486 22.6875 37.2129C22.3791 37.4772 22.225 37.8565 22.225 38.3509ZM22.8857 31.5304C22.8857 32.0933 23.0448 32.5191 23.3629 32.8079C23.6811 33.0966 24.124 33.241 24.6918 33.241C25.8812 33.241 26.4758 32.6635 26.4758 31.5084C26.4758 30.2994 25.8738 29.695 24.6698 29.695C24.0971 29.695 23.6566 29.8491 23.3482 30.1575C23.0399 30.4658 22.8857 30.9235 22.8857 31.5304ZM33.6928 37.1468C32.5034 37.1468 31.5637 36.7846 30.8735 36.0603C30.1883 35.3359 29.8457 34.3301 29.8457 33.0428C29.8457 31.7458 30.1638 30.7155 30.8001 29.9519C31.4413 29.1884 32.3003 28.8066 33.3771 28.8066C34.3853 28.8066 35.1831 29.1394 35.7705 29.8051C36.3578 30.4658 36.6515 31.3395 36.6515 32.4261V33.197H31.1085C31.1329 34.1416 31.3703 34.8587 31.8206 35.3481C32.2758 35.8376 32.9145 36.0823 33.7368 36.0823C34.6031 36.0823 35.4597 35.9012 36.3064 35.539V36.6256C35.8757 36.8116 35.467 36.9437 35.0804 37.022C34.6986 37.1052 34.2361 37.1468 33.6928 37.1468ZM33.3624 29.8271C32.7163 29.8271 32.1999 30.0376 31.8133 30.4585C31.4315 30.8794 31.2064 31.4619 31.1378 32.2058H35.3447C35.3447 31.4374 35.1734 30.8501 34.8307 30.4438C34.4881 30.0327 33.9987 29.8271 33.3624 29.8271ZM43.9272 34.8048C43.9272 35.5537 43.6482 36.1312 43.0902 36.5375C42.5322 36.9437 41.7491 37.1468 40.7408 37.1468C39.6738 37.1468 38.8418 36.978 38.2447 36.6403V35.5096C38.6313 35.7054 39.0449 35.8596 39.4854 35.9722C39.9308 36.0847 40.3591 36.141 40.7702 36.141C41.4065 36.141 41.8959 36.0407 42.2386 35.84C42.5812 35.6344 42.7525 35.3236 42.7525 34.9076C42.7525 34.5944 42.6154 34.3276 42.3413 34.1074C42.0721 33.8822 41.5435 33.6179 40.7555 33.3144C40.0067 33.0355 39.4732 32.7932 39.155 32.5876C38.8418 32.3771 38.6068 32.1398 38.4502 31.8755C38.2985 31.6112 38.2226 31.2955 38.2226 30.9284C38.2226 30.2725 38.4894 29.7561 39.0229 29.3793C39.5564 28.9975 40.2881 28.8066 41.2181 28.8066C42.0844 28.8066 42.9311 28.9828 43.7583 29.3352L43.3251 30.3264C42.5175 29.9935 41.7858 29.8271 41.13 29.8271C40.5524 29.8271 40.1168 29.9177 39.8231 30.0988C39.5295 30.2799 39.3826 30.5295 39.3826 30.8476C39.3826 31.063 39.4365 31.2465 39.5441 31.3982C39.6567 31.55 39.8354 31.6944 40.0801 31.8314C40.3248 31.9685 40.7947 32.1667 41.4897 32.4261C42.4441 32.7736 43.0878 33.1236 43.4206 33.476C43.7583 33.8284 43.9272 34.2713 43.9272 34.8048ZM49.1325 37.1468C47.9676 37.1468 47.0645 36.7895 46.4234 36.0749C45.7871 35.3554 45.4689 34.3398 45.4689 33.0281C45.4689 31.6821 45.792 30.642 46.438 29.9079C47.089 29.1737 48.0141 28.8066 49.2132 28.8066C49.5999 28.8066 49.9865 28.8482 50.3732 28.9314C50.7599 29.0146 51.0633 29.1125 51.2836 29.2251L50.9092 30.2603C50.64 30.1526 50.3463 30.0645 50.0282 29.996C49.71 29.9226 49.4286 29.8858 49.1839 29.8858C47.5491 29.8858 46.7317 30.9284 46.7317 33.0134C46.7317 34.0021 46.9299 34.7608 47.3264 35.2894C47.7277 35.818 48.32 36.0823 49.1031 36.0823C49.7736 36.0823 50.4613 35.9379 51.1661 35.6491V36.7284C50.6277 37.0073 49.9498 37.1468 49.1325 37.1468ZM58.5886 37V31.7947C58.5886 31.1388 58.4393 30.6494 58.1408 30.3264C57.8422 30.0033 57.3748 29.8418 56.7385 29.8418C55.8918 29.8418 55.2726 30.0718 54.881 30.5319C54.4944 30.992 54.301 31.7458 54.301 32.7932V37H53.0823V25.5762H54.301V29.0342C54.301 29.4502 54.2815 29.7953 54.2423 30.0694H54.3157C54.5556 29.6827 54.8957 29.3793 55.3362 29.159C55.7816 28.9339 56.2882 28.8213 56.856 28.8213C57.8398 28.8213 58.5764 29.0562 59.0658 29.5261C59.5602 29.9911 59.8074 30.7326 59.8074 31.7507V37H58.5886ZM65.7175 37.1468C64.5281 37.1468 63.5884 36.7846 62.8982 36.0603C62.213 35.3359 61.8704 34.3301 61.8704 33.0428C61.8704 31.7458 62.1885 30.7155 62.8248 29.9519C63.466 29.1884 64.325 28.8066 65.4018 28.8066C66.41 28.8066 67.2078 29.1394 67.7952 29.8051C68.3825 30.4658 68.6762 31.3395 68.6762 32.4261V33.197H63.1332C63.1576 34.1416 63.395 34.8587 63.8453 35.3481C64.3005 35.8376 64.9392 36.0823 65.7615 36.0823C66.6278 36.0823 67.4844 35.9012 68.3311 35.539V36.6256C67.9004 36.8116 67.4917 36.9437 67.1051 37.022C66.7233 37.1052 66.2608 37.1468 65.7175 37.1468ZM65.3871 29.8271C64.741 29.8271 64.2246 30.0376 63.838 30.4585C63.4562 30.8794 63.2311 31.4619 63.1625 32.2058H67.3694C67.3694 31.4374 67.198 30.8501 66.8554 30.4438C66.5128 30.0327 66.0234 29.8271 65.3871 29.8271ZM71.98 37H70.7612V28.9534H71.98V37ZM70.6585 26.7729C70.6585 26.494 70.727 26.2908 70.864 26.1636C71.0011 26.0314 71.1724 25.9654 71.378 25.9654C71.5737 25.9654 71.7426 26.0314 71.8845 26.1636C72.0265 26.2957 72.0974 26.4989 72.0974 26.7729C72.0974 27.047 72.0265 27.2526 71.8845 27.3897C71.7426 27.5218 71.5737 27.5879 71.378 27.5879C71.1724 27.5879 71.0011 27.5218 70.864 27.3897C70.727 27.2526 70.6585 27.047 70.6585 26.7729ZM77.1633 36.141C77.3786 36.141 77.5866 36.1263 77.7873 36.097C77.988 36.0627 78.147 36.0284 78.2645 35.9942V36.9266C78.1324 36.9902 77.9366 37.0416 77.6772 37.0808C77.4227 37.1248 77.1926 37.1468 76.987 37.1468C75.4306 37.1468 74.6524 36.327 74.6524 34.6874V29.9005H73.4997V29.3132L74.6524 28.8066L75.1663 27.0886H75.8711V28.9534H78.2058V29.9005H75.8711V34.636C75.8711 35.1205 75.9861 35.4925 76.2162 35.7519C76.4462 36.0113 76.7619 36.141 77.1633 36.141ZM83.2789 37.1468C82.0896 37.1468 81.1498 36.7846 80.4597 36.0603C79.7745 35.3359 79.4318 34.3301 79.4318 33.0428C79.4318 31.7458 79.75 30.7155 80.3863 29.9519C81.0274 29.1884 81.8864 28.8066 82.9632 28.8066C83.9715 28.8066 84.7693 29.1394 85.3566 29.8051C85.944 30.4658 86.2376 31.3395 86.2376 32.4261V33.197H80.6946C80.7191 34.1416 80.9565 34.8587 81.4068 35.3481C81.862 35.8376 82.5007 36.0823 83.323 36.0823C84.1893 36.0823 85.0458 35.9012 85.8926 35.539V36.6256C85.4619 36.8116 85.0532 36.9437 84.6665 37.022C84.2847 37.1052 83.8222 37.1468 83.2789 37.1468ZM82.9485 29.8271C82.3025 29.8271 81.7861 30.0376 81.3994 30.4585C81.0177 30.8794 80.7925 31.4619 80.724 32.2058H84.9308C84.9308 31.4374 84.7595 30.8501 84.4169 30.4438C84.0743 30.0327 83.5848 29.8271 82.9485 29.8271ZM91.9936 28.8066C92.3509 28.8066 92.6715 28.836 92.9553 28.8947L92.7865 30.0253C92.4537 29.9519 92.16 29.9152 91.9055 29.9152C91.2545 29.9152 90.6965 30.1795 90.2315 30.7081C89.7715 31.2367 89.5414 31.895 89.5414 32.6831V37H88.3227V28.9534H89.3285L89.468 30.4438H89.5267C89.8253 29.9201 90.1851 29.5163 90.606 29.2324C91.0269 28.9486 91.4894 28.8066 91.9936 28.8066ZM97.0594 36.141C97.2747 36.141 97.4828 36.1263 97.6834 36.097C97.8841 36.0627 98.0432 36.0284 98.1606 35.9942V36.9266C98.0285 36.9902 97.8327 37.0416 97.5733 37.0808C97.3188 37.1248 97.0887 37.1468 96.8832 37.1468C95.3267 37.1468 94.5485 36.327 94.5485 34.6874V29.9005H93.3958V29.3132L94.5485 28.8066L95.0624 27.0886H95.7672V28.9534H98.1019V29.9005H95.7672V34.636C95.7672 35.1205 95.8822 35.4925 96.1123 35.7519C96.3423 36.0113 96.658 36.141 97.0594 36.141ZM103.175 37.1468C101.986 37.1468 101.046 36.7846 100.356 36.0603C99.6706 35.3359 99.328 34.3301 99.328 33.0428C99.328 31.7458 99.6461 30.7155 100.282 29.9519C100.924 29.1884 101.783 28.8066 102.859 28.8066C103.868 28.8066 104.665 29.1394 105.253 29.8051C105.84 30.4658 106.134 31.3395 106.134 32.4261V33.197H100.591C100.615 34.1416 100.853 34.8587 101.303 35.3481C101.758 35.8376 102.397 36.0823 103.219 36.0823C104.085 36.0823 104.942 35.9012 105.789 35.539V36.6256C105.358 36.8116 104.949 36.9437 104.563 37.022C104.181 37.1052 103.718 37.1468 103.175 37.1468ZM102.845 29.8271C102.199 29.8271 101.682 30.0376 101.296 30.4585C100.914 30.8794 100.689 31.4619 100.62 32.2058H104.827C104.827 31.4374 104.656 30.8501 104.313 30.4438C103.97 30.0327 103.481 29.8271 102.845 29.8271ZM113.725 37V31.7947C113.725 31.1388 113.576 30.6494 113.277 30.3264C112.979 30.0033 112.511 29.8418 111.875 29.8418C111.033 29.8418 110.416 30.0694 110.025 30.5246C109.633 30.9798 109.438 31.7311 109.438 32.7785V37H108.219V28.9534H109.21L109.408 30.0547H109.467C109.717 29.6583 110.067 29.3523 110.517 29.137C110.967 28.9167 111.469 28.8066 112.022 28.8066C112.991 28.8066 113.72 29.0415 114.21 29.5114C114.699 29.9764 114.944 30.7228 114.944 31.7507V37H113.725ZM121.544 37V26.2664H122.792V37H121.544ZM131.037 35.9208H130.971C130.408 36.7381 129.566 37.1468 128.445 37.1468C127.393 37.1468 126.573 36.7871 125.986 36.0676C125.403 35.3481 125.112 34.3252 125.112 32.9987C125.112 31.6723 125.406 30.642 125.993 29.9079C126.581 29.1737 127.398 28.8066 128.445 28.8066C129.537 28.8066 130.374 29.2031 130.956 29.996H131.052L131 29.416L130.971 28.8507V25.5762H132.19V37H131.198L131.037 35.9208ZM128.6 36.1263C129.432 36.1263 130.034 35.9012 130.406 35.4509C130.782 34.9957 130.971 34.264 130.971 33.2557V32.9987C130.971 31.8583 130.78 31.0458 130.398 30.5613C130.021 30.0718 129.417 29.8271 128.585 29.8271C127.87 29.8271 127.322 30.1061 126.94 30.6641C126.563 31.2172 126.375 32.0003 126.375 33.0134C126.375 34.0413 126.563 34.8171 126.94 35.3408C127.317 35.8645 127.87 36.1263 128.6 36.1263ZM138.18 37.1468C136.991 37.1468 136.051 36.7846 135.361 36.0603C134.676 35.3359 134.333 34.3301 134.333 33.0428C134.333 31.7458 134.652 30.7155 135.288 29.9519C135.929 29.1884 136.788 28.8066 137.865 28.8066C138.873 28.8066 139.671 29.1394 140.258 29.8051C140.846 30.4658 141.139 31.3395 141.139 32.4261V33.197H135.596C135.621 34.1416 135.858 34.8587 136.308 35.3481C136.764 35.8376 137.402 36.0823 138.225 36.0823C139.091 36.0823 139.947 35.9012 140.794 35.539V36.6256C140.363 36.8116 139.955 36.9437 139.568 37.022C139.186 37.1052 138.724 37.1468 138.18 37.1468ZM137.85 29.8271C137.204 29.8271 136.688 30.0376 136.301 30.4585C135.919 30.8794 135.694 31.4619 135.626 32.2058H139.832C139.832 31.4374 139.661 30.8501 139.318 30.4438C138.976 30.0327 138.486 29.8271 137.85 29.8271ZM146.624 37.1468C145.434 37.1468 144.494 36.7846 143.804 36.0603C143.119 35.3359 142.776 34.3301 142.776 33.0428C142.776 31.7458 143.095 30.7155 143.731 29.9519C144.372 29.1884 145.231 28.8066 146.308 28.8066C147.316 28.8066 148.114 29.1394 148.701 29.8051C149.289 30.4658 149.582 31.3395 149.582 32.4261V33.197H144.039C144.064 34.1416 144.301 34.8587 144.751 35.3481C145.207 35.8376 145.845 36.0823 146.668 36.0823C147.534 36.0823 148.39 35.9012 149.237 35.539V36.6256C148.806 36.8116 148.398 36.9437 148.011 37.022C147.629 37.1052 147.167 37.1468 146.624 37.1468ZM146.293 29.8271C145.647 29.8271 145.131 30.0376 144.744 30.4585C144.362 30.8794 144.137 31.4619 144.069 32.2058H148.275C148.275 31.4374 148.104 30.8501 147.761 30.4438C147.419 30.0327 146.929 29.8271 146.293 29.8271ZM157.174 37V31.7947C157.174 31.1388 157.024 30.6494 156.726 30.3264C156.427 30.0033 155.96 29.8418 155.323 29.8418C154.482 29.8418 153.865 30.0694 153.473 30.5246C153.082 30.9798 152.886 31.7311 152.886 32.7785V37H151.667V28.9534H152.658L152.857 30.0547H152.915C153.165 29.6583 153.515 29.3523 153.965 29.137C154.416 28.9167 154.917 28.8066 155.47 28.8066C156.439 28.8066 157.169 29.0415 157.658 29.5114C158.148 29.9764 158.392 30.7228 158.392 31.7507V37H157.174Z" transform="translate(0.652344 93.252)" fill="#333333"/>
<path d="M36.8686 0.0578156C-8.84782 -2.4814 0.863371 79.464 0.863371 79.464H76.7421C76.7421 79.464 82.585 2.59703 36.8686 0.0578156Z" transform="translate(53.5801)" fill="#8F8F8F"/>
<path d="M32.3238 0.00478935C-7.32412 0.719616 0.657705 78.8309 0.657705 78.8309H67.3921C67.3921 78.8309 71.9717 -0.710038 32.3238 0.00478935Z" transform="translate(53.6926 0.633789)" fill="#C0C0C0"/>
<path d="M0 11.5022C2.95299 11.6602 4.32325 12.0348 6.15003 13.3218C9.86298 19.8333 74.5364 22.1548 93.4281 14.2604C95.1292 9.48773 97.5075 12.0768 98.2042 10.7224C95.8932 9.37815 94.1958 9.7635 91.0727 10.7224C91.6667 8.91828 92.6716 7.9553 94.4749 6.23851C91.3798 6.30871 89.2017 7.5556 84.661 11.5672C84.8164 8.94599 85.7695 7.44745 88.3903 4.74386C84.3083 4.60169 81.9946 6.66965 77.8567 11.3073C78.5665 5.016 76.9424 3.09672 71.5104 1.6896C73.9924 6.98913 73.5799 9.03215 69.6785 11.0474C68.6592 10.4796 68.244 9.56814 67.7812 6.88835C67.1019 7.87497 66.6574 8.24514 65.8184 8.7729C65.6407 8.50584 65.666 8.15123 65.8184 7.34324C64.1928 8.80591 63.2529 9.48763 61.5003 10.3325C62.0099 7.46265 62.612 5.85455 64.7061 2.98928C61.104 2.96193 59.0633 5.68604 55.4157 11.5672C56.2938 8.80317 56.4535 7.47981 55.2848 6.10854C55.2254 9.73291 54.1506 10.6026 51.8827 11.7622C51.6615 6.10827 52.4804 4.09314 55.2848 2.14449C51.4512 2.57611 49.4245 4.63532 45.9944 11.0474C46.0957 7.47297 45.4637 5.79336 43.3773 3.24922C43.286 8.75698 42.4184 10.1031 39.9752 10.5925C39.3012 6.56161 39.607 4.31188 41.8725 0.324922C36.8061 3.27798 34.8655 5.51256 33.1055 10.5925C32.5376 6.72089 33.0439 4.67062 35.4608 1.2347C30.6913 3.63807 29.9097 6.03058 29.0491 10.5925C26.5148 4.15025 23.58 2.59816 17.5995 0.844798C23.176 4.07946 24.4451 6.23596 23.9459 10.5925C21.4244 9.38038 21.0972 8.40577 22.5719 6.10854L19.1698 7.99309C16.4542 3.06176 14.5043 0.893928 8.89791 0C11.7887 2.67521 12.7426 4.63293 13.216 8.96785C8.82603 7.30326 6.30507 6.50309 0.850536 7.21327C3.94098 7.87441 5.55096 8.46214 8.17823 9.94262C4.8887 10.217 3.08724 10.5206 0 11.5022Z" transform="translate(41.738 67.9746)" fill="#8D7EAD"/>
<path d="M0.130852 6.6934L0 1.29969L3.14044 0L2.0282 4.61389L7.26227 3.70411L5.49577 9.94262L7.26227 11.0474H3.59842L5.23407 5.58866L0.130852 6.6934Z" transform="translate(75.3015 1.62402)" fill="#A0A0A0"/>
<path d="M29.2453 15.7912L33.956 12.7369L35.1337 14.6215L31.0118 16.1161L33.3672 18.5206L29.2453 19.8203V21.1849L28.0677 19.3004L31.7315 18.2606L29.2453 15.7912Z" transform="translate(75.3015 1.62402)" fill="#A0A0A0"/>
<path d="M5.10321 0L0.915962 1.75458L0 6.56343L4.51438 3.70411L3.53299 9.16281H8.30908L9.6176 11.6322V7.60318L5.36492 7.86312L5.10321 0Z" transform="translate(55.3464 31.9727)" fill="#A0A0A0"/>
<path fill-rule="evenodd" clip-rule="evenodd" d="M5.44434 8.95605L5.69214 24.3037H7.78564L8.60229 9.1377L15.7676 9.55176V5.71777L8.75684 6.2666L9.09424 0H5.29956L5.40503 6.5293L0 6.95215V8.6416L5.44434 8.95605Z" transform="translate(76.5449 18.4561)" fill="#5B5B5B"/>
<rect width="31.1427" height="1.16972" transform="translate(69.021 50.6875)" fill="#5B5B5B"/>
<rect width="31.1427" height="1.16972" transform="translate(69.021 55.498)" fill="#5B5B5B"/>
<rect width="31.1427" height="1.16972" transform="translate(69.021 60.5654)" fill="#5B5B5B"/>
</svg>
