<svg width="99" height="88" viewBox="0 0 99 88" fill="none" xmlns="http://www.w3.org/2000/svg">
<path d="M36.8686 0.0578156C-8.84782 -2.4814 0.863371 79.464 0.863371 79.464H76.7421C76.7421 79.464 82.585 2.59703 36.8686 0.0578156Z" transform="translate(11.9277)" fill="#8F8F8F"/>
<path d="M32.3238 0.00478935C-7.32412 0.719616 0.657705 78.8309 0.657705 78.8309H67.3921C67.3921 78.8309 71.9717 -0.710038 32.3238 0.00478935Z" transform="translate(12.04 0.633667)" fill="#C0C0C0"/>
<path d="M0 11.5022C2.95299 11.6602 4.32325 12.0348 6.15003 13.3218C9.86298 19.8333 74.5364 22.1548 93.4281 14.2604C95.1292 9.48773 97.5075 12.0768 98.2042 10.7224C95.8932 9.37815 94.1958 9.7635 91.0727 10.7224C91.6667 8.91828 92.6716 7.9553 94.4749 6.23851C91.3798 6.30871 89.2017 7.5556 84.661 11.5672C84.8164 8.94599 85.7695 7.44745 88.3903 4.74386C84.3083 4.60169 81.9946 6.66965 77.8567 11.3073C78.5665 5.016 76.9424 3.09672 71.5104 1.6896C73.9924 6.98913 73.5799 9.03215 69.6785 11.0474C68.6592 10.4796 68.244 9.56814 67.7812 6.88835C67.1019 7.87497 66.6574 8.24514 65.8184 8.7729C65.6407 8.50584 65.666 8.15123 65.8184 7.34324C64.1928 8.80591 63.2529 9.48763 61.5003 10.3325C62.0099 7.46265 62.612 5.85455 64.7061 2.98928C61.104 2.96193 59.0633 5.68604 55.4157 11.5672C56.2938 8.80317 56.4535 7.47981 55.2848 6.10854C55.2254 9.73291 54.1506 10.6026 51.8827 11.7622C51.6615 6.10827 52.4804 4.09314 55.2848 2.14449C51.4512 2.57611 49.4245 4.63532 45.9944 11.0474C46.0957 7.47297 45.4637 5.79336 43.3773 3.24922C43.286 8.75698 42.4184 10.1031 39.9752 10.5925C39.3012 6.56161 39.607 4.31188 41.8725 0.324922C36.8061 3.27798 34.8655 5.51256 33.1055 10.5925C32.5376 6.72089 33.0439 4.67062 35.4608 1.2347C30.6913 3.63807 29.9097 6.03058 29.0491 10.5925C26.5148 4.15025 23.58 2.59816 17.5995 0.844798C23.176 4.07946 24.4451 6.23596 23.9459 10.5925C21.4244 9.38038 21.0972 8.40577 22.5719 6.10854L19.1698 7.99309C16.4542 3.06176 14.5043 0.893928 8.89791 0C11.7887 2.67521 12.7426 4.63293 13.216 8.96785C8.82603 7.30326 6.30507 6.50309 0.850536 7.21327C3.94098 7.87441 5.55096 8.46214 8.17823 9.94262C4.8887 10.217 3.08724 10.5206 0 11.5022Z" transform="translate(0.0859375 67.975)" fill="#8D7EAD"/>
<path d="M0.130852 6.6934L0 1.29969L3.14044 0L2.0282 4.61389L7.26227 3.70411L5.49577 9.94262L7.26227 11.0474H3.59842L5.23407 5.58866L0.130852 6.6934Z" transform="translate(33.6494 1.62439)" fill="#A0A0A0"/>
<path d="M29.2453 15.7912L33.956 12.7369L35.1337 14.6215L31.0118 16.1161L33.3672 18.5206L29.2453 19.8203V21.1849L28.0677 19.3004L31.7315 18.2606L29.2453 15.7912Z" transform="translate(33.6494 1.62439)" fill="#A0A0A0"/>
<path d="M5.10321 0L0.915962 1.75458L0 6.56343L4.51438 3.70411L3.53299 9.16281H8.30908L9.6176 11.6322V7.60318L5.36492 7.86312L5.10321 0Z" transform="translate(13.6943 31.9729)" fill="#A0A0A0"/>
<path fill-rule="evenodd" clip-rule="evenodd" d="M5.44434 8.95667L5.69238 24.3042H7.78613L8.60254 9.13892L15.7676 9.55237V5.71826L8.75684 6.26721L9.09473 0H5.2998L5.40527 6.52966L0 6.953V8.64258L5.44434 8.95667Z" transform="translate(34.8926 18.4557)" fill="#5B5B5B"/>
<rect width="31.1427" height="1.16972" transform="translate(27.3691 50.6873)" fill="#5B5B5B"/>
<rect width="31.1427" height="1.16972" transform="translate(27.3691 55.4977)" fill="#5B5B5B"/>
<rect width="31.1427" height="1.16972" transform="translate(27.3691 60.5658)" fill="#5B5B5B"/>
</svg>
