<svg width="103" height="33" viewBox="0 0 103 33" fill="none" xmlns="http://www.w3.org/2000/svg">
<path d="M3.06732 10.9305H5.66553V21.7564H18.4761V10.9305H21.0743V35H18.4761V24.2102H5.66553V35H3.06732V10.9305ZM34.4242 35.5413C31.6576 35.5413 29.5766 34.7233 28.1813 33.0874C26.81 31.4515 26.1244 29.1059 26.1244 26.0506C26.1244 22.9472 26.8221 20.6137 28.2174 19.0499C29.6368 17.4621 31.6817 16.6682 34.352 16.6682C37.1668 16.6682 39.2598 17.5102 40.631 19.1943C42.0023 20.8542 42.6879 23.1397 42.6879 26.0506C42.6879 29.0338 41.9662 31.3673 40.5228 33.0513C39.0793 34.7113 37.0465 35.5413 34.4242 35.5413ZM34.3881 33.1596C38.1892 33.1596 40.0897 30.7899 40.0897 26.0506C40.0897 23.7892 39.6447 22.0571 38.7546 20.8542C37.8644 19.6514 36.409 19.0499 34.3881 19.0499C30.6111 19.0499 28.7226 21.3835 28.7226 26.0506C28.7226 30.7899 30.6111 33.1596 34.3881 33.1596ZM52.6598 35.5413C51.4329 35.5413 50.3864 35.421 49.5204 35.1804C48.6543 34.9399 47.704 34.5549 46.6695 34.0257V31.2831C47.8965 31.9808 48.8949 32.474 49.6647 32.7627C50.4586 33.0273 51.3968 33.1596 52.4794 33.1596C53.6823 33.1596 54.6566 32.895 55.4024 32.3657C56.1722 31.8364 56.5572 31.1508 56.5572 30.3088C56.5572 29.563 56.3286 29.0097 55.8715 28.6488C55.4144 28.2639 54.6927 27.879 53.7063 27.4941L52.7681 27.0971C51.3968 26.7122 50.3263 26.3634 49.5564 26.0506C48.8107 25.7379 48.1491 25.2447 47.5717 24.5711C47.0184 23.8975 46.7417 22.9833 46.7417 21.8286C46.7417 20.6738 47.0424 19.7115 47.6439 18.9417C48.2453 18.1718 49.0272 17.6065 49.9895 17.2456C50.9518 16.8607 51.9622 16.6682 53.0207 16.6682C53.983 16.6682 54.7889 16.7765 55.4385 16.993C56.1121 17.2095 57.0263 17.5704 58.181 18.0756V20.6738C56.9782 20.0724 56.0519 19.6514 55.4024 19.4108C54.7769 19.1702 54.0311 19.0499 53.1651 19.0499C52.1065 19.0499 51.2044 19.2664 50.4586 19.6995C49.7128 20.1084 49.3399 20.6979 49.3399 21.4677C49.3399 22.0932 49.5204 22.6104 49.8812 23.0194C50.2661 23.4043 50.7353 23.7171 51.2886 23.9576C51.866 24.1742 52.6358 24.4147 53.5981 24.6794C54.801 25.0643 55.7512 25.4131 56.4489 25.7259C57.1706 26.0386 57.7961 26.5438 58.3254 27.2415C58.8787 27.9151 59.1554 28.8293 59.1554 29.984C59.1554 31.211 58.8426 32.2454 58.2171 33.0874C57.5916 33.9054 56.7737 34.5189 55.7633 34.9278C54.7769 35.3368 53.7424 35.5413 52.6598 35.5413ZM71.3184 16.6682C73.7241 16.6682 75.7209 17.4501 77.3087 19.0138C78.8964 20.5535 79.6903 23.0314 79.6903 26.4476C79.6903 29.2623 78.9446 31.4756 77.453 33.0874C75.9614 34.6993 73.8444 35.5052 71.1018 35.5052C70.4763 35.5052 69.7546 35.409 68.9367 35.2165C68.1187 35.0241 67.3489 34.7715 66.6272 34.4587V42.8307H64.029V20.2408C64.029 18.9176 64.7507 18.0034 66.1941 17.4982C67.6616 16.969 69.3697 16.6923 71.3184 16.6682ZM71.1018 33.1235C73.0024 33.1235 74.4458 32.5221 75.4322 31.3192C76.4426 30.1163 76.9478 28.4925 76.9478 26.4476C76.9478 24.1862 76.5388 22.3939 75.7209 21.0707C74.9029 19.7235 73.4234 19.0499 71.2823 19.0499C69.9832 19.0499 68.8765 19.2063 67.9623 19.519C67.0722 19.8077 66.6272 20.2047 66.6272 20.7099V31.8605C68.0706 32.7025 69.5622 33.1235 71.1018 33.1235ZM84.5741 10.9305H87.461V13.7813H84.5741V10.9305ZM84.7184 16.993H87.3166V35H84.7184V16.993ZM105.152 19.2664L94.9754 32.6905H105.152V35H91.9802V32.6544L102.048 19.2304H92.2328V16.993H105.152V19.2664Z" transform="translate(-3 -10)" fill="#6B5795"/>
</svg>
