<svg width="194" height="126" viewBox="0 0 194 126" fill="none" xmlns="http://www.w3.org/2000/svg">
<path d="M87.4157 30.5894L71.0075 13.3121H38.7571L3.39478 0M0 13.3121L32.8162 30.5894L71.0075 46.1674L94.2052 55.2309" transform="translate(95.6216 56.9688) rotate(179.565)" stroke="#988CB3" stroke-width="3.44633"/>
<path d="M102.136 54.6196C102.136 80.9911 80.8024 102.347 54.5142 102.347C28.2261 102.347 6.89266 80.9911 6.89266 54.6196C6.89266 28.2482 28.2261 6.89266 54.5142 6.89266C80.8024 6.89266 102.136 28.2482 102.136 54.6196Z" transform="translate(193.685 124.07) rotate(179.565)" stroke="#B4ACC5" stroke-width="13.7853"/>
<path d="M100.993 51.7449C100.993 79.0581 78.8948 101.192 51.6451 101.192C24.3954 101.192 2.29755 79.0581 2.29755 51.7449C2.29755 24.4317 24.3954 2.29755 51.6451 2.29755C78.8948 2.29755 100.993 24.4317 100.993 51.7449Z" transform="translate(190.216 120.647) rotate(179.565)" stroke="#988CB3" stroke-width="4.59511"/>
<path d="M89.5159 45.9955C89.5159 70.1334 69.9872 89.6934 45.9067 89.6934C21.8262 89.6934 2.29755 70.1334 2.29755 45.9955C2.29755 21.8576 21.8262 2.29755 45.9067 2.29755C69.9872 2.29755 89.5159 21.8576 89.5159 45.9955Z" transform="translate(184.433 114.941) rotate(179.565)" stroke="#B4ACC5" stroke-width="4.59511"/>
<path d="M89.517 45.4205C89.517 69.8733 69.733 89.6923 45.3329 89.6923C20.9328 89.6923 1.14878 69.8733 1.14878 45.4205C1.14878 20.9678 20.9328 1.14878 45.3329 1.14878C69.733 1.14878 89.517 20.9678 89.517 45.4205Z" transform="translate(184.433 114.941) rotate(179.565)" stroke="#6B5795" stroke-width="2.29755"/>
<path d="M102.716 51.7449C102.716 80.0067 79.8496 102.915 51.6451 102.915C23.4406 102.915 0.574389 80.0067 0.574389 51.7449C0.574389 23.4832 23.4406 0.574389 51.6451 0.574389C79.8496 0.574389 102.716 23.4832 102.716 51.7449Z" transform="translate(190.216 120.647) rotate(179.565)" stroke="#8E80AC" stroke-width="1.14878"/>
</svg>
