<svg width="118" height="111" viewBox="0 0 118 111" fill="none" xmlns="http://www.w3.org/2000/svg">
<path d="M16.569 9.47971C16.569 13.4883 13.3479 16.7093 9.40956 16.7093C5.47127 16.7093 2.25017 13.4883 2.25017 9.47971C2.25017 5.47116 5.47127 2.25017 9.40956 2.25017C13.3479 2.25017 16.569 5.47116 16.569 9.47971Z" transform="translate(49.1562 0.180176)" stroke="#6B5795" stroke-width="4.50033"/>
<path d="M24.8736 18.687H6.01436C2.69272 18.687 0 15.9943 0 12.6727V8.55943C0 6.41 1.13572 4.39814 3.05097 3.42252C11.9141 -1.09233 18.1705 -1.19636 27.7221 3.44409C29.6982 4.40414 30.8879 6.45162 30.8879 8.64859V12.6727C30.8879 15.9943 28.1952 18.687 24.8736 18.687Z" transform="translate(43.2241 22.9155)" stroke="#6B5795" stroke-width="4.50033"/>
<path d="M16.569 9.47971C16.569 13.4883 13.3479 16.7093 9.40956 16.7093C5.47127 16.7093 2.25017 13.4883 2.25017 9.47971C2.25017 5.47116 5.47127 2.25017 9.40956 2.25017C13.3479 2.25017 16.569 5.47116 16.569 9.47971Z" transform="translate(8.67188 66.8164)" stroke="#6B5795" stroke-width="4.50033"/>
<path d="M24.8736 18.687H6.01436C2.69272 18.687 0 15.9943 0 12.6727V8.55943C0 6.41 1.13572 4.39814 3.05097 3.42252C11.9141 -1.09233 18.1705 -1.19636 27.7221 3.44409C29.6982 4.40414 30.8879 6.45162 30.8879 8.64859V12.6727C30.8879 15.9943 28.1952 18.687 24.8736 18.687Z" transform="translate(2.73975 89.5518)" stroke="#6B5795" stroke-width="4.50033"/>
<path d="M16.569 9.47971C16.569 13.4883 13.3479 16.7093 9.40956 16.7093C5.47127 16.7093 2.25017 13.4883 2.25017 9.47971C2.25017 5.47116 5.47127 2.25017 9.40956 2.25017C13.3479 2.25017 16.569 5.47116 16.569 9.47971Z" transform="translate(89.9402 66.8164)" stroke="#6B5795" stroke-width="4.50033"/>
<path d="M24.8736 18.687H6.01436C2.69272 18.687 0 15.9943 0 12.6727V8.55943C0 6.41 1.13572 4.39814 3.05097 3.42252C11.9141 -1.09233 18.1705 -1.19636 27.7221 3.44409C29.6982 4.40414 30.8879 6.45162 30.8879 8.64859V12.6727C30.8879 15.9943 28.1952 18.687 24.8736 18.687Z" transform="translate(84.0083 89.5518)" stroke="#6B5795" stroke-width="4.50033"/>
<path fill-rule="evenodd" clip-rule="evenodd" d="M16.304 1.80029C16.304 0.806152 17.11 0 18.1041 0H19.5565C20.5506 0 21.3568 0.806152 21.3568 1.80029V17.1824C21.3568 19.3306 22.5026 21.3157 24.3627 22.3902L36.5528 29.4321C37.4137 29.9292 37.7088 31.0308 37.212 31.8916L36.485 33.1514C35.9881 34.0127 34.8875 34.3076 34.0265 33.8101L21.7358 26.7101C19.8743 25.6347 17.5804 25.6347 15.7189 26.7101L3.4266 33.811C2.56576 34.3081 1.46518 34.0132 0.968353 33.1523L0.241302 31.8926C-0.255524 31.0312 0.0393978 29.9302 0.900482 29.4326L13.2982 22.2706C15.1583 21.1961 16.304 19.211 16.304 17.0628V1.80029Z" transform="translate(40.2249 51.8081)" fill="#4F4F4F"/>
</svg>
