<svg width="99" height="88" viewBox="0 0 99 88" fill="none" xmlns="http://www.w3.org/2000/svg">
<path fill-rule="evenodd" clip-rule="evenodd" d="M48.4803 70.6816H76.3436V76H8.99107V73.1476C-3.85659 35.9698 -4.35366 9.12634 16.8436 0L17.6786 7.30432L25.0741 12.1796L23.0643 16.1683L26.0799 18.8275L25.0741 21.0435L31.1063 22.373L30.3251 29.021L33.619 31.2371L30.3251 34.7826L32.6141 35.8827L35.6415 36.9987L34.6307 39.8674L38.1424 42.7603L37.6639 45.8625L42.1063 51.1809L40.2303 52.5L43.1688 53.397L42.8436 58.2009L45.0682 60.5L44.3983 61.5935L46.8543 66.9515L47.8045 69.1306L48.4803 70.6816Z" transform="translate(4.65625 5)" fill="#8F8F8F"/>
<path d="M3 0.0110775C3 0.0110775 14.5 -0.988827 24 16.0111C33.5 33.011 16.5 78.511 16.5 78.511L0 80.011L3 0.0110775Z" transform="translate(70 0.989014)" fill="#8F8F8F"/>
<path fill-rule="evenodd" clip-rule="evenodd" d="M74.2436 76.276C93.0883 36.444 94.1518 5.42334 67.5024 0L68.9155 3.6449L65.5239 5.88342L67.5024 7.62317L65.5239 9.83325V13.3695H63.0063L63.5873 21.326L60.9252 19.558V22.6521L63.0063 25.3043L58.2495 27.5144L55.1284 28.3986L56.6147 32.3768L55.8715 34.5869L58.2495 36.7971L54.3832 39.0109L55.1284 44.3115H52.601L51.9614 46.2131L51.4116 47.8478H54.3832L50.0737 51.826L54.3832 54.0363L48.5873 56.2463L50.0737 60.6666H47.101L45.02 61.5507L45.7631 64.6449L46.6332 67.7391L44.1284 69.5072L43.976 69.9596L43.9096 69.802L43.103 67.8865L43.9096 65.5289L42.2973 63.7609L41.2729 58.4565H39.1323L40.2495 56.2463L35.9682 50.942L36.4291 47.8478L33.0444 44.9628L34.019 42.1014L31.101 40.9884L28.895 39.8912L32.0698 36.3551L28.895 34.1449L29.6479 27.5145L23.8344 26.1884L24.8032 23.9783L21.8969 21.326L23.8344 17.3478L16.7065 12.4855V5.36047C-3.78473 14.4906 -4.04449 41.2391 8.44769 78.4954H9.33344V81H74.2436V76.276Z" transform="translate(4.00098)" fill="#C0C0C0"/>
<path d="M0 11.5022C2.95299 11.6602 4.32325 12.0348 6.15003 13.3218C9.86298 19.8333 74.5364 22.1548 93.4281 14.2604C95.1292 9.48773 97.5075 12.0768 98.2042 10.7224C95.8932 9.37815 94.1958 9.7635 91.0727 10.7224C91.6667 8.91828 92.6716 7.9553 94.4749 6.23851C91.3798 6.30871 89.2017 7.5556 84.661 11.5672C84.8164 8.94599 85.7695 7.44745 88.3903 4.74386C84.3083 4.60169 81.9946 6.66965 77.8567 11.3073C78.5665 5.016 76.9424 3.09672 71.5104 1.6896C73.9924 6.98913 73.5799 9.03215 69.6785 11.0474C68.6592 10.4796 68.244 9.56814 67.7812 6.88835C67.1019 7.87497 66.6574 8.24514 65.8184 8.7729C65.6407 8.50584 65.666 8.15123 65.8184 7.34324C64.1928 8.80591 63.2529 9.48763 61.5003 10.3325C62.0099 7.46265 62.612 5.85455 64.7061 2.98928C61.104 2.96193 59.0633 5.68604 55.4157 11.5672C56.2938 8.80317 56.4535 7.47981 55.2848 6.10854C55.2254 9.73291 54.1506 10.6026 51.8827 11.7622C51.6615 6.10827 52.4804 4.09314 55.2848 2.14449C51.4512 2.57611 49.4245 4.63532 45.9944 11.0474C46.0957 7.47297 45.4637 5.79336 43.3773 3.24922C43.286 8.75698 42.4184 10.1031 39.9752 10.5925C39.3012 6.56161 39.607 4.31188 41.8725 0.324922C36.8061 3.27798 34.8655 5.51256 33.1055 10.5925C32.5376 6.72089 33.0439 4.67062 35.4608 1.2347C30.6913 3.63807 29.9097 6.03058 29.0491 10.5925C26.5148 4.15025 23.58 2.59816 17.5995 0.844798C23.176 4.07946 24.4451 6.23596 23.9459 10.5925C21.4244 9.38038 21.0972 8.40577 22.5719 6.10854L19.1698 7.99309C16.4542 3.06176 14.5043 0.893928 8.89791 0C11.7887 2.67521 12.7426 4.63293 13.216 8.96785C8.82603 7.30326 6.30507 6.50309 0.850536 7.21327C3.94098 7.87441 5.55096 8.46214 8.17823 9.94262C4.8887 10.217 3.08724 10.5206 0 11.5022Z" transform="translate(0 68)" fill="#8D7EAD"/>
<path fill-rule="evenodd" clip-rule="evenodd" d="M35.5742 25.1882L32.973 24.9605L33.9505 23.3539L34.2702 22.7232L33.3546 16.7098L34.6064 15.4828L33.5275 14.0227L33.5506 9.75392L31.022 9.58159L29.4496 7.99178L33.5626 7.5863L33.5797 4.53605L36.9051 0L36.5199 7.29455L43.5554 6.60075L43.5555 10.4349L36.3797 9.94635L35.5742 25.1882ZM0 20.2319L1.05059 21.5553L5.76927 18.344L5.10054 15.4338L0 20.2319Z" transform="translate(33.4971 11.7454) rotate(18.1199)" fill="#5B5B5B"/>
<path d="M5.10321 0L0.915962 1.75458L0 6.56343L4.51438 3.70411L3.53299 9.16281H8.30908L9.6176 11.6322V7.60318L5.36492 7.86312L5.10321 0Z" transform="translate(3 38.1287) rotate(-12.7873)" fill="#A0A0A0"/>
<path d="M0.130852 6.94225L0 1.54854L3.23219 -8.57575e-05L2.0282 4.86275L7.26227 3.95296L5.49577 10.1915L7.26227 11.2962H3.59842L5.23407 5.83751L0.130852 6.94225Z" transform="translate(11 10.2289) rotate(-17.873)" fill="#A0A0A0"/>
<path d="M1.17767 3.05427L5.88832 0L7.06599 1.88455L2.94416 3.37919L5.29949 5.78362L1.17767 7.0833V8.44798L0 6.56343L3.66385 5.52368L1.17767 3.05427Z" transform="translate(86.2178 20) rotate(22.3861)" fill="#A0A0A0"/>
<path d="M0 0H10.7896L10.906 1.33986L0 1.16972V0Z" transform="translate(31 55.975) rotate(-24.1436)" fill="#5B5B5B"/>
<path d="M0 0.371722L11.7079 0L11.9205 1.54144H0V0.371722Z" transform="translate(32.8154 60.0256) rotate(-24.1436)" fill="#5B5B5B"/>
<path d="M0 0.274925L11.5847 0L11.4274 1.57331L0 1.44464V0.274925Z" transform="translate(34.9287 64.7384) rotate(-24.1436)" fill="#5B5B5B"/>
<path d="M0.648876 4.42758e-05L10.7298 0.420605V1.59033L0 1.25679L0.648876 4.42758e-05Z" transform="translate(54.3818 50.8027) rotate(17.6948)" fill="#5B5B5B"/>
<path d="M1.60216 -3.23229e-05L10.5161 0.792694V1.96241L0 1.56076L1.60216 -3.23229e-05Z" transform="translate(52.9736 55.0131) rotate(17.6948)" fill="#5B5B5B"/>
<path d="M1.60216 -3.23229e-05L12.0356 0.0332373V1.20296L0 1.56076L1.60216 -3.23229e-05Z" transform="translate(49.4736 60.0131) rotate(17.6948)" fill="#5B5B5B"/>
</svg>
