<svg width="103" height="139" viewBox="0 0 103 139" fill="none" xmlns="http://www.w3.org/2000/svg">
<path d="M0 78V91C0 94.3137 2.68629 97 6 97H114C117.314 97 120 94.3137 120 91V56V6C120 2.68629 117.314 0 114 0H6C2.68629 0 0 2.68629 0 6V19" transform="translate(100 16) rotate(90)" stroke="#4F4F4F" stroke-width="5"/>
<rect width="54" height="6" rx="3" transform="translate(24.5 100)" fill="#6B5795"/>
<rect width="80" height="6" rx="3" transform="translate(11.5 115)" fill="#6B5795"/>
<path d="M0 17V14.9808C0 11.6777 2.67772 9 5.98085 9C8.1529 9 10.1542 7.82242 11.2091 5.92371L12.7855 3.08614C13.8437 1.18135 15.8514 0 18.0304 0H33.4696C35.6486 0 37.6563 1.18135 38.7145 3.08614L40.2855 5.91386C41.3437 7.81865 43.3514 9 45.5304 9H46C49.3137 9 52 11.6863 52 15V17C52 20.3137 49.3137 23 46 23H6C2.68629 23 0 20.3137 0 17Z" transform="translate(25.5)" fill="#4F4F4F"/>
<path fill-rule="evenodd" clip-rule="evenodd" d="M30.484 11.6444L29.5452 9.58445C28.6746 7.6738 26.7684 6.44773 24.6688 6.44773C18.692 6.44773 13.8699 11.3363 13.9517 17.3125L13.9537 17.4477H23.3797C24.8665 17.4477 25.8336 19.0123 25.1685 20.3421C24.8299 21.0198 24.1373 21.4477 23.3797 21.4477H14.0084L14.077 26.4477H23.3797C24.8665 26.4477 25.8336 28.0123 25.1685 29.3421C24.8299 30.0198 24.1373 30.4477 23.3797 30.4477H14.1317L14.1558 32.2136C14.2374 38.1655 19.0855 42.9477 25.0382 42.9477C27.2095 42.9477 29.1732 41.6567 30.034 39.6631L32.0094 35.0877C32.701 33.4854 34.2794 32.4477 36.0247 32.4477C39.5997 32.4477 41.6646 36.5039 39.5614 39.3946L38.2044 41.2595C34.6898 46.0901 29.0765 48.9477 23.1029 48.9477C12.8604 48.9477 4.52888 40.6983 4.42757 30.4565V30.4477H2.00178C0.6053 30.4477 -0.361253 29.053 0.129225 27.7455C0.42195 26.9648 1.16804 26.4477 2.00178 26.4477H4.38801L4.33845 21.4477H2.00178C0.6053 21.4477 -0.361253 20.053 0.129225 18.7455C0.42195 17.9648 1.16804 17.4477 2.00178 17.4477H4.37166C5.15657 7.31455 13.9246 -0.526759 24.2747 0.0276848C29.2908 0.296362 33.9984 2.55234 37.3475 6.29624L37.8348 6.84092C40.5462 9.87205 38.0946 14.6507 34.0509 14.2174C32.4908 14.0503 31.1346 13.072 30.484 11.6444Z" transform="translate(28.8843 36.5522)" fill="#6B5795"/>
</svg>
