<svg width="284" height="261" viewBox="0 0 284 261" fill="none" xmlns="http://www.w3.org/2000/svg">
<rect width="284" height="261" fill="white"/>
<path d="M17.1572 48.3457L0 42.1076L23.3962 0L46.7924 3.11908L40.5534 34.3099L17.1572 48.3457Z" transform="matrix(-0.99998 0.00627831 0.0056747 0.999984 167.458 56.5657)" fill="#6B5795" fill-opacity="0.63"/>
<path d="M23.3962 6.23816L12.478 99.8105L0 96.6914L6.23899 0L23.3962 6.23816Z" transform="matrix(-0.99998 0.00627831 0.0056747 0.999984 173.936 98.6324)" fill="#6B5795" fill-opacity="0.84"/>
<path d="M0 107.608L32.7547 131.001L46.7924 17.1549L34.3144 0L10.9182 14.0359L0 107.608Z" transform="matrix(-0.99998 0.00627831 0.0056747 0.999984 161.414 90.9137)" fill="#6B5795" fill-opacity="0.71"/>
<path d="M32.7547 40.548L6.23899 0L0 31.1908L12.478 48.3457L32.7547 40.548Z" transform="matrix(-0.99998 0.00627831 0.0056747 0.999984 126.922 59.9399)" fill="#6B5795" fill-opacity="0.59"/>
<path d="M10.9184 132.561L0 121.644L14.0377 7.7977L34.3144 0L22.9089 121.33L10.9184 132.561Z" transform="matrix(-0.99998 0.00627831 0.0056747 0.999984 128.714 100.476)" fill="#6B5795" fill-opacity="0.9"/>
<path d="M19.3506 32.6683L0 7.7977V0L12.478 3.11908L45.2327 26.5122L56.1509 37.4289L44.6965 43.6671L19.3506 32.6683Z" transform="matrix(-0.99998 0.00627831 0.0056747 0.999984 174.484 195.323)" fill="#6B5795"/>
<path d="M6.23899 28.0717L3.11949 0L0 124.763L6.23899 28.0717Z" transform="matrix(-0.99998 0.00627831 0.0056747 0.999984 173.774 70.562)" fill="#6B5795"/>
<path d="M26.3695 23.2772V0L0 37.3131L3.11949 65.3848L26.3695 23.2772Z" transform="matrix(-0.99998 0.00627831 0.0056747 0.999984 170.444 33.2682)" fill="#6B5795" fill-opacity="0.4"/>
<path d="M32.7556 12.4767L23.3969 29.6321L0 26.5129V3.11917L6.19043 0L32.7556 12.4767Z" transform="matrix(-0.99998 0.00627831 0.0056747 0.999984 143.911 30.2003)" fill="#6B5795" fill-opacity="0.3"/>
<path d="M25.8821 36.0481L26.5157 57.703L0 17.1549L9.35848 0L25.8821 36.0481Z" transform="matrix(-0.99998 0.00627831 0.0056747 0.999984 120.586 42.8238)" fill="#6B5795"/>
</svg>
