<svg width="161" height="112" viewBox="0 0 161 112" fill="none" xmlns="http://www.w3.org/2000/svg">
<path fill-rule="evenodd" clip-rule="evenodd" d="M62.1983 10.0123C62.2061 7.24635 59.966 5 57.2001 5H41.7836C39.0232 5 36.7854 7.23778 36.7854 9.99822V34.0506C36.7854 36.811 39.0232 39.0488 41.7836 39.0488H57.1325C59.8875 39.0488 62.123 36.8196 62.1307 34.0647L62.1983 10.0123ZM62.0887 49.0611C62.0965 46.2952 59.8564 44.0488 57.0905 44.0488H41.7836C39.0232 44.0488 36.7854 46.2866 36.7854 49.0471V75.7549C36.7854 78.5096 39.0143 80.745 41.7691 80.7531L57.0008 80.7974C59.7614 80.8055 62.0058 78.5739 62.0136 75.8133L62.0887 49.0611ZM67.0136 75.829C67.0058 78.5892 69.237 80.8332 71.9972 80.8412L88.8984 80.8904C91.6645 80.8985 93.9111 78.6584 93.9111 75.8922V9.99822C93.9111 7.23778 91.6734 5 88.9129 5H72.1968C69.4419 5 67.2064 7.22923 67.1986 9.98418L67.0136 75.829ZM98.9111 75.936C98.9111 78.6908 101.14 80.9262 103.895 80.9342L120.684 80.9831C123.45 80.9911 125.697 78.751 125.697 75.9849V50.047C125.697 47.2722 123.436 45.0285 120.661 45.0489L103.873 45.1727C101.127 45.1929 98.9111 47.4247 98.9111 50.1708V75.936ZM130.697 76.0286C130.697 78.7834 132.925 81.0188 135.68 81.0268L150.987 81.0714C153.753 81.0795 156 78.8394 156 76.0732V9.99822C156 7.23778 153.762 5 151.002 5H135.695C132.934 5 130.697 7.23778 130.697 9.99822V76.0286ZM156 91.0696C156 88.3149 153.771 86.0794 151.016 86.0714L87.9593 85.8877C85.1768 85.8795 82.9233 88.1453 82.9466 90.9277L83.0398 102.044C83.0628 104.788 85.2937 107 88.0378 107H151.002C153.762 107 156 104.762 156 102.002V91.0696ZM77.9452 90.8003C77.9223 88.062 75.7002 85.852 72.9618 85.844L10.0128 85.6606C7.24666 85.6525 5 87.8927 5 90.6588V102.002C5 104.762 7.23778 107 9.99822 107H73.0407C75.8176 107 78.0621 104.737 78.0388 101.96L77.9452 90.8003ZM5 75.6622C5 78.417 7.22891 80.6524 9.98364 80.6604L26.7726 80.7094C29.5387 80.7174 31.7854 78.4773 31.7854 75.7112V9.99822C31.7854 7.23778 29.5476 5 26.7872 5H9.99822C7.23778 5 5 7.23778 5 9.99822V75.6622ZM120.698 5C123.459 5 125.697 7.23778 125.697 9.99822V35.0502C125.697 37.7963 123.481 40.028 120.735 40.0483L103.946 40.172C101.171 40.1925 98.9111 37.9488 98.9111 35.1739V9.99822C98.9111 7.23778 101.149 5 103.909 5H120.698ZM156 0H36.7854H31.7854H5C2.23956 0 0 2.23956 0 5V107C0 109.76 2.23956 112 5 112H156C158.76 112 161 109.76 161 107V5C161 2.23956 158.76 0 156 0Z" fill="#4F4F4F"/>
</svg>
