<svg width="174" height="255" viewBox="0 0 174 255" fill="none" xmlns="http://www.w3.org/2000/svg">
<rect width="5.40205" height="14.0562" rx="2.70103" transform="matrix(0.965868 0.259036 -0.258603 0.965984 114.711 14.5527)" fill="#F2DB93"/>
<rect width="5.40415" height="14.0508" rx="2.70208" transform="translate(150.372 40.9111) scale(0.999552 1.00045) rotate(60)" fill="#F2DB93"/>
<rect width="5.40625" height="14.0453" rx="2.70312" transform="matrix(-0.258603 0.965984 -0.965868 -0.259036 158.329 85.583)" fill="#F2DB93"/>
<rect width="5.40415" height="14.0508" rx="2.70208" transform="translate(81.5745 32.75) scale(0.999552 1.00045) rotate(150)" fill="#F2DB93"/>
<path d="M0 0H8.64328V96.509C8.64328 98.8958 6.70842 100.831 4.32164 100.831C1.93487 100.831 0 98.8958 0 96.509V0Z" transform="matrix(0.965868 0.259036 -0.258603 0.965984 93.6978 145.315)" fill="#BDBDBD"/>
<path d="M0 0H8.64328V55.1471C8.64328 57.5339 6.70842 59.4687 4.32164 59.4687C1.93487 59.4687 0 57.5339 0 55.1471V0Z" transform="matrix(0.965868 0.259036 -0.258603 0.965984 60.3044 136.36)" fill="#BDBDBD"/>
<path fill-rule="evenodd" clip-rule="evenodd" d="M16.2065 28.0909C16.2064 12.5769 28.7832 9.28404e-05 44.2971 0C59.8113 0.000315534 72.3879 12.5766 72.3879 28.0906L72.3877 86.0167C83.532 88.5779 90.7545 92.6841 90.7544 97.3127C90.7547 105.076 70.4384 111.369 45.3772 111.369C20.3162 111.369 -1.05166e-05 105.076 1.1658e-10 97.3126C-3.14711e-05 92.965 6.37176 89.0782 16.3806 86.4999L16.2065 86.5001L16.2065 28.0909ZM24.3666 29.8151C25.8801 30.6896 27.7502 29.4254 27.6883 27.6778C27.4461 20.8425 29.7345 16.9893 36.157 13.3751C37.6927 12.5114 37.7984 10.263 36.2724 9.38118C35.6277 9.00866 34.834 8.99151 34.182 9.35085C25.0379 14.3914 22.7344 18.8831 23.3368 28.174C23.3813 28.8586 23.7729 29.4724 24.3666 29.8151Z" transform="matrix(0.965868 0.259036 -0.258603 0.965984 65.7 30.5161)" fill="#FAEAB9"/>
<rect width="5.40625" height="14.0453" rx="2.70312" transform="matrix(-0.258603 0.965984 -0.965868 -0.259036 59.1938 58.9966)" fill="#F2DB93"/>
</svg>
