<svg width="260" height="197" viewBox="0 0 260 197" fill="none" xmlns="http://www.w3.org/2000/svg">
<rect width="5.40205" height="14.0562" rx="2.70103" transform="matrix(0.381111 0.924529 -0.924358 0.381525 236.393 51.941)" fill="#F2DB93"/>
<rect width="5.40415" height="14.0508" rx="2.70208" transform="matrix(-0.384492 0.923371 -0.923255 -0.383604 237.125 96.2793)" fill="#F2DB93"/>
<rect width="5.40625" height="14.0453" rx="2.70312" transform="matrix(-0.924358 0.381525 -0.381111 -0.924529 206.479 129.742)" fill="#F2DB93"/>
<rect width="5.40415" height="14.0508" rx="2.70208" transform="matrix(-0.923255 -0.383604 0.384492 -0.923371 201.806 36.6785)" fill="#F2DB93"/>
<path d="M0 0H8.64328V96.509C8.64328 98.8958 6.70842 100.831 4.32164 100.831C1.93487 100.831 0 98.8958 0 96.509V0Z" transform="matrix(0.381111 0.924529 -0.924358 0.381525 119.767 114.701)" fill="#BDBDBD"/>
<path d="M0 0H8.64328V55.1471C8.64328 57.5339 6.70842 59.4687 4.32164 59.4687C1.93487 59.4687 0 57.5339 0 55.1471V0Z" transform="matrix(0.381111 0.924529 -0.924358 0.381525 106.59 82.737)" fill="#BDBDBD"/>
<path fill-rule="evenodd" clip-rule="evenodd" d="M16.2062 28.091C16.2063 12.5767 28.7828 0.000473912 44.297 0C59.8109 0.000428949 72.3876 12.5769 72.3875 28.0912L72.3874 86.0167C83.532 88.5778 90.7546 92.684 90.7546 97.3124C90.7547 105.075 70.4383 111.369 45.3773 111.369C20.3162 111.369 1.81944e-05 105.076 0 97.3128C9.697e-06 92.9654 6.37167 89.0782 16.3795 86.5L16.2062 86.5004L16.2062 28.091ZM24.3664 29.8158C25.8798 30.6902 27.7502 29.4255 27.6883 27.6779C27.446 20.8429 29.7348 16.9892 36.1571 13.3753C37.6924 12.5113 37.7982 10.2634 36.2723 9.38181C35.6276 9.0093 34.834 8.99163 34.1819 9.3514C25.038 14.3913 22.7343 18.8835 23.3368 28.1742C23.3813 28.8582 23.7727 29.4727 24.3664 29.8158Z" transform="matrix(0.381111 0.924529 -0.924358 0.381525 193.936 22.7129)" fill="#FAEAB9"/>
<rect width="5.40625" height="14.0453" rx="2.70312" transform="matrix(-0.924358 0.381525 -0.381111 -0.924529 167.361 34.8496)" fill="#F2DB93"/>
</svg>
