<svg width="211" height="51" viewBox="0 0 211 51" fill="none" xmlns="http://www.w3.org/2000/svg">
<rect width="210.667" height="51" transform="translate(0.333984)" fill="#E1DFE9"/>
<path d="M18.457 21.662H20.011V29.684H24.477V31H18.457V21.662ZM25.9065 21.522H27.4745V22.852H25.9065V21.522ZM25.9485 24.014H27.4185L27.4325 31H25.9485V24.014ZM32.6372 31.14C31.6479 31.14 30.8219 30.8553 30.1592 30.286C29.5059 29.7167 29.1792 28.7973 29.1792 27.528C29.1792 26.2213 29.5012 25.2787 30.1452 24.7C30.7986 24.112 31.6246 23.818 32.6232 23.818C33.3792 23.818 34.0979 23.958 34.7792 24.238V25.554C34.0699 25.2553 33.4212 25.106 32.8332 25.106C32.0959 25.106 31.5452 25.2927 31.1812 25.666C30.8172 26.03 30.6352 26.6133 30.6352 27.416C30.6352 28.256 30.8126 28.872 31.1672 29.264C31.5219 29.6467 32.0912 29.838 32.8752 29.838C33.5099 29.838 34.1492 29.684 34.7932 29.376V30.692C34.1212 30.9907 33.4026 31.14 32.6372 31.14ZM40.0305 23.818C41.8039 23.818 42.6905 24.7607 42.6905 26.646V31H41.2205V26.828C41.2205 26.2587 41.0852 25.8247 40.8145 25.526C40.5439 25.2273 40.1425 25.078 39.6105 25.078C39.0412 25.078 38.4905 25.232 37.9585 25.54L37.9445 31H36.4885V21.004H37.9585V24.392C38.6585 24.0093 39.3492 23.818 40.0305 23.818ZM47.266 31.182C46.622 31.182 46.118 31.0093 45.754 30.664C45.39 30.3187 45.208 29.8287 45.208 29.194V25.19H44.074V23.972H45.208V22.012H46.72V23.972H48.428V25.19H46.72V28.9C46.72 29.2453 46.7807 29.4973 46.902 29.656C47.0233 29.8053 47.238 29.88 47.546 29.88C47.6953 29.88 47.8493 29.8613 48.008 29.824C48.176 29.7773 48.316 29.7213 48.428 29.656V30.958C48.1013 31.1073 47.714 31.182 47.266 31.182ZM53.0311 23.804C54.1231 23.804 54.9211 24.1587 55.4251 24.868C55.9384 25.568 56.1904 26.5527 56.1811 27.822H51.2531C51.2997 28.5127 51.5004 29.04 51.8551 29.404C52.2191 29.7587 52.7324 29.936 53.3951 29.936C53.8244 29.936 54.2351 29.8847 54.6271 29.782C55.0191 29.67 55.3644 29.53 55.6631 29.362V30.734C54.9351 31.0513 54.0997 31.21 53.1571 31.21C52.1024 31.21 51.2717 30.8927 50.6651 30.258C50.0677 29.614 49.7691 28.704 49.7691 27.528C49.7691 26.324 50.0537 25.4047 50.6231 24.77C51.1924 24.126 51.9951 23.804 53.0311 23.804ZM52.9891 25.008C52.4944 25.008 52.1071 25.1387 51.8271 25.4C51.5471 25.6613 51.3651 26.1047 51.2811 26.73H54.6831C54.6177 26.1327 54.4497 25.6987 54.1791 25.428C53.9084 25.148 53.5117 25.008 52.9891 25.008ZM57.8713 24.616C58.1327 24.4573 58.576 24.2847 59.2013 24.098C59.8267 23.9113 60.4473 23.818 61.0633 23.818C61.4367 23.818 61.754 23.8787 62.0153 24V25.176C61.754 25.1387 61.4413 25.12 61.0773 25.12C60.4613 25.12 59.8827 25.1667 59.3413 25.26V31H57.8713V24.616ZM64.0511 25.19H62.9311V23.972H64.0651V23.692C64.0651 22.6093 64.3031 21.8907 64.7791 21.536C65.2645 21.1813 65.8431 21.004 66.5151 21.004C66.7765 21.004 67.0378 21.0367 67.2991 21.102V22.404C67.1871 22.348 67.0891 22.306 67.0051 22.278C66.9211 22.25 66.8185 22.236 66.6971 22.236C66.4638 22.236 66.2631 22.264 66.0951 22.32C65.9365 22.376 65.8011 22.502 65.6891 22.698C65.5865 22.8847 65.5351 23.174 65.5351 23.566V23.972H67.2991V25.19H65.5211V31H64.0511V25.19ZM71.324 23.804C72.416 23.804 73.214 24.1587 73.718 24.868C74.2314 25.568 74.4834 26.5527 74.474 27.822H69.546C69.5927 28.5127 69.7934 29.04 70.148 29.404C70.512 29.7587 71.0254 29.936 71.688 29.936C72.1174 29.936 72.528 29.8847 72.92 29.782C73.312 29.67 73.6574 29.53 73.956 29.362V30.734C73.228 31.0513 72.3927 31.21 71.45 31.21C70.3954 31.21 69.5647 30.8927 68.958 30.258C68.3607 29.614 68.062 28.704 68.062 27.528C68.062 26.324 68.3467 25.4047 68.916 24.77C69.4854 24.126 70.288 23.804 71.324 23.804ZM71.282 25.008C70.7874 25.008 70.4 25.1387 70.12 25.4C69.84 25.6613 69.658 26.1047 69.574 26.73H72.976C72.9107 26.1327 72.7427 25.6987 72.472 25.428C72.2014 25.148 71.8047 25.008 71.282 25.008ZM78.1943 31.21C77.7276 31.21 77.3216 31.1633 76.9763 31.07C76.6403 30.9767 76.2763 30.8367 75.8843 30.65V29.264C76.3043 29.5253 76.687 29.7213 77.0323 29.852C77.3776 29.9733 77.765 30.034 78.1943 30.034C78.5956 30.034 78.9083 29.9547 79.1323 29.796C79.3656 29.628 79.4823 29.4133 79.4823 29.152C79.4823 28.9 79.389 28.7133 79.2023 28.592C79.0156 28.4707 78.7263 28.34 78.3343 28.2L78.0123 28.088C77.359 27.9293 76.8363 27.7007 76.4443 27.402C76.0616 27.1033 75.8703 26.6367 75.8703 26.002C75.8703 25.5073 76.001 25.0967 76.2623 24.77C76.5236 24.4433 76.8503 24.2053 77.2423 24.056C77.6436 23.9067 78.0636 23.832 78.5023 23.832C78.9503 23.8413 79.3283 23.8973 79.6363 24C79.9443 24.0933 80.2803 24.2333 80.6443 24.42V25.68C80.159 25.428 79.7903 25.2553 79.5383 25.162C79.2956 25.0687 79.0016 25.022 78.6563 25.022C78.2736 25.022 77.9656 25.092 77.7323 25.232C77.499 25.372 77.3823 25.568 77.3823 25.82C77.3823 26.1187 77.499 26.338 77.7323 26.478C77.9656 26.6087 78.3296 26.744 78.8243 26.884C79.291 27.0147 79.6596 27.1407 79.9303 27.262C80.2103 27.3833 80.453 27.584 80.6583 27.864C80.873 28.1347 80.9803 28.508 80.9803 28.984C80.971 29.7307 80.6956 30.2907 80.1543 30.664C79.6223 31.028 78.969 31.21 78.1943 31.21ZM85.2055 31.182C84.5615 31.182 84.0575 31.0093 83.6935 30.664C83.3295 30.3187 83.1475 29.8287 83.1475 29.194V25.19H82.0135V23.972H83.1475V22.012H84.6595V23.972H86.3675V25.19H84.6595V28.9C84.6595 29.2453 84.7201 29.4973 84.8415 29.656C84.9628 29.8053 85.1775 29.88 85.4855 29.88C85.6348 29.88 85.7888 29.8613 85.9475 29.824C86.1155 29.7773 86.2555 29.7213 86.3675 29.656V30.958C86.0408 31.1073 85.6535 31.182 85.2055 31.182ZM95.593 31.168C94.305 31.168 93.3437 30.7667 92.709 29.964C92.0744 29.1613 91.757 27.9573 91.757 26.352C91.757 23.1413 93.0357 21.536 95.593 21.536C96.8904 21.536 97.8564 21.9373 98.491 22.74C99.1257 23.5427 99.443 24.7467 99.443 26.352C99.443 27.9667 99.1257 29.1753 98.491 29.978C97.8657 30.7713 96.8997 31.168 95.593 31.168ZM95.593 29.852C96.0224 29.852 96.4004 29.768 96.727 29.6C97.063 29.4227 97.3384 29.0773 97.553 28.564C97.777 28.0507 97.889 27.3133 97.889 26.352C97.889 24.98 97.6744 24.056 97.245 23.58C96.825 23.0947 96.2744 22.852 95.593 22.852C94.921 22.852 94.3704 23.0947 93.941 23.58C93.521 24.056 93.311 24.98 93.311 26.352C93.311 27.7333 93.521 28.662 93.941 29.138C94.361 29.614 94.9117 29.852 95.593 29.852ZM104.627 24.966C105.654 24.966 106.442 25.232 106.993 25.764C107.553 26.2867 107.833 27.0287 107.833 27.99C107.833 28.55 107.707 29.068 107.455 29.544C107.212 30.02 106.83 30.4073 106.307 30.706C105.784 30.9953 105.136 31.14 104.361 31.14C102.102 31.14 100.973 29.6653 100.973 26.716C100.973 24.672 101.435 23.2953 102.359 22.586C103.283 21.8673 104.291 21.508 105.383 21.508C106.018 21.508 106.568 21.592 107.035 21.76V23.118C106.54 22.9313 106.036 22.838 105.523 22.838C105.112 22.838 104.692 22.9313 104.263 23.118C103.834 23.2953 103.456 23.6127 103.129 24.07C102.812 24.518 102.62 25.1107 102.555 25.848C102.788 25.596 103.078 25.386 103.423 25.218C103.778 25.05 104.179 24.966 104.627 24.966ZM104.431 29.796C105.131 29.796 105.612 29.6 105.873 29.208C106.134 28.816 106.265 28.4007 106.265 27.962C106.265 27.3927 106.106 26.9587 105.789 26.66C105.481 26.3613 105.038 26.212 104.459 26.212C104.011 26.212 103.624 26.296 103.297 26.464C102.97 26.6227 102.718 26.828 102.541 27.08C102.588 27.808 102.695 28.3727 102.863 28.774C103.031 29.166 103.241 29.4367 103.493 29.586C103.754 29.726 104.067 29.796 104.431 29.796ZM109.591 29.362H111.257V31H109.591V29.362ZM113.353 26.184H117.623V27.374H113.353V26.184ZM123.32 31.168C122.032 31.168 121.07 30.7667 120.436 29.964C119.801 29.1613 119.484 27.9573 119.484 26.352C119.484 23.1413 120.762 21.536 123.32 21.536C124.617 21.536 125.583 21.9373 126.218 22.74C126.852 23.5427 127.17 24.7467 127.17 26.352C127.17 27.9667 126.852 29.1753 126.218 29.978C125.592 30.7713 124.626 31.168 123.32 31.168ZM123.32 29.852C123.749 29.852 124.127 29.768 124.454 29.6C124.79 29.4227 125.065 29.0773 125.28 28.564C125.504 28.0507 125.616 27.3133 125.616 26.352C125.616 24.98 125.401 24.056 124.972 23.58C124.552 23.0947 124.001 22.852 123.32 22.852C122.648 22.852 122.097 23.0947 121.668 23.58C121.248 24.056 121.038 24.98 121.038 26.352C121.038 27.7333 121.248 28.662 121.668 29.138C122.088 29.614 122.638 29.852 123.32 29.852ZM132.143 31.14C131.359 31.14 130.706 31.0093 130.183 30.748C129.661 30.4867 129.273 30.1413 129.021 29.712C128.779 29.2733 128.657 28.7973 128.657 28.284C128.657 27.64 128.835 27.15 129.189 26.814C129.544 26.4687 129.903 26.212 130.267 26.044C130.006 25.932 129.726 25.7127 129.427 25.386C129.129 25.0593 128.979 24.6113 128.979 24.042C128.979 23.286 129.236 22.6747 129.749 22.208C130.272 21.7413 131.07 21.508 132.143 21.508C133.217 21.508 134.015 21.7413 134.537 22.208C135.06 22.6747 135.321 23.286 135.321 24.042C135.321 24.6207 135.181 25.064 134.901 25.372C134.631 25.68 134.351 25.904 134.061 26.044C134.388 26.1747 134.729 26.4173 135.083 26.772C135.447 27.1267 135.629 27.6307 135.629 28.284C135.629 28.7973 135.508 29.2733 135.265 29.712C135.023 30.1413 134.64 30.4867 134.117 30.748C133.595 31.0093 132.937 31.14 132.143 31.14ZM132.143 25.554C132.619 25.554 133.002 25.428 133.291 25.176C133.59 24.924 133.739 24.5787 133.739 24.14C133.739 23.692 133.585 23.3653 133.277 23.16C132.969 22.9453 132.591 22.838 132.143 22.838C131.695 22.838 131.317 22.9453 131.009 23.16C130.701 23.3653 130.547 23.692 130.547 24.14C130.547 24.5787 130.697 24.924 130.995 25.176C131.294 25.428 131.677 25.554 132.143 25.554ZM132.143 29.838C132.871 29.838 133.366 29.656 133.627 29.292C133.898 28.9187 134.033 28.5313 134.033 28.13C134.033 27.6633 133.87 27.2947 133.543 27.024C133.217 26.7533 132.75 26.618 132.143 26.618C131.546 26.618 131.084 26.7533 130.757 27.024C130.431 27.2947 130.267 27.6633 130.267 28.13C130.267 28.5313 130.398 28.9187 130.659 29.292C130.93 29.656 131.425 29.838 132.143 29.838ZM137.345 29.362H139.011V31H137.345V29.362ZM144.579 31.168C143.291 31.168 142.33 30.7667 141.695 29.964C141.061 29.1613 140.743 27.9573 140.743 26.352C140.743 23.1413 142.022 21.536 144.579 21.536C145.877 21.536 146.843 21.9373 147.477 22.74C148.112 23.5427 148.429 24.7467 148.429 26.352C148.429 27.9667 148.112 29.1753 147.477 29.978C146.852 30.7713 145.886 31.168 144.579 31.168ZM144.579 29.852C145.009 29.852 145.387 29.768 145.713 29.6C146.049 29.4227 146.325 29.0773 146.539 28.564C146.763 28.0507 146.875 27.3133 146.875 26.352C146.875 24.98 146.661 24.056 146.231 23.58C145.811 23.0947 145.261 22.852 144.579 22.852C143.907 22.852 143.357 23.0947 142.927 23.58C142.507 24.056 142.297 24.98 142.297 26.352C142.297 27.7333 142.507 28.662 142.927 29.138C143.347 29.614 143.898 29.852 144.579 29.852ZM156.651 21.662V22.768L152.927 31H151.219L154.915 23.132H150.141V21.662H156.651ZM158.318 29.362H159.984V31H158.318V29.362ZM168.184 29.544V31H162.01V29.81C162.635 29.39 163.289 28.8673 163.97 28.242C164.661 27.6167 165.249 26.9587 165.734 26.268C166.229 25.5773 166.476 24.9473 166.476 24.378C166.476 23.9207 166.322 23.552 166.014 23.272C165.706 22.9827 165.211 22.838 164.53 22.838C163.718 22.838 162.906 23.1413 162.094 23.748V22.292C162.962 21.7693 163.886 21.508 164.866 21.508C165.921 21.508 166.709 21.7647 167.232 22.278C167.764 22.782 168.03 23.44 168.03 24.252C168.03 25.1293 167.657 26.0113 166.91 26.898C166.163 27.7753 165.235 28.6573 164.124 29.544H168.184ZM173.851 31.168C172.563 31.168 171.602 30.7667 170.967 29.964C170.332 29.1613 170.015 27.9573 170.015 26.352C170.015 23.1413 171.294 21.536 173.851 21.536C175.148 21.536 176.114 21.9373 176.749 22.74C177.384 23.5427 177.701 24.7467 177.701 26.352C177.701 27.9667 177.384 29.1753 176.749 29.978C176.124 30.7713 175.158 31.168 173.851 31.168ZM173.851 29.852C174.28 29.852 174.658 29.768 174.985 29.6C175.321 29.4227 175.596 29.0773 175.811 28.564C176.035 28.0507 176.147 27.3133 176.147 26.352C176.147 24.98 175.932 24.056 175.503 23.58C175.083 23.0947 174.532 22.852 173.851 22.852C173.179 22.852 172.628 23.0947 172.199 23.58C171.779 24.056 171.569 24.98 171.569 26.352C171.569 27.7333 171.779 28.662 172.199 29.138C172.619 29.614 173.17 29.852 173.851 29.852ZM181.471 23.202L179.623 24.336V22.796L181.499 21.662H183.011V31H181.471V23.202ZM189.1 31.14C188.316 31.14 187.663 31.0093 187.14 30.748C186.618 30.4867 186.23 30.1413 185.978 29.712C185.736 29.2733 185.614 28.7973 185.614 28.284C185.614 27.64 185.792 27.15 186.146 26.814C186.501 26.4687 186.86 26.212 187.224 26.044C186.963 25.932 186.683 25.7127 186.384 25.386C186.086 25.0593 185.936 24.6113 185.936 24.042C185.936 23.286 186.193 22.6747 186.706 22.208C187.229 21.7413 188.027 21.508 189.1 21.508C190.174 21.508 190.972 21.7413 191.494 22.208C192.017 22.6747 192.278 23.286 192.278 24.042C192.278 24.6207 192.138 25.064 191.858 25.372C191.588 25.68 191.308 25.904 191.018 26.044C191.345 26.1747 191.686 26.4173 192.04 26.772C192.404 27.1267 192.586 27.6307 192.586 28.284C192.586 28.7973 192.465 29.2733 192.222 29.712C191.98 30.1413 191.597 30.4867 191.074 30.748C190.552 31.0093 189.894 31.14 189.1 31.14ZM189.1 25.554C189.576 25.554 189.959 25.428 190.248 25.176C190.547 24.924 190.696 24.5787 190.696 24.14C190.696 23.692 190.542 23.3653 190.234 23.16C189.926 22.9453 189.548 22.838 189.1 22.838C188.652 22.838 188.274 22.9453 187.966 23.16C187.658 23.3653 187.504 23.692 187.504 24.14C187.504 24.5787 187.654 24.924 187.952 25.176C188.251 25.428 188.634 25.554 189.1 25.554ZM189.1 29.838C189.828 29.838 190.323 29.656 190.584 29.292C190.855 28.9187 190.99 28.5313 190.99 28.13C190.99 27.6633 190.827 27.2947 190.5 27.024C190.174 26.7533 189.707 26.618 189.1 26.618C188.503 26.618 188.041 26.7533 187.714 27.024C187.388 27.2947 187.224 27.6633 187.224 28.13C187.224 28.5313 187.355 28.9187 187.616 29.292C187.887 29.656 188.382 29.838 189.1 29.838Z" fill="#6B5795"/>
</svg>
