<svg width="1440" height="900" viewBox="0 0 1440 900" fill="none" xmlns="http://www.w3.org/2000/svg">
<g clip-path="url(#clip0)">
<rect width="1440" height="900" fill="white"/>
<rect width="1440" height="900" fill="#6B5795"/>
<mask id="mask0" mask-type="alpha" maskUnits="userSpaceOnUse" x="0" y="0" width="1440" height="900">
<path d="M1440 900V0H1109.5L518 0.5L0 0V900H473.5H1028H1440Z" fill="#6B5795"/>
</mask>
<g mask="url(#mask0)">
<g opacity="0.5">
<path d="M36.3698 102.5L0 89.2745L49.5951 0L99.1903 6.61292L85.9649 72.7421L36.3698 102.5Z" transform="translate(162.865 120.369) scale(0.999692 1.00031) rotate(43.3517)" fill="#988CB3"/>
<path d="M49.5951 13.2258L26.4507 211.613L0 205.001L13.2254 0L49.5951 13.2258Z" transform="translate(91.9868 176.22) scale(0.999692 1.00031) rotate(43.3517)" fill="#7F6EA2"/>
<path d="M0 228.146L69.4332 277.743L99.1903 36.3711L72.7395 0L23.1444 29.7582L0 228.146Z" transform="translate(122.559 182.359) scale(0.999692 1.00031) rotate(43.3517)" fill="#8E80AC"/>
<path d="M69.4332 85.968L13.2254 0L0 66.1292L26.4507 102.5L69.4332 85.968Z" transform="translate(220.817 184.212) scale(0.999692 1.00031) rotate(43.3517)" fill="#9D91B6"/>
<path d="M23.1447 281.049L0 257.904L29.7571 16.5323L72.7396 0L48.5622 257.239L23.1447 281.049Z" transform="translate(159.417 244.469) scale(0.999692 1.00031) rotate(43.3517)" fill="#77659D"/>
<path d="M13.2254 59.5163L6.61269 0L0 264.517L13.2254 59.5163Z" transform="translate(132.83 132.932) scale(0.999692 1.00031) rotate(43.3517)" fill="#6B5795"/>
<path d="M55.8979 49.3512V0L0 79.1094L6.61269 138.626L55.8979 49.3512Z" transform="translate(191.927 79.9316) scale(0.999692 1.00031) rotate(43.3517)" fill="#B4ACC5"/>
<path d="M69.4332 26.4517L49.5951 62.8228L0 56.2098V6.61292L13.1221 0L69.4332 26.4517Z" transform="translate(237.492 113.542) scale(0.999692 1.00031) rotate(43.3517)" fill="#C0BACD"/>
<path d="M54.8646 76.4274L56.2078 122.339L0 36.3711L19.8381 0L54.8646 76.4274Z" transform="translate(255.392 166.84) scale(0.999692 1.00031) rotate(43.3517)" fill="#6B5795"/>
<path d="M36.3698 102.5L0 89.2745L49.5951 0L99.1903 6.61292L85.9649 72.7421L36.3698 102.5Z" transform="translate(323.099 575.966) scale(0.999692 1.00031) rotate(43.3517)" fill="#988CB3"/>
<path d="M49.5951 13.2258L26.4507 211.613L0 205.001L13.2254 0L49.5951 13.2258Z" transform="translate(252.22 631.818) scale(0.999692 1.00031) rotate(43.3517)" fill="#7F6EA2"/>
<path d="M0 228.146L69.4332 277.743L99.1903 36.3711L72.7395 0L23.1444 29.7582L0 228.146Z" transform="translate(282.792 637.957) scale(0.999692 1.00031) rotate(43.3517)" fill="#8E80AC"/>
<path d="M69.4332 85.968L13.2254 0L0 66.1292L26.4507 102.5L69.4332 85.968Z" transform="translate(381.051 639.81) scale(0.999692 1.00031) rotate(43.3517)" fill="#9D91B6"/>
<path d="M23.1447 281.049L0 257.904L29.7571 16.5323L72.7396 0L48.5622 257.239L23.1447 281.049Z" transform="translate(319.65 700.066) scale(0.999692 1.00031) rotate(43.3517)" fill="#77659D"/>
<path d="M41.0193 69.2617L0 16.5323V0L26.4507 6.61292L95.884 56.2098L119.028 79.3551L94.7474 92.5809L41.0193 69.2617Z" transform="translate(111.535 780.926) scale(0.999692 1.00031) rotate(43.3517)" fill="#6B5795"/>
<path d="M13.2254 59.5163L6.61269 0L0 264.517L13.2254 59.5163Z" transform="translate(293.063 588.53) scale(0.999692 1.00031) rotate(43.3517)" fill="#6B5795"/>
<path d="M55.8979 49.3512V0L0 79.1094L6.61269 138.626L55.8979 49.3512Z" transform="translate(352.161 535.529) scale(0.999692 1.00031) rotate(43.3517)" fill="#B4ACC5"/>
<path d="M69.4332 26.4517L49.5951 62.8228L0 56.2098V6.61292L13.1221 0L69.4332 26.4517Z" transform="translate(397.726 569.139) scale(0.999692 1.00031) rotate(43.3517)" fill="#C0BACD"/>
<path d="M54.8646 76.4274L56.2078 122.339L0 36.3711L19.8381 0L54.8646 76.4274Z" transform="translate(415.625 622.438) scale(0.999692 1.00031) rotate(43.3517)" fill="#6B5795"/>
<path d="M36.3698 102.5L0 89.2745L49.5951 0L99.1903 6.61292L85.9649 72.7421L36.3698 102.5Z" transform="translate(776.099 763.966) scale(0.999692 1.00031) rotate(43.3517)" fill="#988CB3"/>
<path d="M49.5951 13.2258L26.4507 211.613L0 205.001L13.2254 0L49.5951 13.2258Z" transform="translate(705.22 819.818) scale(0.999692 1.00031) rotate(43.3517)" fill="#7F6EA2"/>
<path d="M0 228.146L69.4332 277.743L99.1903 36.3711L72.7395 0L23.1444 29.7582L0 228.146Z" transform="translate(735.792 825.957) scale(0.999692 1.00031) rotate(43.3517)" fill="#8E80AC"/>
<path d="M69.4332 85.968L13.2254 0L0 66.1292L26.4507 102.5L69.4332 85.968Z" transform="translate(834.051 827.809) scale(0.999692 1.00031) rotate(43.3517)" fill="#9D91B6"/>
<path d="M13.2254 59.5163L6.61269 0L0 264.517L13.2254 59.5163Z" transform="translate(746.062 776.53) scale(0.999692 1.00031) rotate(43.3517)" fill="#6B5795"/>
<path d="M55.8979 49.3512V0L0 79.1094L6.61269 138.626L55.8979 49.3512Z" transform="translate(805.16 723.529) scale(0.999692 1.00031) rotate(43.3517)" fill="#B4ACC5"/>
<path d="M69.4332 26.4517L49.5951 62.8228L0 56.2098V6.61292L13.1221 0L69.4332 26.4517Z" transform="translate(850.726 757.139) scale(0.999692 1.00031) rotate(43.3517)" fill="#C0BACD"/>
<path d="M54.8646 76.4274L56.2078 122.339L0 36.3711L19.8381 0L54.8646 76.4274Z" transform="translate(868.625 810.437) scale(0.999692 1.00031) rotate(43.3517)" fill="#6B5795"/>
<path d="M36.3698 102.5L0 89.2745L49.5951 0L99.1903 6.61292L85.9649 72.7421L36.3698 102.5Z" transform="translate(1363.36 801.205) scale(0.999692 1.00031) rotate(43.3517)" fill="#988CB3"/>
<path d="M49.5951 13.2258L26.4507 211.613L0 205.001L13.2254 0L49.5951 13.2258Z" transform="translate(1292.48 857.056) scale(0.999692 1.00031) rotate(43.3517)" fill="#7F6EA2"/>
<path d="M69.4332 85.968L13.2254 0L0 66.1292L26.4507 102.5L69.4332 85.968Z" transform="translate(1421.31 865.047) scale(0.999692 1.00031) rotate(43.3517)" fill="#9D91B6"/>
<path d="M13.2254 59.5163L6.61269 0L0 264.517L13.2254 59.5163Z" transform="translate(1333.33 813.768) scale(0.999692 1.00031) rotate(43.3517)" fill="#6B5795"/>
<path d="M55.8979 49.3512V0L0 79.1094L6.61269 138.626L55.8979 49.3512Z" transform="translate(1392.42 760.768) scale(0.999692 1.00031) rotate(43.3517)" fill="#B4ACC5"/>
<path d="M69.4332 26.4517L49.5951 62.8228L0 56.2098V6.61292L13.1221 0L69.4332 26.4517Z" transform="translate(1437.99 794.377) scale(0.999692 1.00031) rotate(43.3517)" fill="#C0BACD"/>
<path d="M54.8646 76.4274L56.2078 122.339L0 36.3711L19.8381 0L54.8646 76.4274Z" transform="translate(1455.89 847.676) scale(0.999692 1.00031) rotate(43.3517)" fill="#6B5795"/>
<path d="M36.3698 102.5L0 89.2745L49.5951 0L99.1903 6.61292L85.9649 72.7421L36.3698 102.5Z" transform="translate(1259.1 148.966) scale(0.999692 1.00031) rotate(43.3517)" fill="#988CB3"/>
<path d="M49.5951 13.2258L26.4507 211.613L0 205.001L13.2254 0L49.5951 13.2258Z" transform="translate(1188.22 204.818) scale(0.999692 1.00031) rotate(43.3517)" fill="#7F6EA2"/>
<path d="M0 228.146L69.4332 277.743L99.1903 36.3711L72.7395 0L23.1444 29.7582L0 228.146Z" transform="translate(1218.79 210.957) scale(0.999692 1.00031) rotate(43.3517)" fill="#8E80AC"/>
<path d="M69.4332 85.968L13.2254 0L0 66.1292L26.4507 102.5L69.4332 85.968Z" transform="translate(1317.05 212.809) scale(0.999692 1.00031) rotate(43.3517)" fill="#9D91B6"/>
<path d="M23.1447 281.049L0 257.904L29.7571 16.5323L72.7396 0L48.5622 257.239L23.1447 281.049Z" transform="translate(1255.65 273.066) scale(0.999692 1.00031) rotate(43.3517)" fill="#77659D"/>
<path d="M41.0193 69.2617L0 16.5323V0L26.4507 6.61292L95.884 56.2098L119.028 79.3551L94.7474 92.5809L41.0193 69.2617Z" transform="translate(1047.54 353.926) scale(0.999692 1.00031) rotate(43.3517)" fill="#6B5795"/>
<path d="M13.2254 59.5163L6.61269 0L0 264.517L13.2254 59.5163Z" transform="translate(1229.06 161.529) scale(0.999692 1.00031) rotate(43.3517)" fill="#6B5795"/>
<path d="M55.8979 49.3512V0L0 79.1094L6.61269 138.626L55.8979 49.3512Z" transform="translate(1288.16 108.529) scale(0.999692 1.00031) rotate(43.3517)" fill="#B4ACC5"/>
<path d="M69.4332 26.4517L49.5951 62.8228L0 56.2098V6.61292L13.1221 0L69.4332 26.4517Z" transform="translate(1333.72 142.139) scale(0.999692 1.00031) rotate(43.3517)" fill="#C0BACD"/>
<path d="M54.8646 76.4274L56.2078 122.339L0 36.3711L19.8381 0L54.8646 76.4274Z" transform="translate(1351.62 195.438) scale(0.999692 1.00031) rotate(43.3517)" fill="#6B5795"/>
<path d="M36.3698 102.5L0 89.2745L49.5951 0L99.1903 6.61292L85.9649 72.7421L36.3698 102.5Z" transform="translate(813.218 -98.2241) scale(0.999692 1.00031) rotate(43.3517)" fill="#988CB3"/>
<path d="M49.5951 13.2258L26.4507 211.613L0 205.001L13.2254 0L49.5951 13.2258Z" transform="translate(742.339 -42.3726) scale(0.999692 1.00031) rotate(43.3517)" fill="#7F6EA2"/>
<path d="M0 228.146L69.4332 277.743L99.1903 36.3711L72.7395 0L23.1444 29.7582L0 228.146Z" transform="translate(772.911 -36.2334) scale(0.999692 1.00031) rotate(43.3517)" fill="#8E80AC"/>
<path d="M69.4332 85.968L13.2254 0L0 66.1292L26.4507 102.5L69.4332 85.968Z" transform="translate(871.17 -34.3809) scale(0.999692 1.00031) rotate(43.3517)" fill="#9D91B6"/>
<path d="M23.1447 281.049L0 257.904L29.7571 16.5323L72.7396 0L48.5622 257.239L23.1447 281.049Z" transform="translate(809.77 25.876) scale(0.999692 1.00031) rotate(43.3517)" fill="#77659D"/>
<path d="M41.0193 69.2617L0 16.5323V0L26.4507 6.61292L95.884 56.2098L119.028 79.3551L94.7474 92.5809L41.0193 69.2617Z" transform="translate(601.654 106.736) scale(0.999692 1.00031) rotate(43.3517)" fill="#6B5795"/>
<path d="M13.2254 59.5163L6.61269 0L0 264.517L13.2254 59.5163Z" transform="translate(783.182 -85.6611) scale(0.999692 1.00031) rotate(43.3517)" fill="#6B5795"/>
<path d="M54.8646 76.4274L56.2078 122.339L0 36.3711L19.8381 0L54.8646 76.4274Z" transform="translate(905.744 -51.7529) scale(0.999692 1.00031) rotate(43.3517)" fill="#6B5795"/>
</g>
</g>
</g>
<defs>
<clipPath id="clip0">
<rect width="1440" height="900" fill="white"/>
</clipPath>
</defs>
</svg>
