<svg width="143" height="100" viewBox="0 0 143 100" fill="none" xmlns="http://www.w3.org/2000/svg">
<path fill-rule="evenodd" clip-rule="evenodd" d="M62.9424 18.4467C62.9424 21.7683 60.2497 24.4611 56.928 24.4611H29.0585C25.7369 24.4611 23.0442 21.7683 23.0442 18.4467V2.50598C23.0442 1.12197 21.9222 0 20.5382 0C19.1542 0 18.0322 1.12197 18.0322 2.50598V18.4467C18.0322 21.7683 15.3395 24.4611 12.0179 24.4611H2.50598C1.12197 24.4611 0 25.583 0 26.967C0 28.3511 1.12197 29.473 2.50598 29.473H33.1121C36.4337 29.473 39.1265 32.1657 39.1265 35.4874V52.5337C39.1265 53.9177 40.2484 55.0397 41.6324 55.0397C43.0165 55.0397 44.1384 53.9177 44.1384 52.5337V35.4874C44.1384 32.1657 46.8311 29.473 50.1528 29.473H78.0218C81.3434 29.473 84.0361 32.1657 84.0361 35.4874V52.5337C84.0361 53.9177 85.1581 55.0397 86.5421 55.0397C87.9261 55.0397 89.0481 53.9177 89.0481 52.5337V35.4874C89.0481 32.1657 91.7408 29.473 95.0625 29.473H129.558C130.535 29.473 131.328 30.2655 131.328 31.2432C131.328 32.5758 132.745 33.4305 133.924 32.809L138.945 30.1617C142.64 28.2132 142.64 22.9208 138.945 20.9724L135.469 19.1396C133.588 18.1481 131.328 19.5116 131.328 21.6374C131.328 23.1968 130.064 24.4611 128.504 24.4611H117.858C114.536 24.4611 111.844 21.7683 111.844 18.4467V2.50598C111.844 1.12197 110.722 0 109.338 0C107.954 0 106.832 1.12197 106.832 2.50598V18.4467C106.832 21.7683 104.139 24.4611 100.817 24.4611H73.9687C70.6471 24.4611 67.9543 21.7683 67.9543 18.4467V2.50598C67.9543 1.12197 66.8324 0 65.4484 0C64.0643 0 62.9424 1.12197 62.9424 2.50598V18.4467Z" transform="translate(0.890381 22.3915)" fill="#4F4F4F"/>
<path d="M19.9491 11.7181C19.9491 16.9079 15.9444 20.9302 11.2275 20.9302C6.51068 20.9302 2.50598 16.9079 2.50598 11.7181C2.50598 6.52831 6.51068 2.50598 11.2275 2.50598C15.9444 2.50598 19.9491 6.52831 19.9491 11.7181Z" transform="translate(11.4375 0.0206299)" stroke="#6B5795" stroke-width="5.01197"/>
<path d="M19.9491 11.7181C19.9491 16.9079 15.9444 20.9302 11.2275 20.9302C6.51068 20.9302 2.50598 16.9079 2.50598 11.7181C2.50598 6.52831 6.51068 2.50598 11.2275 2.50598C15.9444 2.50598 19.9491 6.52831 19.9491 11.7181Z" transform="translate(56.3472 0.0206299)" stroke="#6B5795" stroke-width="5.01197"/>
<path d="M19.9491 11.7181C19.9491 16.9079 15.9444 20.9302 11.2275 20.9302C6.51068 20.9302 2.50598 16.9079 2.50598 11.7181C2.50598 6.52831 6.51068 2.50598 11.2275 2.50598C15.9444 2.50598 19.9491 6.52831 19.9491 11.7181Z" transform="translate(100.237 0.0206299)" stroke="#6B5795" stroke-width="5.01197"/>
<path d="M19.9491 11.7181C19.9491 16.9079 15.9444 20.9302 11.2275 20.9302C6.51068 20.9302 2.50598 16.9079 2.50598 11.7181C2.50598 6.52831 6.51068 2.50598 11.2275 2.50598C15.9444 2.50598 19.9491 6.52831 19.9491 11.7181Z" transform="translate(32.1914 76.366)" stroke="#6B5795" stroke-width="5.01197"/>
<path d="M19.9491 11.7181C19.9491 16.9079 15.9444 20.9302 11.2275 20.9302C6.51068 20.9302 2.50598 16.9079 2.50598 11.7181C2.50598 6.52831 6.51068 2.50598 11.2275 2.50598C15.9444 2.50598 19.9491 6.52831 19.9491 11.7181Z" transform="translate(77.4417 76.366)" stroke="#6B5795" stroke-width="5.01197"/>
</svg>
