<svg width="211" height="51" viewBox="0 0 211 51" fill="none" xmlns="http://www.w3.org/2000/svg">
<rect width="210.008" height="51" transform="translate(0.332031)" fill="#E1DFE9"/>
<path d="M6.972 29.992V31H1.078V30.118C1.75 29.6233 2.44533 29.0447 3.164 28.382C3.88267 27.71 4.50333 26.996 5.026 26.24C5.558 25.484 5.824 24.7933 5.824 24.168C5.824 23.7107 5.66067 23.328 5.334 23.02C5.01667 22.7027 4.44733 22.544 3.626 22.544C2.758 22.544 1.94133 22.8147 1.176 23.356V22.25C1.96 21.774 2.80467 21.536 3.71 21.536C4.438 21.536 5.03533 21.662 5.502 21.914C5.96867 22.166 6.30467 22.4927 6.51 22.894C6.72467 23.286 6.832 23.7107 6.832 24.168C6.832 25.036 6.412 25.988 5.572 27.024C4.732 28.06 3.752 29.0493 2.632 29.992H6.972ZM9.25477 29.6H10.6548V31H9.25477V29.6ZM25.632 21.662V31H24.624V23.3L21.222 28.074L18.03 23.328V31H17.022V21.662H18.114L21.278 26.52L24.54 21.662H25.632ZM27.9442 21.662H29.0642V22.768H27.9442V21.662ZM28.0002 24.014H29.0082V31H28.0002V24.014ZM33.5055 31.112C32.9922 31.112 32.5722 30.958 32.2455 30.65C31.9188 30.3327 31.7555 29.8847 31.7555 29.306V24.938H30.5375V24.014H31.7555V22.04H32.7635V24.014H34.5695V24.938H32.7635V28.984C32.7635 29.3947 32.8288 29.6933 32.9595 29.88C33.0902 30.0667 33.3328 30.16 33.6875 30.16C34.0328 30.16 34.3268 30.104 34.5695 29.992V30.944C34.4388 30.9907 34.2708 31.028 34.0655 31.056C33.8695 31.0933 33.6828 31.112 33.5055 31.112ZM39.3754 23.888C40.1594 23.888 40.7754 24.0793 41.2234 24.462C41.6808 24.8447 41.9094 25.4 41.9094 26.128V29.516C41.9094 30.188 41.6341 30.6407 41.0834 30.874C40.5328 31.098 39.7721 31.21 38.8014 31.21C38.0641 31.21 37.4294 31.0467 36.8974 30.72C36.3748 30.3933 36.1134 29.8473 36.1134 29.082C36.1134 28.2513 36.3421 27.6493 36.7994 27.276C37.2568 26.8933 37.8868 26.702 38.6894 26.702C39.5948 26.702 40.3274 26.8653 40.8874 27.192V26.366C40.8874 25.3207 40.2761 24.798 39.0534 24.798C38.6521 24.798 38.2461 24.854 37.8354 24.966C37.4248 25.078 37.0794 25.246 36.7994 25.47V24.462C37.0794 24.2847 37.4574 24.1447 37.9334 24.042C38.4188 23.9393 38.8994 23.888 39.3754 23.888ZM39.0394 30.314C39.6928 30.314 40.1641 30.2673 40.4534 30.174C40.7428 30.0713 40.8874 29.8707 40.8874 29.572V28.004C40.6354 27.8827 40.3414 27.7893 40.0054 27.724C39.6694 27.6493 39.3194 27.612 38.9554 27.612C38.3674 27.612 37.9148 27.724 37.5974 27.948C37.2801 28.172 37.1214 28.4987 37.1214 28.928C37.1214 29.4133 37.3081 29.768 37.6814 29.992C38.0548 30.2067 38.5074 30.314 39.0394 30.314ZM44.1454 24.574C44.5001 24.4247 44.9667 24.2753 45.5454 24.126C46.1334 23.9673 46.7401 23.888 47.3654 23.888C47.4587 23.888 47.6081 23.916 47.8134 23.972V24.868C47.5894 24.84 47.3654 24.826 47.1414 24.826C46.8334 24.826 46.5487 24.8447 46.2874 24.882C46.0261 24.9193 45.6481 24.98 45.1534 25.064V31H44.1454V24.574ZM52.3067 23.902C53.3614 23.902 54.1547 24.2147 54.6867 24.84C55.2281 25.456 55.4987 26.3147 55.4987 27.416C55.4894 28.8347 55.1627 29.824 54.5187 30.384C53.8747 30.9347 53.1094 31.21 52.2227 31.21C50.3561 31.21 49.4227 30.7433 49.4227 29.81V21.06H50.4307V24.308C50.7201 24.196 51.0421 24.1027 51.3967 24.028C51.7607 23.944 52.0641 23.902 52.3067 23.902ZM52.0827 30.286C52.9881 30.286 53.6041 30.0293 53.9307 29.516C54.2667 29.0027 54.4347 28.3027 54.4347 27.416C54.4347 26.6133 54.2621 25.9833 53.9167 25.526C53.5714 25.0593 53.0347 24.826 52.3067 24.826C51.9987 24.826 51.6767 24.868 51.3407 24.952C51.0141 25.036 50.7107 25.1573 50.4307 25.316V29.572C50.4307 29.8427 50.5941 30.0293 50.9207 30.132C51.2474 30.2347 51.6347 30.286 52.0827 30.286ZM60.1094 23.888C61.1734 23.888 61.9528 24.2333 62.4474 24.924C62.9421 25.6147 63.1801 26.534 63.1614 27.682H58.0654C58.0654 28.522 58.2614 29.166 58.6534 29.614C59.0454 30.062 59.6054 30.286 60.3334 30.286C61.2668 30.286 62.0648 30.0853 62.7274 29.684V30.72C62.0461 31.0467 61.2294 31.21 60.2774 31.21C59.2601 31.21 58.4668 30.8973 57.8974 30.272C57.3281 29.6373 57.0434 28.7133 57.0434 27.5C57.0434 26.3147 57.3094 25.4187 57.8414 24.812C58.3828 24.196 59.1388 23.888 60.1094 23.888ZM60.1094 24.812C59.4934 24.812 59.0268 24.9567 58.7094 25.246C58.3921 25.526 58.1914 26.03 58.1074 26.758H62.0974C62.0508 26.1047 61.8641 25.6193 61.5374 25.302C61.2201 24.9753 60.7441 24.812 60.1094 24.812ZM65.0497 21.662H66.1697V22.768H65.0497V21.662ZM65.1057 24.014H66.1137V31H65.1057V24.014ZM70.611 31.112C70.0976 31.112 69.6776 30.958 69.351 30.65C69.0243 30.3327 68.861 29.8847 68.861 29.306V24.938H67.643V24.014H68.861V22.04H69.869V24.014H71.675V24.938H69.869V28.984C69.869 29.3947 69.9343 29.6933 70.065 29.88C70.1956 30.0667 70.4383 30.16 70.793 30.16C71.1383 30.16 71.4323 30.104 71.675 29.992V30.944C71.5443 30.9907 71.3763 31.028 71.171 31.056C70.975 31.0933 70.7883 31.112 70.611 31.112ZM76.2149 23.888C77.2789 23.888 78.0582 24.2333 78.5529 24.924C79.0476 25.6147 79.2856 26.534 79.2669 27.682H74.1709C74.1709 28.522 74.3669 29.166 74.7589 29.614C75.1509 30.062 75.7109 30.286 76.4389 30.286C77.3722 30.286 78.1702 30.0853 78.8329 29.684V30.72C78.1516 31.0467 77.3349 31.21 76.3829 31.21C75.3656 31.21 74.5722 30.8973 74.0029 30.272C73.4336 29.6373 73.1489 28.7133 73.1489 27.5C73.1489 26.3147 73.4149 25.4187 73.9469 24.812C74.4882 24.196 75.2442 23.888 76.2149 23.888ZM76.2149 24.812C75.5989 24.812 75.1322 24.9567 74.8149 25.246C74.4976 25.526 74.2969 26.03 74.2129 26.758H78.2029C78.1562 26.1047 77.9696 25.6193 77.6429 25.302C77.3256 24.9753 76.8496 24.812 76.2149 24.812ZM81.1552 24.574C81.5098 24.4247 81.9765 24.2753 82.5552 24.126C83.1432 23.9673 83.7498 23.888 84.3752 23.888C84.4685 23.888 84.6178 23.916 84.8232 23.972V24.868C84.5992 24.84 84.3752 24.826 84.1512 24.826C83.8432 24.826 83.5585 24.8447 83.2972 24.882C83.0358 24.9193 82.6578 24.98 82.1632 25.064V31H81.1552V24.574Z" transform="translate(15)" fill="#666666"/>
</svg>
