<svg width="211" height="51" viewBox="0 0 211 51" fill="none" xmlns="http://www.w3.org/2000/svg">
<rect width="210.008" height="51" fill="#E1DFE9"/>
<rect width="210" height="4" transform="translate(0 47)" fill="#7356B1"/>
<path d="M7.21 29.544V31H1.036V29.81C1.66133 29.39 2.31467 28.8673 2.996 28.242C3.68667 27.6167 4.27467 26.9587 4.76 26.268C5.25467 25.5773 5.502 24.9473 5.502 24.378C5.502 23.9207 5.348 23.552 5.04 23.272C4.732 22.9827 4.23733 22.838 3.556 22.838C2.744 22.838 1.932 23.1413 1.12 23.748V22.292C1.988 21.7693 2.912 21.508 3.892 21.508C4.94667 21.508 5.73533 21.7647 6.258 22.278C6.79 22.782 7.056 23.44 7.056 24.252C7.056 25.1293 6.68267 26.0113 5.936 26.898C5.18933 27.7753 4.26067 28.6573 3.15 29.544H7.21ZM9.29283 29.362H10.9588V31H9.29283V29.362ZM26.1757 21.662V31H24.6357V23.874L21.5137 28.186L18.5317 23.902V31H17.0337V21.662H18.6437L21.5837 26.002L24.5937 21.662H26.1757ZM28.3114 21.522H29.8794V22.852H28.3114V21.522ZM28.3534 24.014H29.8234L29.8374 31H28.3534V24.014ZM34.4541 31.182C33.8101 31.182 33.3061 31.0093 32.9421 30.664C32.5781 30.3187 32.3961 29.8287 32.3961 29.194V25.19H31.2621V23.972H32.3961V22.012H33.9081V23.972H35.6161V25.19H33.9081V28.9C33.9081 29.2453 33.9688 29.4973 34.0901 29.656C34.2114 29.8053 34.4261 29.88 34.7341 29.88C34.8834 29.88 35.0374 29.8613 35.1961 29.824C35.3641 29.7773 35.5041 29.7213 35.6161 29.656V30.958C35.2894 31.1073 34.9021 31.182 34.4541 31.182ZM40.3592 23.818C41.1245 23.818 41.7732 24.0047 42.3052 24.378C42.8465 24.742 43.1125 25.3347 43.1032 26.156V29.516C43.1032 30.1507 42.8232 30.594 42.2632 30.846C41.7032 31.0887 40.9052 31.21 39.8692 31.21C39.0385 31.21 38.3525 31.0373 37.8112 30.692C37.2698 30.3467 36.9992 29.768 36.9992 28.956C36.9992 28.1907 37.2185 27.6167 37.6572 27.234C38.1052 26.8513 38.7352 26.66 39.5472 26.66C40.3872 26.66 41.0872 26.828 41.6472 27.164V26.492C41.6472 25.54 41.0732 25.064 39.9252 25.064C39.5145 25.064 39.1038 25.1293 38.6932 25.26C38.2825 25.3813 37.9418 25.554 37.6712 25.778V24.406C37.9325 24.238 38.3105 24.098 38.8052 23.986C39.3092 23.874 39.8272 23.818 40.3592 23.818ZM40.0372 30.062C40.6252 30.062 41.0405 30.02 41.2832 29.936C41.5258 29.852 41.6472 29.684 41.6472 29.432V28.074C41.1712 27.8687 40.6485 27.766 40.0792 27.766C39.5472 27.766 39.1412 27.8593 38.8612 28.046C38.5905 28.2327 38.4552 28.5127 38.4552 28.886C38.4552 29.278 38.6092 29.572 38.9172 29.768C39.2345 29.964 39.6078 30.062 40.0372 30.062ZM45.1825 24.616C45.4438 24.4573 45.8872 24.2847 46.5125 24.098C47.1378 23.9113 47.7585 23.818 48.3745 23.818C48.7478 23.818 49.0652 23.8787 49.3265 24V25.176C49.0652 25.1387 48.7525 25.12 48.3885 25.12C47.7725 25.12 47.1938 25.1667 46.6525 25.26V31H45.1825V24.616ZM54.0363 23.818C55.0816 23.818 55.8749 24.1307 56.4163 24.756C56.9576 25.3813 57.2283 26.268 57.2283 27.416C57.2283 28.7973 56.9016 29.7773 56.2483 30.356C55.6043 30.9253 54.7829 31.21 53.7843 31.21C51.7776 31.21 50.7743 30.678 50.7743 29.614V21.158H52.2303V24.252C52.5009 24.1213 52.8043 24.0187 53.1403 23.944C53.4856 23.86 53.7843 23.818 54.0363 23.818ZM53.6723 29.936C54.4376 29.936 54.9696 29.7167 55.2683 29.278C55.5763 28.8393 55.7303 28.2373 55.7303 27.472C55.7303 26.688 55.5669 26.0907 55.2403 25.68C54.9229 25.2693 54.4469 25.064 53.8123 25.064C53.5509 25.064 53.2756 25.1013 52.9863 25.176C52.7063 25.2413 52.4543 25.3393 52.2303 25.47V29.25C52.2303 29.7073 52.7109 29.936 53.6723 29.936ZM61.8344 23.804C62.9264 23.804 63.7244 24.1587 64.2284 24.868C64.7417 25.568 64.9937 26.5527 64.9844 27.822H60.0564C60.1031 28.5127 60.3037 29.04 60.6584 29.404C61.0224 29.7587 61.5357 29.936 62.1984 29.936C62.6277 29.936 63.0384 29.8847 63.4304 29.782C63.8224 29.67 64.1677 29.53 64.4664 29.362V30.734C63.7384 31.0513 62.9031 31.21 61.9604 31.21C60.9057 31.21 60.0751 30.8927 59.4684 30.258C58.8711 29.614 58.5724 28.704 58.5724 27.528C58.5724 26.324 58.8571 25.4047 59.4264 24.77C59.9957 24.126 60.7984 23.804 61.8344 23.804ZM61.7924 25.008C61.2977 25.008 60.9104 25.1387 60.6304 25.4C60.3504 25.6613 60.1684 26.1047 60.0844 26.73H63.4864C63.4211 26.1327 63.2531 25.6987 62.9824 25.428C62.7117 25.148 62.3151 25.008 61.7924 25.008ZM66.6747 21.522H68.2427V22.852H66.6747V21.522ZM66.7167 24.014H68.1867L68.2007 31H66.7167V24.014ZM72.8174 31.182C72.1734 31.182 71.6694 31.0093 71.3054 30.664C70.9414 30.3187 70.7594 29.8287 70.7594 29.194V25.19H69.6254V23.972H70.7594V22.012H72.2714V23.972H73.9794V25.19H72.2714V28.9C72.2714 29.2453 72.3321 29.4973 72.4534 29.656C72.5747 29.8053 72.7894 29.88 73.0974 29.88C73.2467 29.88 73.4007 29.8613 73.5594 29.824C73.7274 29.7773 73.8674 29.7213 73.9794 29.656V30.958C73.6527 31.1073 73.2654 31.182 72.8174 31.182ZM78.5824 23.804C79.6744 23.804 80.4724 24.1587 80.9764 24.868C81.4898 25.568 81.7418 26.5527 81.7324 27.822H76.8044C76.8511 28.5127 77.0518 29.04 77.4064 29.404C77.7704 29.7587 78.2838 29.936 78.9464 29.936C79.3758 29.936 79.7864 29.8847 80.1784 29.782C80.5704 29.67 80.9158 29.53 81.2144 29.362V30.734C80.4864 31.0513 79.6511 31.21 78.7084 31.21C77.6538 31.21 76.8231 30.8927 76.2164 30.258C75.6191 29.614 75.3204 28.704 75.3204 27.528C75.3204 26.324 75.6051 25.4047 76.1744 24.77C76.7438 24.126 77.5464 23.804 78.5824 23.804ZM78.5404 25.008C78.0458 25.008 77.6584 25.1387 77.3784 25.4C77.0984 25.6613 76.9164 26.1047 76.8324 26.73H80.2344C80.1691 26.1327 80.0011 25.6987 79.7304 25.428C79.4598 25.148 79.0631 25.008 78.5404 25.008ZM83.4227 24.616C83.6841 24.4573 84.1274 24.2847 84.7527 24.098C85.3781 23.9113 85.9987 23.818 86.6147 23.818C86.9881 23.818 87.3054 23.8787 87.5667 24V25.176C87.3054 25.1387 86.9927 25.12 86.6287 25.12C86.0127 25.12 85.4341 25.1667 84.8927 25.26V31H83.4227V24.616Z" transform="translate(15)" fill="#6B5795"/>
</svg>
