<svg width="147" height="103" viewBox="0 0 147 103" fill="none" xmlns="http://www.w3.org/2000/svg">
<path d="M28.1488 14.7118C28.1488 22.2278 22.0909 28.3102 14.6311 28.3102C7.1712 28.3102 1.11333 22.2278 1.11333 14.7118C1.11333 7.19578 7.1712 1.11333 14.6311 1.11333C22.0909 1.11333 28.1488 7.19578 28.1488 14.7118Z" transform="translate(10.9238 47.0571)" fill="#6B5795" stroke="#F0EEF4" stroke-width="2.22666"/>
<path d="M8.50098 2.97866C4.03058 6.88766 2.24352 10.5015 0.854289 15.5944C0.265425 17.7533 0.873256 20.0711 2.44823 21.6607C9.62504 28.9039 16.3222 32.1365 26.5904 31.4704C35.4266 30.8972 40.7764 27.6477 46.7344 21.6778C48.335 20.0741 48.9691 17.7299 48.3614 15.5471C46.8878 10.2544 44.974 6.63701 40.6354 2.96305C38.3701 1.04476 35.1164 1.32617 32.5682 2.8488C26.8571 6.26144 22.4031 6.08455 16.4168 2.64754C13.8911 1.19737 10.6935 1.0615 8.50098 2.97866Z" transform="translate(1 69.4443)" fill="#6B5795" stroke="#F0EEF4" stroke-width="2.22666"/>
<path fill-rule="evenodd" clip-rule="evenodd" d="M78.8997 11.0947C78.8997 17.2222 74.0054 22.1895 67.9678 22.1895C62.5986 22.1895 58.1335 18.2612 57.2107 13.0822C57.1331 12.6468 56.7655 12.312 56.3232 12.312V12.312C50.9158 12.312 46.532 16.6958 46.532 22.1035C46.532 27.5107 50.9158 31.8945 56.3232 31.8945H84.2104C91.1431 31.8945 96.7632 37.5146 96.7632 44.4473C96.7632 51.3799 91.1431 57 84.2104 57H27.0023C24.0002 57 21.5923 59.3738 19.8839 61.8425C17.9063 64.7001 14.634 66.5679 10.9319 66.5679C4.89429 66.5679 0 61.6006 0 55.4731C0 49.3457 4.89429 44.3784 10.9319 44.3784C14.328 44.3784 17.3623 45.9501 19.3674 48.4158C21.0636 50.5016 23.3034 52.4238 25.9919 52.4238H84.2627C88.728 52.4238 92.3479 48.8037 92.3479 44.3384C92.3479 39.936 88.8262 36.3428 84.4248 36.2544L55.5359 35.6743C48.1533 35.5264 42.2095 29.5669 42.0808 22.1836C41.9456 14.4258 48.2598 8.09668 56.0181 8.21338V8.21338C56.8311 8.22571 57.5338 7.67496 57.8361 6.92011C59.4612 2.86158 63.3853 0 67.9678 0C74.0054 0 78.8997 4.96729 78.8997 11.0947ZM73.7632 11C73.7632 14.3135 71.0769 17 67.7632 17C64.4495 17 61.7632 14.3135 61.7632 11C61.7632 7.68652 64.4495 5 67.7632 5C71.0769 5 73.7632 7.68652 73.7632 11ZM10.7632 61C14.0769 61 16.7632 58.3135 16.7632 55C16.7632 51.6865 14.0769 49 10.7632 49C7.44946 49 4.76318 51.6865 4.76318 55C4.76318 58.3135 7.44946 61 10.7632 61Z" transform="translate(50.2368)" fill="#525056"/>
</svg>
