<svg width="242" height="184" viewBox="0 0 242 184" fill="none" xmlns="http://www.w3.org/2000/svg">
<g filter="url(#filter0_d)">
<path d="M121.174 148.247C122.269 149.789 123.199 152.04 123.199 155.077C123.199 162.007 116.226 178.177 81.3582 180.487C51.1394 173.557 48.8149 155.077 46.4904 152.767V162.007C38.742 161.237 22.7803 158.311 20.9207 152.767C19.0611 147.223 37.1923 141.217 46.4904 138.908C29.4439 128.898 -3.25432 107.492 2.32453 101.948L2.32472 101.948C9.29813 95.0186 11.6226 92.7086 16.2716 90.3987C13.9471 88.0888 -0.000428052 67.528 0 55.7496C0.000155969 51.4582 19.3882 55.8036 30.2187 61.3803C24.02 51.8036 13.0173 32.6502 18.5961 32.6502C25.5697 32.6502 37.1923 41.8899 48.8149 41.8899C53.4639 41.8899 41.8413 11.8607 51.1394 14.1706C63.5368 18.0206 88.7966 27.5684 90.6562 34.9603C92.9807 44.2 104.603 -4.30879 111.577 0.311093C118.55 4.93098 125.524 9.55086 132.498 21.1005C133.892 23.4105 139.471 16.4806 144.12 14.1706C147.219 14.1706 148.769 29.4163 158.067 25.7204C169.69 21.1005 178.213 15.7106 185.961 4.93091C189.061 21.1006 189.158 69.6093 188.286 71.9193C187.414 74.2292 241.75 34.9603 239.425 44.2C234.002 73.4593 217.11 131.054 192.935 127.358C192.935 131.978 195.26 131.978 192.935 136.598C190.611 141.218 227.803 131.978 227.803 141.218C227.803 150.457 199.909 175.867 167.365 162.007C148.905 167.01 130.319 156.086 121.174 148.247Z" transform="translate(0 2)" fill="#B09ED6"/>
<path d="M94.087 117.635C94.9378 118.858 95.6599 120.644 95.6599 123.054C95.6599 128.553 90.2452 141.384 63.1717 143.217C39.7079 137.718 37.903 123.054 36.0981 121.221V128.553C30.0817 127.942 17.6881 125.62 16.2441 121.221C14.8002 116.822 28.8785 112.056 36.0981 110.223C22.8621 102.281 -2.52686 85.2954 1.80491 80.8963L1.80508 80.8962C7.21966 75.3975 9.02455 73.5645 12.6343 71.7316C10.8294 69.8987 -0.000332367 53.5836 0 44.2374C0.000121104 40.8322 15.0542 44.2803 23.4638 48.7054C18.6507 41.1063 10.1075 25.908 14.4392 25.908C19.8539 25.908 28.8785 33.2398 37.903 33.2398C41.5128 33.2398 32.4883 9.41147 39.7079 11.2444C49.3341 14.2994 68.9473 21.8756 70.3913 27.7411C72.1962 35.0728 81.2207 -3.41904 86.6354 0.246853C92.0501 3.91275 97.4648 7.57863 102.88 16.7433C103.962 18.5763 108.294 13.0774 111.904 11.2444C114.311 11.2444 115.514 23.3419 122.733 20.4092C131.758 16.7433 138.376 12.4664 144.392 3.91269C146.799 16.7433 146.874 55.2352 146.197 57.0681C145.52 58.9011 187.71 27.7411 185.905 35.0728C181.694 58.2901 168.578 103.992 149.807 101.059C149.807 104.725 151.612 104.725 149.807 108.391C148.002 112.057 176.881 104.725 176.881 112.057C176.881 119.388 155.222 139.551 129.953 128.553C115.62 132.523 101.188 123.854 94.087 117.635Z" transform="translate(25.5701 32.3403)" fill="#6B5795" fill-opacity="0.5"/>
</g>
<defs>
<filter id="filter0_d" x="0" y="0.997607" width="241.503" height="182.491" filterUnits="userSpaceOnUse" color-interpolation-filters="sRGB">
<feFlood flood-opacity="0" result="BackgroundImageFix"/>
<feColorMatrix in="SourceAlpha" type="matrix" values="0 0 0 0 0 0 0 0 0 0 0 0 0 0 0 0 0 0 255 0"/>
<feOffset dx="1.00239"/>
<feGaussianBlur stdDeviation="0.501197"/>
<feColorMatrix type="matrix" values="0 0 0 0 0 0 0 0 0 0 0 0 0 0 0 0 0 0 0.25 0"/>
<feBlend mode="normal" in2="BackgroundImageFix" result="effect1_dropShadow"/>
<feBlend mode="normal" in="SourceGraphic" in2="effect1_dropShadow" result="shape"/>
</filter>
</defs>
</svg>
