<svg width="42" height="11" viewBox="0 0 42 11" fill="none" xmlns="http://www.w3.org/2000/svg">
<path d="M3.206 9.786L2.198 10.892V14H1.19V4.662H2.198V9.576L6.622 4.662H7.91L3.906 9.03L8.232 14H6.832L3.206 9.786ZM12.5759 14.21C11.5026 14.21 10.6953 13.8927 10.1539 13.258C9.62194 12.6233 9.35594 11.7133 9.35594 10.528C9.35594 9.324 9.6266 8.41867 10.1679 7.812C10.7186 7.196 11.5119 6.888 12.5479 6.888C13.6399 6.888 14.4519 7.21467 14.9839 7.868C15.5159 8.512 15.7819 9.39867 15.7819 10.528C15.7819 11.6853 15.5019 12.5907 14.9419 13.244C14.3819 13.888 13.5933 14.21 12.5759 14.21ZM12.5619 13.286C14.0366 13.286 14.7739 12.3667 14.7739 10.528C14.7739 9.65067 14.6013 8.97867 14.2559 8.512C13.9106 8.04533 13.3459 7.812 12.5619 7.812C11.0966 7.812 10.3639 8.71733 10.3639 10.528C10.3639 12.3667 11.0966 13.286 12.5619 13.286ZM19.6506 14.21C19.1746 14.21 18.7686 14.1633 18.4326 14.07C18.0966 13.9767 17.728 13.8273 17.3266 13.622V12.558C17.8026 12.8287 18.19 13.02 18.4886 13.132C18.7966 13.2347 19.1606 13.286 19.5806 13.286C20.0473 13.286 20.4253 13.1833 20.7146 12.978C21.0133 12.7727 21.1626 12.5067 21.1626 12.18C21.1626 11.8907 21.074 11.676 20.8966 11.536C20.7193 11.3867 20.4393 11.2373 20.0566 11.088L19.6926 10.934C19.1606 10.7847 18.7453 10.6493 18.4466 10.528C18.1573 10.4067 17.9006 10.2153 17.6766 9.954C17.462 9.69267 17.3546 9.338 17.3546 8.89C17.3546 8.442 17.4713 8.06867 17.7046 7.77C17.938 7.47133 18.2413 7.252 18.6146 7.112C18.988 6.96267 19.38 6.888 19.7906 6.888C20.164 6.888 20.4766 6.93 20.7286 7.014C20.99 7.098 21.3446 7.238 21.7926 7.434V8.442C21.326 8.20867 20.9666 8.04533 20.7146 7.952C20.472 7.85867 20.1826 7.812 19.8466 7.812C19.436 7.812 19.086 7.896 18.7966 8.064C18.5073 8.22267 18.3626 8.45133 18.3626 8.75C18.3626 8.99267 18.4326 9.19333 18.5726 9.352C18.722 9.50133 18.904 9.62267 19.1186 9.716C19.3426 9.8 19.6413 9.89333 20.0146 9.996C20.4813 10.1453 20.85 10.2807 21.1206 10.402C21.4006 10.5233 21.6433 10.7193 21.8486 10.99C22.0633 11.2513 22.1706 11.606 22.1706 12.054C22.1706 12.53 22.0493 12.9313 21.8066 13.258C21.564 13.5753 21.2466 13.8133 20.8546 13.972C20.472 14.1307 20.0706 14.21 19.6506 14.21ZM26.2594 14.112C25.7461 14.112 25.3261 13.958 24.9994 13.65C24.6727 13.3327 24.5094 12.8847 24.5094 12.306V7.938H23.2914V7.014H24.5094V5.04H25.5174V7.014H27.3234V7.938H25.5174V11.984C25.5174 12.3947 25.5827 12.6933 25.7134 12.88C25.8441 13.0667 26.0867 13.16 26.4414 13.16C26.7867 13.16 27.0807 13.104 27.3234 12.992V13.944C27.1927 13.9907 27.0247 14.028 26.8194 14.056C26.6234 14.0933 26.4367 14.112 26.2594 14.112ZM31.8633 6.888C32.9273 6.888 33.7067 7.23333 34.2013 7.924C34.696 8.61467 34.934 9.534 34.9153 10.682H29.8193C29.8193 11.522 30.0153 12.166 30.4073 12.614C30.7993 13.062 31.3593 13.286 32.0873 13.286C33.0207 13.286 33.8187 13.0853 34.4813 12.684V13.72C33.8 14.0467 32.9833 14.21 32.0313 14.21C31.014 14.21 30.2207 13.8973 29.6513 13.272C29.082 12.6373 28.7973 11.7133 28.7973 10.5C28.7973 9.31467 29.0633 8.41867 29.5953 7.812C30.1367 7.196 30.8927 6.888 31.8633 6.888ZM31.8633 7.812C31.2473 7.812 30.7807 7.95667 30.4633 8.246C30.146 8.526 29.9453 9.03 29.8613 9.758H33.8513C33.8047 9.10467 33.618 8.61933 33.2913 8.302C32.974 7.97533 32.498 7.812 31.8633 7.812ZM36.8036 7.574C37.7089 7.11667 38.6936 6.888 39.7576 6.888C40.7376 6.888 41.4423 7.10267 41.8716 7.532C42.3103 7.96133 42.5296 8.60067 42.5296 9.45V14H41.5216V9.45C41.5216 8.34867 40.8963 7.798 39.6456 7.798C39.0669 7.798 38.4556 7.89133 37.8116 8.078V14H36.8036V7.574Z" transform="translate(-1 -4)" fill="#666666"/>
</svg>
