<svg width="157" height="136" viewBox="0 0 157 136" fill="none" xmlns="http://www.w3.org/2000/svg">
<rect width="65.8116" height="41.1735" rx="6.01436" transform="translate(47.6865 39.3972)" fill="#4F4F4F"/>
<path fill-rule="evenodd" clip-rule="evenodd" d="M90.5908 0C91.4053 0 92.1418 0.484009 92.4651 1.23169L106.691 34.1312C106.802 34.3872 106.859 34.663 106.859 34.9418L106.859 44.0845L106.859 45.7483L106.859 55.3508C106.859 56.4788 105.945 57.3931 104.817 57.3931H2.04224C0.914307 57.3931 0 56.4788 0 55.3508V46.1267C0 44.9988 0.914307 44.0845 2.04224 44.0845H66.4832C67.6111 44.0845 68.5254 43.1702 68.5254 42.0422V2.04224C68.5254 0.914307 69.4397 0 70.5676 0H90.5908ZM90.7723 11.9075C90.055 9.29605 87.6809 7.48608 84.9727 7.48608H80.3066C76.985 7.48608 74.2922 10.1788 74.2922 13.5004V21.8505C74.2922 25.1721 76.985 27.8649 80.3066 27.8649H87.2662C91.2364 27.8649 94.1173 24.086 93.0658 20.2575L90.7723 11.9075Z" transform="translate(47.6865 39.3972)" fill="#6B5795"/>
<path d="M20.6844 11.0297C20.6844 16.3702 16.358 20.698 11.0229 20.698C5.68784 20.698 1.36147 16.3702 1.36147 11.0297C1.36147 5.68931 5.68784 1.36147 11.0229 1.36147C16.358 1.36147 20.6844 5.68931 20.6844 11.0297Z" transform="translate(58.8813 85.9774)" fill="#4F4F4F" stroke="#DDD7EA" stroke-width="2.72295"/>
<path d="M20.6844 11.0297C20.6844 16.3702 16.358 20.698 11.0229 20.698C5.68784 20.698 1.36147 16.3702 1.36147 11.0297C1.36147 5.68931 5.68784 1.36147 11.0229 1.36147C16.358 1.36147 20.6844 5.68931 20.6844 11.0297Z" transform="translate(122.657 85.9774)" fill="#4F4F4F" stroke="#DDD7EA" stroke-width="2.72295"/>
<path d="M0 3.13252C0 2.07877 0.830335 1.21217 1.88312 1.16715L25.8738 0.141149C27.6733 0.0641896 29.1742 1.5023 29.1742 3.30346C29.1742 5.12239 27.6448 6.56708 25.8288 6.46353L1.85518 5.09651C0.813941 5.03713 0 4.17546 0 3.13252Z" transform="translate(14.4414 68.0939)" fill="#4F4F4F"/>
<path d="M0 3.13681C0 2.07664 0.827637 1.20085 1.88611 1.14096L18.7597 0.186192C20.5462 0.085108 22.0503 1.50652 22.0503 3.29584C22.0503 5.10832 20.5087 6.53799 18.7013 6.40164L1.84866 5.13019C0.805916 5.05152 0 4.18252 0 3.13681Z" transform="translate(21.5654 90.1362)" fill="#4F4F4F"/>
<path d="M0 3.1286C0 2.08075 0.832693 1.22258 1.88006 1.191L38.0777 0.0997543C39.8888 0.0451546 41.3867 1.4985 41.3867 3.31044C41.3867 5.13507 39.8687 6.59328 38.0455 6.52L1.86062 5.06551C0.821157 5.02373 0 4.1689 0 3.1286Z" transform="translate(2.229 79.323)" fill="#4F4F4F"/>
</svg>
