<svg width="143" height="19" viewBox="0 0 143 19" fill="none" xmlns="http://www.w3.org/2000/svg">
<rect width="19" height="19" fill="#6B5795"/>
<path fill-rule="evenodd" clip-rule="evenodd" d="M0 7.07107L0.00138107 7.25199L14.5005 7.2513L14.5005 5.75146L1.49984 5.75077V0H0V5.75077V7.07107Z" transform="translate(2 10.2539) rotate(-45)" fill="white"/>
<path d="M6.524 11.088H2.492L1.372 14H0.28L4.004 4.662H5.012L8.722 14H7.644L6.524 11.088ZM6.146 10.122L4.508 5.852L2.87 10.122H6.146ZM13.0421 14.21C12.1088 14.21 11.3854 13.972 10.8721 13.496C10.3681 13.0107 10.1161 12.3247 10.1161 11.438V7.014H11.1241V11.214C11.1241 11.9233 11.2781 12.446 11.5861 12.782C11.8941 13.1087 12.3794 13.272 13.0421 13.272C13.6954 13.272 14.1761 13.1087 14.4841 12.782C14.8014 12.446 14.9601 11.9233 14.9601 11.214V7.014H15.9681V11.438C15.9681 12.3247 15.7114 13.0107 15.1981 13.496C14.6941 13.972 13.9754 14.21 13.0421 14.21ZM20.1838 14.21C19.7078 14.21 19.3018 14.1633 18.9658 14.07C18.6298 13.9767 18.2612 13.8273 17.8598 13.622V12.558C18.3358 12.8287 18.7232 13.02 19.0218 13.132C19.3298 13.2347 19.6938 13.286 20.1138 13.286C20.5805 13.286 20.9585 13.1833 21.2478 12.978C21.5465 12.7727 21.6958 12.5067 21.6958 12.18C21.6958 11.8907 21.6072 11.676 21.4298 11.536C21.2525 11.3867 20.9725 11.2373 20.5898 11.088L20.2258 10.934C19.6938 10.7847 19.2785 10.6493 18.9798 10.528C18.6905 10.4067 18.4338 10.2153 18.2098 9.954C17.9952 9.69267 17.8878 9.338 17.8878 8.89C17.8878 8.442 18.0045 8.06867 18.2378 7.77C18.4712 7.47133 18.7745 7.252 19.1478 7.112C19.5212 6.96267 19.9132 6.888 20.3238 6.888C20.6972 6.888 21.0098 6.93 21.2618 7.014C21.5232 7.098 21.8778 7.238 22.3258 7.434V8.442C21.8592 8.20867 21.4998 8.04533 21.2478 7.952C21.0052 7.85867 20.7158 7.812 20.3798 7.812C19.9692 7.812 19.6192 7.896 19.3298 8.064C19.0405 8.22267 18.8958 8.45133 18.8958 8.75C18.8958 8.99267 18.9658 9.19333 19.1058 9.352C19.2552 9.50133 19.4372 9.62267 19.6518 9.716C19.8758 9.8 20.1745 9.89333 20.5478 9.996C21.0145 10.1453 21.3832 10.2807 21.6538 10.402C21.9338 10.5233 22.1765 10.7193 22.3818 10.99C22.5965 11.2513 22.7038 11.606 22.7038 12.054C22.7038 12.53 22.5825 12.9313 22.3398 13.258C22.0972 13.5753 21.7798 13.8133 21.3878 13.972C21.0052 14.1307 20.6038 14.21 20.1838 14.21ZM34.1286 7.014L31.8046 14H30.7826L29.0326 8.204L27.3106 14H26.2886L23.9646 7.014H25.0286L26.8486 12.852L28.5566 7.014H29.5226L31.2866 12.866L33.1346 7.014H34.1286ZM38.7192 6.888C39.5032 6.888 40.1192 7.07933 40.5672 7.462C41.0245 7.84467 41.2532 8.4 41.2532 9.128V12.516C41.2532 13.188 40.9779 13.6407 40.4272 13.874C39.8765 14.098 39.1159 14.21 38.1452 14.21C37.4079 14.21 36.7732 14.0467 36.2412 13.72C35.7185 13.3933 35.4572 12.8473 35.4572 12.082C35.4572 11.2513 35.6859 10.6493 36.1432 10.276C36.6005 9.89333 37.2305 9.702 38.0332 9.702C38.9385 9.702 39.6712 9.86533 40.2312 10.192V9.366C40.2312 8.32067 39.6199 7.798 38.3972 7.798C37.9959 7.798 37.5899 7.854 37.1792 7.966C36.7685 8.078 36.4232 8.246 36.1432 8.47V7.462C36.4232 7.28467 36.8012 7.14467 37.2772 7.042C37.7625 6.93933 38.2432 6.888 38.7192 6.888ZM38.3832 13.314C39.0365 13.314 39.5079 13.2673 39.7972 13.174C40.0865 13.0713 40.2312 12.8707 40.2312 12.572V11.004C39.9792 10.8827 39.6852 10.7893 39.3492 10.724C39.0132 10.6493 38.6632 10.612 38.2992 10.612C37.7112 10.612 37.2585 10.724 36.9412 10.948C36.6239 11.172 36.4652 11.4987 36.4652 11.928C36.4652 12.4133 36.6519 12.768 37.0252 12.992C37.3985 13.2067 37.8512 13.314 38.3832 13.314ZM37.0952 4.998H38.2012V6.104H37.0952V4.998ZM39.1672 4.998H40.2732V6.104H39.1672V4.998ZM46.6111 6.888C47.4885 6.888 48.1558 7.13533 48.6131 7.63C49.0705 8.11533 49.2991 8.85733 49.2991 9.856V14H48.2911V9.856C48.2911 9.20267 48.1371 8.69867 47.8291 8.344C47.5305 7.98933 47.0871 7.812 46.4991 7.812C45.8458 7.812 45.1785 7.99867 44.4971 8.372V14H43.4891V3.92H44.4971V7.476C44.8425 7.28933 45.1971 7.14467 45.5611 7.042C45.9345 6.93933 46.2845 6.888 46.6111 6.888ZM51.5419 14V4.354H52.5499V14H51.5419ZM57.5118 6.888C58.5758 6.888 59.3551 7.23333 59.8498 7.924C60.3444 8.61467 60.5824 9.534 60.5638 10.682H55.4678C55.4678 11.522 55.6638 12.166 56.0558 12.614C56.4478 13.062 57.0078 13.286 57.7358 13.286C58.6691 13.286 59.4671 13.0853 60.1298 12.684V13.72C59.4484 14.0467 58.6318 14.21 57.6798 14.21C56.6624 14.21 55.8691 13.8973 55.2998 13.272C54.7304 12.6373 54.4458 11.7133 54.4458 10.5C54.4458 9.31467 54.7118 8.41867 55.2438 7.812C55.7851 7.196 56.5411 6.888 57.5118 6.888ZM57.5118 7.812C56.8958 7.812 56.4291 7.95667 56.1118 8.246C55.7944 8.526 55.5938 9.03 55.5098 9.758H59.4998C59.4531 9.10467 59.2664 8.61933 58.9398 8.302C58.6224 7.97533 58.1464 7.812 57.5118 7.812ZM62.452 7.574C63.3574 7.11667 64.342 6.888 65.406 6.888C66.386 6.888 67.0907 7.10267 67.52 7.532C67.9587 7.96133 68.178 8.60067 68.178 9.45V14H67.17V9.45C67.17 8.34867 66.5447 7.798 65.294 7.798C64.7154 7.798 64.104 7.89133 63.46 8.078V14H62.452V7.574Z" transform="translate(29)" fill="#666666"/>
</svg>
