<svg width="84" height="90" viewBox="0 0 84 90" fill="none" xmlns="http://www.w3.org/2000/svg">
<path d="M45.6077 23.7401C45.6077 35.8598 35.7984 45.68 23.7039 45.68C11.6094 45.68 1.80013 35.8598 1.80013 23.7401C1.80013 11.6204 11.6094 1.80013 23.7039 1.80013C35.7984 1.80013 45.6077 11.6204 45.6077 23.7401Z" transform="translate(18.1523 0.214844)" fill="#6B5795" stroke="white" stroke-width="3.60027"/>
<path d="M16.579 2.50637C6.40003 10.3943 3.35796 17.0604 0.723563 27.7081C0.252187 29.6133 0.778817 31.6363 2.12923 33.0605C14.4712 46.077 25.571 51.9144 43.0793 50.7831C58.3147 49.7988 67.1525 43.9229 77.5892 33.0699C78.9666 31.6375 79.5145 29.5932 79.0315 27.6656C76.2369 16.5131 72.8412 9.83585 62.9151 2.47993C60.8364 0.939492 58.0007 1.10661 55.8763 2.58341C44.0494 10.8052 35.9448 10.4218 23.5008 2.38161C21.3687 1.00405 18.5855 0.951511 16.579 2.50637Z" transform="translate(2.07495 36.3408)" fill="#6B5795" stroke="white" stroke-width="3.60027"/>
</svg>
