<svg width="110" height="101" viewBox="0 0 110 101" fill="none" xmlns="http://www.w3.org/2000/svg">
<ellipse cx="15.377" cy="15.4" rx="15.377" ry="15.4" transform="translate(62.5881 9.26172)" fill="#6B5795"/>
<path fill-rule="evenodd" clip-rule="evenodd" d="M32.5474 25.9458L35.5393 24.7281C39.4852 23.1222 43.801 26.0253 43.801 30.2855V40.6665C43.801 43.9802 46.4873 46.6665 49.801 46.6665H83C86.3137 46.6665 89 43.9802 89 40.6665V18.3013C89 8.19385 80.8062 0 70.6987 0H62.1023C58.8766 0 55.8459 0.834352 53.2142 2.29916C51.942 3.00728 50.4604 3.31259 49.0915 3.80854C48.9606 3.85595 48.8302 3.90898 48.7004 3.96777L24.9531 14.7217C24.1843 15.07 23.384 15.4004 22.5399 15.4004H4.66675C2.08936 15.4004 0 17.4897 0 20.0669C0 23.9331 3.13403 27.0669 7 27.0669H28.3208C28.8629 27.0669 29.3857 26.9843 29.8774 26.8312C30.5309 26.6276 31.1796 26.3934 31.8353 26.1968C32.0741 26.1252 32.3116 26.0417 32.5474 25.9458Z" transform="translate(14.1272 46.5952)" fill="#6B5795"/>
<path fill-rule="evenodd" clip-rule="evenodd" d="M15.4451 2.61203C15.4451 1.16945 16.6145 0 18.0571 0H19.7516C21.1323 0 22.2515 1.11921 22.2515 2.49983C22.2515 3.67561 23.0805 4.671 24.1839 5.07713C24.4233 5.16524 24.6597 5.25942 24.8931 5.35945C25.945 5.81043 27.1925 5.67675 28.0028 4.86846C28.9792 3.89435 30.5599 3.8943 31.5364 4.86834L32.8708 6.19939C33.8155 7.14162 33.8154 8.67183 32.8708 9.61402C32.0701 10.4126 31.9524 11.6523 32.4273 12.6786C32.5646 12.9753 32.6922 13.2774 32.8098 13.5844C33.2097 14.6289 34.1621 15.4058 35.2806 15.4058C36.6147 15.4058 37.6963 16.4873 37.6963 17.8215V19.7788C37.6963 21.1131 36.6146 22.1948 35.2803 22.1948C34.1618 22.1948 33.2094 22.9716 32.8095 24.0161C32.692 24.323 32.5644 24.6248 32.4272 24.9214C31.9523 25.9477 32.07 27.1876 32.8707 27.9862C33.8154 28.9283 33.8154 30.4585 32.8708 31.4006L31.5366 32.7314C30.5601 33.7054 28.9795 33.7054 28.0029 32.7314C27.1926 31.9232 25.945 31.7896 24.8931 32.2405C24.6596 32.3406 24.423 32.4348 24.1835 32.5229C23.0802 32.9289 22.2515 33.9243 22.2515 35.0999C22.2515 36.4807 21.1321 37.6001 19.7513 37.6001H18.0574C16.6146 37.6001 15.4451 36.4305 15.4451 34.9878V33.322C15.4451 33.1098 15.3011 32.9253 15.097 32.8675C13.7268 32.4793 12.4383 31.8973 11.2632 31.1532C11.2555 31.1483 11.2473 31.1586 11.2537 31.1651C11.2566 31.168 11.2566 31.1728 11.2537 31.1758L9.58974 32.8353C8.67073 33.7519 7.18329 33.7519 6.26431 32.8353L4.78467 31.3595C3.86281 30.44 3.86274 28.9467 4.78453 28.0271L6.41523 26.4004C6.43226 26.3834 6.45983 26.3834 6.47687 26.4004C6.51387 26.4372 6.57616 26.3876 6.54911 26.3429C5.76945 25.0541 5.18358 23.6358 4.83171 22.1276C4.81664 22.063 4.71216 22.0738 4.71216 22.1401C4.71216 22.1703 4.68768 22.1948 4.65748 22.1948H2.35608C1.05485 22.1948 0 21.14 0 19.8387V17.7618C0 16.4606 1.05485 15.4058 2.35608 15.4058H4.65755C4.68771 15.4058 4.71216 15.4302 4.71216 15.4604C4.71216 15.5266 4.81649 15.5374 4.83153 15.4729C5.18343 13.9646 5.76946 12.5458 6.54924 11.2567C6.57625 11.2121 6.51404 11.1624 6.47708 11.1993C6.46006 11.2163 6.43252 11.2162 6.41551 11.1993L4.78484 9.57291C3.86291 8.65342 3.86289 7.16004 4.7848 6.24052L6.26431 4.76484C7.18329 3.84823 8.67073 3.84821 9.58974 4.7648L11.2537 6.42438C11.2567 6.42731 11.2567 6.43207 11.2537 6.435C11.2474 6.44135 11.2556 6.45156 11.2632 6.44676C12.4384 5.7025 13.7267 5.12035 15.097 4.73215C15.3011 4.67432 15.4451 4.48984 15.4451 4.27767V2.61203ZM28 18.8335C28 23.5278 24.1943 27.3335 19.5 27.3335C14.8057 27.3335 11 23.5278 11 18.8335C11 14.1392 14.8057 10.3335 19.5 10.3335C24.1943 10.3335 28 14.1392 28 18.8335Z" transform="translate(9.1272 13.9282)" fill="#525056"/>
</svg>
