<svg width="128" height="132" viewBox="0 0 128 132" fill="none" xmlns="http://www.w3.org/2000/svg">
<path fill-rule="evenodd" clip-rule="evenodd" d="M5.06299 0C2.26685 0 0 2.2666 0 5.0625V115.826C0 118.622 2.26685 120.89 5.06299 120.89C7.85913 120.89 10.1257 118.622 10.1257 115.826V78.6721C10.1257 78.4347 10.3285 78.249 10.5659 78.249C15.915 78.249 20.2515 70.376 20.2515 60.665C20.2515 50.9541 15.915 43.0811 10.5659 43.0811C10.3285 43.0811 10.1257 42.8954 10.1257 42.658V5.0625C10.1257 2.2666 7.85913 0 5.06299 0Z" transform="translate(0.225098 5.71875)" fill="#4F4F4F"/>
<path d="M15.3466 2.5524C15.9171 1.26347 17.1762 0.394917 18.5839 0.323859C21.4548 0.178948 23.418 3.19284 22.1921 5.79286C3.40398 45.6409 0.906831 75.3189 22.3716 124.721C23.3077 126.875 22.1626 129.388 19.9071 130.044C18.0309 130.59 16.0337 129.633 15.2829 127.829C-4.9431 79.2383 -5.26628 49.1213 15.3466 2.5524Z" transform="translate(30.3533 0.882812)" fill="#6B5795"/>
<path d="M12.3852 2.32273C12.9781 0.918538 14.365 0 15.8893 0C18.7128 0 20.5587 2.96761 19.3758 5.53147C3.84221 39.2006 1.2839 63.4374 19.0849 103.91C19.9703 105.923 18.9257 108.278 16.8246 108.927C15.0394 109.479 13.1194 108.581 12.4086 106.853C-3.9968 66.9689 -4.26715 41.7606 12.3852 2.32273Z" transform="translate(50.7561 11.4336)" fill="#6B5795"/>
<path d="M10.1559 3.02487C10.6575 1.83718 11.7656 1.00317 13.0454 0.847255C15.9669 0.491337 18.0819 3.58902 16.7697 6.22339C3.54974 32.7629 1.44611 52.6341 16.6869 84.0708C17.7335 86.2295 16.4994 88.8342 14.1484 89.3123C12.4713 89.6533 10.7791 88.766 10.1202 87.1864C-3.38786 54.802 -3.37082 35.0552 10.1559 3.02487Z" transform="translate(71.0049 20.8838)" fill="#6B5795"/>
<path d="M8.18806 2.4248C8.74536 1.20285 9.94629 0.398161 11.2877 0.331845C14.1726 0.189222 16.0664 3.31915 14.707 5.86767C4.10694 25.7412 2.59698 40.3627 14.6002 62.4958C15.8595 64.8178 14.3628 67.7264 11.7298 67.938C10.2382 68.0578 8.82611 67.2297 8.22101 65.8611C-2.81142 40.9083 -2.65816 26.2066 8.18806 2.4248Z" transform="translate(91.009 31.875)" fill="#6B5795"/>
<path d="M7.28964 0.987946C7.78656 0.513817 8.45324 0.275722 9.13961 0.250645C11.8391 0.15202 13.4292 3.28413 11.9056 5.51471C3.85436 17.3019 2.81097 26.4612 11.852 39.5536C13.2948 41.6428 11.979 44.6148 9.44443 44.7653C8.64808 44.8126 7.85507 44.5616 7.28406 44.0045C-3.15218 33.8224 -1.67754 9.54385 7.28964 0.987946Z" transform="translate(111.22 43.5234)" fill="#6B5795"/>
</svg>
