<svg width="120" height="127" viewBox="0 0 120 127" fill="none" xmlns="http://www.w3.org/2000/svg">
<rect width="102" height="51" rx="6" transform="translate(9 11)" fill="#4F4F4F"/>
<rect width="5" height="73" rx="2.5" fill="#4F4F4F"/>
<rect width="5" height="73" rx="2.5" transform="translate(115)" fill="#4F4F4F"/>
<path d="M32.619 17.2128C32.619 25.7279 25.7185 32.6297 17.2074 32.6297C8.69636 32.6297 1.79584 25.7279 1.79584 17.2128C1.79584 8.69771 8.69636 1.79584 17.2074 1.79584C25.7185 1.79584 32.619 8.69771 32.619 17.2128Z" transform="translate(13.615 47.1572)" fill="#6B5795" stroke="#F0EEF4" stroke-width="3.59167"/>
<path d="M11.1383 2.5277C4.71563 7.73877 2.52415 12.3303 0.735145 19.2594C0.245215 21.157 0.774402 23.181 2.13821 24.5884C10.8634 33.5928 18.8436 37.6225 31.2726 36.8204C42.0369 36.1257 48.402 32.0715 55.7195 24.6004C57.108 23.1827 57.6596 21.1371 57.1556 19.2178C55.2555 11.982 52.8576 7.38297 46.6071 2.50817C44.5738 0.922421 41.7482 1.11743 39.5903 2.52879C31.8265 7.60646 26.1863 7.36108 18.0287 2.33791C15.8745 1.01144 13.1029 0.933768 11.1383 2.5277Z" transform="translate(1.94385 73.3506)" fill="#6B5795" stroke="#F0EEF4" stroke-width="3.59167"/>
<path d="M32.619 17.2128C32.619 25.7279 25.7185 32.6297 17.2074 32.6297C8.69636 32.6297 1.79584 25.7279 1.79584 17.2128C1.79584 8.69771 8.69636 1.79584 17.2074 1.79584C25.7185 1.79584 32.619 8.69771 32.619 17.2128Z" transform="translate(71.6714 47.1572)" fill="#6B5795" stroke="#F0EEF4" stroke-width="3.59167"/>
<path d="M11.1383 2.5277C4.71563 7.73877 2.52415 12.3303 0.735145 19.2594C0.245215 21.157 0.774402 23.181 2.13821 24.5884C10.8634 33.5928 18.8436 37.6225 31.2726 36.8204C42.0369 36.1257 48.402 32.0715 55.7195 24.6004C57.108 23.1827 57.6596 21.1371 57.1556 19.2178C55.2555 11.982 52.8576 7.38297 46.6071 2.50817C44.5738 0.922421 41.7482 1.11743 39.5903 2.52879C31.8265 7.60646 26.1863 7.36108 18.0287 2.33791C15.8745 1.01144 13.1029 0.933768 11.1383 2.5277Z" transform="translate(60.0002 73.3506)" fill="#6B5795" stroke="#F0EEF4" stroke-width="3.59167"/>
<path d="M32.619 17.2128C32.619 25.7279 25.7185 32.6297 17.2074 32.6297C8.69636 32.6297 1.79584 25.7279 1.79584 17.2128C1.79584 8.69771 8.69636 1.79584 17.2074 1.79584C25.7185 1.79584 32.619 8.69771 32.619 17.2128Z" transform="translate(42.6428 61.2266)" fill="#6B5795" stroke="#F0EEF4" stroke-width="3.59167"/>
<path d="M11.1383 2.5277C4.71563 7.73877 2.52415 12.3303 0.735145 19.2594C0.245215 21.157 0.774402 23.181 2.13821 24.5884C10.8634 33.5928 18.8436 37.6225 31.2726 36.8204C42.0369 36.1257 48.402 32.0715 55.7195 24.6004C57.108 23.1827 57.6596 21.1371 57.1556 19.2178C55.2555 11.982 52.8576 7.38297 46.6071 2.50817C44.5738 0.922421 41.7482 1.11743 39.5903 2.52879C31.8265 7.60646 26.1863 7.36108 18.0287 2.33791C15.8745 1.01144 13.1029 0.933768 11.1383 2.5277Z" transform="translate(30.9717 87.4199)" fill="#6B5795" stroke="#F0EEF4" stroke-width="3.59167"/>
</svg>
