<svg width="36" height="12" viewBox="0 0 36 12" fill="none" xmlns="http://www.w3.org/2000/svg">
<path d="M3.304 5.712L1.442 6.944V5.754L3.164 4.662H4.312V14H3.304V5.712ZM8.52841 7.728H9.64841V8.848H8.52841V7.728ZM8.52841 12.208H9.64841V13.328H8.52841V12.208ZM16.3072 14.154C15.0845 14.154 14.1652 13.7527 13.5492 12.95C12.9332 12.1473 12.6252 10.9527 12.6252 9.366C12.6252 7.77933 12.9332 6.58467 13.5492 5.782C14.1652 4.97933 15.0845 4.578 16.3072 4.578C18.7618 4.578 19.9892 6.174 19.9892 9.366C19.9892 12.558 18.7618 14.154 16.3072 14.154ZM16.3072 13.23C16.8112 13.23 17.2545 13.1367 17.6372 12.95C18.0198 12.7633 18.3372 12.3853 18.5892 11.816C18.8505 11.2467 18.9812 10.43 18.9812 9.366C18.9812 8.302 18.8505 7.48533 18.5892 6.916C18.3372 6.34667 18.0152 5.96867 17.6232 5.782C17.2405 5.59533 16.8018 5.502 16.3072 5.502C15.8125 5.502 15.3692 5.59533 14.9772 5.782C14.5945 5.96867 14.2725 6.34667 14.0112 6.916C13.7592 7.48533 13.6332 8.302 13.6332 9.366C13.6332 10.43 13.7592 11.2467 14.0112 11.816C14.2725 12.3853 14.5945 12.7633 14.9772 12.95C15.3598 13.1367 15.8032 13.23 16.3072 13.23ZM25.3579 14.154C24.1353 14.154 23.2159 13.7527 22.5999 12.95C21.9839 12.1473 21.6759 10.9527 21.6759 9.366C21.6759 7.77933 21.9839 6.58467 22.5999 5.782C23.2159 4.97933 24.1353 4.578 25.3579 4.578C27.8126 4.578 29.0399 6.174 29.0399 9.366C29.0399 12.558 27.8126 14.154 25.3579 14.154ZM25.3579 13.23C25.8619 13.23 26.3053 13.1367 26.6879 12.95C27.0706 12.7633 27.3879 12.3853 27.6399 11.816C27.9013 11.2467 28.0319 10.43 28.0319 9.366C28.0319 8.302 27.9013 7.48533 27.6399 6.916C27.3879 6.34667 27.0659 5.96867 26.6739 5.782C26.2913 5.59533 25.8526 5.502 25.3579 5.502C24.8633 5.502 24.4199 5.59533 24.0279 5.782C23.6453 5.96867 23.3233 6.34667 23.0619 6.916C22.8099 7.48533 22.6839 8.302 22.6839 9.366C22.6839 10.43 22.8099 11.2467 23.0619 11.816C23.3233 12.3853 23.6453 12.7633 24.0279 12.95C24.4106 13.1367 24.8539 13.23 25.3579 13.23ZM34.1287 6.888C35.0061 6.888 35.6734 7.13533 36.1307 7.63C36.5881 8.11533 36.8167 8.85733 36.8167 9.856V14H35.8087V9.856C35.8087 9.20267 35.6547 8.69867 35.3467 8.344C35.0481 7.98933 34.6047 7.812 34.0167 7.812C33.3634 7.812 32.6961 7.99867 32.0147 8.372V14H31.0067V3.92H32.0147V7.476C32.3601 7.28933 32.7147 7.14467 33.0787 7.042C33.4521 6.93933 33.8021 6.888 34.1287 6.888Z" transform="translate(-1 -3)" fill="#666666"/>
</svg>
