<svg width="164" height="165" viewBox="0 0 164 165" fill="none" xmlns="http://www.w3.org/2000/svg">
<path fill-rule="evenodd" clip-rule="evenodd" d="M1.14616 145.85C-0.224251 144.488 -0.231328 142.272 1.13035 140.901L139.928 1.14738C141.291 -0.2246 143.508 -0.231683 144.879 1.13156V1.13156C146.249 2.49389 146.256 4.70905 144.895 6.08011L6.09706 145.834C4.73446 147.206 2.51749 147.213 1.14616 145.85V145.85Z" transform="translate(9.62695 9.63318)" fill="#4F4F4F"/>
<path d="M46.1138 69.72C43.2738 69.72 40.8938 69.48 38.9738 69C37.0538 68.48 35.0138 67.66 32.8538 66.54V59.94C34.4138 61.22 36.3138 62.26 38.5538 63.06C40.8338 63.82 43.2138 64.2 45.6938 64.2C48.1338 64.2 49.9738 63.7 51.2138 62.7C52.4538 61.7 53.0738 60.28 53.0738 58.44C53.0738 57.2 52.7138 56.18 51.9938 55.38C51.2738 54.58 50.3738 53.92 49.2938 53.4C48.2138 52.88 46.6938 52.26 44.7338 51.54L43.4138 51.06C41.2138 50.3 39.3938 49.52 37.9538 48.72C36.5538 47.92 35.3738 46.78 34.4138 45.3C33.4538 43.82 32.9738 41.92 32.9738 39.6C32.9738 37.68 33.4538 35.86 34.4138 34.14C35.3738 32.42 36.8738 31.02 38.9138 29.94C40.9538 28.82 43.5138 28.26 46.5938 28.26C48.8338 28.26 50.6938 28.48 52.1738 28.92C53.6938 29.32 55.4938 30.02 57.5738 31.02V37.5C55.5338 36.22 53.7738 35.28 52.2938 34.68C50.8138 34.04 49.0538 33.72 47.0138 33.72C44.6538 33.72 42.8538 34.2 41.6138 35.16C40.3738 36.12 39.7538 37.38 39.7538 38.94C39.7538 40.26 40.0938 41.34 40.7738 42.18C41.4538 42.98 42.3338 43.64 43.4138 44.16C44.5338 44.64 46.1338 45.22 48.2138 45.9C50.6538 46.7 52.6738 47.54 54.2738 48.42C55.9138 49.26 57.2538 50.44 58.2938 51.96C59.3338 53.44 59.8538 55.34 59.8538 57.66C59.8538 59.86 59.3538 61.88 58.3538 63.72C57.3938 65.52 55.8738 66.98 53.7938 68.1C51.7538 69.18 49.1938 69.72 46.1138 69.72Z" fill="#6B5795"/>
<path d="M74.2604 28.98L62.0804 69H55.4804L46.0604 38.94L36.6404 69H29.9804L17.8604 28.98H25.0004L33.8804 60.66L43.2404 28.98H48.9404L58.3604 60.6L67.1204 28.98H74.2604Z" transform="translate(71.8652 72.8213)" fill="#6B5795"/>
</svg>
