<svg width="212" height="51" viewBox="0 0 212 51" fill="none" xmlns="http://www.w3.org/2000/svg">
<rect width="210.667" height="51" transform="translate(0.660156)" fill="#E1DFE9"/>
<path d="M26.4727 22.964H23.4627V21.662H31.0367V22.964H28.0127V31H26.4727V22.964ZM34.2287 23.818C34.9941 23.818 35.6427 24.0047 36.1747 24.378C36.7161 24.742 36.9821 25.3347 36.9727 26.156V29.516C36.9727 30.1507 36.6927 30.594 36.1327 30.846C35.5727 31.0887 34.7747 31.21 33.7387 31.21C32.9081 31.21 32.2221 31.0373 31.6807 30.692C31.1394 30.3467 30.8687 29.768 30.8687 28.956C30.8687 28.1907 31.0881 27.6167 31.5267 27.234C31.9747 26.8513 32.6047 26.66 33.4167 26.66C34.2567 26.66 34.9567 26.828 35.5167 27.164V26.492C35.5167 25.54 34.9427 25.064 33.7947 25.064C33.3841 25.064 32.9734 25.1293 32.5627 25.26C32.1521 25.3813 31.8114 25.554 31.5407 25.778V24.406C31.8021 24.238 32.1801 24.098 32.6747 23.986C33.1787 23.874 33.6967 23.818 34.2287 23.818ZM33.9067 30.062C34.4947 30.062 34.9101 30.02 35.1527 29.936C35.3954 29.852 35.5167 29.684 35.5167 29.432V28.074C35.0407 27.8687 34.5181 27.766 33.9487 27.766C33.4167 27.766 33.0107 27.8593 32.7307 28.046C32.4601 28.2327 32.3247 28.5127 32.3247 28.886C32.3247 29.278 32.4787 29.572 32.7867 29.768C33.1041 29.964 33.4774 30.062 33.9067 30.062ZM42.3841 23.818C43.1774 23.818 43.8307 23.972 44.3441 24.28C44.8667 24.588 45.1281 25.0407 45.1281 25.638V31.21C45.1281 32.0127 44.8667 32.666 44.3441 33.17C43.8214 33.674 42.9907 33.926 41.8521 33.926C41.0214 33.926 40.2654 33.8 39.5841 33.548V32.204C40.3587 32.4933 41.0774 32.638 41.7401 32.638C42.4867 32.638 42.9954 32.5027 43.2661 32.232C43.5367 31.9707 43.6721 31.6207 43.6721 31.182V30.706C43.4014 30.8553 43.1027 30.9767 42.7761 31.07C42.4587 31.1633 42.1461 31.21 41.8381 31.21C40.8114 31.1913 40.0274 30.8787 39.4861 30.272C38.9541 29.6653 38.6881 28.802 38.6881 27.682C38.6881 26.226 39.0241 25.218 39.6961 24.658C40.3681 24.098 41.2641 23.818 42.3841 23.818ZM40.1861 27.64C40.1861 28.368 40.3447 28.9467 40.6621 29.376C40.9794 29.796 41.4507 30.006 42.0761 30.006C42.6827 30.006 43.2147 29.8707 43.6721 29.6V25.918C43.6721 25.5913 43.5461 25.3673 43.2941 25.246C43.0514 25.1247 42.7201 25.064 42.3001 25.064C41.5067 25.064 40.9561 25.2927 40.6481 25.75C40.3401 26.2073 40.1861 26.8373 40.1861 27.64ZM57.27 21.032V29.516C57.27 29.8893 57.116 30.2067 56.808 30.468C56.5 30.72 56.1127 30.9067 55.646 31.028C55.1793 31.1493 54.6987 31.21 54.204 31.21C53.2053 31.21 52.384 30.93 51.74 30.37C51.096 29.8007 50.774 28.8113 50.774 27.402C50.774 26.2727 51.0493 25.3907 51.6 24.756C52.1507 24.1213 52.9673 23.804 54.05 23.804C54.302 23.804 54.5913 23.8367 54.918 23.902C55.254 23.9673 55.5527 24.0653 55.814 24.196V21.032H57.27ZM55.814 25.47C55.59 25.3393 55.338 25.2413 55.058 25.176C54.7873 25.1013 54.5213 25.064 54.26 25.064C52.9347 25.064 52.272 25.8527 52.272 27.43C52.272 28.214 52.4213 28.83 52.72 29.278C53.0187 29.7167 53.5413 29.936 54.288 29.936C54.7173 29.936 55.0767 29.8847 55.366 29.782C55.6647 29.6793 55.814 29.544 55.814 29.376V25.47ZM62.2391 23.804C63.3311 23.804 64.1291 24.1587 64.6331 24.868C65.1465 25.568 65.3985 26.5527 65.3891 27.822H60.4611C60.5078 28.5127 60.7085 29.04 61.0631 29.404C61.4271 29.7587 61.9405 29.936 62.6031 29.936C63.0325 29.936 63.4431 29.8847 63.8351 29.782C64.2271 29.67 64.5725 29.53 64.8711 29.362V30.734C64.1431 31.0513 63.3078 31.21 62.3651 31.21C61.3105 31.21 60.4798 30.8927 59.8731 30.258C59.2758 29.614 58.9771 28.704 58.9771 27.528C58.9771 26.324 59.2618 25.4047 59.8311 24.77C60.4005 24.126 61.2031 23.804 62.2391 23.804ZM62.1971 25.008C61.7025 25.008 61.3151 25.1387 61.0351 25.4C60.7551 25.6613 60.5731 26.1047 60.4891 26.73H63.8911C63.8258 26.1327 63.6578 25.6987 63.3871 25.428C63.1165 25.148 62.7198 25.008 62.1971 25.008ZM67.0794 24.616C67.3407 24.4573 67.7841 24.2847 68.4094 24.098C69.0347 23.9113 69.6554 23.818 70.2714 23.818C70.6447 23.818 70.9621 23.8787 71.2234 24V25.176C70.9621 25.1387 70.6494 25.12 70.2854 25.12C69.6694 25.12 69.0907 25.1667 68.5494 25.26V31H67.0794V24.616ZM78.9317 22.964H75.9217V21.662H83.4957V22.964H80.4717V31H78.9317V22.964ZM86.5503 31.21C85.4303 31.21 84.5857 30.8927 84.0163 30.258C83.4563 29.6233 83.1763 28.6993 83.1763 27.486C83.1763 25.0313 84.2963 23.804 86.5363 23.804C87.6657 23.804 88.515 24.1213 89.0843 24.756C89.6537 25.3813 89.9383 26.2913 89.9383 27.486C89.9383 28.6807 89.6443 29.6 89.0563 30.244C88.4683 30.888 87.633 31.21 86.5503 31.21ZM86.5363 29.964C87.8243 29.964 88.4683 29.138 88.4683 27.486C88.4683 26.6647 88.3143 26.0533 88.0063 25.652C87.6983 25.2413 87.2083 25.036 86.5363 25.036C85.855 25.036 85.365 25.246 85.0663 25.666C84.777 26.0767 84.6323 26.6833 84.6323 27.486C84.6323 28.2887 84.7817 28.9047 85.0803 29.334C85.3883 29.754 85.8737 29.964 86.5363 29.964ZM94.1401 31.182C93.4961 31.182 92.9921 31.0093 92.6281 30.664C92.2641 30.3187 92.0821 29.8287 92.0821 29.194V25.19H90.9481V23.972H92.0821V22.012H93.5941V23.972H95.3021V25.19H93.5941V28.9C93.5941 29.2453 93.6548 29.4973 93.7761 29.656C93.8974 29.8053 94.1121 29.88 94.4201 29.88C94.5694 29.88 94.7234 29.8613 94.8821 29.824C95.0501 29.7773 95.1901 29.7213 95.3021 29.656V30.958C94.9754 31.1073 94.5881 31.182 94.1401 31.182ZM99.9051 23.804C100.997 23.804 101.795 24.1587 102.299 24.868C102.812 25.568 103.064 26.5527 103.055 27.822H98.1271C98.1738 28.5127 98.3745 29.04 98.7291 29.404C99.0931 29.7587 99.6065 29.936 100.269 29.936C100.698 29.936 101.109 29.8847 101.501 29.782C101.893 29.67 102.238 29.53 102.537 29.362V30.734C101.809 31.0513 100.974 31.21 100.031 31.21C98.9765 31.21 98.1458 30.8927 97.5391 30.258C96.9418 29.614 96.6431 28.704 96.6431 27.528C96.6431 26.324 96.9278 25.4047 97.4971 24.77C98.0665 24.126 98.8691 23.804 99.9051 23.804ZM99.8631 25.008C99.3685 25.008 98.9811 25.1387 98.7011 25.4C98.4211 25.6613 98.2391 26.1047 98.1551 26.73H101.557C101.492 26.1327 101.324 25.6987 101.053 25.428C100.782 25.148 100.386 25.008 99.8631 25.008ZM104.745 24.546C105.165 24.3313 105.674 24.1587 106.271 24.028C106.878 23.888 107.457 23.818 108.007 23.818C108.987 23.818 109.711 24.0233 110.177 24.434C110.644 24.8447 110.877 25.484 110.877 26.352V31H109.407V26.548C109.407 25.568 108.852 25.078 107.741 25.078C107.209 25.078 106.701 25.1667 106.215 25.344V31H104.745V24.546ZM118.915 23.202L117.067 24.336V22.796L118.943 21.662H120.455V31H118.915V23.202ZM125.999 31.112C125.122 31.112 124.254 30.8973 123.395 30.468V29.04C124.244 29.544 125.07 29.796 125.873 29.796C126.582 29.796 127.128 29.67 127.511 29.418C127.894 29.1567 128.085 28.7833 128.085 28.298C128.085 27.794 127.894 27.4067 127.511 27.136C127.138 26.8653 126.578 26.73 125.831 26.73H124.655V25.456H125.859C126.428 25.456 126.862 25.344 127.161 25.12C127.469 24.8867 127.623 24.5693 127.623 24.168C127.623 23.7387 127.455 23.4167 127.119 23.202C126.783 22.978 126.312 22.866 125.705 22.866C125.341 22.866 124.991 22.908 124.655 22.992C124.319 23.076 123.969 23.2067 123.605 23.384V22.068C124.314 21.7133 125.066 21.536 125.859 21.536C126.522 21.536 127.096 21.648 127.581 21.872C128.066 22.0867 128.435 22.3853 128.687 22.768C128.939 23.1507 129.065 23.5847 129.065 24.07C129.065 24.4433 128.981 24.77 128.813 25.05C128.645 25.3207 128.454 25.5353 128.239 25.694C128.034 25.8433 127.88 25.9273 127.777 25.946C127.936 25.9833 128.15 26.1 128.421 26.296C128.701 26.492 128.948 26.7673 129.163 27.122C129.387 27.4673 129.499 27.878 129.499 28.354C129.499 28.8953 129.364 29.376 129.093 29.796C128.822 30.2067 128.421 30.5287 127.889 30.762C127.366 30.9953 126.736 31.112 125.999 31.112ZM131.541 29.362H133.207V31H131.541V29.362ZM138.776 31.168C137.488 31.168 136.526 30.7667 135.892 29.964C135.257 29.1613 134.94 27.9573 134.94 26.352C134.94 23.1413 136.218 21.536 138.776 21.536C140.073 21.536 141.039 21.9373 141.674 22.74C142.308 23.5427 142.626 24.7467 142.626 26.352C142.626 27.9667 142.308 29.1753 141.674 29.978C141.048 30.7713 140.082 31.168 138.776 31.168ZM138.776 29.852C139.205 29.852 139.583 29.768 139.91 29.6C140.246 29.4227 140.521 29.0773 140.736 28.564C140.96 28.0507 141.072 27.3133 141.072 26.352C141.072 24.98 140.857 24.056 140.428 23.58C140.008 23.0947 139.457 22.852 138.776 22.852C138.104 22.852 137.553 23.0947 137.124 23.58C136.704 24.056 136.494 24.98 136.494 26.352C136.494 27.7333 136.704 28.662 137.124 29.138C137.544 29.614 138.094 29.852 138.776 29.852ZM150.848 21.662V22.768L147.124 31H145.416L149.112 23.132H144.338V21.662H150.848ZM152.514 29.362H154.18V31H152.514V29.362ZM162.38 29.544V31H156.206V29.81C156.832 29.39 157.485 28.8673 158.166 28.242C158.857 27.6167 159.445 26.9587 159.93 26.268C160.425 25.5773 160.672 24.9473 160.672 24.378C160.672 23.9207 160.518 23.552 160.21 23.272C159.902 22.9827 159.408 22.838 158.726 22.838C157.914 22.838 157.102 23.1413 156.29 23.748V22.292C157.158 21.7693 158.082 21.508 159.062 21.508C160.117 21.508 160.906 21.7647 161.428 22.278C161.96 22.782 162.226 23.44 162.226 24.252C162.226 25.1293 161.853 26.0113 161.106 26.898C160.36 27.7753 159.431 28.6573 158.32 29.544H162.38ZM168.047 31.168C166.759 31.168 165.798 30.7667 165.163 29.964C164.529 29.1613 164.211 27.9573 164.211 26.352C164.211 23.1413 165.49 21.536 168.047 21.536C169.345 21.536 170.311 21.9373 170.945 22.74C171.58 23.5427 171.897 24.7467 171.897 26.352C171.897 27.9667 171.58 29.1753 170.945 29.978C170.32 30.7713 169.354 31.168 168.047 31.168ZM168.047 29.852C168.477 29.852 168.855 29.768 169.181 29.6C169.517 29.4227 169.793 29.0773 170.007 28.564C170.231 28.0507 170.343 27.3133 170.343 26.352C170.343 24.98 170.129 24.056 169.699 23.58C169.279 23.0947 168.729 22.852 168.047 22.852C167.375 22.852 166.825 23.0947 166.395 23.58C165.975 24.056 165.765 24.98 165.765 26.352C165.765 27.7333 165.975 28.662 166.395 29.138C166.815 29.614 167.366 29.852 168.047 29.852ZM175.667 23.202L173.819 24.336V22.796L175.695 21.662H177.207V31H175.667V23.202ZM183.297 31.14C182.513 31.14 181.859 31.0093 181.337 30.748C180.814 30.4867 180.427 30.1413 180.175 29.712C179.932 29.2733 179.811 28.7973 179.811 28.284C179.811 27.64 179.988 27.15 180.343 26.814C180.697 26.4687 181.057 26.212 181.421 26.044C181.159 25.932 180.879 25.7127 180.581 25.386C180.282 25.0593 180.133 24.6113 180.133 24.042C180.133 23.286 180.389 22.6747 180.903 22.208C181.425 21.7413 182.223 21.508 183.297 21.508C184.37 21.508 185.168 21.7413 185.691 22.208C186.213 22.6747 186.475 23.286 186.475 24.042C186.475 24.6207 186.335 25.064 186.055 25.372C185.784 25.68 185.504 25.904 185.215 26.044C185.541 26.1747 185.882 26.4173 186.237 26.772C186.601 27.1267 186.783 27.6307 186.783 28.284C186.783 28.7973 186.661 29.2733 186.419 29.712C186.176 30.1413 185.793 30.4867 185.271 30.748C184.748 31.0093 184.09 31.14 183.297 31.14ZM183.297 25.554C183.773 25.554 184.155 25.428 184.445 25.176C184.743 24.924 184.893 24.5787 184.893 24.14C184.893 23.692 184.739 23.3653 184.431 23.16C184.123 22.9453 183.745 22.838 183.297 22.838C182.849 22.838 182.471 22.9453 182.163 23.16C181.855 23.3653 181.701 23.692 181.701 24.14C181.701 24.5787 181.85 24.924 182.149 25.176C182.447 25.428 182.83 25.554 183.297 25.554ZM183.297 29.838C184.025 29.838 184.519 29.656 184.781 29.292C185.051 28.9187 185.187 28.5313 185.187 28.13C185.187 27.6633 185.023 27.2947 184.697 27.024C184.37 26.7533 183.903 26.618 183.297 26.618C182.699 26.618 182.237 26.7533 181.911 27.024C181.584 27.2947 181.421 27.6633 181.421 28.13C181.421 28.5313 181.551 28.9187 181.813 29.292C182.083 29.656 182.578 29.838 183.297 29.838Z" transform="translate(1.00195)" fill="#6B5795"/>
<rect width="210" height="4" transform="translate(1 47)" fill="#7256AE"/>
</svg>
