<svg width="1440" height="900" viewBox="0 0 1440 900" fill="none" xmlns="http://www.w3.org/2000/svg">
<g clip-path="url(#clip0)">
<rect width="1440" height="900" fill="white"/>
<rect width="1440" height="900" fill="#6B5795"/>
<mask id="mask0" mask-type="alpha" maskUnits="userSpaceOnUse" x="0" y="0" width="1440" height="900">
<path d="M1440 900V0H1109.5L518 0.5L0 0V900H473.5H1028H1440Z" fill="#6B5795"/>
</mask>
<g mask="url(#mask0)">
<g opacity="0.2">
<rect width="14.5502" height="37.8011" rx="7.27508" transform="matrix(-0.871226 0.490882 -0.490492 -0.871446 769.107 82.313)" fill="#F2DB93"/>
<path d="M0 0H23.2622V148.421C23.2622 154.844 18.0548 160.052 11.6311 160.052V160.052C5.20742 160.052 0 154.844 0 148.421V0Z" transform="matrix(0.490492 0.871446 -0.871226 0.490882 532.547 70.4536)" fill="#BDBDBD"/>
<path d="M0 0H23.2622V214.826C23.2622 221.25 18.0548 226.457 11.6311 226.457V226.457C5.20742 226.457 0 221.25 0 214.826V0Z" transform="matrix(0.490492 0.871446 -0.871226 0.490882 486.905 -10.6328)" fill="#BDBDBD"/>
<path fill-rule="evenodd" clip-rule="evenodd" d="M43.6172 75.6017C43.6171 33.8479 77.4653 -0.000393068 119.219 4.64673e-09C160.973 -0.000457944 194.821 33.8483 194.821 75.602L194.821 231.502C224.815 238.395 244.253 249.447 244.253 261.903C244.253 282.797 189.575 299.734 122.126 299.734C54.6779 299.734 0.000266323 282.797 0 261.904C0.000256718 250.202 17.151 239.742 44.0908 232.802L43.6171 232.802L43.6172 75.6017ZM65.5786 80.2416C69.6517 82.5953 74.685 79.1923 74.5186 74.4894C73.8665 56.0936 80.0261 45.7227 97.3109 35.9961C101.443 33.6707 101.728 27.6202 97.6216 25.2467C95.8861 24.2449 93.75 24.198 91.9956 25.1651C67.3852 38.7315 61.1858 50.8197 62.807 75.8252C62.9264 77.6668 63.9808 79.3186 65.5786 80.2416Z" transform="matrix(0.490492 0.871446 -0.871226 0.490882 700.639 -199.514)" fill="#FAEAB9"/>
<path d="M0 0H23.2622V148.421C23.2622 154.844 18.0548 160.052 11.6311 160.052V160.052C5.20742 160.052 0 154.844 0 148.421V0Z" transform="matrix(0.490492 0.871446 -0.871226 0.490882 1220.45 -54.481)" fill="#BDBDBD"/>
<path fill-rule="evenodd" clip-rule="evenodd" d="M43.6172 75.6017C43.6171 33.8479 77.4653 -0.000393068 119.219 4.64673e-09C160.973 -0.000457944 194.821 33.8483 194.821 75.602L194.821 231.502C224.815 238.395 244.253 249.447 244.253 261.903C244.253 282.797 189.575 299.734 122.126 299.734C54.6779 299.734 0.000266323 282.797 0 261.904C0.000256718 250.202 17.151 239.742 44.0908 232.802L43.6171 232.802L43.6172 75.6017ZM65.5786 80.2416C69.6517 82.5953 74.685 79.1923 74.5186 74.4894C73.8665 56.0936 80.0261 45.7227 97.3109 35.9961C101.443 33.6707 101.728 27.6202 97.6216 25.2467C95.8861 24.2449 93.75 24.198 91.9956 25.1651C67.3852 38.7315 61.1858 50.8197 62.807 75.8252C62.9264 77.6668 63.9808 79.3186 65.5786 80.2416Z" transform="matrix(0.490492 0.871446 -0.871226 0.490882 1388.54 -324.448)" fill="#FAEAB9"/>
<rect width="14.5389" height="37.8304" rx="7.26943" transform="matrix(0.490492 0.871446 -0.871226 0.490882 405.515 792.765)" fill="#F2DB93"/>
<rect width="14.5445" height="37.8157" rx="7.27226" transform="matrix(-0.962984 -0.268725 0.269593 -0.963207 308.132 763.288)" fill="#F2DB93"/>
<path fill-rule="evenodd" clip-rule="evenodd" d="M43.6172 75.6017C43.6171 33.8479 77.4653 -0.000393068 119.219 4.64673e-09C160.973 -0.000457944 194.821 33.8483 194.821 75.602L194.821 231.502C224.815 238.395 244.253 249.447 244.253 261.903C244.253 282.797 189.575 299.734 122.126 299.734C54.6779 299.734 0.000266323 282.797 0 261.904C0.000256718 250.202 17.151 239.742 44.0908 232.802L43.6171 232.802L43.6172 75.6017ZM65.5786 80.2416C69.6517 82.5953 74.685 79.1923 74.5186 74.4894C73.8665 56.0936 80.0261 45.7227 97.3109 35.9961C101.443 33.6707 101.728 27.6202 97.6216 25.2467C95.8861 24.2449 93.75 24.198 91.9956 25.1651C67.3852 38.7315 61.1858 50.8197 62.807 75.8252C62.9264 77.6668 63.9808 79.3186 65.5786 80.2416Z" transform="matrix(0.490492 0.871446 -0.871226 0.490882 282.543 728.552)" fill="#FAEAB9"/>
<rect width="14.5502" height="37.8011" rx="7.27508" transform="matrix(-0.871226 0.490882 -0.490492 -0.871446 215.519 769.653)" fill="#F2DB93"/>
<rect width="14.5389" height="37.8304" rx="7.26943" transform="matrix(0.490492 0.871446 -0.871226 0.490882 281.515 227.765)" fill="#F2DB93"/>
<rect width="14.5445" height="37.8157" rx="7.27226" transform="matrix(-0.269593 0.963207 -0.962984 -0.268725 297.95 345.976)" fill="#F2DB93"/>
<rect width="14.5502" height="37.8011" rx="7.27508" transform="matrix(-0.871226 0.490882 -0.490492 -0.871446 227.011 445.378)" fill="#F2DB93"/>
<rect width="14.5445" height="37.8157" rx="7.27226" transform="matrix(-0.962984 -0.268725 0.269593 -0.963207 184.132 198.288)" fill="#F2DB93"/>
<path d="M0 0H23.2622V148.421C23.2622 154.844 18.0548 160.052 11.6311 160.052V160.052C5.20742 160.052 0 154.844 0 148.421V0Z" transform="matrix(0.490492 0.871446 -0.871226 0.490882 -9.5498 433.519)" fill="#BDBDBD"/>
<path fill-rule="evenodd" clip-rule="evenodd" d="M43.6172 75.6017C43.6171 33.8479 77.4653 -0.000393068 119.219 4.64673e-09C160.973 -0.000457944 194.821 33.8483 194.821 75.602L194.821 231.502C224.815 238.395 244.253 249.447 244.253 261.903C244.253 282.797 189.575 299.734 122.126 299.734C54.6779 299.734 0.000266323 282.797 0 261.904C0.000256718 250.202 17.151 239.742 44.0908 232.802L43.6171 232.802L43.6172 75.6017ZM65.5786 80.2416C69.6517 82.5953 74.685 79.1923 74.5186 74.4894C73.8665 56.0936 80.0261 45.7227 97.3109 35.9961C101.443 33.6707 101.728 27.6202 97.6216 25.2467C95.8861 24.2449 93.75 24.198 91.9956 25.1651C67.3852 38.7315 61.1858 50.8197 62.807 75.8252C62.9264 77.6668 63.9808 79.3186 65.5786 80.2416Z" transform="matrix(0.490492 0.871446 -0.871226 0.490882 158.543 163.552)" fill="#FAEAB9"/>
<rect width="14.5502" height="37.8011" rx="7.27508" transform="matrix(-0.871226 0.490882 -0.490492 -0.871446 91.5186 204.653)" fill="#F2DB93"/>
<path d="M0 0H23.2622V148.421C23.2622 154.844 18.0548 160.052 11.6311 160.052V160.052C5.20742 160.052 0 154.844 0 148.421V0Z" transform="matrix(0.490492 0.871446 -0.871226 0.490882 1310.68 338.227)" fill="#BDBDBD"/>
<path d="M0 0H23.2622V235.021C23.2622 241.445 18.0548 246.653 11.6311 246.653V246.653C5.20742 246.653 0 241.445 0 235.021V0Z" transform="matrix(0.490492 0.871446 -0.871226 0.490882 1265.04 257.14)" fill="#BDBDBD"/>
<path fill-rule="evenodd" clip-rule="evenodd" d="M43.6172 75.6017C43.6171 33.8479 77.4653 -0.000393068 119.219 4.64673e-09C160.973 -0.000457944 194.821 33.8483 194.821 75.602L194.821 231.502C224.815 238.395 244.253 249.447 244.253 261.903C244.253 282.797 189.575 299.734 122.126 299.734C54.6779 299.734 0.000266323 282.797 0 261.904C0.000256718 250.202 17.151 239.742 44.0908 232.802L43.6171 232.802L43.6172 75.6017ZM65.5786 80.2416C69.6517 82.5953 74.685 79.1923 74.5186 74.4894C73.8665 56.0936 80.0261 45.7227 97.3109 35.9961C101.443 33.6707 101.728 27.6202 97.6216 25.2467C95.8861 24.2449 93.75 24.198 91.9956 25.1651C67.3852 38.7315 61.1858 50.8197 62.807 75.8252C62.9264 77.6668 63.9808 79.3186 65.5786 80.2416Z" transform="matrix(0.490492 0.871446 -0.871226 0.490882 1478.77 68.2593)" fill="#FAEAB9"/>
<rect width="14.5502" height="37.8011" rx="7.27508" transform="matrix(-0.871226 0.490882 -0.490492 -0.871446 1411.75 109.36)" fill="#F2DB93"/>
<rect width="14.5389" height="37.8304" rx="7.26943" transform="matrix(0.490492 0.871446 -0.871226 0.490882 1420.89 583.211)" fill="#F2DB93"/>
<rect width="14.5445" height="37.8157" rx="7.27226" transform="matrix(-0.269593 0.963207 -0.962984 -0.268725 1437.32 701.422)" fill="#F2DB93"/>
<rect width="14.5502" height="37.8011" rx="7.27508" transform="matrix(-0.871226 0.490882 -0.490492 -0.871446 1366.38 800.825)" fill="#F2DB93"/>
<rect width="14.5445" height="37.8157" rx="7.27226" transform="matrix(-0.962984 -0.268725 0.269593 -0.963207 1323.5 553.734)" fill="#F2DB93"/>
<path d="M0 0H23.2622V148.421C23.2622 154.844 18.0548 160.052 11.6311 160.052V160.052C5.20742 160.052 0 154.844 0 148.421V0Z" transform="matrix(0.490492 0.871446 -0.871226 0.490882 1128.82 787.965)" fill="#BDBDBD"/>
<path d="M0 0H23.2622V258.679C23.2622 265.102 18.0548 270.31 11.6311 270.31V270.31C5.20742 270.31 0 265.102 0 258.679V0Z" transform="matrix(0.490492 0.871446 -0.871226 0.490882 1084.18 707.879)" fill="#BDBDBD"/>
<path fill-rule="evenodd" clip-rule="evenodd" d="M43.6172 75.6017C43.6171 33.8479 77.4653 -0.000393068 119.219 4.64673e-09C160.973 -0.000457944 194.821 33.8483 194.821 75.602L194.821 231.502C224.815 238.395 244.253 249.447 244.253 261.903C244.253 282.797 189.575 299.734 122.126 299.734C54.6779 299.734 0.000266323 282.797 0 261.904C0.000256718 250.202 17.151 239.742 44.0908 232.802L43.6171 232.802L43.6172 75.6017ZM65.5786 80.2416C69.6517 82.5953 74.685 79.1923 74.5186 74.4894C73.8665 56.0936 80.0261 45.7227 97.3109 35.9961C101.443 33.6707 101.728 27.6202 97.6216 25.2467C95.8861 24.2449 93.75 24.198 91.9956 25.1651C67.3852 38.7315 61.1858 50.8197 62.807 75.8252C62.9264 77.6668 63.9808 79.3186 65.5786 80.2416Z" transform="matrix(0.490492 0.871446 -0.871226 0.490882 1297.92 518.998)" fill="#FAEAB9"/>
<rect width="14.5502" height="37.8011" rx="7.27508" transform="matrix(-0.871226 0.490882 -0.490492 -0.871446 1230.89 560.099)" fill="#F2DB93"/>
<rect width="14.5389" height="37.8304" rx="7.26943" transform="matrix(0.490492 0.871446 -0.871226 0.490882 940.988 314.202)" fill="#F2DB93"/>
<rect width="14.5445" height="37.8157" rx="7.27226" transform="matrix(-0.269593 0.963207 -0.962984 -0.268725 957.424 432.412)" fill="#F2DB93"/>
<rect width="14.5502" height="37.8011" rx="7.27508" transform="matrix(-0.871226 0.490882 -0.490492 -0.871446 886.484 531.815)" fill="#F2DB93"/>
<rect width="14.5445" height="37.8157" rx="7.27226" transform="matrix(-0.962984 -0.268725 0.269593 -0.963207 843.605 284.725)" fill="#F2DB93"/>
<path d="M0 0H23.2622V148.421C23.2622 154.844 18.0548 160.052 11.6311 160.052V160.052C5.20742 160.052 0 154.844 0 148.421V0Z" transform="matrix(0.490492 0.871446 -0.871226 0.490882 649.924 519.956)" fill="#BDBDBD"/>
<path d="M0 0H23.2622V236.754C23.2622 243.178 18.0548 248.385 11.6311 248.385V248.385C5.20742 248.385 0 243.178 0 236.754V0Z" transform="matrix(0.490492 0.871446 -0.871226 0.490882 604.282 438.869)" fill="#BDBDBD"/>
<path fill-rule="evenodd" clip-rule="evenodd" d="M43.6172 75.6017C43.6171 33.8479 77.4653 -0.000393068 119.219 4.64673e-09C160.973 -0.000457944 194.821 33.8483 194.821 75.602L194.821 231.502C224.815 238.395 244.253 249.447 244.253 261.903C244.253 282.797 189.575 299.734 122.126 299.734C54.6779 299.734 0.000266323 282.797 0 261.904C0.000256718 250.202 17.151 239.742 44.0908 232.802L43.6171 232.802L43.6172 75.6017ZM65.5786 80.2416C69.6517 82.5953 74.685 79.1923 74.5186 74.4894C73.8665 56.0936 80.0261 45.7227 97.3109 35.9961C101.443 33.6707 101.728 27.6202 97.6216 25.2467C95.8861 24.2449 93.75 24.198 91.9956 25.1651C67.3852 38.7315 61.1858 50.8197 62.807 75.8252C62.9264 77.6668 63.9808 79.3186 65.5786 80.2416Z" transform="matrix(0.490492 0.871446 -0.871226 0.490882 818.017 249.988)" fill="#FAEAB9"/>
<rect width="14.5502" height="37.8011" rx="7.27508" transform="matrix(-0.871226 0.490882 -0.490492 -0.871446 750.992 291.089)" fill="#F2DB93"/>
</g>
</g>
</g>
<defs>
<clipPath id="clip0">
<rect width="1440" height="900" fill="white"/>
</clipPath>
</defs>
</svg>
