<svg width="851" height="956" viewBox="0 0 851 956" fill="none" xmlns="http://www.w3.org/2000/svg">
<path d="M70.093 196.873L0 171.47L95.5814 0L191.163 12.7015L165.674 139.716L70.093 196.873Z" transform="translate(743.038 25.4888) rotate(90)" fill="#988CB3"/>
<path d="M95.5814 25.403L50.9767 406.448L0 393.746L25.4884 0L95.5814 25.403Z" transform="translate(571.569 0.00146484) rotate(90)" fill="#7F6EA2"/>
<path d="M0 438.202L133.814 533.463L191.163 69.8582L140.186 0L44.6047 57.1567L0 438.202Z" transform="translate(603.321 50.9736) rotate(90)" fill="#8E80AC"/>
<path d="M133.814 165.119L25.4884 0L0 127.015L50.9767 196.873L133.814 165.119Z" transform="translate(730.336 822.186) rotate(90)" fill="#9D91B6"/>
<path d="M44.6052 539.814L0 495.358L57.3488 31.7537L140.186 0L93.5907 494.08L44.6052 539.814Z" transform="translate(565.219 815.811) rotate(90)" fill="#77659D"/>
<path d="M79.0538 133.032L0 31.7537V0L50.9767 12.7015L184.791 107.963L229.395 152.418L182.6 177.821L79.0538 133.032Z" transform="translate(177.821) rotate(90)" fill="#6B5795"/>
<path d="M25.4884 114.313L12.7442 0L0 508.06L25.4884 114.313Z" transform="translate(685.879 0.00146484) rotate(90)" fill="#6B5795"/>
<path d="M107.728 94.7893V0L0 151.946L12.7442 266.26L107.728 94.7893Z" transform="translate(837.829 12.7471) rotate(90)" fill="#B4ACC5"/>
<path d="M133.814 50.806L95.5814 120.664L0 107.963V12.7015L25.2892 0L133.814 50.806Z" transform="translate(851 121.069) rotate(90)" fill="#C0BACD"/>
<path d="M105.737 146.795L108.326 234.978L0 69.8582L38.2326 0L105.737 146.795Z" transform="translate(800.193 847.675) rotate(90)" fill="#6B5795"/>
<path d="M0 0H127.146V31.9873H108.209V210.583H127.146V218.58H0V210.583H18.9366V31.9873H0V0Z" transform="matrix(0.948177 -0.317742 0.317054 0.948408 560.726 510.734)" fill="#6B5795"/>
<rect x="1.08858" y="1.08858" width="16.7595" height="24.4789" transform="matrix(0.948177 -0.317742 0.317054 0.948408 674.833 604.626)" fill="#988CB3" stroke="white" stroke-width="2.17716"/>
<rect width="16.2314" height="5.33121" transform="matrix(0.948177 -0.317742 0.317054 0.948408 580.192 560.436)" fill="#B4ACC5"/>
<rect width="16.2314" height="5.33121" transform="matrix(0.948177 -0.317742 0.317054 0.948408 588.644 585.717)" fill="#B4ACC5"/>
<rect width="16.2314" height="5.33121" transform="matrix(0.948177 -0.317742 0.317054 0.948408 597.095 610.998)" fill="#B4ACC5"/>
<rect width="16.2314" height="5.33121" transform="matrix(0.948177 -0.317742 0.317054 0.948408 605.545 636.278)" fill="#B4ACC5"/>
<rect width="16.2314" height="5.33121" transform="matrix(0.948177 -0.317742 0.317054 0.948408 613.997 661.56)" fill="#B4ACC5"/>
<rect width="16.2314" height="5.33121" transform="matrix(0.948177 -0.317742 0.317054 0.948408 622.449 686.84)" fill="#B4ACC5"/>
<path d="M0 0H18.9366V21.3248H0V18.6592H13.5262V2.66561H0V0Z" transform="matrix(0.948177 -0.317742 0.317054 0.948408 570.866 541.071)" fill="#219653"/>
<path d="M0 0H18.9366V21.3248H0V18.6592H13.5262V2.66561H0V0Z" transform="matrix(0.948177 -0.317742 0.317054 0.948408 579.317 566.352)" fill="#219653"/>
<path d="M0 0H18.9366V21.3248H0V18.6592H13.5262V2.66561H0V0Z" transform="matrix(0.948177 -0.317742 0.317054 0.948408 587.769 591.633)" fill="#219653"/>
<path d="M0 0H18.9366V21.3248H0V18.6592H13.5262V2.66561H0V0Z" transform="matrix(0.948177 -0.317742 0.317054 0.948408 596.22 616.915)" fill="#219653"/>
<path d="M0 0H18.9366V21.3248H0V18.6592H13.5262V2.66561H0V0Z" transform="matrix(0.948177 -0.317742 0.317054 0.948408 604.671 642.194)" fill="#219653"/>
<path d="M0 0H18.9366V21.3248H0V18.6592H13.5262V2.66561H0V0Z" transform="matrix(0.948177 -0.317742 0.317054 0.948408 613.123 667.475)" fill="#219653"/>
<path d="M0 0H18.9366V21.3248H0V18.6592H13.5262V2.66561H0V0Z" transform="matrix(0.948177 -0.317742 0.317054 0.948408 621.574 692.756)" fill="#219653"/>
<rect width="16.2314" height="5.33121" transform="matrix(-0.948177 0.317742 -0.317054 -0.948408 739.569 653.216)" fill="#C4C4C4"/>
<rect width="16.2314" height="5.33121" transform="matrix(-0.948177 0.317742 -0.317054 -0.948408 731.116 627.937)" fill="#C4C4C4"/>
<rect width="16.2314" height="5.33121" transform="matrix(-0.948177 0.317742 -0.317054 -0.948408 722.667 602.654)" fill="#C4C4C4"/>
<rect width="16.2314" height="5.33121" transform="matrix(-0.948177 0.317742 -0.317054 -0.948408 714.215 577.375)" fill="#C4C4C4"/>
<rect width="16.2314" height="5.33121" transform="matrix(-0.948177 0.317742 -0.317054 -0.948408 705.763 552.093)" fill="#C4C4C4"/>
<rect width="16.2314" height="5.33121" transform="matrix(-0.948177 0.317742 -0.317054 -0.948408 697.312 526.812)" fill="#C4C4C4"/>
<path d="M0 0H18.9366V21.3248H0V18.6592H13.5262V2.66561H0V0Z" transform="matrix(-0.948177 0.317742 -0.317054 -0.948408 748.893 672.582)" fill="#219653"/>
<path d="M0 0H18.9366V21.3248H0V18.6592H13.5262V2.66561H0V0Z" transform="matrix(-0.948177 0.317742 -0.317054 -0.948408 740.443 647.3)" fill="#219653"/>
<path d="M0 0H18.9366V21.3248H0V18.6592H13.5262V2.66561H0V0Z" transform="matrix(-0.948177 0.317742 -0.317054 -0.948408 731.992 622.02)" fill="#219653"/>
<path d="M0 0H18.9366V21.3248H0V18.6592H13.5262V2.66561H0V0Z" transform="matrix(-0.948177 0.317742 -0.317054 -0.948408 723.54 596.738)" fill="#219653"/>
<path d="M0 0H18.9366V21.3248H0V18.6592H13.5262V2.66561H0V0Z" transform="matrix(-0.948177 0.317742 -0.317054 -0.948408 715.089 571.458)" fill="#219653"/>
<path d="M0 0H18.9366V21.3248H0V18.6592H13.5262V2.66561H0V0Z" transform="matrix(-0.948177 0.317742 -0.317054 -0.948408 706.638 546.177)" fill="#219653"/>
<path d="M0 0H18.9366V21.3248H0V18.6592H13.5262V2.66561H0V0Z" transform="matrix(-0.948177 0.317742 -0.317054 -0.948408 698.187 520.896)" fill="#219653"/>
<rect x="1.08858" y="1.08858" width="49.2222" height="48.4693" transform="matrix(0.948177 -0.317742 0.317054 0.948408 609.253 553.509)" fill="#988CB3" stroke="white" stroke-width="2.17716"/>
<rect x="1.08858" y="1.08858" width="35.6961" height="37.8069" transform="matrix(0.948177 -0.317742 0.317054 0.948408 638.833 641.993)" fill="#988CB3" stroke="white" stroke-width="2.17716"/>
<rect width="110.914" height="15.9936" transform="matrix(0.948177 -0.317742 0.317054 0.948408 571.801 518.267)" fill="#B4ACC5"/>
<path d="M31.4899 3.77522C32.6058 1.86107 34.646 0.631968 36.86 0.547013L38.4774 0.48495C43.777 0.281597 47.1019 6.17743 44.3295 10.6986C7.11133 71.3933 2.31603 117.179 44.9093 192.391C47.1006 196.261 44.9676 201.185 40.6256 202.145L38.7126 202.568C35.9027 203.189 32.9968 201.87 31.611 199.347C-10.1394 123.367 -10.892 76.4782 31.4899 3.77522Z" transform="matrix(0.320713 0.947176 -0.946988 0.321268 673.239 310.258)" fill="#828282"/>
<path d="M23.0325 4.47588C24.1095 2.73374 25.9697 1.59656 28.0108 1.42641L30.1756 1.24595C35.8614 0.771977 39.4136 7.35532 36.1086 12.0061C8.31738 51.1127 4.07633 81.1705 35.9632 127.377C38.794 131.479 36.4195 137.25 31.483 137.937L29.605 138.198C27.0612 138.552 24.5298 137.368 23.1884 135.178C-7.6833 84.7718 -7.72353 54.2293 23.0325 4.47588Z" transform="matrix(0.333302 0.94282 -0.942718 0.333591 655.549 354.646)" fill="#828282"/>
<path d="M20.5742 1.01703C21.3418 0.627466 22.1979 0.435376 23.0586 0.417419V0.417419C29.1693 0.289927 31.916 8.34795 27.4533 12.5242C11.3253 27.6171 9.5879 40.2908 27.4952 56.9441C31.774 60.9232 29.417 68.6715 23.5773 68.8695V68.8695C22.5952 68.9028 21.6026 68.698 20.731 68.244C-8.96223 52.7769 -4.73083 13.8582 20.5742 1.01703Z" transform="matrix(0.317054 0.948408 -0.948177 0.317742 632.05 400.122)" fill="#828282"/>
<ellipse cx="12.9553" cy="13.1479" rx="12.9553" ry="13.1479" transform="matrix(0.317054 0.948408 -0.948177 0.317742 621.335 439.334)" fill="#828282"/>
<rect width="6.41231" height="16.687" rx="3.20616" transform="matrix(0.948131 0.317879 -0.317388 0.948296 202.37 464.998)" fill="#F2DB93"/>
<rect width="6.41519" height="16.6795" rx="3.20759" transform="matrix(0.445601 0.89552 -0.894657 0.446173 242.697 498.83)" fill="#F2DB93"/>
<rect width="6.41807" height="16.672" rx="3.20903" transform="matrix(-0.317388 0.948296 -0.948131 -0.317879 248.868 552.343)" fill="#F2DB93"/>
<rect width="6.41519" height="16.6795" rx="3.20759" transform="matrix(-0.894657 0.446173 -0.445601 -0.89552 162.783 484.146)" fill="#F2DB93"/>
<path d="M0 0H10.2597V114.901C10.2597 117.734 7.96299 120.031 5.12985 120.031V120.031C2.29671 120.031 0 117.734 0 114.901V0Z" transform="matrix(0.948131 0.317879 -0.317388 0.948296 170.944 621.413)" fill="#BDBDBD"/>
<path d="M0 0H10.2597V65.4689C10.2597 68.302 7.96299 70.5987 5.12985 70.5987V70.5987C2.29671 70.5987 0 68.302 0 65.4689V0Z" transform="matrix(0.948131 0.317879 -0.317388 0.948296 132.031 608.366)" fill="#BDBDBD"/>
<path fill-rule="evenodd" clip-rule="evenodd" d="M19.2366 33.344C19.2365 14.9285 34.1652 -5.11783e-05 52.5809 3.30678e-09C70.9959 -0.000256555 85.9245 14.9285 85.9246 33.344L85.9246 102.117C99.1534 105.157 107.727 110.032 107.727 115.527C107.727 124.743 83.6115 132.214 53.8635 132.214C24.1154 132.214 0.000159271 124.743 0 115.527C0.000168143 110.364 7.56763 105.75 19.4529 102.689L19.2365 102.689L19.2366 33.344ZM28.9233 35.3968C30.72 36.435 32.9398 34.934 32.8666 32.8598C32.5789 24.7451 35.2956 20.1703 42.9191 15.8796C44.7419 14.8541 44.8671 12.1851 43.0561 11.1383C42.2906 10.6962 41.3486 10.6757 40.5747 11.1025C29.7205 17.0863 26.986 22.4188 27.7009 33.4483C27.7537 34.2612 28.2189 34.9893 28.9233 35.3968Z" transform="matrix(0.948131 0.317879 -0.317388 0.948296 146.139 483.342)" fill="#FAEAB9"/>
<rect width="6.41807" height="16.672" rx="3.20903" transform="matrix(-0.317388 0.948296 -0.948131 -0.317879 135.354 514.615)" fill="#F2DB93"/>
<rect width="59.5206" height="27.0401" transform="translate(377.59 732.426)" fill="#7F6EA2"/>
<rect width="59.5206" height="27.0401" transform="translate(377.59 694.024)" fill="#7F6EA2"/>
<path fill-rule="evenodd" clip-rule="evenodd" d="M33.1392 0C28.9849 0 25.6167 3.36816 25.6167 7.52246V12.0063C25.6167 13.3789 25.9839 14.6655 26.626 15.7729H15.0454C6.73584 15.7729 0 22.5088 0 30.8184V153.955C0 162.264 6.73584 169 15.0454 169H94.9546C103.264 169 110 162.264 110 153.955V30.8184C110 22.5088 103.264 15.7729 94.9546 15.7729H84.8813C85.5234 14.6655 85.8906 13.3789 85.8906 12.0063V7.52246C85.8906 3.36816 82.5225 0 78.3682 0H33.1392ZM15.0454 30.8184H94.9546V153.955H15.0454V30.8184Z" transform="translate(351.974 613)" fill="#988CB3"/>
<path d="M108.187 39.7382L87.1809 16.8074H47.5848L4.16801 0M0 16.8074L40.2908 38.6212L87.1809 58.2894L117.201 70.7017" transform="translate(201.434 345.125) rotate(23.3584)" stroke="#988CB3" stroke-width="4.73023"/>
<path d="M124.401 68.961C124.401 102.091 98.4065 128.462 66.9309 128.462C35.4553 128.462 9.46045 102.091 9.46045 68.961C9.46045 35.8313 35.4553 9.46045 66.9309 9.46045C98.4065 9.46045 124.401 35.8313 124.401 68.961Z" transform="translate(125.44 219) rotate(23.3584)" stroke="#B4ACC5" stroke-width="18.9209"/>
<path d="M123.663 65.3314C123.663 99.7609 96.5979 127.509 63.4082 127.509C30.2186 127.509 3.15348 99.7609 3.15348 65.3314C3.15348 30.902 30.2186 3.15348 63.4082 3.15348C96.5979 3.15348 123.663 30.902 123.663 65.3314Z" transform="translate(127.595 224.674) rotate(23.3584)" stroke="#988CB3" stroke-width="6.30697"/>
<path d="M109.572 58.0724C109.572 88.4928 85.6615 112.991 56.3629 112.991C27.0643 112.991 3.15348 88.4928 3.15348 58.0724C3.15348 27.652 27.0643 3.15348 56.3629 3.15348C85.6615 3.15348 109.572 27.652 109.572 58.0724Z" transform="translate(131.184 234.133) rotate(23.3584)" stroke="#B4ACC5" stroke-width="6.30697"/>
<path d="M109.74 57.3465C109.74 88.192 85.4827 113.116 55.6583 113.116C25.834 113.116 1.57674 88.192 1.57674 57.3465C1.57674 26.501 25.834 1.57674 55.6583 1.57674C85.4827 1.57674 109.74 26.501 109.74 57.3465Z" transform="translate(131.184 234.133) rotate(23.3584)" stroke="#6B5795" stroke-width="3.15348"/>
<path d="M126.028 65.3314C126.028 101 97.9702 129.875 63.4082 129.875C28.8463 129.875 0.788371 101 0.788371 65.3314C0.788371 29.6629 28.8463 0.788371 63.4082 0.788371C97.9702 0.788371 126.028 29.6629 126.028 65.3314Z" transform="translate(127.595 224.674) rotate(23.3584)" stroke="#8E80AC" stroke-width="1.57674"/>
<rect width="6.58734" height="20.2658" rx="3.29367" transform="translate(403.424 469.731) rotate(-19.998)" fill="#C0BACD"/>
<rect width="6.58734" height="20.2658" rx="3.29367" transform="translate(423.542 462.408) rotate(-19.998)" fill="#C0BACD"/>
<rect width="47.7582" height="84.1812" rx="5.26253" transform="translate(366.949 398.4) rotate(-19.998)" fill="#7F6EA2"/>
</svg>
