<svg width="1443" height="1135" viewBox="0 0 1443 1135" fill="none" xmlns="http://www.w3.org/2000/svg">
<path d="M1443 1134.56V31.0309C1443 31.0309 1258.84 -15.879 1095.28 5.6544C896.262 31.8553 717.139 136.544 518.578 166.2C166.847 218.733 0 137.716 0 137.716V1068.88C0 1068.88 309.704 1134.56 481.501 1134.56C706.129 1134.56 812.027 1068.88 1036.66 1068.88C1203.76 1068.88 1443 1134.56 1443 1134.56Z" fill="#6B5795"/>
<mask id="mask0" mask-type="alpha" maskUnits="userSpaceOnUse" x="0" y="0" width="1443" height="1135">
<path d="M1443 1134.56V31.0309C1443 31.0309 1258.84 -15.879 1095.28 5.6544C896.262 31.8553 717.139 136.544 518.578 166.2C166.847 218.733 0 137.716 0 137.716V1068.88C0 1068.88 309.704 1134.56 481.501 1134.56C706.129 1134.56 812.027 1068.88 1036.66 1068.88C1203.76 1068.88 1443 1134.56 1443 1134.56Z" fill="#6B5795"/>
</mask>
<g mask="url(#mask0)">
<g opacity="0.2">
<rect width="14.5389" height="37.8304" rx="7.26943" transform="matrix(0.490492 0.871446 -0.871226 0.490882 803.488 21.5176)" fill="#F2DB93"/>
<rect width="14.5445" height="37.8157" rx="7.27226" transform="matrix(-0.269593 0.963207 -0.962984 -0.268725 819.925 139.729)" fill="#F2DB93"/>
<rect width="14.5502" height="37.8011" rx="7.27508" transform="matrix(-0.871226 0.490882 -0.490492 -0.871446 748.984 239.132)" fill="#F2DB93"/>
<path d="M0 0H23.2622V148.421C23.2622 154.844 18.0548 160.052 11.6311 160.052C5.20742 160.052 0 154.844 0 148.421V0Z" transform="matrix(0.490492 0.871446 -0.871226 0.490882 512.424 227.271)" fill="#BDBDBD"/>
<path d="M0 0H23.2622V214.826C23.2622 221.25 18.0548 226.457 11.6311 226.457C5.20742 226.457 0 221.25 0 214.826V0Z" transform="matrix(0.490492 0.871446 -0.871226 0.490882 466.783 146.186)" fill="#BDBDBD"/>
<path fill-rule="evenodd" clip-rule="evenodd" d="M43.6169 75.6021C43.6172 33.8479 77.4656 0.000271936 119.219 0C160.973 0.00020706 194.821 33.8484 194.821 75.6021L194.821 231.502C224.815 238.395 244.253 249.446 244.253 261.904C244.253 282.797 189.575 299.734 122.127 299.734C54.6775 299.734 -0.000186067 282.797 4.74888e-10 261.904C-0.000102815 250.202 17.151 239.742 44.0899 232.802L43.6171 232.802L43.6169 75.6021ZM65.5784 80.2421C69.652 82.5954 74.6853 79.1924 74.5182 74.4897C73.8662 56.0934 80.026 45.7231 97.311 35.9961C101.443 33.6704 101.728 27.6195 97.6215 25.2471C95.8867 24.2446 93.7501 24.198 91.9952 25.1649C67.3848 38.7313 61.1861 50.8198 62.8064 75.8248C62.9265 77.6668 63.9807 79.3185 65.5784 80.2421Z" transform="matrix(0.490492 0.871446 -0.871226 0.490882 680.517 -42.6953)" fill="#FAEAB9"/>
<rect width="14.5502" height="37.8011" rx="7.27508" transform="matrix(-0.871226 0.490882 -0.490492 -0.871446 613.493 -1.59473)" fill="#F2DB93"/>
<rect width="14.5502" height="37.8011" rx="7.27508" transform="matrix(-0.871226 0.490882 -0.490492 -0.871446 1436.89 114.197)" fill="#F2DB93"/>
<path d="M0 0H23.2622V148.421C23.2622 154.844 18.0548 160.052 11.6311 160.052C5.20742 160.052 0 154.844 0 148.421V0Z" transform="matrix(0.490492 0.871446 -0.871226 0.490882 1200.33 102.337)" fill="#BDBDBD"/>
<path d="M0 0H23.2622V220.716C23.2622 227.14 18.0548 232.347 11.6311 232.347C5.20742 232.347 0 227.14 0 220.716V0Z" transform="matrix(0.490492 0.871446 -0.871226 0.490882 1154.69 21.251)" fill="#BDBDBD"/>
<path fill-rule="evenodd" clip-rule="evenodd" d="M43.6164 75.6021C43.6167 33.8479 77.4651 0.000271936 119.219 0C160.973 0.00020706 194.821 33.8484 194.821 75.6021L194.821 231.503C224.815 238.396 244.253 249.447 244.253 261.905C244.253 282.798 189.575 299.735 122.127 299.735C54.6776 299.735 -0.000186067 282.798 4.74887e-10 261.905C1.70295e-05 250.203 17.1517 239.742 44.0928 232.802L43.6164 232.802L43.6164 75.6021ZM65.5788 80.2425C69.6523 82.5959 74.6857 79.1929 74.5186 74.4902C73.8665 56.0939 80.0263 45.7236 97.3113 35.9965C101.443 33.6709 101.728 27.62 97.6219 25.2476C95.887 24.2451 93.7505 24.1985 91.9956 25.1653C67.3852 38.7318 61.1865 50.8203 62.8068 75.8253C62.9268 77.6673 63.9811 79.3189 65.5788 80.2425Z" transform="matrix(0.490492 0.871446 -0.871226 0.490882 1368.42 -167.63)" fill="#FAEAB9"/>
<rect width="14.5389" height="37.8304" rx="7.26943" transform="matrix(0.490492 0.871446 -0.871226 0.490882 385.391 949.583)" fill="#F2DB93"/>
<rect width="14.5445" height="37.8157" rx="7.27226" transform="matrix(-0.269593 0.963207 -0.962984 -0.268725 401.827 1067.79)" fill="#F2DB93"/>
<rect width="14.5445" height="37.8157" rx="7.27226" transform="matrix(-0.962984 -0.268725 0.269593 -0.963207 288.009 920.106)" fill="#F2DB93"/>
<path d="M0 0H23.2622V148.421C23.2622 154.844 18.0548 160.052 11.6311 160.052C5.20742 160.052 0 154.844 0 148.421V0Z" transform="matrix(0.490492 0.871446 -0.871226 0.490882 48.6855 1074.25)" fill="#BDBDBD"/>
<path fill-rule="evenodd" clip-rule="evenodd" d="M43.617 75.6021C43.6171 33.8483 77.4657 0.000271936 119.219 0C160.973 0.00020706 194.822 33.8484 194.822 75.6021L194.821 231.502C224.815 238.395 244.253 249.447 244.253 261.904C244.253 282.797 189.575 299.734 122.127 299.734C54.6775 299.734 -0.000186067 282.797 4.74888e-10 261.904C-0.000102815 250.202 17.151 239.742 44.0899 232.803L43.6171 232.802L43.617 75.6021ZM65.5794 80.2425C69.6527 82.5963 74.6861 79.1933 74.5192 74.4902C73.8669 56.0943 80.0268 45.7238 97.3119 35.9965C101.444 33.6709 101.729 27.6204 97.6224 25.2478C95.8875 24.2453 93.7509 24.1989 91.9961 25.1656C67.3857 38.732 61.1869 50.8207 62.8074 75.8253C62.9273 77.6675 63.9815 79.3194 65.5794 80.2425Z" transform="matrix(0.490492 0.871446 -0.871226 0.490882 262.419 885.37)" fill="#FAEAB9"/>
<rect width="14.5502" height="37.8011" rx="7.27508" transform="matrix(-0.871226 0.490882 -0.490492 -0.871446 195.395 926.471)" fill="#F2DB93"/>
<rect width="14.5389" height="37.8304" rx="7.26943" transform="matrix(0.490492 0.871446 -0.871226 0.490882 261.391 384.583)" fill="#F2DB93"/>
<rect width="14.5445" height="37.8157" rx="7.27226" transform="matrix(-0.269593 0.963207 -0.962984 -0.268725 277.828 502.794)" fill="#F2DB93"/>
<rect width="14.5502" height="37.8011" rx="7.27508" transform="matrix(-0.871226 0.490882 -0.490492 -0.871446 206.887 602.197)" fill="#F2DB93"/>
<rect width="14.5445" height="37.8157" rx="7.27226" transform="matrix(-0.962984 -0.268725 0.269593 -0.963207 164.009 355.106)" fill="#F2DB93"/>
<path fill-rule="evenodd" clip-rule="evenodd" d="M43.617 75.6021C43.6171 33.8483 77.4657 0.000271936 119.219 0C160.973 0.00020706 194.822 33.8484 194.822 75.6021L194.821 231.502C224.815 238.395 244.253 249.447 244.253 261.904C244.253 282.797 189.575 299.734 122.127 299.734C54.6775 299.734 -0.000186067 282.797 4.74888e-10 261.904C-0.000102815 250.202 17.151 239.742 44.0899 232.803L43.6171 232.802L43.617 75.6021ZM65.5794 80.2425C69.6527 82.5963 74.6861 79.1933 74.5192 74.4902C73.8669 56.0943 80.0268 45.7238 97.3119 35.9965C101.444 33.6709 101.729 27.6204 97.6224 25.2478C95.8875 24.2453 93.7509 24.1989 91.9961 25.1656C67.3857 38.732 61.1869 50.8207 62.8074 75.8253C62.9273 77.6675 63.9815 79.3194 65.5794 80.2425Z" transform="matrix(0.490492 0.871446 -0.871226 0.490882 138.42 320.369)" fill="#FAEAB9"/>
<rect width="14.5502" height="37.8011" rx="7.27508" transform="matrix(-0.871226 0.490882 -0.490492 -0.871446 71.3955 361.471)" fill="#F2DB93"/>
<path d="M0 0H23.2622V148.421C23.2622 154.844 18.0548 160.052 11.6311 160.052C5.20742 160.052 0 154.844 0 148.421V0Z" transform="matrix(0.490492 0.871446 -0.871226 0.490882 1290.56 495.044)" fill="#BDBDBD"/>
<path d="M0 0H23.2622V235.021C23.2622 241.445 18.0548 246.653 11.6311 246.653C5.20742 246.653 0 241.445 0 235.021V0Z" transform="matrix(0.490492 0.871446 -0.871226 0.490882 1244.92 413.958)" fill="#BDBDBD"/>
<path fill-rule="evenodd" clip-rule="evenodd" d="M43.6161 75.6021C43.6165 33.8479 77.4649 0.000271936 119.218 0C160.973 0.00020706 194.821 33.8484 194.821 75.6021L194.821 231.503C224.815 238.396 244.253 249.447 244.253 261.904C244.253 282.797 189.575 299.734 122.127 299.735C54.6776 299.734 -0.000186067 282.797 4.74887e-10 261.904C1.70295e-05 250.203 17.1515 239.742 44.0915 232.802L43.6162 232.802L43.6161 75.6021ZM65.5777 80.2421C69.6512 82.5954 74.6846 79.1924 74.5175 74.4897C73.8654 56.0934 80.0252 45.7231 97.3102 35.9961C101.442 33.6704 101.727 27.6195 97.6208 25.2471C95.8859 24.2446 93.7494 24.198 91.9945 25.1649C67.3841 38.7313 61.1854 50.8198 62.8057 75.8248C62.9257 77.6668 63.98 79.3185 65.5777 80.2421Z" transform="matrix(0.490492 0.871446 -0.871226 0.490882 1458.65 225.078)" fill="#FAEAB9"/>
<rect width="14.5502" height="37.8011" rx="7.27508" transform="matrix(-0.871226 0.490882 -0.490492 -0.871446 1391.63 266.178)" fill="#F2DB93"/>
<rect width="14.5389" height="37.8304" rx="7.26943" transform="matrix(0.490492 0.871446 -0.871226 0.490882 1400.76 740.029)" fill="#F2DB93"/>
<rect width="14.5445" height="37.8157" rx="7.27226" transform="matrix(-0.269593 0.963207 -0.962984 -0.268725 1417.2 858.24)" fill="#F2DB93"/>
<rect width="14.5502" height="37.8011" rx="7.27508" transform="matrix(-0.871226 0.490882 -0.490492 -0.871446 1346.26 957.644)" fill="#F2DB93"/>
<rect width="14.5445" height="37.8157" rx="7.27226" transform="matrix(-0.962984 -0.268725 0.269593 -0.963207 1303.38 710.553)" fill="#F2DB93"/>
<path d="M0 0H23.2622V148.421C23.2622 154.844 18.0548 160.052 11.6311 160.052C5.20742 160.052 0 154.844 0 148.421V0Z" transform="matrix(0.490492 0.871446 -0.871226 0.490882 1108.7 944.783)" fill="#BDBDBD"/>
<path d="M0 0H23.2622V208.304C23.2622 214.728 18.0548 219.935 11.6311 219.935C5.20742 219.935 0 214.728 0 208.304V0Z" transform="matrix(0.490492 0.871446 -0.871226 0.490882 1064.06 864.697)" fill="#BDBDBD"/>
<path fill-rule="evenodd" clip-rule="evenodd" d="M43.6161 75.6021C43.6165 33.8479 77.4649 0.000271936 119.218 0C160.973 0.00020706 194.821 33.8484 194.821 75.6021L194.821 231.503C224.815 238.396 244.253 249.447 244.253 261.904C244.253 282.797 189.575 299.734 122.127 299.735C54.6776 299.734 -0.000186067 282.797 4.74887e-10 261.904C1.70295e-05 250.203 17.1515 239.742 44.0915 232.802L43.6162 232.802L43.6161 75.6021ZM65.5777 80.2421C69.6512 82.5954 74.6846 79.1924 74.5175 74.4897C73.8654 56.0934 80.0252 45.7231 97.3102 35.9961C101.442 33.6704 101.727 27.6195 97.6208 25.2471C95.8859 24.2446 93.7494 24.198 91.9945 25.1649C67.3841 38.7313 61.1854 50.8198 62.8057 75.8248C62.9257 77.6668 63.98 79.3185 65.5777 80.2421Z" transform="matrix(0.490492 0.871446 -0.871226 0.490882 1277.79 675.817)" fill="#FAEAB9"/>
<rect width="14.5502" height="37.8011" rx="7.27508" transform="matrix(-0.871226 0.490882 -0.490492 -0.871446 1210.77 716.917)" fill="#F2DB93"/>
<rect width="14.5389" height="37.8304" rx="7.26943" transform="matrix(0.490492 0.871446 -0.871226 0.490882 920.864 471.02)" fill="#F2DB93"/>
<rect width="14.5445" height="37.8157" rx="7.27226" transform="matrix(-0.269593 0.963207 -0.962984 -0.268725 937.301 589.23)" fill="#F2DB93"/>
<rect width="14.5502" height="37.8011" rx="7.27508" transform="matrix(-0.871226 0.490882 -0.490492 -0.871446 866.36 688.634)" fill="#F2DB93"/>
<rect width="14.5445" height="37.8157" rx="7.27226" transform="matrix(-0.962984 -0.268725 0.269593 -0.963207 823.482 441.543)" fill="#F2DB93"/>
<path d="M0 0H23.2622V148.421C23.2622 154.844 18.0548 160.052 11.6311 160.052C5.20742 160.052 0 154.844 0 148.421V0Z" transform="matrix(0.490492 0.871446 -0.871226 0.490882 629.8 676.773)" fill="#BDBDBD"/>
<path d="M0 0H23.2622V236.754C23.2622 243.178 18.0548 248.385 11.6311 248.385C5.20742 248.385 0 243.178 0 236.754V0Z" transform="matrix(0.490492 0.871446 -0.871226 0.490882 584.159 595.688)" fill="#BDBDBD"/>
<path fill-rule="evenodd" clip-rule="evenodd" d="M43.616 75.6021C43.6163 33.8479 77.4647 0.000271936 119.218 0C160.973 0.00020706 194.821 33.8484 194.821 75.6021L194.821 231.503C224.815 238.396 244.253 249.447 244.253 261.904C244.253 282.797 189.575 299.734 122.127 299.735C54.6775 299.734 -0.000186067 282.797 4.74888e-10 261.904C1.70295e-05 250.202 17.1512 239.742 44.0912 232.803L43.6161 232.802L43.616 75.6021ZM65.5776 80.2421C69.6511 82.5954 74.6845 79.1924 74.5174 74.4897C73.8653 56.0934 80.0251 45.7231 97.3101 35.9961C101.442 33.6704 101.727 27.6195 97.6207 25.2471C95.8858 24.2446 93.7493 24.198 91.9944 25.1649C67.384 38.7313 61.1853 50.8198 62.8056 75.8248C62.9256 77.6668 63.9799 79.3185 65.5776 80.2421Z" transform="matrix(0.490492 0.871446 -0.871226 0.490882 797.893 406.808)" fill="#FAEAB9"/>
<rect width="14.5502" height="37.8011" rx="7.27508" transform="matrix(-0.871226 0.490882 -0.490492 -0.871446 730.869 447.907)" fill="#F2DB93"/>
</g>
</g>
</svg>
