<svg width="1443" height="1135" viewBox="0 0 1443 1135" fill="none" xmlns="http://www.w3.org/2000/svg">
<path d="M1443 1134.56V31.0309C1443 31.0309 1258.84 -15.879 1095.28 5.6544C896.262 31.8553 717.139 136.544 518.578 166.2C166.847 218.733 0 137.716 0 137.716V1068.88C0 1068.88 309.704 1134.56 481.501 1134.56C706.129 1134.56 812.027 1068.88 1036.66 1068.88C1203.76 1068.88 1443 1134.56 1443 1134.56Z" fill="#6B5795"/>
<mask id="mask0" mask-type="alpha" maskUnits="userSpaceOnUse" x="0" y="0" width="1443" height="1135">
<path d="M1443 1134.56V31.0309C1443 31.0309 1258.84 -15.879 1095.28 5.6544C896.262 31.8553 717.139 136.544 518.578 166.2C166.847 218.733 0 137.716 0 137.716V1068.88C0 1068.88 309.704 1134.56 481.501 1134.56C706.129 1134.56 812.027 1068.88 1036.66 1068.88C1203.76 1068.88 1443 1134.56 1443 1134.56Z" fill="#6B5795"/>
</mask>
<g mask="url(#mask0)">
<g opacity="0.25">
<path d="M1.79551 26.2634C-1.16803 34.637 0.0469145 40.2988 1.79551 49.0072C10.2969 91.3462 77.4913 85.8931 111.909 59.7865C122.484 51.7656 133.402 47.3007 134.101 34.0516C135 17.018 116.859 12.0633 101.18 5.3255C80.9819 -3.35438 66.2115 -0.000595485 44.881 5.3255C26.7294 9.85783 8.03449 8.63476 1.79551 26.2634Z" transform="matrix(0.928186 0.372118 -0.372269 0.928125 1165.76 -97)" fill="url(#paint0_linear)"/>
<path d="M246.687 47.1294C246.687 76.2123 189.681 100.218 116.729 103.128C43.7777 106.039 2.3369 89.3093 0 53.99C0 24.9071 55.2639 0 122.466 0C189.668 0 246.687 18.0465 246.687 47.1294Z" transform="translate(1222.79 -47.0679) scale(1.00021 0.999795) rotate(36.9186)" fill="url(#paint1_linear)"/>
<path d="M1.79542 26.2646C-1.16797 34.6387 0.0469123 40.3007 1.79542 49.0096C10.2964 91.3507 77.4876 85.8972 111.904 59.7894C122.478 51.7681 133.396 47.303 134.095 34.0532C134.993 17.0188 116.853 12.0639 101.175 5.32575C80.978 -3.35454 66.2083 -0.000595514 44.8788 5.32575C26.7281 9.85831 8.0341 8.63518 1.79542 26.2646Z" transform="translate(1037.35 -79.1611) scale(1.00011 0.999894) rotate(35.9066)" fill="url(#paint2_linear)"/>
<path d="M246.708 47.1254C246.708 76.2058 189.697 100.209 116.739 103.12C43.7814 106.03 2.3371 89.3018 0 53.9854C0 24.905 55.2686 0 122.476 0C189.684 0 246.708 18.0449 246.708 47.1254Z" transform="matrix(0.998673 0.0515011 -0.051726 0.998661 993.518 55.6597)" fill="url(#paint3_linear)"/>
<path d="M1.79542 26.2646C-1.16797 34.6387 0.0469123 40.3007 1.79542 49.0096C10.2964 91.3507 77.4876 85.8972 111.904 59.7894C122.478 51.7681 133.396 47.303 134.095 34.0532C134.993 17.0188 116.853 12.0639 101.175 5.32575C80.978 -3.35454 66.2083 -0.000595514 44.8788 5.32575C26.7281 9.85831 8.0341 8.63518 1.79542 26.2646Z" transform="translate(962.991 -69.2236) scale(1.00011 0.999894) rotate(35.9066)" fill="url(#paint4_linear)"/>
<path d="M1.79551 26.2634C-1.16803 34.637 0.0469145 40.2988 1.79551 49.0072C10.2969 91.3462 77.4913 85.8931 111.909 59.7865C122.484 51.7656 133.402 47.3007 134.101 34.0516C135 17.018 116.859 12.0633 101.18 5.3255C80.9819 -3.35438 66.2115 -0.000595485 44.881 5.3255C26.7294 9.85783 8.03449 8.63476 1.79551 26.2634Z" transform="matrix(0.928186 0.372118 -0.372269 0.928125 420.213 99.5293)" fill="url(#paint5_linear)"/>
<path d="M246.687 47.1294C246.687 76.2123 189.681 100.218 116.729 103.128C43.7777 106.039 2.3369 89.3093 0 53.99C0 24.9071 55.2639 0 122.466 0C189.668 0 246.687 18.0465 246.687 47.1294Z" transform="translate(477.24 149.461) scale(1.00021 0.999795) rotate(36.9186)" fill="url(#paint6_linear)"/>
<path d="M1.79542 26.2646C-1.16797 34.6387 0.0469123 40.3007 1.79542 49.0096C10.2964 91.3507 77.4876 85.8972 111.904 59.7894C122.478 51.7681 133.396 47.303 134.095 34.0532C134.993 17.0188 116.853 12.0639 101.175 5.32575C80.978 -3.35454 66.2083 -0.000595514 44.8788 5.32575C26.7281 9.85831 8.0341 8.63518 1.79542 26.2646Z" transform="translate(291.796 117.368) scale(1.00011 0.999894) rotate(35.9066)" fill="url(#paint7_linear)"/>
<path d="M246.708 47.1254C246.708 76.2058 189.697 100.209 116.739 103.12C43.7814 106.03 2.3371 89.3018 0 53.9854C0 24.905 55.2686 0 122.476 0C189.684 0 246.708 18.0449 246.708 47.1254Z" transform="matrix(0.998673 0.0515011 -0.051726 0.998661 247.968 252.189)" fill="url(#paint8_linear)"/>
<path d="M1.79542 26.2646C-1.16797 34.6387 0.0469123 40.3007 1.79542 49.0096C10.2964 91.3507 77.4876 85.8972 111.904 59.7894C122.478 51.7681 133.396 47.303 134.095 34.0532C134.993 17.0188 116.853 12.0639 101.175 5.32575C80.978 -3.35454 66.2083 -0.000595514 44.8788 5.32575C26.7281 9.85831 8.0341 8.63518 1.79542 26.2646Z" transform="translate(217.441 127.305) scale(1.00011 0.999894) rotate(35.9066)" fill="url(#paint9_linear)"/>
<path d="M1.79551 26.2634C-1.16803 34.637 0.0469145 40.2988 1.79551 49.0072C10.2969 91.3462 77.4913 85.8931 111.909 59.7865C122.484 51.7656 133.402 47.3007 134.101 34.0516C135 17.018 116.859 12.0633 101.18 5.3255C80.9819 -3.35438 66.2115 -0.000595485 44.881 5.3255C26.7294 9.85783 8.03449 8.63476 1.79551 26.2634Z" transform="matrix(0.928186 0.372118 -0.372269 0.928125 1066.56 331.154)" fill="url(#paint10_linear)"/>
<path d="M246.687 47.1294C246.687 76.2123 189.681 100.218 116.729 103.128C43.7777 106.039 2.3369 89.3093 0 53.99C0 24.9071 55.2639 0 122.466 0C189.668 0 246.687 18.0465 246.687 47.1294Z" transform="translate(1123.58 381.086) scale(1.00021 0.999795) rotate(36.9186)" fill="url(#paint11_linear)"/>
<path d="M1.79542 26.2646C-1.16797 34.6387 0.0469123 40.3007 1.79542 49.0096C10.2964 91.3507 77.4876 85.8972 111.904 59.7894C122.478 51.7681 133.396 47.303 134.095 34.0532C134.993 17.0188 116.853 12.0639 101.175 5.32575C80.978 -3.35454 66.2083 -0.000595514 44.8788 5.32575C26.7281 9.85831 8.0341 8.63518 1.79542 26.2646Z" transform="translate(938.14 348.993) scale(1.00011 0.999894) rotate(35.9066)" fill="url(#paint12_linear)"/>
<path d="M246.708 47.1254C246.708 76.2058 189.697 100.209 116.739 103.12C43.7814 106.03 2.3371 89.3018 0 53.9854C0 24.905 55.2686 0 122.476 0C189.684 0 246.708 18.0449 246.708 47.1254Z" transform="matrix(0.998673 0.0515011 -0.051726 0.998661 894.312 483.813)" fill="url(#paint13_linear)"/>
<path d="M1.79542 26.2646C-1.16797 34.6387 0.0469123 40.3007 1.79542 49.0096C10.2964 91.3507 77.4876 85.8972 111.904 59.7894C122.478 51.7681 133.396 47.303 134.095 34.0532C134.993 17.0188 116.853 12.0639 101.175 5.32575C80.978 -3.35454 66.2083 -0.000595514 44.8788 5.32575C26.7281 9.85831 8.0341 8.63518 1.79542 26.2646Z" transform="translate(863.785 358.93) scale(1.00011 0.999894) rotate(35.9066)" fill="url(#paint14_linear)"/>
<path d="M1.79551 26.2634C-1.16803 34.637 0.0469145 40.2988 1.79551 49.0072C10.2969 91.3462 77.4913 85.8931 111.909 59.7865C122.484 51.7656 133.402 47.3007 134.101 34.0516C135 17.018 116.859 12.0633 101.18 5.3255C80.9819 -3.35438 66.2115 -0.000595485 44.881 5.3255C26.7294 9.85783 8.03449 8.63476 1.79551 26.2634Z" transform="matrix(0.928186 0.372118 -0.372269 0.928125 485.348 553.754)" fill="url(#paint15_linear)"/>
<path d="M246.687 47.1294C246.687 76.2123 189.681 100.218 116.729 103.128C43.7777 106.039 2.3369 89.3093 0 53.99C0 24.9071 55.2639 0 122.466 0C189.668 0 246.687 18.0465 246.687 47.1294Z" transform="translate(542.375 603.685) scale(1.00021 0.999795) rotate(36.9186)" fill="url(#paint16_linear)"/>
<path d="M1.79542 26.2646C-1.16797 34.6387 0.0469123 40.3007 1.79542 49.0096C10.2964 91.3507 77.4876 85.8972 111.904 59.7894C122.478 51.7681 133.396 47.303 134.095 34.0532C134.993 17.0188 116.853 12.0639 101.175 5.32575C80.978 -3.35454 66.2083 -0.000595514 44.8788 5.32575C26.7281 9.85831 8.0341 8.63518 1.79542 26.2646Z" transform="translate(356.932 571.593) scale(1.00011 0.999894) rotate(35.9066)" fill="url(#paint17_linear)"/>
<path d="M246.708 47.1254C246.708 76.2058 189.697 100.209 116.739 103.12C43.7814 106.03 2.3371 89.3018 0 53.9854C0 24.905 55.2686 0 122.476 0C189.684 0 246.708 18.0449 246.708 47.1254Z" transform="matrix(0.998673 0.0515011 -0.051726 0.998661 313.103 706.413)" fill="url(#paint18_linear)"/>
<path d="M1.79542 26.2646C-1.16797 34.6387 0.0469123 40.3007 1.79542 49.0096C10.2964 91.3507 77.4876 85.8972 111.904 59.7894C122.478 51.7681 133.396 47.303 134.095 34.0532C134.993 17.0188 116.853 12.0639 101.175 5.32575C80.978 -3.35454 66.2083 -0.000595514 44.8788 5.32575C26.7281 9.85831 8.0341 8.63518 1.79542 26.2646Z" transform="translate(282.576 581.53) scale(1.00011 0.999894) rotate(35.9066)" fill="url(#paint19_linear)"/>
<path d="M1.79551 26.2634C-1.16803 34.637 0.0469145 40.2988 1.79551 49.0072C10.2969 91.3462 77.4913 85.8931 111.909 59.7865C122.484 51.7656 133.402 47.3007 134.101 34.0516C135 17.018 116.859 12.0633 101.18 5.3255C80.9819 -3.35438 66.2115 -0.000595485 44.881 5.3255C26.7294 9.85783 8.03449 8.63476 1.79551 26.2634Z" transform="matrix(0.928186 0.372118 -0.372269 0.928125 200.757 912.722)" fill="url(#paint20_linear)"/>
<path d="M246.687 47.1294C246.687 76.2123 189.681 100.218 116.729 103.128C43.7777 106.039 2.3369 89.3093 0 53.99C0 24.9071 55.2639 0 122.466 0C189.668 0 246.687 18.0465 246.687 47.1294Z" transform="translate(257.784 962.653) scale(1.00021 0.999795) rotate(36.9186)" fill="url(#paint21_linear)"/>
<path d="M1.79542 26.2646C-1.16797 34.6387 0.0469123 40.3007 1.79542 49.0096C10.2964 91.3507 77.4876 85.8972 111.904 59.7894C122.478 51.7681 133.396 47.303 134.095 34.0532C134.993 17.0188 116.853 12.0639 101.175 5.32575C80.978 -3.35454 66.2083 -0.000595514 44.8788 5.32575C26.7281 9.85831 8.0341 8.63518 1.79542 26.2646Z" transform="translate(72.3403 930.561) scale(1.00011 0.999894) rotate(35.9066)" fill="url(#paint22_linear)"/>
<path d="M246.708 47.1254C246.708 76.2058 189.697 100.209 116.739 103.12C43.7814 106.03 2.3371 89.3018 0 53.9854C0 24.905 55.2686 0 122.476 0C189.684 0 246.708 18.0449 246.708 47.1254Z" transform="matrix(0.998673 0.0515011 -0.051726 0.998661 28.5117 1065.38)" fill="url(#paint23_linear)"/>
<path d="M1.79542 26.2646C-1.16797 34.6387 0.0469123 40.3007 1.79542 49.0096C10.2964 91.3507 77.4876 85.8972 111.904 59.7894C122.478 51.7681 133.396 47.303 134.095 34.0532C134.993 17.0188 116.853 12.0639 101.175 5.32575C80.978 -3.35454 66.2083 -0.000595514 44.8788 5.32575C26.7281 9.85831 8.0341 8.63518 1.79542 26.2646Z" transform="translate(-2.01514 940.498) scale(1.00011 0.999894) rotate(35.9066)" fill="url(#paint24_linear)"/>
<path d="M1.79551 26.2634C-1.16803 34.637 0.0469145 40.2988 1.79551 49.0072C10.2969 91.3462 77.4913 85.8931 111.909 59.7865C122.484 51.7656 133.402 47.3007 134.101 34.0516C135 17.018 116.859 12.0633 101.18 5.3255C80.9819 -3.35438 66.2115 -0.000595485 44.881 5.3255C26.7294 9.85783 8.03449 8.63476 1.79551 26.2634Z" transform="matrix(0.928186 0.372118 -0.372269 0.928125 1206.85 800.419)" fill="url(#paint25_linear)"/>
<path d="M246.687 47.1294C246.687 76.2123 189.681 100.218 116.729 103.128C43.7777 106.039 2.3369 89.3093 0 53.99C0 24.9071 55.2639 0 122.466 0C189.668 0 246.687 18.0465 246.687 47.1294Z" transform="translate(1263.88 850.351) scale(1.00021 0.999795) rotate(36.9186)" fill="url(#paint26_linear)"/>
<path d="M1.79542 26.2646C-1.16797 34.6387 0.0469123 40.3007 1.79542 49.0096C10.2964 91.3507 77.4876 85.8972 111.904 59.7894C122.478 51.7681 133.396 47.303 134.095 34.0532C134.993 17.0188 116.853 12.0639 101.175 5.32575C80.978 -3.35454 66.2083 -0.000595514 44.8788 5.32575C26.7281 9.85831 8.0341 8.63518 1.79542 26.2646Z" transform="translate(1078.43 818.258) scale(1.00011 0.999894) rotate(35.9066)" fill="url(#paint27_linear)"/>
<path d="M246.708 47.1254C246.708 76.2058 189.697 100.209 116.739 103.12C43.7814 106.03 2.3371 89.3018 0 53.9854C0 24.905 55.2686 0 122.476 0C189.684 0 246.708 18.0449 246.708 47.1254Z" transform="matrix(0.998673 0.0515011 -0.051726 0.998661 1034.6 953.079)" fill="url(#paint28_linear)"/>
<path d="M1.79542 26.2646C-1.16797 34.6387 0.0469123 40.3007 1.79542 49.0096C10.2964 91.3507 77.4876 85.8972 111.904 59.7894C122.478 51.7681 133.396 47.303 134.095 34.0532C134.993 17.0188 116.853 12.0639 101.175 5.32575C80.978 -3.35454 66.2083 -0.000595514 44.8788 5.32575C26.7281 9.85831 8.0341 8.63518 1.79542 26.2646Z" transform="translate(1004.08 828.195) scale(1.00011 0.999894) rotate(35.9066)" fill="url(#paint29_linear)"/>
</g>
</g>
<defs>
<linearGradient id="paint0_linear" x2="1" gradientUnits="userSpaceOnUse" gradientTransform="translate(134.133) scale(134.133 80.103) rotate(90)">
<stop stop-color="#FAF6D3"/>
<stop offset="1" stop-color="#F4EABB"/>
</linearGradient>
<linearGradient id="paint1_linear" x2="1" gradientUnits="userSpaceOnUse" gradientTransform="translate(246.687) scale(246.687 103.452) rotate(90)">
<stop stop-color="#FAF6D3"/>
<stop offset="1" stop-color="#BDBDBD"/>
</linearGradient>
<linearGradient id="paint2_linear" x2="1" gradientUnits="userSpaceOnUse" gradientTransform="translate(134.127) scale(134.127 80.1069) rotate(90)">
<stop stop-color="#BDBDBD"/>
<stop offset="1" stop-color="#828282"/>
</linearGradient>
<linearGradient id="paint3_linear" x2="1" gradientUnits="userSpaceOnUse" gradientTransform="translate(246.708) scale(246.708 103.444) rotate(90)">
<stop stop-color="#FAF6D3"/>
<stop offset="1" stop-color="#F4EABB"/>
</linearGradient>
<linearGradient id="paint4_linear" x2="1" gradientUnits="userSpaceOnUse" gradientTransform="translate(134.127) scale(134.127 80.1069) rotate(90)">
<stop stop-color="#FAF6D3"/>
<stop offset="1" stop-color="#BDBDBD"/>
</linearGradient>
<linearGradient id="paint5_linear" x2="1" gradientUnits="userSpaceOnUse" gradientTransform="translate(134.133) scale(134.133 80.103) rotate(90)">
<stop stop-color="#FAF6D3"/>
<stop offset="1" stop-color="#F4EABB"/>
</linearGradient>
<linearGradient id="paint6_linear" x2="1" gradientUnits="userSpaceOnUse" gradientTransform="translate(246.687) scale(246.687 103.452) rotate(90)">
<stop stop-color="#FAF6D3"/>
<stop offset="1" stop-color="#BDBDBD"/>
</linearGradient>
<linearGradient id="paint7_linear" x2="1" gradientUnits="userSpaceOnUse" gradientTransform="translate(134.127) scale(134.127 80.1069) rotate(90)">
<stop stop-color="#BDBDBD"/>
<stop offset="1" stop-color="#828282"/>
</linearGradient>
<linearGradient id="paint8_linear" x2="1" gradientUnits="userSpaceOnUse" gradientTransform="translate(246.708) scale(246.708 103.444) rotate(90)">
<stop stop-color="#FAF6D3"/>
<stop offset="1" stop-color="#F4EABB"/>
</linearGradient>
<linearGradient id="paint9_linear" x2="1" gradientUnits="userSpaceOnUse" gradientTransform="translate(134.127) scale(134.127 80.1069) rotate(90)">
<stop stop-color="#FAF6D3"/>
<stop offset="1" stop-color="#BDBDBD"/>
</linearGradient>
<linearGradient id="paint10_linear" x2="1" gradientUnits="userSpaceOnUse" gradientTransform="translate(134.133) scale(134.133 80.103) rotate(90)">
<stop stop-color="#FAF6D3"/>
<stop offset="1" stop-color="#F4EABB"/>
</linearGradient>
<linearGradient id="paint11_linear" x2="1" gradientUnits="userSpaceOnUse" gradientTransform="translate(246.687) scale(246.687 103.452) rotate(90)">
<stop stop-color="#FAF6D3"/>
<stop offset="1" stop-color="#BDBDBD"/>
</linearGradient>
<linearGradient id="paint12_linear" x2="1" gradientUnits="userSpaceOnUse" gradientTransform="translate(134.127) scale(134.127 80.1069) rotate(90)">
<stop stop-color="#BDBDBD"/>
<stop offset="1" stop-color="#828282"/>
</linearGradient>
<linearGradient id="paint13_linear" x2="1" gradientUnits="userSpaceOnUse" gradientTransform="translate(246.708) scale(246.708 103.444) rotate(90)">
<stop stop-color="#FAF6D3"/>
<stop offset="1" stop-color="#F4EABB"/>
</linearGradient>
<linearGradient id="paint14_linear" x2="1" gradientUnits="userSpaceOnUse" gradientTransform="translate(134.127) scale(134.127 80.1069) rotate(90)">
<stop stop-color="#FAF6D3"/>
<stop offset="1" stop-color="#BDBDBD"/>
</linearGradient>
<linearGradient id="paint15_linear" x2="1" gradientUnits="userSpaceOnUse" gradientTransform="translate(134.133) scale(134.133 80.103) rotate(90)">
<stop stop-color="#FAF6D3"/>
<stop offset="1" stop-color="#F4EABB"/>
</linearGradient>
<linearGradient id="paint16_linear" x2="1" gradientUnits="userSpaceOnUse" gradientTransform="translate(246.687) scale(246.687 103.452) rotate(90)">
<stop stop-color="#FAF6D3"/>
<stop offset="1" stop-color="#BDBDBD"/>
</linearGradient>
<linearGradient id="paint17_linear" x2="1" gradientUnits="userSpaceOnUse" gradientTransform="translate(134.127) scale(134.127 80.1069) rotate(90)">
<stop stop-color="#BDBDBD"/>
<stop offset="1" stop-color="#828282"/>
</linearGradient>
<linearGradient id="paint18_linear" x2="1" gradientUnits="userSpaceOnUse" gradientTransform="translate(246.708) scale(246.708 103.444) rotate(90)">
<stop stop-color="#FAF6D3"/>
<stop offset="1" stop-color="#F4EABB"/>
</linearGradient>
<linearGradient id="paint19_linear" x2="1" gradientUnits="userSpaceOnUse" gradientTransform="translate(134.127) scale(134.127 80.1069) rotate(90)">
<stop stop-color="#FAF6D3"/>
<stop offset="1" stop-color="#BDBDBD"/>
</linearGradient>
<linearGradient id="paint20_linear" x2="1" gradientUnits="userSpaceOnUse" gradientTransform="translate(134.133) scale(134.133 80.103) rotate(90)">
<stop stop-color="#FAF6D3"/>
<stop offset="1" stop-color="#F4EABB"/>
</linearGradient>
<linearGradient id="paint21_linear" x2="1" gradientUnits="userSpaceOnUse" gradientTransform="translate(246.687) scale(246.687 103.452) rotate(90)">
<stop stop-color="#FAF6D3"/>
<stop offset="1" stop-color="#BDBDBD"/>
</linearGradient>
<linearGradient id="paint22_linear" x2="1" gradientUnits="userSpaceOnUse" gradientTransform="translate(134.127) scale(134.127 80.1069) rotate(90)">
<stop stop-color="#BDBDBD"/>
<stop offset="1" stop-color="#828282"/>
</linearGradient>
<linearGradient id="paint23_linear" x2="1" gradientUnits="userSpaceOnUse" gradientTransform="translate(246.708) scale(246.708 103.444) rotate(90)">
<stop stop-color="#FAF6D3"/>
<stop offset="1" stop-color="#F4EABB"/>
</linearGradient>
<linearGradient id="paint24_linear" x2="1" gradientUnits="userSpaceOnUse" gradientTransform="translate(134.127) scale(134.127 80.1069) rotate(90)">
<stop stop-color="#FAF6D3"/>
<stop offset="1" stop-color="#BDBDBD"/>
</linearGradient>
<linearGradient id="paint25_linear" x2="1" gradientUnits="userSpaceOnUse" gradientTransform="translate(134.133) scale(134.133 80.103) rotate(90)">
<stop stop-color="#FAF6D3"/>
<stop offset="1" stop-color="#F4EABB"/>
</linearGradient>
<linearGradient id="paint26_linear" x2="1" gradientUnits="userSpaceOnUse" gradientTransform="translate(246.687) scale(246.687 103.452) rotate(90)">
<stop stop-color="#FAF6D3"/>
<stop offset="1" stop-color="#BDBDBD"/>
</linearGradient>
<linearGradient id="paint27_linear" x2="1" gradientUnits="userSpaceOnUse" gradientTransform="translate(134.127) scale(134.127 80.1069) rotate(90)">
<stop stop-color="#BDBDBD"/>
<stop offset="1" stop-color="#828282"/>
</linearGradient>
<linearGradient id="paint28_linear" x2="1" gradientUnits="userSpaceOnUse" gradientTransform="translate(246.708) scale(246.708 103.444) rotate(90)">
<stop stop-color="#FAF6D3"/>
<stop offset="1" stop-color="#F4EABB"/>
</linearGradient>
<linearGradient id="paint29_linear" x2="1" gradientUnits="userSpaceOnUse" gradientTransform="translate(134.127) scale(134.127 80.1069) rotate(90)">
<stop stop-color="#FAF6D3"/>
<stop offset="1" stop-color="#BDBDBD"/>
</linearGradient>
</defs>
</svg>
