<svg width="1443" height="1135" viewBox="0 0 1443 1135" fill="none" xmlns="http://www.w3.org/2000/svg">
<path d="M1443 1134.56V31.0309C1443 31.0309 1258.84 -15.879 1095.28 5.6544C896.262 31.8553 717.139 136.544 518.578 166.2C166.847 218.733 0 137.716 0 137.716V1068.88C0 1068.88 309.704 1134.56 481.501 1134.56C706.129 1134.56 812.027 1068.88 1036.66 1068.88C1203.76 1068.88 1443 1134.56 1443 1134.56Z" transform="translate(0 0.416626)" fill="#6B5795"/>
<mask id="mask0" mask-type="alpha" maskUnits="userSpaceOnUse" x="0" y="0" width="1443" height="1135">
<path d="M1443 1134.56V31.0309C1443 31.0309 1258.84 -15.879 1095.28 5.6544C896.262 31.8553 717.139 136.544 518.578 166.2C166.847 218.733 0 137.716 0 137.716V1068.88C0 1068.88 309.704 1134.56 481.501 1134.56C706.129 1134.56 812.027 1068.88 1036.66 1068.88C1203.76 1068.88 1443 1134.56 1443 1134.56Z" transform="translate(0 0.416626)" fill="#6B5795"/>
</mask>
<g mask="url(#mask0)">
<g opacity="0.5">
<path d="M36.3698 102.5L0 89.2745L49.5951 0L99.1903 6.61292L85.9649 72.7421L36.3698 102.5Z" transform="translate(162.865 199.785) scale(0.999692 1.00031) rotate(43.3517)" fill="#988CB3"/>
<path d="M49.5951 13.2258L26.4507 211.613L0 205.001L13.2254 0L49.5951 13.2258Z" transform="translate(91.9868 255.637) scale(0.999692 1.00031) rotate(43.3517)" fill="#7F6EA2"/>
<path d="M0 228.146L69.4332 277.743L99.1903 36.3711L72.7395 0L23.1444 29.7582L0 228.146Z" transform="translate(122.559 261.776) scale(0.999692 1.00031) rotate(43.3517)" fill="#8E80AC"/>
<path d="M69.4332 85.968L13.2254 0L0 66.1292L26.4507 102.5L69.4332 85.968Z" transform="translate(220.818 263.629) scale(0.999692 1.00031) rotate(43.3517)" fill="#9D91B6"/>
<path d="M23.1447 281.049L0 257.904L29.7571 16.5323L72.7396 0L48.5622 257.239L23.1447 281.049Z" transform="translate(159.417 323.885) scale(0.999692 1.00031) rotate(43.3517)" fill="#77659D"/>
<path d="M13.2254 59.5163L6.61269 0L0 264.517L13.2254 59.5163Z" transform="translate(132.83 212.349) scale(0.999692 1.00031) rotate(43.3517)" fill="#6B5795"/>
<path d="M55.8979 49.3512V0L0 79.1094L6.61269 138.626L55.8979 49.3512Z" transform="translate(191.927 159.348) scale(0.999692 1.00031) rotate(43.3517)" fill="#B4ACC5"/>
<path d="M69.4332 26.4517L49.5951 62.8228L0 56.2098V6.61292L13.1221 0L69.4332 26.4517Z" transform="translate(237.492 192.958) scale(0.999692 1.00031) rotate(43.3517)" fill="#C0BACD"/>
<path d="M54.8646 76.4274L56.2078 122.339L0 36.3711L19.8381 0L54.8646 76.4274Z" transform="translate(255.392 246.257) scale(0.999692 1.00031) rotate(43.3517)" fill="#6B5795"/>
<path d="M36.3698 102.5L0 89.2745L49.5951 0L99.1903 6.61292L85.9649 72.7421L36.3698 102.5Z" transform="translate(372.301 709.159) scale(0.999692 1.00031) rotate(43.3517)" fill="#988CB3"/>
<path d="M49.5951 13.2258L26.4507 211.613L0 205.001L13.2254 0L49.5951 13.2258Z" transform="translate(301.422 765.01) scale(0.999692 1.00031) rotate(43.3517)" fill="#7F6EA2"/>
<path d="M0 228.146L69.4332 277.743L99.1903 36.3711L72.7395 0L23.1444 29.7582L0 228.146Z" transform="translate(331.994 771.149) scale(0.999692 1.00031) rotate(43.3517)" fill="#8E80AC"/>
<path d="M69.4332 85.968L13.2254 0L0 66.1292L26.4507 102.5L69.4332 85.968Z" transform="translate(430.253 773.002) scale(0.999692 1.00031) rotate(43.3517)" fill="#9D91B6"/>
<path d="M23.1447 281.049L0 257.904L29.7571 16.5323L72.7396 0L48.5622 257.239L23.1447 281.049Z" transform="translate(368.853 833.259) scale(0.999692 1.00031) rotate(43.3517)" fill="#77659D"/>
<path d="M41.0193 69.2617L0 16.5323V0L26.4507 6.61292L95.884 56.2098L119.028 79.3551L94.7474 92.5809L41.0193 69.2617Z" transform="translate(160.737 914.119) scale(0.999692 1.00031) rotate(43.3517)" fill="#6B5795"/>
<path d="M13.2254 59.5163L6.61269 0L0 264.517L13.2254 59.5163Z" transform="translate(342.265 721.722) scale(0.999692 1.00031) rotate(43.3517)" fill="#6B5795"/>
<path d="M55.8979 49.3512V0L0 79.1094L6.61269 138.626L55.8979 49.3512Z" transform="translate(401.363 668.722) scale(0.999692 1.00031) rotate(43.3517)" fill="#B4ACC5"/>
<path d="M69.4332 26.4517L49.5951 62.8228L0 56.2098V6.61292L13.1221 0L69.4332 26.4517Z" transform="translate(446.928 702.332) scale(0.999692 1.00031) rotate(43.3517)" fill="#C0BACD"/>
<path d="M54.8646 76.4274L56.2078 122.339L0 36.3711L19.8381 0L54.8646 76.4274Z" transform="translate(464.827 755.63) scale(0.999692 1.00031) rotate(43.3517)" fill="#6B5795"/>
<path d="M36.3698 102.5L0 89.2745L49.5951 0L99.1903 6.61292L85.9649 72.7421L36.3698 102.5Z" transform="translate(716.015 944.794) scale(0.999692 1.00031) rotate(43.3517)" fill="#988CB3"/>
<path d="M49.5951 13.2258L26.4507 211.613L0 205.001L13.2254 0L49.5951 13.2258Z" transform="translate(645.137 1000.64) scale(0.999692 1.00031) rotate(43.3517)" fill="#7F6EA2"/>
<path d="M0 228.146L69.4332 277.743L99.1903 36.3711L72.7395 0L23.1444 29.7582L0 228.146Z" transform="translate(675.708 1006.78) scale(0.999692 1.00031) rotate(43.3517)" fill="#8E80AC"/>
<path d="M69.4332 85.968L13.2254 0L0 66.1292L26.4507 102.5L69.4332 85.968Z" transform="translate(773.968 1008.64) scale(0.999692 1.00031) rotate(43.3517)" fill="#9D91B6"/>
<path d="M23.1447 281.049L0 257.904L29.7571 16.5323L72.7396 0L48.5622 257.239L23.1447 281.049Z" transform="translate(712.567 1068.89) scale(0.999692 1.00031) rotate(43.3517)" fill="#77659D"/>
<path d="M13.2254 59.5163L6.61269 0L0 264.517L13.2254 59.5163Z" transform="translate(685.98 957.357) scale(0.999692 1.00031) rotate(43.3517)" fill="#6B5795"/>
<path d="M55.8979 49.3512V0L0 79.1094L6.61269 138.626L55.8979 49.3512Z" transform="translate(745.077 904.356) scale(0.999692 1.00031) rotate(43.3517)" fill="#B4ACC5"/>
<path d="M69.4332 26.4517L49.5951 62.8228L0 56.2098V6.61292L13.1221 0L69.4332 26.4517Z" transform="translate(790.642 937.966) scale(0.999692 1.00031) rotate(43.3517)" fill="#C0BACD"/>
<path d="M54.8646 76.4274L56.2078 122.339L0 36.3711L19.8381 0L54.8646 76.4274Z" transform="translate(808.542 991.264) scale(0.999692 1.00031) rotate(43.3517)" fill="#6B5795"/>
<path d="M36.3698 102.5L0 89.2745L49.5951 0L99.1903 6.61292L85.9649 72.7421L36.3698 102.5Z" transform="translate(1363.36 880.621) scale(0.999692 1.00031) rotate(43.3517)" fill="#988CB3"/>
<path d="M49.5951 13.2258L26.4507 211.613L0 205.001L13.2254 0L49.5951 13.2258Z" transform="translate(1292.48 936.472) scale(0.999692 1.00031) rotate(43.3517)" fill="#7F6EA2"/>
<path d="M0 228.146L69.4332 277.743L99.1903 36.3711L72.7395 0L23.1444 29.7582L0 228.146Z" transform="translate(1323.05 942.611) scale(0.999692 1.00031) rotate(43.3517)" fill="#8E80AC"/>
<path d="M69.4332 85.968L13.2254 0L0 66.1292L26.4507 102.5L69.4332 85.968Z" transform="translate(1421.31 944.464) scale(0.999692 1.00031) rotate(43.3517)" fill="#9D91B6"/>
<path d="M23.1447 281.049L0 257.904L29.7571 16.5323L72.7396 0L48.5622 257.239L23.1447 281.049Z" transform="translate(1359.91 1004.72) scale(0.999692 1.00031) rotate(43.3517)" fill="#77659D"/>
<path d="M41.0193 69.2617L0 16.5323V0L26.4507 6.61292L95.884 56.2098L119.028 79.3551L94.7474 92.5809L41.0193 69.2617Z" transform="translate(1151.8 1085.58) scale(0.999692 1.00031) rotate(43.3517)" fill="#6B5795"/>
<path d="M13.2254 59.5163L6.61269 0L0 264.517L13.2254 59.5163Z" transform="translate(1333.33 893.184) scale(0.999692 1.00031) rotate(43.3517)" fill="#6B5795"/>
<path d="M55.8979 49.3512V0L0 79.1094L6.61269 138.626L55.8979 49.3512Z" transform="translate(1392.42 840.184) scale(0.999692 1.00031) rotate(43.3517)" fill="#B4ACC5"/>
<path d="M69.4332 26.4517L49.5951 62.8228L0 56.2098V6.61292L13.1221 0L69.4332 26.4517Z" transform="translate(1437.99 873.794) scale(0.999692 1.00031) rotate(43.3517)" fill="#C0BACD"/>
<path d="M54.8646 76.4274L56.2078 122.339L0 36.3711L19.8381 0L54.8646 76.4274Z" transform="translate(1455.89 927.092) scale(0.999692 1.00031) rotate(43.3517)" fill="#6B5795"/>
<path d="M36.3698 102.5L0 89.2745L49.5951 0L99.1903 6.61292L85.9649 72.7421L36.3698 102.5Z" transform="translate(1180.98 101.521) scale(0.999692 1.00031) rotate(43.3517)" fill="#988CB3"/>
<path d="M49.5951 13.2258L26.4507 211.613L0 205.001L13.2254 0L49.5951 13.2258Z" transform="translate(1110.1 157.372) scale(0.999692 1.00031) rotate(43.3517)" fill="#7F6EA2"/>
<path d="M0 228.146L69.4332 277.743L99.1903 36.3711L72.7395 0L23.1444 29.7582L0 228.146Z" transform="translate(1140.68 163.511) scale(0.999692 1.00031) rotate(43.3517)" fill="#8E80AC"/>
<path d="M69.4332 85.968L13.2254 0L0 66.1292L26.4507 102.5L69.4332 85.968Z" transform="translate(1238.93 165.364) scale(0.999692 1.00031) rotate(43.3517)" fill="#9D91B6"/>
<path d="M23.1447 281.049L0 257.904L29.7571 16.5323L72.7396 0L48.5622 257.239L23.1447 281.049Z" transform="translate(1177.53 225.62) scale(0.999692 1.00031) rotate(43.3517)" fill="#77659D"/>
<path d="M41.0193 69.2617L0 16.5323V0L26.4507 6.61292L95.884 56.2098L119.028 79.3551L94.7474 92.5809L41.0193 69.2617Z" transform="translate(969.419 306.48) scale(0.999692 1.00031) rotate(43.3517)" fill="#6B5795"/>
<path d="M13.2254 59.5163L6.61269 0L0 264.517L13.2254 59.5163Z" transform="translate(1150.95 114.084) scale(0.999692 1.00031) rotate(43.3517)" fill="#6B5795"/>
<path d="M55.8979 49.3512V0L0 79.1094L6.61269 138.626L55.8979 49.3512Z" transform="translate(1210.04 61.0836) scale(0.999692 1.00031) rotate(43.3517)" fill="#B4ACC5"/>
<path d="M69.4332 26.4517L49.5951 62.8228L0 56.2098V6.61292L13.1221 0L69.4332 26.4517Z" transform="translate(1255.61 94.6936) scale(0.999692 1.00031) rotate(43.3517)" fill="#C0BACD"/>
<path d="M54.8646 76.4274L56.2078 122.339L0 36.3711L19.8381 0L54.8646 76.4274Z" transform="translate(1273.51 147.992) scale(0.999692 1.00031) rotate(43.3517)" fill="#6B5795"/>
<path d="M36.3698 102.5L0 89.2745L49.5951 0L99.1903 6.61292L85.9649 72.7421L36.3698 102.5Z" transform="translate(813.218 -18.8075) scale(0.999692 1.00031) rotate(43.3517)" fill="#988CB3"/>
<path d="M49.5951 13.2258L26.4507 211.613L0 205.001L13.2254 0L49.5951 13.2258Z" transform="translate(742.339 37.0442) scale(0.999692 1.00031) rotate(43.3517)" fill="#7F6EA2"/>
<path d="M0 228.146L69.4332 277.743L99.1903 36.3711L72.7395 0L23.1444 29.7582L0 228.146Z" transform="translate(772.911 43.1831) scale(0.999692 1.00031) rotate(43.3517)" fill="#8E80AC"/>
<path d="M69.4332 85.968L13.2254 0L0 66.1292L26.4507 102.5L69.4332 85.968Z" transform="translate(871.17 45.0355) scale(0.999692 1.00031) rotate(43.3517)" fill="#9D91B6"/>
<path d="M23.1447 281.049L0 257.904L29.7571 16.5323L72.7396 0L48.5622 257.239L23.1447 281.049Z" transform="translate(809.77 105.293) scale(0.999692 1.00031) rotate(43.3517)" fill="#77659D"/>
<path d="M41.0193 69.2617L0 16.5323V0L26.4507 6.61292L95.884 56.2098L119.028 79.3551L94.7474 92.5809L41.0193 69.2617Z" transform="translate(601.654 186.152) scale(0.999692 1.00031) rotate(43.3517)" fill="#6B5795"/>
<path d="M13.2254 59.5163L6.61269 0L0 264.517L13.2254 59.5163Z" transform="translate(783.182 -6.24426) scale(0.999692 1.00031) rotate(43.3517)" fill="#6B5795"/>
<path d="M55.8979 49.3512V0L0 79.1094L6.61269 138.626L55.8979 49.3512Z" transform="translate(842.28 -59.2445) scale(0.999692 1.00031) rotate(43.3517)" fill="#B4ACC5"/>
<path d="M69.4332 26.4517L49.5951 62.8228L0 56.2098V6.61292L13.1221 0L69.4332 26.4517Z" transform="translate(887.845 -25.6344) scale(0.999692 1.00031) rotate(43.3517)" fill="#C0BACD"/>
<path d="M54.8646 76.4274L56.2078 122.339L0 36.3711L19.8381 0L54.8646 76.4274Z" transform="translate(905.744 27.6637) scale(0.999692 1.00031) rotate(43.3517)" fill="#6B5795"/>
</g>
</g>
</svg>
