<svg width="1440" height="1315" viewBox="0 0 1440 1315" fill="none" xmlns="http://www.w3.org/2000/svg">
<g clip-path="url(#clip0)">
<rect width="1440" height="1315" fill="white"/>
<rect width="1440" height="1315" fill="#6B5795"/>
<g opacity="0.5">
<path fill-rule="evenodd" clip-rule="evenodd" d="M44.0005 0.000360778L34.9996 0.000284605C15.6696 0.000232586 -0.000793679 15.6707 3.01497e-08 35.0002L1.48419e-05 172C0.000808551 191.33 15.6696 207 34.9995 207L190 207C209.33 207 225.001 191.33 225 172L225 35.0004C225.001 15.6699 209.33 0.000116712 190 6.46934e-05L186.75 0L186.75 34C186.751 40.627 181.378 45.9998 174.75 46.0003L138.751 45.9998C132.123 45.9999 126.75 40.6277 126.751 33.9997L126.751 0.000129967L104 0.000230812L104 34.0002C104.001 40.6272 98.6275 46 91.9996 46.0006L56.0006 46C49.3724 46.0001 43.9997 40.6279 44.0002 33.9999L44.0005 0.000360778ZM27.0001 59.0002C21.4771 59.0005 17.0005 63.4773 17.0002 69.0001L17.0002 169C16.9997 180.046 25.9539 189.001 37.0002 189L188 189.001C199.046 189 208.001 180.046 208 169L208 69.0004C208 63.4776 203.523 59.0002 198 59.0005L27.0001 59.0002Z" transform="translate(120.5 196.588) rotate(30)" fill="#8373A5"/>
<rect width="41" height="41" rx="10" transform="translate(111.445 280.272) rotate(30)" fill="#9588B0"/>
<rect width="41" height="41" rx="10" transform="translate(161.674 309.272) rotate(30)" fill="#9588B0"/>
<rect width="41" height="41" rx="10" transform="translate(211.904 338.272) rotate(30)" fill="#9588B0"/>
<rect width="41" height="41" rx="10" transform="translate(81.9453 331.368) rotate(30)" fill="#9588B0"/>
<rect width="41" height="41" rx="10" transform="translate(132.174 360.368) rotate(30)" fill="#9588B0"/>
<rect width="41" height="41" rx="10" transform="translate(182.404 389.368) rotate(30)" fill="#9588B0"/>
<rect width="33" height="51" rx="12" transform="translate(178.863 209.5) rotate(30)" fill="#705D98"/>
<rect width="33" height="51" rx="12" transform="translate(250.744 251) rotate(30)" fill="#705D98"/>
<path fill-rule="evenodd" clip-rule="evenodd" d="M44.0005 0L34.9999 0.00034669C15.6699 0.000294671 -0.000793679 15.6704 3.01493e-08 34.9999L1.48419e-05 172C0.000808551 191.329 15.67 207.001 35 207.001L190 207C209.33 207 225.001 191.33 225 172L225 35C225.001 15.6695 209.33 0.000178798 190 0.000126779L186.748 0.00019292L186.748 34.0006C186.749 40.6272 181.376 46.0004 174.748 46.001L138.749 46.0004C132.121 46.001 126.748 40.6279 126.749 34.0003L126.749 0.000745751L104 0.000292897L104 33.9998C104.001 40.6264 98.6275 45.9996 91.9996 46.0002L56.0006 45.9996C49.3727 46.0002 43.9994 40.6271 44.0002 33.9995L44.0005 0ZM26.9999 58.9994C21.4767 58.9993 17 63.4761 16.9999 68.9993L16.9999 168.999C16.9997 180.046 25.9537 189 36.9997 188.999L187.999 188.999C199.046 189 208.001 180.045 207.999 169L207.999 68.9997C207.999 63.4764 203.523 58.9998 197.999 58.9997L26.9999 58.9994Z" transform="translate(14.5 652.589) rotate(30)" fill="#8373A5"/>
<rect width="41" height="41" rx="10" transform="translate(5.44531 736.272) rotate(30)" fill="#9588B0"/>
<rect width="41" height="41" rx="10" transform="translate(55.6738 765.272) rotate(30)" fill="#9588B0"/>
<rect width="41" height="41" rx="10" transform="translate(105.904 794.272) rotate(30)" fill="#9588B0"/>
<rect width="41" height="41" rx="10" transform="translate(-24.0547 787.368) rotate(30)" fill="#9588B0"/>
<rect width="41" height="41" rx="10" transform="translate(26.1738 816.368) rotate(30)" fill="#9588B0"/>
<rect width="41" height="41" rx="10" transform="translate(76.4043 845.368) rotate(30)" fill="#9588B0"/>
<rect width="33" height="51" rx="12" transform="translate(72.8633 665.5) rotate(30)" fill="#705D98"/>
<rect width="33" height="51" rx="12" transform="translate(144.744 707) rotate(30)" fill="#705D98"/>
<path fill-rule="evenodd" clip-rule="evenodd" d="M44.0002 0.000296085L34.9996 0.000642775C15.6696 0.000590756 -0.000793679 15.6711 3.01497e-08 35.0006L1.48419e-05 172.001C0.000808551 191.33 15.6696 207 34.9995 207L190 207C209.33 207 225.001 191.33 225 172.001L225 35.0007C225.001 15.6702 209.33 5.2019e-05 190 0L186.748 6.61412e-05L186.748 34.0013C186.749 40.6279 181.376 46.0011 174.748 46.0017L138.749 46.0011C132.121 46.0017 126.748 40.6286 126.749 34.001L126.749 0.000618972L103.999 0.000166118L104 34.0006C104.001 40.6271 98.6275 46.0004 91.9996 46.0009L56.0006 46.0004C49.3727 46.0009 43.9994 40.6278 44.0002 34.0003L44.0002 0.000296085ZM26.9999 59.0002C21.4767 59 17 63.4768 16.9999 69L16.9999 169C16.9997 180.046 25.9537 189.001 36.9997 189L187.999 189C199.046 189 208.001 180.046 207.999 169L207.999 69.0004C207.999 63.4771 203.523 59.0005 197.999 59.0004L26.9999 59.0002Z" transform="translate(504.5 506.588) rotate(30)" fill="#8373A5"/>
<rect width="41" height="41" rx="10" transform="translate(495.445 590.272) rotate(30)" fill="#9588B0"/>
<rect width="41" height="41" rx="10" transform="translate(545.674 619.272) rotate(30)" fill="#9588B0"/>
<rect width="41" height="41" rx="10" transform="translate(595.904 648.272) rotate(30)" fill="#9588B0"/>
<rect width="41" height="41" rx="10" transform="translate(465.945 641.368) rotate(30)" fill="#9588B0"/>
<rect width="41" height="41" rx="10" transform="translate(516.174 670.368) rotate(30)" fill="#9588B0"/>
<rect width="41" height="41" rx="10" transform="translate(566.404 699.368) rotate(30)" fill="#9588B0"/>
<rect width="33" height="51" rx="12" transform="translate(562.863 519.5) rotate(30)" fill="#705D98"/>
<rect width="33" height="51" rx="12" transform="translate(634.742 561) rotate(30)" fill="#705D98"/>
<path fill-rule="evenodd" clip-rule="evenodd" d="M44.0005 0L34.9999 0.00034669C15.6699 0.000294671 -0.000793679 15.6704 3.01493e-08 34.9999L1.48419e-05 172C0.000808551 191.329 15.67 207.001 35 207.001L190 207C209.33 207 225.001 191.33 225 172L225 35C225.001 15.6695 209.33 0.000178798 190 0.000126779L186.748 0.00019292L186.749 34.0014C186.75 40.628 181.377 46.0012 174.749 46.0018L138.75 46.0012C132.122 46.0018 126.749 40.6287 126.749 34.0011L126.749 0.000745751L104 0.000292897L104 34.0007C104.001 40.6273 98.628 46.0005 92.0001 46.0011L56.0011 46.0005C49.3731 46.0011 43.9999 40.628 44.0007 34.0004L44.0005 0ZM27.0004 59.0003C21.4771 59.0002 17.0005 63.4769 17.0004 69.0002L17.0004 169C17.0002 180.047 25.9542 189.001 37.0002 189L188 189C199.046 189 208.001 180.046 208 169.001L208 69.0005C208 63.4773 203.523 59.0007 198 59.0005L27.0004 59.0003Z" transform="translate(907.5 916.588) rotate(30)" fill="#8373A5"/>
<rect width="41" height="41" rx="10" transform="translate(898.445 1000.27) rotate(30)" fill="#9588B0"/>
<rect width="41" height="41" rx="10" transform="translate(948.674 1029.27) rotate(30)" fill="#9588B0"/>
<rect width="41" height="41" rx="10" transform="translate(998.904 1058.27) rotate(30)" fill="#9588B0"/>
<rect width="41" height="41" rx="10" transform="translate(868.945 1051.37) rotate(30)" fill="#9588B0"/>
<rect width="41" height="41" rx="10" transform="translate(919.174 1080.37) rotate(30)" fill="#9588B0"/>
<rect width="41" height="41" rx="10" transform="translate(969.404 1109.37) rotate(30)" fill="#9588B0"/>
<rect width="33" height="51" rx="12" transform="translate(965.863 929.5) rotate(30)" fill="#705D98"/>
<rect width="33" height="51" rx="12" transform="translate(1037.74 971) rotate(30)" fill="#705D98"/>
<path fill-rule="evenodd" clip-rule="evenodd" d="M43.9983 0.000426919L34.9996 0.000219911C15.6696 0.000167892 -0.000793679 15.6707 3.01497e-08 35.0002L1.48419e-05 172C0.000808551 191.33 15.6696 207 34.9995 207L190 207C209.33 207 225.001 191.33 225 172L225 35.0003C225.001 15.6698 209.33 5.2019e-05 190 0L186.748 6.61412e-05L186.748 34.0009C186.75 40.6279 181.376 46.0007 174.748 46.0013L138.749 46.0007C132.121 46.0008 126.748 40.6286 126.749 34.0006L126.749 0.000196108L103.998 0.000296953L103.998 34.0011C103.999 40.6281 98.6258 46.0009 91.9979 46.0015L55.9989 46.0009C49.3707 46.0011 43.998 40.6288 43.9985 34.0008L43.9983 0.000426919ZM26.9999 58.9997C21.4769 59 17.0003 63.4768 16.9999 68.9996L16.9999 169C16.9995 180.046 25.9537 189 36.9999 189L188 189C199.046 188.999 208.001 180.045 207.999 169L207.999 69C208 63.4771 203.522 58.9997 197.999 59L26.9999 58.9997Z" transform="translate(934.5 190.588) rotate(30)" fill="#8373A5"/>
<rect width="41" height="41" rx="10" transform="translate(925.445 274.272) rotate(30)" fill="#9588B0"/>
<rect width="41" height="41" rx="10" transform="translate(975.674 303.272) rotate(30)" fill="#9588B0"/>
<rect width="41" height="41" rx="10" transform="translate(1025.9 332.272) rotate(30)" fill="#9588B0"/>
<rect width="41" height="41" rx="10" transform="translate(895.945 325.368) rotate(30)" fill="#9588B0"/>
<rect width="41" height="41" rx="10" transform="translate(946.174 354.368) rotate(30)" fill="#9588B0"/>
<rect width="41" height="41" rx="10" transform="translate(996.404 383.368) rotate(30)" fill="#9588B0"/>
<rect width="33" height="51" rx="12" transform="translate(992.863 203.5) rotate(30)" fill="#705D98"/>
<rect width="33" height="51" rx="12" transform="translate(1064.74 245) rotate(30)" fill="#705D98"/>
<path fill-rule="evenodd" clip-rule="evenodd" d="M44.0002 0.000296085L34.9996 0.000642775C15.6696 0.000590756 -0.000793679 15.6711 3.01497e-08 35.0006L1.48419e-05 172.001C0.000808551 191.33 15.6696 207 34.9995 207L190 207C209.33 207 225.001 191.33 225 172.001L225 35.0007C225.001 15.6702 209.33 5.2019e-05 190 0L186.748 6.61412e-05L186.748 34.0013C186.749 40.6279 181.376 46.0011 174.748 46.0017L138.749 46.0011C132.121 46.0017 126.748 40.6286 126.749 34.001L126.749 0.000618972L103.999 0.000166118L104 34.0006C104.001 40.6271 98.6275 46.0004 91.9996 46.0009L56.0006 46.0004C49.3727 46.0009 43.9994 40.6278 44.0002 34.0003L44.0002 0.000296085ZM26.9999 59.0002C21.4767 59 17 63.4768 16.9999 69L16.9999 169C16.9997 180.046 25.9537 189.001 36.9997 189L187.999 189C199.046 189 208.001 180.046 207.999 169L207.999 69.0004C207.999 63.4771 203.523 59.0005 197.999 59.0004L26.9999 59.0002Z" transform="translate(1232.5 516.588) rotate(30)" fill="#8373A5"/>
<rect width="41" height="41" rx="10" transform="translate(1223.45 600.272) rotate(30)" fill="#9588B0"/>
<rect width="41" height="41" rx="10" transform="translate(1273.67 629.272) rotate(30)" fill="#9588B0"/>
<rect width="41" height="41" rx="10" transform="translate(1323.9 658.272) rotate(30)" fill="#9588B0"/>
<rect width="41" height="41" rx="10" transform="translate(1193.95 651.368) rotate(30)" fill="#9588B0"/>
<rect width="41" height="41" rx="10" transform="translate(1244.17 680.368) rotate(30)" fill="#9588B0"/>
<rect width="41" height="41" rx="10" transform="translate(1294.4 709.368) rotate(30)" fill="#9588B0"/>
<rect width="33" height="51" rx="12" transform="translate(1290.86 529.5) rotate(30)" fill="#705D98"/>
<rect width="33" height="51" rx="12" transform="translate(1362.74 571) rotate(30)" fill="#705D98"/>
<path fill-rule="evenodd" clip-rule="evenodd" d="M44.0005 0L34.9999 0.00034669C15.6699 0.000294671 -0.000793679 15.6704 3.01493e-08 34.9999L1.48419e-05 172C0.000808551 191.329 15.67 207.001 35 207.001L190 207C209.33 207 225.001 191.33 225 172L225 35C225.001 15.6695 209.33 0.000178798 190 0.000126779L186.75 6.20857e-05L186.751 34.0005C186.752 40.627 181.378 46.0003 174.75 46.0008L138.751 46.0003C132.124 46.0008 126.75 40.6277 126.751 34.0002L126.751 0.000614916L104 0.000292897L104 34.0007C104.001 40.6273 98.628 46.0005 92.0001 46.0011L56.0011 46.0005C49.3731 46.0011 43.9999 40.628 44.0007 34.0004L44.0005 0ZM27.0004 59.0003C21.4771 59.0002 17.0005 63.4769 17.0004 69.0002L17.0004 169C17.0002 180.047 25.9542 189.001 37.0002 189L188 189C199.046 189 208.001 180.046 208 169.001L208 69.0005C208 63.4773 203.523 59.0007 198 59.0005L27.0004 59.0003Z" transform="translate(338.5 981.588) rotate(30)" fill="#8373A5"/>
<rect width="41" height="41" rx="10" transform="translate(329.445 1065.27) rotate(30)" fill="#9588B0"/>
<rect width="41" height="41" rx="10" transform="translate(379.674 1094.27) rotate(30)" fill="#9588B0"/>
<rect width="41" height="41" rx="10" transform="translate(429.904 1123.27) rotate(30)" fill="#9588B0"/>
<rect width="41" height="41" rx="10" transform="translate(299.945 1116.37) rotate(30)" fill="#9588B0"/>
<rect width="41" height="41" rx="10" transform="translate(350.174 1145.37) rotate(30)" fill="#9588B0"/>
<rect width="41" height="41" rx="10" transform="translate(400.404 1174.37) rotate(30)" fill="#9588B0"/>
<rect width="33" height="51" rx="12" transform="translate(396.863 994.5) rotate(30)" fill="#705D98"/>
<rect width="33" height="51" rx="12" transform="translate(468.744 1036) rotate(30)" fill="#705D98"/>
<path fill-rule="evenodd" clip-rule="evenodd" d="M44.0002 0L34.9996 0.00034669C15.6696 0.000294671 -0.000793679 15.6708 3.01497e-08 35.0003L1.48419e-05 172C0.000808551 191.33 15.6696 207 34.9995 207L190 207C209.33 207 225.001 191.33 225 172L225 35.0004C225.001 15.6699 209.33 0.000178798 190 0.000126779L186.75 6.20857e-05L186.75 33.9996C186.751 40.6266 181.378 45.9994 174.75 46L138.751 45.9994C132.123 45.9996 126.75 40.6273 126.75 33.9993L126.751 0.000192052L104 0.000292897L103.999 33.9998C104.001 40.6269 98.6273 45.9996 91.9994 46.0002L56.0003 45.9996C49.3722 45.9998 43.9994 40.6275 44 33.9995L44.0002 0ZM26.9999 58.9999C21.4769 59.0002 17.0003 63.4769 16.9999 68.9997L16.9999 169C16.9995 180.046 25.9537 189 36.9999 189L188 189C199.046 189 208.001 180.045 207.999 169L207.999 69.0001C208 63.4773 203.522 58.9998 197.999 59.0001L26.9999 58.9999Z" transform="translate(600.5 -45.4116) rotate(30)" fill="#8373A5"/>
<rect width="41" height="41" rx="10" transform="translate(591.445 38.2725) rotate(30)" fill="#9588B0"/>
<rect width="41" height="41" rx="10" transform="translate(641.674 67.2725) rotate(30)" fill="#9588B0"/>
<rect width="41" height="41" rx="10" transform="translate(691.904 96.2725) rotate(30)" fill="#9588B0"/>
<rect width="41" height="41" rx="10" transform="translate(561.945 89.3682) rotate(30)" fill="#9588B0"/>
<rect width="41" height="41" rx="10" transform="translate(612.174 118.368) rotate(30)" fill="#9588B0"/>
<rect width="41" height="41" rx="10" transform="translate(662.404 147.368) rotate(30)" fill="#9588B0"/>
<rect width="33" height="51" rx="12" transform="translate(658.863 -32.5) rotate(30)" fill="#705D98"/>
<rect width="33" height="51" rx="12" transform="translate(730.744 9) rotate(30)" fill="#705D98"/>
<path fill-rule="evenodd" clip-rule="evenodd" d="M44.0005 0.000296085L34.9996 0.000219911C15.6696 0.000167892 -0.000793679 15.6707 3.01497e-08 35.0002L1.48419e-05 172C0.000808551 191.33 15.6696 207 34.9995 207L190 207C209.33 207 225.001 191.33 225 172L225 35.0003C225.001 15.6698 209.33 5.2019e-05 190 0L186.748 6.61412e-05L186.748 34.0009C186.75 40.6279 181.376 46.0007 174.748 46.0013L138.749 46.0007C132.121 46.0008 126.748 40.6286 126.749 34.0006L126.749 0.000196108L104 0.000166118L104 34.0001C104.001 40.6271 98.6275 45.9999 91.9996 46.0005L56.0006 45.9999C49.3724 46.0001 43.9997 40.6278 44.0002 33.9998L44.0005 0.000296085ZM26.9999 58.9997C21.4769 59 17.0003 63.4768 16.9999 68.9996L16.9999 169C16.9995 180.046 25.9537 189 36.9999 189L188 189C199.046 188.999 208.001 180.045 207.999 169L207.999 69C208 63.4771 203.522 58.9997 197.999 59L26.9999 58.9997Z" transform="translate(1370.5 -45.4116) rotate(30)" fill="#8373A5"/>
<rect width="41" height="41" rx="10" transform="translate(1361.45 38.2725) rotate(30)" fill="#9588B0"/>
<rect width="41" height="41" rx="10" transform="translate(1411.67 67.2725) rotate(30)" fill="#9588B0"/>
<rect width="41" height="41" rx="10" transform="translate(1331.95 89.3682) rotate(30)" fill="#9588B0"/>
<rect width="41" height="41" rx="10" transform="translate(1382.17 118.368) rotate(30)" fill="#9588B0"/>
<rect width="41" height="41" rx="10" transform="translate(1432.4 147.368) rotate(30)" fill="#9588B0"/>
<rect width="33" height="51" rx="12" transform="translate(1428.86 -32.5) rotate(30)" fill="#705D98"/>
</g>
</g>
<defs>
<clipPath id="clip0">
<rect width="1440" height="1315" fill="white"/>
</clipPath>
</defs>
</svg>
