<svg width="211" height="51" viewBox="0 0 211 51" fill="none" xmlns="http://www.w3.org/2000/svg">
<rect width="210.008" height="51" fill="#E1DFE9"/>
<path d="M30.7789 22.964H27.7689V21.662H35.3429V22.964H32.3189V31H30.7789V22.964ZM38.3976 31.21C37.2776 31.21 36.4329 30.8927 35.8636 30.258C35.3036 29.6233 35.0236 28.6993 35.0236 27.486C35.0236 25.0313 36.1436 23.804 38.3836 23.804C39.5129 23.804 40.3622 24.1213 40.9316 24.756C41.5009 25.3813 41.7856 26.2913 41.7856 27.486C41.7856 28.6807 41.4916 29.6 40.9036 30.244C40.3156 30.888 39.4802 31.21 38.3976 31.21ZM38.3836 29.964C39.6716 29.964 40.3156 29.138 40.3156 27.486C40.3156 26.6647 40.1616 26.0533 39.8536 25.652C39.5456 25.2413 39.0556 25.036 38.3836 25.036C37.7022 25.036 37.2122 25.246 36.9136 25.666C36.6242 26.0767 36.4796 26.6833 36.4796 27.486C36.4796 28.2887 36.6289 28.9047 36.9276 29.334C37.2356 29.754 37.7209 29.964 38.3836 29.964ZM45.9873 31.182C45.3433 31.182 44.8393 31.0093 44.4753 30.664C44.1113 30.3187 43.9293 29.8287 43.9293 29.194V25.19H42.7953V23.972H43.9293V22.012H45.4413V23.972H47.1493V25.19H45.4413V28.9C45.4413 29.2453 45.502 29.4973 45.6233 29.656C45.7446 29.8053 45.9593 29.88 46.2673 29.88C46.4166 29.88 46.5706 29.8613 46.7293 29.824C46.8973 29.7773 47.0373 29.7213 47.1493 29.656V30.958C46.8226 31.1073 46.4353 31.182 45.9873 31.182ZM51.7524 23.804C52.8444 23.804 53.6424 24.1587 54.1464 24.868C54.6597 25.568 54.9117 26.5527 54.9024 27.822H49.9744C50.021 28.5127 50.2217 29.04 50.5764 29.404C50.9404 29.7587 51.4537 29.936 52.1164 29.936C52.5457 29.936 52.9564 29.8847 53.3484 29.782C53.7404 29.67 54.0857 29.53 54.3844 29.362V30.734C53.6564 31.0513 52.821 31.21 51.8784 31.21C50.8237 31.21 49.993 30.8927 49.3864 30.258C48.789 29.614 48.4904 28.704 48.4904 27.528C48.4904 26.324 48.775 25.4047 49.3444 24.77C49.9137 24.126 50.7164 23.804 51.7524 23.804ZM51.7104 25.008C51.2157 25.008 50.8284 25.1387 50.5484 25.4C50.2684 25.6613 50.0864 26.1047 50.0024 26.73H53.4044C53.339 26.1327 53.171 25.6987 52.9004 25.428C52.6297 25.148 52.233 25.008 51.7104 25.008ZM56.5926 24.546C57.0126 24.3313 57.5213 24.1587 58.1186 24.028C58.7253 23.888 59.304 23.818 59.8546 23.818C60.8346 23.818 61.558 24.0233 62.0246 24.434C62.4913 24.8447 62.7246 25.484 62.7246 26.352V31H61.2546V26.548C61.2546 25.568 60.6993 25.078 59.5886 25.078C59.0566 25.078 58.548 25.1667 58.0626 25.344V31H56.5926V24.546ZM72.4538 23.818C73.4338 23.818 74.1478 24.0233 74.5958 24.434C75.0531 24.8447 75.2818 25.484 75.2818 26.352V31H73.8118V26.548C73.8118 25.568 73.2564 25.078 72.1458 25.078C71.6511 25.078 71.1984 25.204 70.7878 25.456C70.8531 25.708 70.8858 26.0067 70.8858 26.352V31H69.4158V26.548C69.4158 25.568 68.8604 25.078 67.7498 25.078C67.2458 25.078 66.7511 25.1667 66.2658 25.344V31H64.7958V24.546C65.2158 24.3313 65.7244 24.1587 66.3218 24.028C66.9284 23.888 67.5071 23.818 68.0578 23.818C68.9724 23.818 69.6538 23.9953 70.1018 24.35C70.8578 23.9953 71.6418 23.818 72.4538 23.818ZM80.2582 23.804C81.3502 23.804 82.1482 24.1587 82.6522 24.868C83.1656 25.568 83.4176 26.5527 83.4082 27.822H78.4802C78.5269 28.5127 78.7276 29.04 79.0822 29.404C79.4462 29.7587 79.9596 29.936 80.6222 29.936C81.0516 29.936 81.4622 29.8847 81.8542 29.782C82.2462 29.67 82.5916 29.53 82.8902 29.362V30.734C82.1622 31.0513 81.3269 31.21 80.3842 31.21C79.3296 31.21 78.4989 30.8927 77.8922 30.258C77.2949 29.614 76.9962 28.704 76.9962 27.528C76.9962 26.324 77.2809 25.4047 77.8502 24.77C78.4196 24.126 79.2222 23.804 80.2582 23.804ZM80.2162 25.008C79.7216 25.008 79.3342 25.1387 79.0542 25.4C78.7742 25.6613 78.5922 26.1047 78.5082 26.73H81.9102C81.8449 26.1327 81.6769 25.6987 81.4062 25.428C81.1356 25.148 80.7389 25.008 80.2162 25.008ZM87.1285 31.21C86.6618 31.21 86.2558 31.1633 85.9105 31.07C85.5745 30.9767 85.2105 30.8367 84.8185 30.65V29.264C85.2385 29.5253 85.6212 29.7213 85.9665 29.852C86.3118 29.9733 86.6992 30.034 87.1285 30.034C87.5298 30.034 87.8425 29.9547 88.0665 29.796C88.2998 29.628 88.4165 29.4133 88.4165 29.152C88.4165 28.9 88.3232 28.7133 88.1365 28.592C87.9498 28.4707 87.6605 28.34 87.2685 28.2L86.9465 28.088C86.2932 27.9293 85.7705 27.7007 85.3785 27.402C84.9958 27.1033 84.8045 26.6367 84.8045 26.002C84.8045 25.5073 84.9352 25.0967 85.1965 24.77C85.4578 24.4433 85.7845 24.2053 86.1765 24.056C86.5778 23.9067 86.9978 23.832 87.4365 23.832C87.8845 23.8413 88.2625 23.8973 88.5705 24C88.8785 24.0933 89.2145 24.2333 89.5785 24.42V25.68C89.0932 25.428 88.7245 25.2553 88.4725 25.162C88.2298 25.0687 87.9358 25.022 87.5905 25.022C87.2078 25.022 86.8998 25.092 86.6665 25.232C86.4332 25.372 86.3165 25.568 86.3165 25.82C86.3165 26.1187 86.4332 26.338 86.6665 26.478C86.8998 26.6087 87.2638 26.744 87.7585 26.884C88.2252 27.0147 88.5938 27.1407 88.8645 27.262C89.1445 27.3833 89.3872 27.584 89.5925 27.864C89.8072 28.1347 89.9145 28.508 89.9145 28.984C89.9052 29.7307 89.6298 30.2907 89.0885 30.664C88.5565 31.028 87.9032 31.21 87.1285 31.21ZM93.6637 31.21C93.197 31.21 92.791 31.1633 92.4457 31.07C92.1097 30.9767 91.7457 30.8367 91.3537 30.65V29.264C91.7737 29.5253 92.1563 29.7213 92.5017 29.852C92.847 29.9733 93.2343 30.034 93.6637 30.034C94.065 30.034 94.3777 29.9547 94.6017 29.796C94.835 29.628 94.9517 29.4133 94.9517 29.152C94.9517 28.9 94.8583 28.7133 94.6717 28.592C94.485 28.4707 94.1957 28.34 93.8037 28.2L93.4817 28.088C92.8283 27.9293 92.3057 27.7007 91.9137 27.402C91.531 27.1033 91.3397 26.6367 91.3397 26.002C91.3397 25.5073 91.4703 25.0967 91.7317 24.77C91.993 24.4433 92.3197 24.2053 92.7117 24.056C93.113 23.9067 93.533 23.832 93.9717 23.832C94.4197 23.8413 94.7977 23.8973 95.1057 24C95.4137 24.0933 95.7497 24.2333 96.1137 24.42V25.68C95.6283 25.428 95.2597 25.2553 95.0077 25.162C94.765 25.0687 94.471 25.022 94.1257 25.022C93.743 25.022 93.435 25.092 93.2017 25.232C92.9683 25.372 92.8517 25.568 92.8517 25.82C92.8517 26.1187 92.9683 26.338 93.2017 26.478C93.435 26.6087 93.799 26.744 94.2937 26.884C94.7603 27.0147 95.129 27.1407 95.3997 27.262C95.6797 27.3833 95.9223 27.584 96.1277 27.864C96.3423 28.1347 96.4497 28.508 96.4497 28.984C96.4403 29.7307 96.165 30.2907 95.6237 30.664C95.0917 31.028 94.4383 31.21 93.6637 31.21ZM101.067 23.804C102.159 23.804 102.957 24.1587 103.461 24.868C103.974 25.568 104.226 26.5527 104.217 27.822H99.2888C99.3355 28.5127 99.5361 29.04 99.8908 29.404C100.255 29.7587 100.768 29.936 101.431 29.936C101.86 29.936 102.271 29.8847 102.663 29.782C103.055 29.67 103.4 29.53 103.699 29.362V30.734C102.971 31.0513 102.135 31.21 101.193 31.21C100.138 31.21 99.3075 30.8927 98.7008 30.258C98.1035 29.614 97.8048 28.704 97.8048 27.528C97.8048 26.324 98.0895 25.4047 98.6588 24.77C99.2281 24.126 100.031 23.804 101.067 23.804ZM101.025 25.008C100.53 25.008 100.143 25.1387 99.8628 25.4C99.5828 25.6613 99.4008 26.1047 99.3168 26.73H102.719C102.653 26.1327 102.485 25.6987 102.215 25.428C101.944 25.148 101.547 25.008 101.025 25.008ZM116.06 29.544V31H109.886V29.81C110.511 29.39 111.164 28.8673 111.846 28.242C112.536 27.6167 113.124 26.9587 113.61 26.268C114.104 25.5773 114.352 24.9473 114.352 24.378C114.352 23.9207 114.198 23.552 113.89 23.272C113.582 22.9827 113.087 22.838 112.406 22.838C111.594 22.838 110.782 23.1413 109.97 23.748V22.292C110.838 21.7693 111.762 21.508 112.742 21.508C113.796 21.508 114.585 21.7647 115.108 22.278C115.64 22.782 115.906 23.44 115.906 24.252C115.906 25.1293 115.532 26.0113 114.786 26.898C114.039 27.7753 113.11 28.6573 112 29.544H116.06ZM121.726 31.168C120.438 31.168 119.477 30.7667 118.842 29.964C118.208 29.1613 117.89 27.9573 117.89 26.352C117.89 23.1413 119.169 21.536 121.726 21.536C123.024 21.536 123.99 21.9373 124.624 22.74C125.259 23.5427 125.576 24.7467 125.576 26.352C125.576 27.9667 125.259 29.1753 124.624 29.978C123.999 30.7713 123.033 31.168 121.726 31.168ZM121.726 29.852C122.156 29.852 122.534 29.768 122.86 29.6C123.196 29.4227 123.472 29.0773 123.686 28.564C123.91 28.0507 124.022 27.3133 124.022 26.352C124.022 24.98 123.808 24.056 123.378 23.58C122.958 23.0947 122.408 22.852 121.726 22.852C121.054 22.852 120.504 23.0947 120.074 23.58C119.654 24.056 119.444 24.98 119.444 26.352C119.444 27.7333 119.654 28.662 120.074 29.138C120.494 29.614 121.045 29.852 121.726 29.852ZM127.316 29.362H128.982V31H127.316V29.362ZM134.551 31.168C133.263 31.168 132.301 30.7667 131.667 29.964C131.032 29.1613 130.715 27.9573 130.715 26.352C130.715 23.1413 131.993 21.536 134.551 21.536C135.848 21.536 136.814 21.9373 137.449 22.74C138.083 23.5427 138.401 24.7467 138.401 26.352C138.401 27.9667 138.083 29.1753 137.449 29.978C136.823 30.7713 135.857 31.168 134.551 31.168ZM134.551 29.852C134.98 29.852 135.358 29.768 135.685 29.6C136.021 29.4227 136.296 29.0773 136.511 28.564C136.735 28.0507 136.847 27.3133 136.847 26.352C136.847 24.98 136.632 24.056 136.203 23.58C135.783 23.0947 135.232 22.852 134.551 22.852C133.879 22.852 133.328 23.0947 132.899 23.58C132.479 24.056 132.269 24.98 132.269 26.352C132.269 27.7333 132.479 28.662 132.899 29.138C133.319 29.614 133.869 29.852 134.551 29.852ZM143.584 24.966C144.611 24.966 145.4 25.232 145.95 25.764C146.51 26.2867 146.79 27.0287 146.79 27.99C146.79 28.55 146.664 29.068 146.412 29.544C146.17 30.02 145.787 30.4073 145.264 30.706C144.742 30.9953 144.093 31.14 143.318 31.14C141.06 31.14 139.93 29.6653 139.93 26.716C139.93 24.672 140.392 23.2953 141.316 22.586C142.24 21.8673 143.248 21.508 144.34 21.508C144.975 21.508 145.526 21.592 145.992 21.76V23.118C145.498 22.9313 144.994 22.838 144.48 22.838C144.07 22.838 143.65 22.9313 143.22 23.118C142.791 23.2953 142.413 23.6127 142.086 24.07C141.769 24.518 141.578 25.1107 141.512 25.848C141.746 25.596 142.035 25.386 142.38 25.218C142.735 25.05 143.136 24.966 143.584 24.966ZM143.388 29.796C144.088 29.796 144.569 29.6 144.83 29.208C145.092 28.816 145.222 28.4007 145.222 27.962C145.222 27.3927 145.064 26.9587 144.746 26.66C144.438 26.3613 143.995 26.212 143.416 26.212C142.968 26.212 142.581 26.296 142.254 26.464C141.928 26.6227 141.676 26.828 141.498 27.08C141.545 27.808 141.652 28.3727 141.82 28.774C141.988 29.166 142.198 29.4367 142.45 29.586C142.712 29.726 143.024 29.796 143.388 29.796ZM148.549 29.362H150.215V31H148.549V29.362ZM158.415 29.544V31H152.241V29.81C152.866 29.39 153.52 28.8673 154.201 28.242C154.892 27.6167 155.48 26.9587 155.965 26.268C156.46 25.5773 156.707 24.9473 156.707 24.378C156.707 23.9207 156.553 23.552 156.245 23.272C155.937 22.9827 155.442 22.838 154.761 22.838C153.949 22.838 153.137 23.1413 152.325 23.748V22.292C153.193 21.7693 154.117 21.508 155.097 21.508C156.152 21.508 156.94 21.7647 157.463 22.278C157.995 22.782 158.261 23.44 158.261 24.252C158.261 25.1293 157.888 26.0113 157.141 26.898C156.394 27.7753 155.466 28.6573 154.355 29.544H158.415ZM164.082 31.168C162.794 31.168 161.833 30.7667 161.198 29.964C160.563 29.1613 160.246 27.9573 160.246 26.352C160.246 23.1413 161.525 21.536 164.082 21.536C165.379 21.536 166.345 21.9373 166.98 22.74C167.615 23.5427 167.932 24.7467 167.932 26.352C167.932 27.9667 167.615 29.1753 166.98 29.978C166.355 30.7713 165.389 31.168 164.082 31.168ZM164.082 29.852C164.511 29.852 164.889 29.768 165.216 29.6C165.552 29.4227 165.827 29.0773 166.042 28.564C166.266 28.0507 166.378 27.3133 166.378 26.352C166.378 24.98 166.163 24.056 165.734 23.58C165.314 23.0947 164.763 22.852 164.082 22.852C163.41 22.852 162.859 23.0947 162.43 23.58C162.01 24.056 161.8 24.98 161.8 26.352C161.8 27.7333 162.01 28.662 162.43 29.138C162.85 29.614 163.401 29.852 164.082 29.852ZM171.702 23.202L169.854 24.336V22.796L171.73 21.662H173.242V31H171.702V23.202ZM179.332 31.14C178.548 31.14 177.894 31.0093 177.372 30.748C176.849 30.4867 176.462 30.1413 176.21 29.712C175.967 29.2733 175.846 28.7973 175.846 28.284C175.846 27.64 176.023 27.15 176.378 26.814C176.732 26.4687 177.092 26.212 177.456 26.044C177.194 25.932 176.914 25.7127 176.616 25.386C176.317 25.0593 176.168 24.6113 176.168 24.042C176.168 23.286 176.424 22.6747 176.938 22.208C177.46 21.7413 178.258 21.508 179.332 21.508C180.405 21.508 181.203 21.7413 181.726 22.208C182.248 22.6747 182.51 23.286 182.51 24.042C182.51 24.6207 182.37 25.064 182.09 25.372C181.819 25.68 181.539 25.904 181.25 26.044C181.576 26.1747 181.917 26.4173 182.272 26.772C182.636 27.1267 182.818 27.6307 182.818 28.284C182.818 28.7973 182.696 29.2733 182.454 29.712C182.211 30.1413 181.828 30.4867 181.306 30.748C180.783 31.0093 180.125 31.14 179.332 31.14ZM179.332 25.554C179.808 25.554 180.19 25.428 180.48 25.176C180.778 24.924 180.928 24.5787 180.928 24.14C180.928 23.692 180.774 23.3653 180.466 23.16C180.158 22.9453 179.78 22.838 179.332 22.838C178.884 22.838 178.506 22.9453 178.198 23.16C177.89 23.3653 177.736 23.692 177.736 24.14C177.736 24.5787 177.885 24.924 178.184 25.176C178.482 25.428 178.865 25.554 179.332 25.554ZM179.332 29.838C180.06 29.838 180.554 29.656 180.816 29.292C181.086 28.9187 181.222 28.5313 181.222 28.13C181.222 27.6633 181.058 27.2947 180.732 27.024C180.405 26.7533 179.938 26.618 179.332 26.618C178.734 26.618 178.272 26.7533 177.946 27.024C177.619 27.2947 177.456 27.6633 177.456 28.13C177.456 28.5313 177.586 28.9187 177.848 29.292C178.118 29.656 178.613 29.838 179.332 29.838Z" fill="#6B5795"/>
</svg>
