<svg width="1440" height="900" viewBox="0 0 1440 900" fill="none" xmlns="http://www.w3.org/2000/svg">
<g clip-path="url(#clip0)">
<rect width="1440" height="900" fill="white"/>
<g opacity="0.2">
<path d="M45.1295 8.39181C46.6522 5.08951 51.3455 5.08951 52.8681 8.39181L88.6459 85.9878C89.9476 88.8109 87.8854 92.0326 84.7766 92.0326L13.221 92.0326C10.1122 92.0326 8.05004 88.8109 9.35173 85.9878L45.1295 8.39181Z" transform="translate(146.612 140.039) rotate(68.0454)" fill="#6B5795"/>
<path fill-rule="evenodd" clip-rule="evenodd" d="M25.5652 5.66241e-06C11.4456 -0.00012487 0.00034883 11.4459 0.000130537 25.5644L0.000807369 54.5379L20.4528 54.5378C25.1592 54.5381 28.9742 58.3535 28.9745 63.0596L28.9738 163.614C28.9741 168.32 25.1588 172.135 20.4531 172.135L0.00113465 172.135L0 201.108C0.000504894 215.228 11.4459 226.673 25.5646 226.673L230.082 226.673C244.2 226.673 255.646 215.227 255.647 201.108L255.647 172.136L236.9 172.135C232.193 172.135 228.378 168.32 228.378 163.614L228.378 63.0592C228.378 58.3534 232.193 54.538 236.899 54.5379L255.646 54.5378L255.646 25.5647C255.646 11.4457 244.201 0.000130532 230.081 0L25.5652 5.66241e-06ZM34.9386 16.1913C32.5855 16.1909 30.6773 18.0983 30.6774 20.4516L30.678 32.3819C30.678 34.7352 32.5855 36.6429 34.9379 36.6425L46.8685 36.6425C49.2217 36.6429 51.1291 34.7348 51.1288 32.3819L51.1292 20.452C51.1291 18.0987 49.2216 16.191 46.8683 16.191L34.9386 16.1913ZM74.1359 20.4509C74.1358 18.0976 76.044 16.1903 78.3971 16.1907L90.3268 16.1904C92.6801 16.1903 94.5876 18.098 94.5877 20.4513L94.5873 32.3813C94.5875 34.7341 92.6801 36.6423 90.327 36.6419L78.3964 36.6418C76.044 36.6422 74.1365 34.7345 74.1364 32.3812L74.1359 20.4509ZM121.857 16.1907C119.504 16.1903 117.596 18.0977 117.596 20.451L117.597 32.3813C117.597 34.7346 119.504 36.6423 121.857 36.6419L133.787 36.642C136.14 36.6423 138.048 34.7342 138.048 32.3813L138.048 20.4514C138.048 18.0981 136.14 16.1904 133.787 16.1905L121.857 16.1907ZM161.056 20.4515C161.056 18.0982 162.964 16.1909 165.317 16.1913L177.247 16.191C179.6 16.1909 181.508 18.0986 181.508 20.4519L181.508 32.3819C181.508 34.7347 179.601 36.6429 177.247 36.6425L165.317 36.6424C162.964 36.6428 161.057 34.7351 161.057 32.3818L161.056 20.4515ZM208.778 16.1909C206.425 16.1905 204.517 18.0978 204.517 20.4511L204.517 32.3815C204.517 34.7348 206.425 36.6424 208.777 36.642L220.708 36.6421C223.061 36.6425 224.968 34.7343 224.968 32.3815L224.969 20.4515C224.969 18.0982 223.061 16.1905 220.708 16.1906L208.778 16.1909ZM30.6769 194.291C30.6769 191.937 32.585 190.03 34.9381 190.03L46.8678 190.03C49.2211 190.03 51.1286 191.938 51.1287 194.291L51.1283 206.221C51.1286 208.574 49.2212 210.482 46.8681 210.482L34.9375 210.481C32.5851 210.482 30.6775 208.574 30.6775 206.221L30.6769 194.291ZM78.3975 190.03C76.0444 190.03 74.1363 191.937 74.1363 194.29L74.1369 206.221C74.1369 208.574 76.0445 210.482 78.3969 210.481L90.3275 210.481C92.6806 210.482 94.588 208.574 94.5877 206.221L94.5881 194.291C94.588 191.937 92.6805 190.03 90.3272 190.03L78.3975 190.03ZM117.596 194.291C117.596 191.938 119.505 190.03 121.858 190.031L133.787 190.03C136.141 190.03 138.048 191.938 138.048 194.291L138.048 206.221C138.048 208.574 136.141 210.482 133.788 210.482L121.857 210.482C119.505 210.482 117.597 208.574 117.597 206.221L117.596 194.291ZM165.317 190.03C162.964 190.029 161.056 191.937 161.056 194.29L161.057 206.22C161.057 208.574 162.964 210.481 165.317 210.481L177.247 210.481C179.6 210.481 181.508 208.573 181.507 206.22L181.508 194.29C181.508 191.937 179.6 190.029 177.247 190.03L165.317 190.03ZM204.516 194.291C204.516 191.937 206.424 190.03 208.777 190.03L220.707 190.03C223.06 190.03 224.968 191.938 224.968 194.291L224.968 206.221C224.968 208.574 223.06 210.482 220.707 210.482L208.777 210.481C206.424 210.482 204.517 208.574 204.517 206.221L204.516 194.291ZM63.0588 52.8331C58.3522 52.8332 54.5377 56.6487 54.5371 61.3544L54.5376 164.466C54.5379 169.172 58.3529 172.987 63.0586 172.987L192.586 172.987C197.292 172.987 201.107 169.172 201.108 164.465L201.108 61.3548C201.108 56.6482 197.292 52.8333 192.586 52.833L63.0588 52.8331Z" transform="translate(-48 149.579) rotate(-21.9546)" fill="#8E80AC"/>
</g>
<g opacity="0.2">
<path d="M45.1295 8.39181C46.6522 5.08951 51.3455 5.08951 52.8681 8.39181L88.6459 85.9878C89.9476 88.8109 87.8854 92.0326 84.7766 92.0326L13.221 92.0326C10.1122 92.0326 8.05004 88.8109 9.35173 85.9878L45.1295 8.39181Z" transform="translate(219.612 666.039) rotate(68.0454)" fill="#6B5795"/>
<path fill-rule="evenodd" clip-rule="evenodd" d="M25.5652 5.66241e-06C11.4456 -0.00012487 0.00034883 11.4459 0.000130537 25.5644L0.000807369 54.5379L20.4528 54.5378C25.1592 54.5381 28.9742 58.3535 28.9745 63.0596L28.9738 163.614C28.9741 168.32 25.1588 172.135 20.4531 172.135L0.00113465 172.135L0 201.108C0.000504894 215.228 11.4459 226.673 25.5646 226.673L230.082 226.673C244.2 226.673 255.646 215.227 255.647 201.108L255.647 172.136L236.9 172.135C232.193 172.135 228.378 168.32 228.378 163.614L228.378 63.0592C228.378 58.3534 232.193 54.538 236.899 54.5379L255.646 54.5378L255.646 25.5647C255.646 11.4457 244.201 0.000130532 230.081 0L25.5652 5.66241e-06ZM34.9386 16.1913C32.5855 16.1909 30.6773 18.0983 30.6774 20.4516L30.678 32.3819C30.678 34.7352 32.5855 36.6429 34.9379 36.6425L46.8685 36.6425C49.2217 36.6429 51.1291 34.7348 51.1288 32.3819L51.1292 20.452C51.1291 18.0987 49.2216 16.191 46.8683 16.191L34.9386 16.1913ZM74.1368 20.4513C74.1367 18.098 76.0449 16.1906 78.398 16.191L90.3277 16.1907C92.681 16.1907 94.5885 18.0984 94.5886 20.4517L94.5882 32.3816C94.5884 34.7345 92.681 36.6426 90.3279 36.6422L78.3973 36.6422C76.0449 36.6426 74.1374 34.7349 74.1374 32.3816L74.1368 20.4513ZM121.858 16.1911C119.505 16.1907 117.597 18.0981 117.597 20.4514L117.598 32.3817C117.598 34.735 119.505 36.6427 121.858 36.6422L133.788 36.6423C136.141 36.6427 138.049 34.7345 138.049 32.3817L138.049 20.4517C138.049 18.0984 136.141 16.1908 133.788 16.1908L121.858 16.1911ZM161.056 20.4515C161.056 18.0982 162.964 16.1909 165.317 16.1913L177.247 16.191C179.6 16.1909 181.508 18.0986 181.508 20.4519L181.508 32.3819C181.508 34.7347 179.601 36.6429 177.247 36.6425L165.317 36.6424C162.964 36.6428 161.057 34.7351 161.057 32.3818L161.056 20.4515ZM208.778 16.1909C206.425 16.1905 204.517 18.0978 204.517 20.4511L204.517 32.3815C204.517 34.7348 206.425 36.6424 208.777 36.642L220.708 36.6421C223.061 36.6425 224.968 34.7343 224.968 32.3815L224.969 20.4515C224.969 18.0982 223.061 16.1905 220.708 16.1906L208.778 16.1909ZM30.6769 194.291C30.6769 191.937 32.585 190.03 34.9381 190.03L46.8678 190.03C49.2211 190.03 51.1286 191.938 51.1287 194.291L51.1283 206.221C51.1286 208.574 49.2212 210.482 46.8681 210.482L34.9375 210.481C32.5851 210.482 30.6775 208.574 30.6775 206.221L30.6769 194.291ZM78.3984 190.03C76.0453 190.03 74.1372 191.937 74.1372 194.291L74.1378 206.221C74.1378 208.574 76.0454 210.482 78.3978 210.482L90.3284 210.482C92.6815 210.482 94.5889 208.574 94.5886 206.221L94.589 194.291C94.5889 191.938 92.6814 190.03 90.3281 190.03L78.3984 190.03ZM117.597 194.291C117.597 191.938 119.505 190.031 121.859 190.031L133.788 190.031C136.142 190.031 138.049 191.938 138.049 194.292L138.049 206.222C138.049 208.574 136.142 210.483 133.788 210.482L121.858 210.482C119.505 210.482 117.598 208.575 117.598 206.222L117.597 194.291ZM165.317 190.03C162.964 190.029 161.056 191.937 161.056 194.29L161.057 206.22C161.057 208.574 162.964 210.481 165.317 210.481L177.247 210.481C179.6 210.481 181.508 208.573 181.507 206.22L181.508 194.29C181.508 191.937 179.6 190.029 177.247 190.03L165.317 190.03ZM204.516 194.291C204.516 191.937 206.424 190.03 208.777 190.03L220.707 190.03C223.06 190.03 224.968 191.938 224.968 194.291L224.968 206.221C224.968 208.574 223.06 210.482 220.707 210.482L208.777 210.481C206.424 210.482 204.517 208.574 204.517 206.221L204.516 194.291ZM63.0588 52.8331C58.3522 52.8332 54.5377 56.6487 54.5371 61.3544L54.5376 164.466C54.5379 169.172 58.3529 172.987 63.0586 172.987L192.586 172.987C197.292 172.987 201.107 169.172 201.108 164.465L201.108 61.3548C201.108 56.6482 197.292 52.8333 192.586 52.833L63.0588 52.8331Z" transform="translate(25 675.579) rotate(-21.9546)" fill="#8E80AC"/>
</g>
<g opacity="0.2">
<path d="M45.1295 8.39181C46.6522 5.08951 51.3455 5.08951 52.8681 8.39181L88.6459 85.9878C89.9476 88.8109 87.8854 92.0326 84.7766 92.0326L13.221 92.0326C10.1122 92.0326 8.05004 88.8109 9.35173 85.9878L45.1295 8.39181Z" transform="translate(718.612 -52.9609) rotate(68.0454)" fill="#6B5795"/>
<path fill-rule="evenodd" clip-rule="evenodd" d="M25.5651 0.000911405C11.4457 0.000328002 0.000583403 11.4459 0 25.5653L0.000676832 54.5388L20.4526 54.5387C25.1592 54.5386 28.9743 58.3539 28.9744 63.0605L28.9739 163.614C28.974 168.321 25.1586 172.136 20.4533 172.135L0.00136923 172.135L0.000234573 201.108C0.000556912 215.228 11.4461 226.673 25.5646 226.673L230.082 226.674C244.2 226.673 255.646 215.228 255.647 201.109L255.646 172.135L236.899 172.136C232.192 172.136 228.377 168.32 228.377 163.614L228.377 63.0597C228.378 58.3535 232.192 54.5381 236.898 54.5389L255.647 54.5386L255.646 25.5651C255.646 11.4466 244.201 0.000583403 230.082 0L25.5651 0.000911405ZM34.9388 16.1913C32.5855 16.1914 30.6774 18.0987 30.6775 20.452L30.6782 32.3819C30.6782 34.7352 32.586 36.6424 34.938 36.6429L46.8688 36.6425C49.2221 36.6425 51.1293 34.7348 51.1292 32.3815L51.1294 20.452C51.1293 18.0987 49.222 16.1905 46.8687 16.1906L34.9388 16.1913ZM74.1367 20.4522C74.1366 18.0989 76.0447 16.1915 78.398 16.1915L90.3279 16.1907C92.6812 16.1907 94.5886 18.0988 94.5886 20.4521L94.5884 32.3816C94.5885 34.7349 92.6813 36.6426 90.328 36.6427L78.3972 36.6431C76.0452 36.6426 74.1375 34.7354 74.1374 32.3821L74.1367 20.4522ZM121.858 16.192C119.505 16.1921 117.597 18.0994 117.597 20.4527L117.598 32.3826C117.598 34.7359 119.505 36.6431 121.857 36.6436L133.788 36.6432C136.141 36.6432 138.049 34.7355 138.049 32.3822L138.049 20.4526C138.049 18.0993 136.141 16.1912 133.788 16.1913L121.858 16.192ZM161.057 20.4523C161.057 18.099 162.965 16.1917 165.319 16.1916L177.249 16.1909C179.602 16.1908 181.509 18.099 181.509 20.4523L181.509 32.3818C181.509 34.7351 179.602 36.6428 177.249 36.6428L165.318 36.6432C162.966 36.6427 161.058 34.7355 161.058 32.3822L161.057 20.4523ZM208.778 16.1918C206.425 16.1918 204.516 18.0992 204.516 20.4525L204.517 32.3824C204.517 34.7357 206.425 36.6429 208.777 36.6434L220.708 36.643C223.061 36.6429 224.968 34.7352 224.968 32.3819L224.968 20.4524C224.968 18.0991 223.061 16.191 220.708 16.1911L208.778 16.1918ZM30.677 194.291C30.6769 191.938 32.5851 190.03 34.9384 190.03L46.8682 190.03C49.2215 190.03 51.1289 191.938 51.1289 194.291L51.1288 206.22C51.1288 208.574 49.2216 210.482 46.8683 210.482L34.9375 210.482C32.5855 210.481 30.6778 208.574 30.6777 206.221L30.677 194.291ZM78.3985 190.031C76.0452 190.031 74.137 191.938 74.1371 194.292L74.1378 206.221C74.1379 208.575 76.0456 210.482 78.3976 210.482L90.3284 210.482C92.6817 210.482 94.5889 208.574 94.5889 206.221L94.5891 194.292C94.589 191.938 92.6816 190.03 90.3284 190.03L78.3985 190.031ZM117.597 194.292C117.597 191.939 119.505 190.031 121.859 190.031L133.788 190.031C136.142 190.031 138.049 191.939 138.049 194.292L138.049 206.222C138.049 208.575 136.142 210.483 133.789 210.483L121.858 210.483C119.506 210.482 117.598 208.575 117.598 206.222L117.597 194.292ZM165.318 190.031C162.965 190.031 161.057 191.938 161.057 194.291L161.058 206.221C161.058 208.575 162.965 210.482 165.317 210.482L177.248 210.482C179.601 210.482 181.509 208.574 181.509 206.221L181.509 194.291C181.509 191.938 179.601 190.03 177.248 190.03L165.318 190.031ZM204.517 194.292C204.517 191.939 206.425 190.031 208.778 190.031L220.708 190.03C223.061 190.03 224.969 191.939 224.969 194.292L224.969 206.221C224.969 208.575 223.062 210.482 220.708 210.482L208.777 210.483C206.425 210.482 204.518 208.575 204.518 206.222L204.517 194.292ZM63.0594 52.8349C58.3531 52.8341 54.5387 56.6495 54.5379 61.3557L54.5385 164.466C54.5386 169.173 58.3537 172.988 63.0594 172.988L192.587 172.988C197.293 172.988 201.108 169.172 201.109 164.467L201.109 61.3556C201.108 56.6499 197.293 52.8346 192.587 52.8347L63.0594 52.8349Z" transform="translate(524 -43.4209) rotate(-21.9546)" fill="#8E80AC"/>
</g>
<g opacity="0.2">
<path d="M45.1295 8.39181C46.6522 5.08951 51.3455 5.08951 52.8681 8.39181L88.6459 85.9878C89.9476 88.8109 87.8854 92.0326 84.7766 92.0326L13.221 92.0326C10.1122 92.0326 8.05004 88.8109 9.35173 85.9878L45.1295 8.39181Z" transform="translate(879.612 452.039) rotate(68.0454)" fill="#6B5795"/>
<path fill-rule="evenodd" clip-rule="evenodd" d="M25.5652 5.66241e-06C11.4456 -0.00012487 0.00034883 11.4459 0.000130537 25.5644L0.000807369 54.5379L20.4528 54.5378C25.1592 54.5381 28.9742 58.3535 28.9745 63.0596L28.9738 163.614C28.9741 168.32 25.1588 172.135 20.4531 172.135L0.00113465 172.135L0 201.108C0.000504894 215.228 11.4459 226.673 25.5646 226.673L230.082 226.673C244.2 226.673 255.646 215.227 255.647 201.108L255.647 172.136L236.9 172.135C232.193 172.135 228.378 168.32 228.378 163.614L228.378 63.0592C228.378 58.3534 232.193 54.538 236.899 54.5379L255.646 54.5378L255.646 25.5647C255.646 11.4457 244.201 0.000130532 230.081 0L25.5652 5.66241e-06ZM34.9388 16.1909C32.5857 16.1905 30.6775 18.0978 30.6776 20.4511L30.6781 32.3815C30.6782 34.7348 32.5857 36.6424 34.9381 36.642L46.8687 36.6421C49.2218 36.6425 51.1292 34.7343 51.129 32.3815L51.1293 20.4515C51.1293 18.0982 49.2218 16.1905 46.8685 16.1906L34.9388 16.1909ZM74.1368 20.4513C74.1367 18.098 76.0449 16.1906 78.398 16.191L90.3277 16.1907C92.681 16.1907 94.5885 18.0984 94.5886 20.4517L94.5882 32.3816C94.5884 34.7345 92.681 36.6426 90.3279 36.6422L78.3973 36.6422C76.0449 36.6426 74.1374 34.7349 74.1374 32.3816L74.1368 20.4513ZM121.857 16.1907C119.504 16.1903 117.596 18.0977 117.596 20.451L117.597 32.3813C117.597 34.7346 119.504 36.6423 121.857 36.6419L133.787 36.642C136.14 36.6423 138.048 34.7342 138.048 32.3813L138.048 20.4514C138.048 18.0981 136.14 16.1904 133.787 16.1905L121.857 16.1907ZM161.056 20.4511C161.056 18.0978 162.965 16.1904 165.318 16.1908L177.247 16.1905C179.601 16.1905 181.508 18.0981 181.508 20.4514L181.508 32.3814C181.508 34.7343 179.601 36.6424 177.248 36.642L165.317 36.6419C162.965 36.6424 161.057 34.7347 161.057 32.3814L161.056 20.4511ZM208.778 16.1909C206.425 16.1905 204.517 18.0978 204.517 20.4511L204.517 32.3815C204.517 34.7348 206.425 36.6424 208.777 36.642L220.708 36.6421C223.061 36.6425 224.968 34.7343 224.968 32.3815L224.969 20.4515C224.969 18.0982 223.061 16.1905 220.708 16.1906L208.778 16.1909ZM30.6769 194.291C30.6769 191.937 32.585 190.03 34.9381 190.03L46.8678 190.03C49.2211 190.03 51.1286 191.938 51.1287 194.291L51.1283 206.221C51.1286 208.574 49.2212 210.482 46.8681 210.482L34.9375 210.481C32.5851 210.482 30.6775 208.574 30.6775 206.221L30.6769 194.291ZM78.3984 190.03C76.0453 190.03 74.1372 191.937 74.1372 194.291L74.1378 206.221C74.1378 208.574 76.0454 210.482 78.3978 210.482L90.3284 210.482C92.6815 210.482 94.5889 208.574 94.5886 206.221L94.589 194.291C94.5889 191.938 92.6814 190.03 90.3281 190.03L78.3984 190.03ZM117.597 194.29C117.597 191.937 119.505 190.03 121.858 190.03L133.788 190.03C136.141 190.03 138.048 191.937 138.048 194.291L138.048 206.221C138.048 208.574 136.141 210.482 133.788 210.481L121.857 210.481C119.505 210.482 117.597 208.574 117.597 206.221L117.597 194.29ZM165.317 190.03C162.964 190.029 161.056 191.937 161.056 194.29L161.057 206.22C161.057 208.574 162.964 210.481 165.317 210.481L177.247 210.481C179.6 210.481 181.508 208.573 181.507 206.22L181.508 194.29C181.508 191.937 179.6 190.029 177.247 190.03L165.317 190.03ZM204.516 194.29C204.516 191.937 206.424 190.03 208.778 190.03L220.707 190.03C223.061 190.03 224.968 191.937 224.968 194.291L224.968 206.221C224.968 208.573 223.061 210.482 220.707 210.481L208.777 210.481C206.424 210.481 204.517 208.574 204.517 206.22L204.516 194.29ZM63.0588 52.8331C58.3522 52.8332 54.5377 56.6487 54.5371 61.3544L54.5376 164.466C54.5379 169.172 58.3529 172.987 63.0586 172.987L192.586 172.987C197.292 172.987 201.107 169.172 201.108 164.465L201.108 61.3548C201.108 56.6482 197.292 52.8333 192.586 52.833L63.0588 52.8331Z" transform="translate(685 461.579) rotate(-21.9546)" fill="#8E80AC"/>
</g>
<g opacity="0.2">
<path d="M45.1295 8.39181C46.6522 5.08951 51.3455 5.08951 52.8681 8.39181L88.6459 85.9878C89.9476 88.8109 87.8854 92.0326 84.7766 92.0326L13.221 92.0326C10.1122 92.0326 8.05004 88.8109 9.35173 85.9878L45.1295 8.39181Z" transform="translate(1380.61 119.039) rotate(68.0454)" fill="#6B5795"/>
<path fill-rule="evenodd" clip-rule="evenodd" d="M25.5651 0.000911405C11.4457 0.000328002 0.000583403 11.4459 0 25.5653L0.000676832 54.5388L20.4526 54.5387C25.1592 54.5386 28.9743 58.3539 28.9744 63.0605L28.9739 163.614C28.974 168.321 25.1586 172.136 20.4533 172.135L0.00136923 172.135L0.000234573 201.108C0.000556912 215.228 11.4461 226.673 25.5646 226.673L230.082 226.674C244.2 226.673 255.646 215.228 255.647 201.109L255.646 172.135L236.899 172.135C232.193 172.135 228.378 168.319 228.377 163.613L228.377 63.0588C228.378 58.3526 232.192 54.5372 236.899 54.538L255.646 54.5382L255.646 25.5651C255.646 11.4466 244.201 0.000583403 230.082 0L25.5651 0.000911405ZM34.9388 16.1913C32.5855 16.1914 30.6774 18.0987 30.6775 20.452L30.6782 32.3819C30.6782 34.7352 32.586 36.6424 34.938 36.6429L46.8688 36.6425C49.2221 36.6425 51.1293 34.7348 51.1292 32.3815L51.1294 20.452C51.1293 18.0987 49.222 16.1905 46.8687 16.1906L34.9388 16.1913ZM74.1367 20.4522C74.1366 18.0989 76.0447 16.1915 78.398 16.1915L90.3279 16.1907C92.6812 16.1907 94.5886 18.0988 94.5886 20.4521L94.5884 32.3816C94.5885 34.7349 92.6813 36.6426 90.328 36.6427L78.3972 36.6431C76.0452 36.6426 74.1375 34.7354 74.1374 32.3821L74.1367 20.4522ZM121.858 16.192C119.505 16.1921 117.597 18.0994 117.597 20.4527L117.598 32.3826C117.598 34.7359 119.505 36.6431 121.857 36.6436L133.788 36.6432C136.141 36.6432 138.049 34.7355 138.049 32.3822L138.049 20.4526C138.049 18.0993 136.141 16.1912 133.788 16.1913L121.858 16.192ZM161.057 20.4523C161.057 18.099 162.965 16.1917 165.319 16.1916L177.249 16.1909C179.602 16.1908 181.509 18.099 181.509 20.4523L181.509 32.3818C181.509 34.7351 179.602 36.6428 177.249 36.6428L165.318 36.6432C162.966 36.6427 161.058 34.7355 161.058 32.3822L161.057 20.4523ZM208.778 16.1909C206.425 16.1909 204.517 18.0983 204.517 20.4516L204.518 32.3815C204.518 34.7348 206.425 36.642 208.777 36.6425L220.708 36.6421C223.061 36.642 224.969 34.7343 224.969 32.381L224.969 20.4515C224.969 18.0982 223.061 16.1901 220.708 16.1901L208.778 16.1909ZM30.677 194.291C30.6769 191.938 32.5851 190.03 34.9384 190.03L46.8682 190.03C49.2215 190.03 51.1289 191.938 51.1289 194.291L51.1288 206.22C51.1288 208.574 49.2216 210.482 46.8683 210.482L34.9375 210.482C32.5855 210.481 30.6778 208.574 30.6777 206.221L30.677 194.291ZM78.3985 190.031C76.0452 190.031 74.137 191.938 74.1371 194.292L74.1378 206.221C74.1379 208.575 76.0456 210.482 78.3976 210.482L90.3284 210.482C92.6817 210.482 94.5889 208.574 94.5889 206.221L94.5891 194.292C94.589 191.938 92.6816 190.03 90.3284 190.03L78.3985 190.031ZM117.597 194.292C117.597 191.939 119.505 190.031 121.859 190.031L133.788 190.031C136.142 190.031 138.049 191.939 138.049 194.292L138.049 206.222C138.049 208.575 136.142 210.483 133.789 210.483L121.858 210.483C119.506 210.482 117.598 208.575 117.598 206.222L117.597 194.292ZM165.318 190.031C162.965 190.031 161.057 191.938 161.057 194.291L161.058 206.221C161.058 208.575 162.965 210.482 165.317 210.482L177.248 210.482C179.601 210.482 181.509 208.574 181.509 206.221L181.509 194.291C181.509 191.938 179.601 190.03 177.248 190.03L165.318 190.031ZM204.516 194.292C204.516 191.938 206.424 190.031 208.777 190.031L220.707 190.03C223.061 190.03 224.968 191.938 224.968 194.291L224.968 206.221C224.968 208.574 223.061 210.482 220.707 210.482L208.777 210.482C206.425 210.482 204.517 208.575 204.517 206.221L204.516 194.292ZM63.0594 52.8349C58.3531 52.8341 54.5387 56.6495 54.5379 61.3557L54.5385 164.466C54.5386 169.173 58.3537 172.988 63.0594 172.988L192.587 172.988C197.293 172.988 201.108 169.172 201.109 164.467L201.109 61.3556C201.108 56.6499 197.293 52.8346 192.587 52.8347L63.0594 52.8349Z" transform="translate(1186 128.579) rotate(-21.9546)" fill="#8E80AC"/>
</g>
<g opacity="0.2">
<path d="M45.1295 8.39181C46.6522 5.08951 51.3455 5.08951 52.8681 8.39181L88.6459 85.9878C89.9476 88.8109 87.8854 92.0326 84.7766 92.0326L13.221 92.0326C10.1122 92.0326 8.05004 88.8109 9.35173 85.9878L45.1295 8.39181Z" transform="translate(1410.61 741.039) rotate(68.0454)" fill="#6B5795"/>
<path fill-rule="evenodd" clip-rule="evenodd" d="M25.5653 0.000911405C11.4459 0.000328002 0.000812314 11.4459 0.00022891 25.5653L0 54.5384L20.4519 54.5383C25.1585 54.5382 28.9736 58.3536 28.9737 63.0602L28.9732 163.614C28.9733 168.32 25.158 172.135 20.4526 172.135L0.000692394 172.135L0.000463483 201.108C0.000785822 215.228 11.4463 226.673 25.5649 226.673L230.082 226.674C244.201 226.673 255.647 215.228 255.647 201.109L255.647 172.135L236.899 172.135C232.193 172.135 228.378 168.319 228.378 163.613L228.377 63.0588C228.378 58.3526 232.193 54.5372 236.899 54.538L255.646 54.5382L255.646 25.5651C255.646 11.4466 244.201 0.000583403 230.082 0L25.5653 0.000911405ZM34.939 16.1913C32.5857 16.1914 30.6776 18.0987 30.6777 20.452L30.6784 32.3819C30.6785 34.7352 32.5862 36.6424 34.9382 36.6429L46.869 36.6425C49.2223 36.6425 51.1295 34.7348 51.1295 32.3815L51.1296 20.452C51.1296 18.0987 49.2222 16.1905 46.8689 16.1906L34.939 16.1913ZM74.136 20.4518C74.1359 18.0985 76.0441 16.1912 78.3974 16.1911L90.3272 16.1904C92.6805 16.1903 94.5879 18.0984 94.5879 20.4517L94.5878 32.3813C94.5878 34.7346 92.6806 36.6423 90.3273 36.6423L78.3965 36.6427C76.0445 36.6422 74.1368 34.735 74.1367 32.3817L74.136 20.4518ZM121.858 16.1907C119.505 16.1908 117.596 18.0981 117.596 20.4514L117.597 32.3813C117.597 34.7346 119.505 36.6418 121.857 36.6423L133.788 36.642C136.141 36.6419 138.048 34.7342 138.048 32.3809L138.048 20.4514C138.048 18.0981 136.141 16.1899 133.788 16.19L121.858 16.1907ZM161.057 20.452C161.057 18.0987 162.965 16.1913 165.318 16.1913L177.248 16.1905C179.601 16.1905 181.508 18.0986 181.509 20.4519L181.508 32.3814C181.508 34.7347 179.601 36.6424 177.248 36.6425L165.317 36.6428C162.965 36.6424 161.057 34.7351 161.057 32.3818L161.057 20.452ZM208.778 16.1909C206.425 16.1909 204.517 18.0983 204.517 20.4516L204.518 32.3815C204.518 34.7348 206.426 36.642 208.778 36.6425L220.708 36.6421C223.062 36.642 224.969 34.7343 224.969 32.381L224.969 20.4515C224.969 18.0982 223.062 16.1901 220.708 16.1901L208.778 16.1909ZM30.6772 194.291C30.6772 191.938 32.5853 190.03 34.9386 190.03L46.8685 190.03C49.2218 190.03 51.1291 191.938 51.1292 194.291L51.129 206.22C51.129 208.574 49.2218 210.482 46.8685 210.482L34.9377 210.482C32.5857 210.481 30.678 208.574 30.678 206.221L30.6772 194.291ZM78.3978 190.031C76.0445 190.031 74.1364 191.938 74.1364 194.291L74.1372 206.221C74.1372 208.574 76.0449 210.482 78.397 210.482L90.3277 210.482C92.681 210.482 94.5883 208.574 94.5882 206.221L94.5884 194.291C94.5883 191.938 92.681 190.03 90.3277 190.03L78.3978 190.031ZM117.597 194.291C117.597 191.938 119.505 190.03 121.858 190.03L133.788 190.029C136.141 190.029 138.049 191.937 138.049 194.291L138.049 206.22C138.049 208.574 136.142 210.481 133.788 210.481L121.857 210.482C119.505 210.481 117.598 208.574 117.598 206.221L117.597 194.291ZM165.317 190.03C162.964 190.03 161.056 191.938 161.056 194.291L161.057 206.221C161.057 208.574 162.965 210.481 165.317 210.482L177.247 210.482C179.601 210.481 181.508 208.574 181.508 206.22L181.508 194.291C181.508 191.938 179.601 190.029 177.247 190.03L165.317 190.03ZM204.517 194.291C204.517 191.937 206.425 190.03 208.778 190.03L220.708 190.029C223.061 190.029 224.968 191.937 224.969 194.291L224.968 206.22C224.968 208.573 223.061 210.481 220.708 210.481L208.777 210.481C206.425 210.481 204.517 208.574 204.517 206.22L204.517 194.291ZM63.0591 52.8336C58.3528 52.8328 54.5384 56.6482 54.5376 61.3544L54.5382 164.465C54.5383 169.172 58.3534 172.987 63.0591 172.987L192.587 172.987C197.292 172.987 201.108 169.171 201.109 164.466L201.108 61.3543C201.108 56.6487 197.293 52.8333 192.586 52.8334L63.0591 52.8336Z" transform="translate(1216 750.579) rotate(-21.9546)" fill="#8E80AC"/>
</g>
<g opacity="0.2">
<path fill-rule="evenodd" clip-rule="evenodd" d="M25.5652 5.66241e-06C11.4456 -0.00012487 0.00034883 11.4459 0.000130537 25.5644L0.000624814 54.5383L20.4526 54.5383C25.159 54.5386 28.974 58.3539 28.9743 63.0601L28.9736 163.614C28.9739 168.32 25.1586 172.135 20.4529 172.136L0.000952098 172.136L0 201.108C0.000504894 215.228 11.4459 226.673 25.5646 226.673L230.082 226.673C244.2 226.673 255.646 215.227 255.647 201.108L255.647 172.136L236.9 172.136C232.193 172.136 228.378 168.32 228.378 163.614L228.378 63.0596C228.378 58.3539 232.193 54.5384 236.899 54.5383L255.646 54.5386L255.646 25.5647C255.646 11.4457 244.201 0.000130532 230.081 0L25.5652 5.66241e-06ZM34.9386 16.1913C32.5855 16.1909 30.6773 18.0983 30.6774 20.4516L30.678 32.3819C30.678 34.7352 32.5855 36.6429 34.9379 36.6425L46.8685 36.6425C49.2217 36.6429 51.1291 34.7348 51.1288 32.3819L51.1292 20.452C51.1291 18.0987 49.2216 16.191 46.8683 16.191L34.9386 16.1913ZM74.1368 20.4513C74.1367 18.098 76.0449 16.1906 78.398 16.191L90.3277 16.1907C92.681 16.1907 94.5885 18.0984 94.5886 20.4517L94.5882 32.3816C94.5884 34.7345 92.681 36.6426 90.3279 36.6422L78.3973 36.6422C76.0449 36.6426 74.1374 34.7349 74.1374 32.3816L74.1368 20.4513ZM121.857 16.1912C119.504 16.1908 117.596 18.0981 117.596 20.4514L117.597 32.3818C117.597 34.7351 119.504 36.6427 121.857 36.6423L133.787 36.6424C136.14 36.6428 138.048 34.7346 138.047 32.3818L138.048 20.4518C138.048 18.0985 136.14 16.1909 133.787 16.1909L121.857 16.1912ZM161.056 20.4515C161.056 18.0982 162.964 16.1909 165.317 16.1913L177.247 16.191C179.6 16.1909 181.508 18.0986 181.508 20.4519L181.508 32.3819C181.508 34.7347 179.601 36.6429 177.247 36.6425L165.317 36.6424C162.964 36.6428 161.057 34.7351 161.057 32.3818L161.056 20.4515ZM208.778 16.1913C206.425 16.1909 204.517 18.0983 204.517 20.4516L204.517 32.3819C204.517 34.7352 206.425 36.6429 208.777 36.6425L220.708 36.6425C223.061 36.6429 224.968 34.7348 224.968 32.3819L224.968 20.452C224.968 18.0987 223.061 16.191 220.707 16.1911L208.778 16.1913ZM30.6769 194.291C30.6769 191.937 32.585 190.03 34.9381 190.03L46.8678 190.03C49.2211 190.03 51.1286 191.938 51.1287 194.291L51.1283 206.221C51.1286 208.574 49.2212 210.482 46.8681 210.482L34.9375 210.481C32.5851 210.482 30.6775 208.574 30.6775 206.221L30.6769 194.291ZM78.3982 190.031C76.0451 190.03 74.137 191.938 74.1371 194.291L74.1376 206.221C74.1377 208.575 76.0452 210.482 78.3976 210.482L90.3282 210.482C92.6813 210.482 94.5887 208.574 94.5885 206.221L94.5888 194.292C94.5888 191.938 92.6812 190.031 90.3279 190.031L78.3982 190.031ZM117.596 194.291C117.596 191.938 119.505 190.03 121.858 190.031L133.787 190.03C136.141 190.03 138.048 191.938 138.048 194.291L138.048 206.221C138.048 208.574 136.141 210.482 133.788 210.482L121.857 210.482C119.505 210.482 117.597 208.574 117.597 206.221L117.596 194.291ZM165.317 190.03C162.964 190.03 161.056 191.937 161.056 194.291L161.056 206.221C161.056 208.574 162.964 210.482 165.316 210.481L177.247 210.482C179.6 210.482 181.507 208.574 181.507 206.221L181.508 194.291C181.508 191.938 179.6 190.03 177.247 190.03L165.317 190.03ZM204.516 194.291C204.516 191.937 206.424 190.03 208.777 190.03L220.707 190.03C223.06 190.03 224.968 191.938 224.968 194.291L224.968 206.221C224.968 208.574 223.06 210.482 220.707 210.482L208.777 210.481C206.424 210.482 204.517 208.574 204.517 206.221L204.516 194.291ZM63.0586 52.8336C58.352 52.8337 54.5376 56.6491 54.5369 61.3549L54.5374 164.466C54.5377 169.172 58.3527 172.987 63.0584 172.987L192.586 172.988C197.292 172.987 201.107 169.172 201.108 164.466L201.107 61.3553C201.107 56.6487 197.292 52.8338 192.586 52.8334L63.0586 52.8336Z" transform="translate(483 937.579) rotate(-21.9546)" fill="#8E80AC"/>
</g>
</g>
<defs>
<clipPath id="clip0">
<rect width="1440" height="900" fill="white"/>
</clipPath>
</defs>
</svg>
