<?xml version="1.0" encoding="utf-8"?>
<!-- Generator: Adobe Illustrator 22.1.0, SVG Export Plug-In . SVG Version: 6.00 Build 0)  -->
<svg version="1.1" id="Layer_1" xmlns="http://www.w3.org/2000/svg" xmlns:xlink="http://www.w3.org/1999/xlink" x="0px" y="0px"
	 viewBox="0 0 1443 584.1" style="enable-background:new 0 0 1443 584.1;" xml:space="preserve">
<style type="text/css">
	.st0{opacity:0.8;}
	.st1{fill:#AEAEAE;}
	.st2{fill:#BDBDBD;}
	.st3{fill:#A6A6A6;}
	.st4{fill:#A2A2A2;}
	.st5{fill:#D5D5D5;fill-opacity:0.5;}
	.st6{fill:#A5A5A5;}
	.st7{fill:#B0B0B0;}
</style>
<g class="st0">
	<path class="st1" d="M1542.7,68.7C1078.9-89.2,765.4,92.4,500.5,245.8c-201.1,116.5-374.3,216.8-563.9,140l-55.5,160.5
		c282.9,96.3,510.5-32.5,744.3-164.8c254.3-143.9,516-291.9,864.3-159.6L1542.7,68.7z"/>
	<path class="st2" d="M1545.2,61.4c-477-149.6-785,24.8-1045.3,172.2C302.3,345.5,132.2,441.8-63.4,368.9l-48.1,153.5
		c291,91.2,514.7-32.4,744.6-159.5c250-138.2,507.2-280.4,866.2-154.9L1545.2,61.4z"/>
	<path class="st3" d="M17.7,423.3c9.4-1.3-81.1-54.3-81.1-54.3l-30,159.6c0,0,28.6-13.7,31.3-17c2.8-3.4-13.1-3.3-13.8-9.2
		c-2.1-18.8,124.1,4.3,131.7-6.2c7.7-10.5-153.5-44.1-114.2-41.4c26.6,1.8,74.4,9.5,79.2,2.2c7.6-11.3-80.4-19.1-71-29.1
		C-40.7,417.9-6,426.6,17.7,423.3z"/>
	<path class="st1" d="M12,421.5c9.4-1.3-75.4-52.5-75.4-52.5L-119,546.3c0,0,48.3-33.2,51.1-36.5s-13.1-3.3-13.8-9.2
		c-2.1-18.8,124.1,4.3,131.7-6.2c7.7-10.5-153.5-44.1-114.2-41.4c26.6,1.8,74.4,9.5,79.2,2.2c7.6-11.3-80.4-19.1-71-29.1
		C-46.4,416.1-11.7,424.8,12,421.5z"/>
	<path class="st4" d="M1416.5,193.9c-10.7,0.9,74,28.5,74,28.5l54.6-161c0,0-40.6,14.7-43.9,18.4c-3.4,3.7,14.7,4.5,15,11.3
		c1,21.4-71.8,14.6-95.8,11.9c-24.1-2.7,117.1,46.2,72.6,40.8c-30.1-3.7-104.9-0.1-111,7.7c-9.4,12.3,111.1,11.4,99.7,22.1
		C1470.4,184.2,1443.7,191.6,1416.5,193.9z"/>
	<path class="st1" d="M1414.6,193.3c-10.7,0.9,79.8,30.3,79.8,30.3l50.8-162.2c0,0-33.9,16.8-37.2,20.5c-3.4,3.7,14.7,4.5,15,11.3
		c1,21.4-71.8,14.6-95.8,11.9c-24.1-2.7,117.1,46.2,72.6,40.8c-30.1-3.7-104.9-0.1-111,7.7c-9.4,12.3,111.1,11.4,99.7,22.1
		C1477.1,186.3,1441.8,191,1414.6,193.3z"/>
	<path class="st5" d="M546.7,274.8l38.6-4l24.3-12.5l-6.9,22l16.5,23.3l-26.2,7.9l39.1,32.4l-198-1.6l97.8-19.7l-0.6-30.4l31.1,3.7
		L546.7,274.8z"/>
	<path class="st5" d="M736.6,116l31.7-6.1l20.5-13.6l-6.8,21.9l12.1,21.8l-21.8,9.2l30.1,29.4L640.9,188l80.9-24.7l1.2-29.7
		l25.2,1.9L736.6,116z"/>
	<path class="st5" d="M1316.8,64.2l30-0.5l18.4-6.7l-4.3,13.6l14.1,15.6l-20.1,3.6l32.2,22.5l-155-11.3l75.5-7.4l-2.1-19.3l24.5,4
		L1316.8,64.2z"/>
	<path class="st5" d="M334.5,400.7l31.9-6.6l20.7-14.2l-7.1,22.6l12,22.4l-22,9.7l29.9,30.1l-162.1,11.3l81.4-26.2l1.5-30.6
		l25.2,1.7L334.5,400.7z"/>
	<path class="st5" d="M1070.6,116.2l-17.7,23.3l-4.7,21.1l-10.5-17.8l-23.5-6.1l8.7-19.1l-41.2,0.1l104.9-105.2l-38.7,65.1
		l19.8,19.2l-18.7,14.3L1070.6,116.2z"/>
	<path class="st5" d="M148.3,501.5L132,527l-3.1,23.9l-12.4-21.2l-25-8.6l7.4-21.4L56,497l100-113.6l-34.6,72.1l22.3,23.4
		l-18.2,15.1L148.3,501.5z"/>
	<path class="st6" d="M-17.4,518.7c-6.1,0.4-9.6,2.2-14.2,5.8c-2.6,2.1,0,0-5.5,9.2c-4,6.6,16.9,6.5,21.1,1.1
		c4.2-5.4,8.8-8.4,10.8-13.8C-3.1,515.6-12.6,518.4-17.4,518.7z"/>
	<path class="st6" d="M33.6,516.6c0,0-31.7,2.3-29.4,14.6c2.2,11.6,18.1,12.1,30.5,11c11.6-1.1,26.8-3.6,24.8-14.4
		C57.7,517.7,33.6,516.6,33.6,516.6z"/>
	<path class="st6" d="M69.3,466.1c0.1-5.1,9.6-9.3,9.6-9.3s9.9-4.2,13.9-0.6c4.4,4,1.6,11.9-2.2,13.9
		C86.9,472,69.2,473.9,69.3,466.1z"/>
	<path class="st6" d="M103.3,448.1c2.8-10.3,9.3-15.5,19.8-19.6c12.6-4.9,30.9-2.2,35.8,3.5c4.9,5.7,2.3,16.5,3.8,27.1
		c1.5,10.6-50.3,15.7-56.4,10.1C100.3,463.8,101.2,456.1,103.3,448.1z"/>
	<path class="st6" d="M127.5,484.9c-4.9-2-27.8,0.9-37.1,12.1c-5.7,6.9-11.6,13.1-7.4,21.3c2.9,5.7,14,10,14,10s44.7,5.8,48.6-12.1
		C148.4,503.1,132.3,486.8,127.5,484.9z"/>
	<path class="st7" d="M-20.4,516c-6.1,0.4-9.6,2.2-14.2,5.8c-2.6,2.1,0,0-5.5,9.2c-4,6.6,16.9,6.5,21.1,1.1
		c4.2-5.4,8.8-8.4,10.8-13.8C-6.1,512.9-15.6,515.7-20.4,516z"/>
	<path class="st7" d="M30.6,513.9c0,0-31.7,2.3-29.4,14.6c2.2,11.6,18.1,12.1,30.5,11c11.6-1.1,26.8-3.6,24.8-14.4
		C54.7,515,30.6,513.9,30.6,513.9z"/>
	<path class="st7" d="M66.3,463.5c0.1-5.1,9.6-9.3,9.6-9.3s9.9-4.2,13.9-0.6c4.4,4,1.6,11.9-2.2,13.9
		C83.8,469.4,66.2,471.2,66.3,463.5z"/>
	<path class="st7" d="M124.4,482.2c-4.9-2-27.8,0.9-37.1,12.1c-5.7,6.9-11.6,13.1-7.4,21.3c2.9,5.7,14,10,14,10s44.7,5.8,48.6-12.1
		C145.3,500.4,129.3,484.2,124.4,482.2z"/>
	<path class="st6" d="M1396.6,138.6c10.8-11.2,16.9-35.7,7.6-39.6c-9.3-4-50.9,2.3-54.4,17.4c-3.4,15.1,0.9,24.8,7.5,28.3
		C1363.9,148.2,1385.3,150.3,1396.6,138.6z"/>
	<path class="st6" d="M1251.8,142c2.6,13.9,20.3,6.1,33.7,5.6c21.3-0.7,59.4,2.2,52.4-18.9c-3.2-9.8,1.5-16.6-18.5-17.5
		c-20-0.9-35.7,1.8-48.9,6.2C1257.3,121.9,1249.6,130.3,1251.8,142z"/>
	<path class="st6" d="M1354.8,90.7c7.6,4.5,22.6-4,22.6-4s12.1-8.6,9.5-14.6c-2.4-5.8-9.2-2.3-15.2-2.5l-0.2,0
		c-10.2-0.5-24.8-1.1-25.8,4.1C1344.7,78.8,1348.4,87,1354.8,90.7z"/>
	<path class="st6" d="M1306.9,71.2c19.1,2.6,20.5,18.7,7.4,22.9l-33.5,10.6c-13.1,4.2-24.7,1.3-25.5-4.3c-0.8-5.6-0.7-17.2,4.9-25.6
		C1270.9,58.6,1287.7,68.6,1306.9,71.2z"/>
	<path class="st6" d="M1345.4,51.8c6.1-0.7,9.6-2.9,14.3-7.2c2.7-2.5,0,0,6-10.6c4.3-7.7-16.2-6.6-20.7-0.3
		c-4.5,6.3-9.2,9.9-11.5,16.1C1331.1,56,1340.6,52.4,1345.4,51.8z"/>
	<path class="st6" d="M1295.1,56.6c0,0,31.3-4.1,29.8-17.9c-1.4-12.9-17.1-12.8-29.3-10.9c-11.4,1.8-26.5,5.4-25.2,17.4
		C1271.5,56.5,1295.1,56.6,1295.1,56.6z"/>
	<path class="st6" d="M1256.9,115.2c-0.4,5.8-10,11-10,11s-10,5.2-13.7,1.3c-4-4.3-0.8-13.4,3-15.7
		C1240.1,109.4,1257.5,106.4,1256.9,115.2z"/>
	<path class="st7" d="M1394.2,135.3c10.8-11.2,16.9-35.7,7.6-39.6c-9.3-4-50.9,2.3-54.4,17.4c-3.4,15.1,0.9,24.8,7.5,28.3
		C1361.5,144.9,1382.9,147,1394.2,135.3z"/>
	<path class="st7" d="M1249.4,138.7c2.6,13.9,20.3,6.1,33.7,5.6c21.3-0.7,59.4,2.2,52.4-18.9c-3.2-9.8,1.5-16.6-18.5-17.5
		c-20-0.9-35.7,1.8-48.9,6.2C1254.9,118.6,1247.2,127,1249.4,138.7z"/>
	<path class="st7" d="M1352.4,87.4c7.6,4.5,22.6-4,22.6-4s12.1-8.6,9.5-14.6c-2.4-5.8-9.2-2.3-15.2-2.5l-0.2,0
		c-10.2-0.5-24.8-1.1-25.8,4.1C1342.3,75.5,1346,83.7,1352.4,87.4z"/>
	<path class="st7" d="M1304.5,67.9c19.1,2.6,20.5,18.7,7.4,22.9l-33.5,10.6c-13.1,4.2-24.7,1.3-25.5-4.3c-0.8-5.6-0.7-17.2,4.9-25.6
		C1268.5,55.4,1285.3,65.3,1304.5,67.9z"/>
	<path class="st7" d="M1343,48.5c6.1-0.7,9.6-2.9,14.3-7.2c2.7-2.5,0,0,6-10.6c4.3-7.7-16.2-6.6-20.7-0.3
		c-4.5,6.3-9.2,9.9-11.5,16.1C1328.7,52.8,1338.2,49.1,1343,48.5z"/>
	<path class="st7" d="M1292.7,53.3c0,0,31.3-4.1,29.8-17.9c-1.4-12.9-17.1-12.8-29.3-10.9c-11.4,1.8-26.5,5.4-25.2,17.4
		C1269.1,53.2,1292.7,53.3,1292.7,53.3z"/>
	<path class="st7" d="M1254.5,111.9c-0.4,5.8-10,11-10,11s-10,5.2-13.7,1.3c-4-4.3-0.8-13.4,3-15.7
		C1237.7,106.1,1255.1,103.2,1254.5,111.9z"/>
	<path class="st6" d="M110.8,433.9c-7.9,15-4.4,42.3,8.4,43.4c12.8,1.1,59.5-18.6,57-35.3c-2.5-16.7-11.9-25.4-21.4-26.9
		C145.5,413.6,119.1,418.2,110.8,433.9z"/>
	<path class="st6" d="M281.4,384.3c-9.2-13.5-26.8,0.1-42.5,4.9c-25,7.5-71.5,16.7-54,36.3c8.2,9.1,5.5,17.7,29.7,12.3
		c24.2-5.4,41.6-13.3,55.3-22C283.7,406.9,289.2,395.7,281.4,384.3z"/>
	<path class="st6" d="M181.7,470.2c-11.1-2.2-25.1,11.4-25.1,11.4s-10.6,12.7-4.9,18.2c5.4,5.2,11.9-0.6,19.2-2.2l0.3-0.1
		c12.3-2.8,30-6.7,28.9-12.4C198.9,479.3,190.9,472,181.7,470.2z"/>
	<path class="st6" d="M247.2,475.1c-23.9,3.4-32.6-12.9-18.9-21.3l35.1-21.7c13.7-8.5,28.8-9.2,32.2-3.7c3.4,5.5,8.4,17.6,5.5,28.1
		C295.4,476.6,271.1,471.7,247.2,475.1z"/>
	<path class="st6" d="M210,507.4c-6.9,2.7-10.1,6.1-13.8,12c-2.1,3.4,0,0-2.4,12.9c-1.7,9.3,22.2,1.7,24.7-6.3
		c2.6-7.9,6.6-13.2,6.6-20.4C225.1,498.5,215.4,505.4,210,507.4z"/>
	<path class="st6" d="M267.6,486.4c0,0-35.4,14.2-27.5,28c7.4,12.9,25.9,7.9,39.7,2c12.8-5.5,29.1-14,22.3-26.1
		C295.6,479.1,267.6,486.4,267.6,486.4z"/>
	<path class="st6" d="M287.1,413.6c-2.1-6.1,7-14.5,7-14.5s9.6-8.6,15.7-5.7c6.7,3.2,6.8,13.6,3.3,17.3
		C309.7,414.3,290.3,422.9,287.1,413.6z"/>
	<path class="st6" d="M318.5,380c-1.2-13.2,4.1-21.8,14.4-30.4c12.4-10.3,34.5-13.8,42.5-8.8c8,5,9.6,18.8,15.8,30.8
		c6.2,12-51.1,36.8-60.3,32.4C321.6,399.6,319.4,390.2,318.5,380z"/>
	<path class="st6" d="M361.7,414.9c-6.4-0.6-31.5,11.2-37.4,27.8c-3.6,10.2-7.7,19.8,0.5,28c5.8,5.8,20.3,6.8,20.3,6.8
		s53.8-9.3,50.6-32C393.4,428.9,368.1,415.4,361.7,414.9z"/>
	<path class="st7" d="M106.2,431.9c-7.9,15-4.4,42.3,8.4,43.4c12.8,1.1,59.5-18.6,57-35.3c-2.5-16.7-11.9-25.4-21.4-26.9
		C140.9,411.5,114.5,416.1,106.2,431.9z"/>
	<path class="st7" d="M276.8,382.2c-9.2-13.5-26.8,0.1-42.5,4.9c-25,7.5-71.5,16.7-54,36.3c8.2,9.1,5.5,17.7,29.7,12.3
		c24.2-5.4,41.6-13.3,55.3-22C279.1,404.8,284.6,393.6,276.8,382.2z"/>
	<path class="st7" d="M177.1,468.1c-11.1-2.2-25.1,11.4-25.1,11.4s-10.6,12.7-4.9,18.2c5.4,5.2,11.9-0.6,19.2-2.2l0.3-0.1
		c12.3-2.8,30-6.7,28.9-12.4C194.3,477.2,186.2,469.9,177.1,468.1z"/>
	<path class="st7" d="M242.6,473c-23.9,3.4-32.6-12.9-18.9-21.3l35.1-21.7c13.7-8.5,28.8-9.2,32.2-3.7c3.4,5.5,8.4,17.6,5.5,28.1
		C290.8,474.6,266.4,469.6,242.6,473z"/>
	<path class="st7" d="M205.4,505.4c-6.9,2.7-10.1,6.1-13.8,12c-2.1,3.4,0,0-2.4,12.9c-1.7,9.3,22.2,1.7,24.7-6.3
		c2.6-7.9,6.6-13.2,6.6-20.4C220.5,496.4,210.8,503.3,205.4,505.4z"/>
	<path class="st7" d="M263,484.4c0,0-35.4,14.2-27.5,28c7.4,12.9,25.9,7.9,39.7,2c12.8-5.5,29.1-14,22.3-26.1
		C291,477,263,484.4,263,484.4z"/>
	<path class="st7" d="M282.5,411.6c-2.1-6.1,7-14.5,7-14.5s9.6-8.6,15.7-5.7c6.7,3.2,6.8,13.6,3.3,17.3
		C305.1,412.2,285.7,420.8,282.5,411.6z"/>
	<path class="st7" d="M313.9,377.9c-1.2-13.2,4.1-21.8,14.4-30.4c12.4-10.3,34.5-13.8,42.5-8.8c8,5,9.6,18.8,15.8,30.8
		c6.2,12-51.1,36.8-60.3,32.4C317,397.5,314.8,388.1,313.9,377.9z"/>
	<path class="st7" d="M357.1,412.8c-6.4-0.6-31.5,11.2-37.4,27.8c-3.6,10.2-7.7,19.8,0.5,28c5.8,5.8,20.3,6.8,20.3,6.8
		s53.8-9.3,50.6-32C388.8,426.8,363.5,413.3,357.1,412.8z"/>
	<path class="st6" d="M1208.1,145.7c10.8-13.7,15.4-42.8,4.8-47c-10.5-4.3-55.4,5-57.9,22.9c-2.5,17.9,3.1,29.2,10.6,33
		C1173.2,158.5,1196.7,160.1,1208.1,145.7z"/>
	<path class="st6" d="M1050.1,156.1c4,16.2,22.7,6.3,37.3,5.2c23.2-1.8,65.1-0.1,55.6-24.6c-4.4-11.4,0.2-19.6-21.8-19.9
		c-21.9-0.2-38.8,3.7-52.9,9.5C1054.4,132.2,1046.8,142.4,1050.1,156.1z"/>
	<path class="st6" d="M1158.2,91.1c8.7,4.9,24.4-5.7,24.4-5.7s12.5-10.6,9.1-17.7c-3.2-6.7-10.2-2.3-16.8-2.3l-0.2,0
		c-11.1-0.1-27.2-0.2-27.8,5.9C1146.1,77.5,1150.9,87,1158.2,91.1z"/>
	<path class="st6" d="M1104.1,70.3c21.1,2.2,24,21.2,10.1,26.7l-35.6,14c-13.9,5.5-26.9,2.6-28.3-3.9c-1.4-6.5-2.3-20.2,3.1-30.4
		C1063.8,57.1,1083,68.1,1104.1,70.3z"/>
	<path class="st6" d="M1144.5,45.7c6.6-1.1,10.2-3.8,15-9.2c2.7-3.1,0,0,5.6-12.8c4-9.2-18.3-7-22.6,0.6
		c-4.4,7.6-9.2,12.1-11.2,19.5C1129.3,51.3,1139.4,46.6,1144.5,45.7z"/>
	<path class="st6" d="M1090,53.6c0,0,33.8-6.2,31-22.4c-2.7-15.2-19.7-14.4-33-11.6c-12.3,2.6-28.5,7.5-26,21.7
		C1064.3,54.5,1090,53.6,1090,53.6z"/>
	<path class="st6" d="M1053.4,124.3c0.1,6.9-9.9,13.4-9.9,13.4s-10.5,6.6-14.9,2.2c-4.8-4.9-2-15.7,1.9-18.7
		C1034.5,118.2,1053.3,114,1053.4,124.3z"/>
	<path class="st6" d="M990.7,105.1c5.3,2.1,29.7-4,39.3-19.8c5.9-9.7,12-18.6,7.3-29.2c-3.3-7.4-15.2-11.9-15.2-11.9
		s-48-3.3-51.6,20.9C967.8,82.9,985.4,103,990.7,105.1z"/>
	<path class="st7" d="M1202.9,142.5c10.8-13.7,15.4-42.8,4.8-47c-10.5-4.3-55.4,5-57.9,22.9c-2.5,17.9,3.1,29.2,10.6,33
		C1168,155.3,1191.6,156.9,1202.9,142.5z"/>
	<path class="st7" d="M1045,152.9c4,16.2,22.7,6.3,37.3,5.2c23.2-1.8,65.1-0.1,55.6-24.6c-4.4-11.4,0.2-19.6-21.8-19.9
		c-21.9-0.2-38.8,3.7-52.9,9.5C1049.3,129,1041.6,139.2,1045,152.9z"/>
	<path class="st7" d="M1153,87.9c8.7,4.9,24.4-5.7,24.4-5.7s12.5-10.6,9.1-17.7c-3.2-6.7-10.2-2.3-16.8-2.3l-0.2,0
		c-11.1-0.1-27.2-0.2-27.8,5.9C1141,74.3,1145.8,83.8,1153,87.9z"/>
	<path class="st7" d="M1099,67.1c21.1,2.2,24,21.2,10.1,26.7l-35.6,14c-13.9,5.5-26.9,2.6-28.3-3.9c-1.4-6.5-2.3-20.2,3.1-30.4
		C1058.6,53.9,1077.9,64.9,1099,67.1z"/>
	<path class="st7" d="M1139.4,42.5c6.6-1.1,10.2-3.8,15-9.2c2.7-3.1,0,0,5.6-12.8c4-9.2-18.3-7-22.6,0.6
		c-4.4,7.6-9.2,12.1-11.2,19.5C1124.1,48.1,1134.2,43.4,1139.4,42.5z"/>
	<path class="st7" d="M1084.9,50.4c0,0,33.8-6.2,31-22.4c-2.7-15.2-19.7-14.4-33-11.6c-12.3,2.6-28.5,7.5-26,21.7
		C1059.1,51.3,1084.9,50.4,1084.9,50.4z"/>
	<path class="st7" d="M1048.3,121.1c0.1,6.9-9.9,13.4-9.9,13.4s-10.5,6.6-14.9,2.2c-4.8-4.9-2-15.7,1.9-18.7
		C1029.4,115,1048.2,110.8,1048.3,121.1z"/>
	<path class="st7" d="M985.6,101.9c5.3,2.1,29.7-4,39.3-19.8c5.9-9.7,12-18.6,7.3-29.2c-3.3-7.4-15.2-11.9-15.2-11.9
		s-48-3.3-51.6,20.9C962.6,79.7,980.3,99.8,985.6,101.9z"/>
	<path class="st6" d="M595.2,360.2c5.5-16-2-42.8-14.8-42.3c-12.8,0.5-55.7,26.2-50.7,42.5s15.5,23.8,25,24.2
		S589.5,376.9,595.2,360.2z"/>
	<path class="st6" d="M435,431.5c11,12.3,26.3-3.6,41.1-10.3c23.5-10.7,67.8-25.8,47.6-43.1c-9.4-8-8.1-16.9-31.1-8.4
		c-23,8.5-38.9,18.6-51.1,29.1C429.4,409.3,425.7,421.1,435,431.5z"/>
	<path class="st6" d="M520.2,333c11.2,0.8,23-14.6,23-14.6s8.5-14,2.1-18.8c-6.1-4.5-11.6,2.1-18.5,4.7l-0.3,0.1
		c-11.7,4.3-28.4,10.5-26.5,16.1C501.9,326.1,510.9,332.4,520.2,333z"/>
	<path class="st6" d="M455.1,336.5c23-6.4,33.9,8.7,21.7,18.9l-31.2,26.1c-12.2,10.2-26.9,12.9-31.1,7.8c-4.2-5-10.9-16.5-9.6-27.4
		C407.4,341.1,432.1,343,455.1,336.5z"/>
	<path class="st6" d="M486.8,299.5c6.4-3.5,9-7.3,11.8-13.8c1.6-3.7,0,0,0.4-13.2c0.3-9.5-22,1.2-23.4,9.4c-1.3,8.3-4.5,14-3.4,21.2
		S481.8,302.2,486.8,299.5z"/>
	<path class="st6" d="M433.3,327.8c0,0,32.6-18.7,22.9-31.5c-9.2-12-26.7-4.5-39.3,3.1c-11.8,7.1-26.5,17.7-18,28.9
		C406.9,338.7,433.3,327.8,433.3,327.8z"/>
	<path class="st6" d="M425,402.9c3,5.9-4.7,15.4-4.7,15.4s-8.1,9.8-14.6,7.7c-7-2.3-8.8-12.7-5.9-16.8S420.5,394.1,425,402.9z"/>
	<path class="st7" d="M590.6,358.1c5.5-16-2-42.8-14.8-42.3c-12.8,0.5-55.7,26.2-50.7,42.5s15.5,23.8,25,24.2
		S584.9,374.9,590.6,358.1z"/>
	<path class="st7" d="M430.4,429.5c11,12.3,26.3-3.6,41.1-10.3c23.5-10.7,67.8-25.8,47.6-43.1c-9.4-8-8.1-16.9-31.1-8.4
		c-23,8.5-38.9,18.6-51.1,29.1C424.8,407.2,421.1,419,430.4,429.5z"/>
	<path class="st7" d="M515.6,331c11.2,0.8,23-14.6,23-14.6s8.5-14,2.1-18.8c-6.1-4.5-11.6,2.1-18.5,4.7l-0.3,0.1
		c-11.7,4.3-28.4,10.5-26.5,16.1C497.3,324,506.3,330.3,515.6,331z"/>
	<path class="st7" d="M450.5,334.4c23-6.4,33.9,8.7,21.7,18.9L441,379.4c-12.2,10.2-26.9,12.9-31.1,7.8c-4.2-5-10.9-16.5-9.6-27.4
		C402.8,339,427.5,340.9,450.5,334.4z"/>
	<path class="st7" d="M482.2,297.4c6.4-3.5,9-7.3,11.8-13.8c1.6-3.7,0,0,0.4-13.2c0.3-9.5-22,1.2-23.4,9.4c-1.3,8.3-4.5,14-3.4,21.2
		S477.2,300.2,482.2,297.4z"/>
	<path class="st7" d="M428.7,325.7c0,0,32.6-18.7,22.9-31.5c-9.2-12-26.7-4.5-39.3,3.1c-11.8,7.1-26.5,17.7-18,28.9
		C402.3,336.7,428.7,325.7,428.7,325.7z"/>
	<path class="st7" d="M420.4,400.9c3,5.9-4.7,15.4-4.7,15.4s-8.1,9.8-14.6,7.7c-7-2.3-8.8-12.7-5.9-16.8S415.9,392,420.4,400.9z"/>
	<path class="st6" d="M532.7,239.7c-7,15.5-1.9,42.6,10.9,43.1c12.9,0.5,58.2-21.6,54.7-38.2c-3.5-16.6-13.4-24.8-22.8-25.9
		C566,217.6,540,223.5,532.7,239.7z"/>
	<path class="st6" d="M699.7,181.4c-9.9-13.1-26.6,1.5-42.1,7c-24.5,8.8-70.2,20.3-51.6,39c8.7,8.7,6.5,17.4,30.3,10.8
		c23.8-6.6,40.7-15.4,53.8-24.8C703.2,204,708,192.5,699.7,181.4z"/>
	<path class="st6" d="M605.4,272.5c-11.1-1.6-24.4,12.7-24.4,12.7s-9.8,13.3-3.8,18.5c5.7,4.9,11.8-1.2,19-3.2l0.3-0.1
		c12.1-3.4,29.4-8.2,28-13.9C623,280.8,614.6,273.8,605.4,272.5z"/>
	<path class="st6" d="M670.8,274.1c-23.6,4.6-33.2-11.3-20-20.4l33.6-23.5c13.1-9.2,28.1-10.6,31.9-5.3c3.7,5.3,9.4,17.2,7.1,27.9
		C719,273.3,694.4,269.5,670.8,274.1z"/>
	<path class="st6" d="M635.7,308.4c-6.7,3-9.7,6.6-13,12.7c-1.9,3.6,0,0-1.6,13c-1.2,9.4,22.2,0.6,24.3-7.5
		c2.1-8.1,5.8-13.5,5.4-20.7C650.2,298.7,640.9,306,635.7,308.4z"/>
	<path class="st6" d="M691.8,284.5c0,0-34.4,16-25.8,29.4c8.1,12.6,26.3,6.6,39.6,0c12.4-6.1,28.2-15.5,20.7-27.2
		C719.3,275.7,691.8,284.5,691.8,284.5z"/>
	<path class="st6" d="M707,210.6c-2.4-6,6.1-14.9,6.1-14.9s9-9.1,15.3-6.5c6.8,2.8,7.6,13.3,4.3,17.1
		C729.6,210.1,710.7,219.7,707,210.6z"/>
	<path class="st6" d="M736.3,175.3c-2-13.2,2.8-22,12.6-31.2c11.8-11,33.5-15.5,41.8-10.9c8.2,4.6,10.7,18.3,17.5,30.1
		c6.8,11.8-48.7,39.4-58.2,35.5C740.5,194.8,737.8,185.5,736.3,175.3z"/>
	<path class="st6" d="M781.4,208.1c-6.4-0.2-30.7,12.8-35.6,29.7c-3,10.4-6.6,20.2,2.2,28c6.1,5.5,20.6,5.8,20.6,5.8
		s53-12,48.5-34.5C813.7,220.6,787.8,208.3,781.4,208.1z"/>
	<path class="st7" d="M528.1,237.6c-7,15.5-1.9,42.6,10.9,43.1c12.9,0.5,58.2-21.6,54.7-38.2c-3.5-16.6-13.4-24.8-22.8-25.9
		C561.4,215.5,535.4,221.4,528.1,237.6z"/>
	<path class="st7" d="M695,179.4c-9.9-13.1-26.6,1.5-42.1,7c-24.5,8.8-70.2,20.3-51.6,39c8.7,8.7,6.5,17.4,30.3,10.8
		c23.8-6.6,40.7-15.4,53.8-24.8C698.6,201.9,703.4,190.4,695,179.4z"/>
	<path class="st7" d="M600.7,270.4c-11.1-1.6-24.4,12.7-24.4,12.7s-9.8,13.3-3.8,18.5c5.7,4.9,11.8-1.2,19-3.2l0.3-0.1
		c12.1-3.4,29.4-8.2,28-13.9C618.4,278.7,610,271.8,600.7,270.4z"/>
	<path class="st7" d="M666.2,272c-23.6,4.6-33.2-11.3-20-20.4l33.6-23.5c13.1-9.2,28.1-10.6,31.9-5.3c3.7,5.3,9.4,17.2,7.1,27.9
		C714.3,271.2,689.8,267.4,666.2,272z"/>
	<path class="st7" d="M631.1,306.3c-6.7,3-9.7,6.6-13,12.7c-1.9,3.6,0,0-1.6,13c-1.2,9.4,22.2,0.6,24.3-7.5
		c2.1-8.1,5.8-13.5,5.4-20.7C645.6,296.6,636.3,303.9,631.1,306.3z"/>
	<path class="st7" d="M687.2,282.4c0,0-34.4,16-25.8,29.4c8.1,12.6,26.3,6.6,39.6,0c12.4-6.1,28.2-15.5,20.7-27.2
		C714.7,273.6,687.2,282.4,687.2,282.4z"/>
	<path class="st7" d="M702.4,208.5c-2.4-6,6.1-14.9,6.1-14.9s9-9.1,15.3-6.5c6.8,2.8,7.6,13.3,4.3,17.1
		C724.9,208.1,706.1,217.6,702.4,208.5z"/>
	<path class="st7" d="M731.7,173.2c-2-13.2,2.8-22,12.6-31.2c11.8-11,33.5-15.5,41.8-10.9c8.2,4.6,10.7,18.3,17.5,30.1
		c6.8,11.8-48.7,39.4-58.2,35.5C735.9,192.7,733.2,183.4,731.7,173.2z"/>
	<path class="st7" d="M776.7,206c-6.4-0.2-30.7,12.8-35.6,29.7c-3,10.4-6.6,20.2,2.2,28c6.1,5.5,20.6,5.8,20.6,5.8s53-12,48.5-34.5
		C809.1,218.5,783.2,206.3,776.7,206z"/>
	<path class="st6" d="M1007.9,152.1c4.5-16.3-4.5-42.8-17.2-41.6c-12.7,1.1-53.9,29-48,45.1c5.9,16.1,16.9,23.1,26.3,23
		C978.5,178.4,1003.1,169.1,1007.9,152.1z"/>
	<path class="st6" d="M852.5,231.5c11.7,11.8,26-4.9,40.3-12.4c22.7-11.9,66-29.2,44.9-45.5c-9.8-7.6-9-16.5-31.4-6.9
		c-22.4,9.6-37.6,20.5-49.2,31.6C845.6,209.5,842.7,221.5,852.5,231.5z"/>
	<path class="st6" d="M931.6,128.6c11.2,0.2,22.1-15.7,22.1-15.7s7.7-14.5,1-18.9c-6.4-4.2-11.4,2.7-18.2,5.6l-0.3,0.1
		c-11.4,4.9-27.7,12-25.4,17.4C913,122.6,922.3,128.4,931.6,128.6z"/>
	<path class="st6" d="M867,135.3c22.5-7.6,34.3,7,22.7,17.8l-29.6,27.7c-11.5,10.8-26.1,14.2-30.5,9.4c-4.5-4.8-11.8-15.9-11.1-26.9
		C819.8,142.3,844.5,142.9,867,135.3z"/>
	<path class="st6" d="M896.4,96.6c6.1-3.9,8.6-7.8,10.9-14.4c1.3-3.8,0,0-0.3-13.2c-0.2-9.5-21.9,2.3-22.7,10.6
		c-0.8,8.3-3.6,14.2-2.2,21.4S891.6,99.7,896.4,96.6z"/>
	<path class="st6" d="M844.8,127.7c0,0,31.4-20.4,20.9-32.6c-9.8-11.5-26.8-3.2-38.9,5.1c-11.3,7.7-25.4,19-16.2,29.8
		C819.1,139.9,844.8,127.7,844.8,127.7z"/>
	<path class="st6" d="M840.9,203.3c3.3,5.7-3.8,15.6-3.8,15.6s-7.5,10.3-14.1,8.5c-7.1-2-9.5-12.3-6.8-16.5
		C818.9,206.7,835.9,194.7,840.9,203.3z"/>
	<path class="st7" d="M1003.3,150c4.5-16.3-4.5-42.8-17.2-41.6c-12.7,1.1-53.9,29-48,45.1c5.9,16.1,16.9,23.1,26.3,23
		C973.9,176.3,998.5,167.1,1003.3,150z"/>
	<path class="st7" d="M847.9,229.4c11.7,11.8,26-4.9,40.3-12.4c22.7-11.9,66-29.2,44.9-45.5c-9.8-7.6-9-16.5-31.4-6.9
		c-22.4,9.6-37.6,20.5-49.2,31.6C841,207.4,838,219.4,847.9,229.4z"/>
	<path class="st7" d="M927,126.5c11.2,0.2,22.1-15.7,22.1-15.7s7.7-14.5,1-18.9c-6.4-4.2-11.4,2.7-18.2,5.6l-0.3,0.1
		c-11.4,4.9-27.7,12-25.4,17.4C908.4,120.5,917.7,126.3,927,126.5z"/>
	<path class="st7" d="M862.4,133.2c22.5-7.6,34.3,7,22.7,17.8l-29.6,27.7c-11.5,10.8-26.1,14.2-30.5,9.4
		c-4.5-4.8-11.8-15.9-11.1-26.9C815.2,140.2,839.9,140.8,862.4,133.2z"/>
	<path class="st7" d="M891.8,94.6c6.1-3.9,8.6-7.8,10.9-14.4c1.3-3.8,0,0-0.3-13.2c-0.2-9.5-21.9,2.3-22.7,10.6
		c-0.8,8.3-3.6,14.2-2.2,21.4S887,97.6,891.8,94.6z"/>
	<path class="st7" d="M840.2,125.6c0,0,31.4-20.4,20.9-32.6c-9.8-11.5-26.8-3.2-38.9,5.1c-11.3,7.7-25.4,19-16.2,29.8
		C814.5,137.9,840.2,125.6,840.2,125.6z"/>
	<path class="st7" d="M836.3,201.3c3.3,5.7-3.8,15.6-3.8,15.6s-7.5,10.3-14.1,8.5c-7.1-2-9.5-12.3-6.8-16.5
		C814.2,204.6,831.3,192.6,836.3,201.3z"/>
	<path class="st6" d="M1478,61.4c-1.4-12-16.6-6.7-27.8-7.3c-17.8-1-49.4-6.2-44.6,12.2c2.2,8.6-2.1,14,14.5,16.3s29.8,1.1,41-1.7
		C1472.4,78.1,1479.2,71.6,1478,61.4z"/>
	<path class="st7" d="M1476.6,58.9c-1.4-12-16.6-6.7-27.8-7.3c-17.8-1-49.4-6.2-44.6,12.2c2.2,8.6-2.1,14,14.5,16.3s29.8,1.1,41-1.7
		C1471,75.6,1477.8,69.1,1476.6,58.9z"/>
	<path class="st6" d="M1211.6,79.4c6.2,7.8,13.7-1.6,21.3-5.3c12-6,34.8-14.2,23.6-25.2c-5.2-5.1-4.8-10.5-16.6-5.9
		c-11.8,4.6-19.9,10.4-25.9,16.6C1207.9,65.7,1206.3,72.9,1211.6,79.4z"/>
	<path class="st6" d="M1227.5,39.8c3.2-2,4.5-4.3,5.7-8.1c0.7-2.2,0,0-0.2-8c-0.1-5.8-11.5,0.2-12,5.2c-0.4,5-1.9,8.4-1.1,12.8
		S1225,41.4,1227.5,39.8z"/>
	<path class="st6" d="M1202,36.8c0,0,16.6-10.7,11-18.7c-5.2-7.5-14.2-3.4-20.6,1c-6,4.1-13.4,10.2-8.5,17.2
		C1188.4,42.8,1202,36.8,1202,36.8z"/>
	<path class="st7" d="M1213.6,80.6c6.2,7.8,13.7-1.6,21.3-5.3c12-6,34.8-14.2,23.6-25.2c-5.2-5.1-4.8-10.5-16.6-5.9
		c-11.8,4.6-19.9,10.4-25.9,16.6C1209.9,66.9,1208.3,74.1,1213.6,80.6z"/>
	<path class="st7" d="M1225.5,38.2c3.2-2,4.5-4.3,5.7-8.1c0.7-2.2,0,0-0.2-8c-0.1-5.8-11.5,0.2-12,5.2c-0.4,5-1.9,8.4-1.1,12.8
		S1223,39.8,1225.5,38.2z"/>
	<path class="st7" d="M1199.9,35.2c0,0,16.6-10.7,11-18.7c-5.2-7.5-14.2-3.4-20.6,1c-6,4.1-13.4,10.2-8.5,17.2
		C1186.4,41.3,1199.9,35.2,1199.9,35.2z"/>
	<path class="st6" d="M78.4,433.2c6.7-10.1,6.3-29.6-2.8-31.2c-9.1-1.6-43.9,9.3-43.3,21.3s6.6,18.7,13.2,20.4
		C52.2,445.3,71.3,443.8,78.4,433.2z"/>
	<path class="st7" d="M75.8,431.4c6.7-10.1,6.3-29.6-2.8-31.2c-9.1-1.6-43.9,9.3-43.3,21.3s6.6,18.7,13.2,20.4
		C49.6,443.5,68.7,442,75.8,431.4z"/>
</g>
</svg>
