<?xml version="1.0" encoding="utf-8"?>
<!-- Generator: Adobe Illustrator 22.1.0, SVG Export Plug-In . SVG Version: 6.00 Build 0)  -->
<svg version="1.1" id="Layer_1" xmlns="http://www.w3.org/2000/svg" xmlns:xlink="http://www.w3.org/1999/xlink" x="0px" y="0px"
	 viewBox="0 0 1440 883.5" style="enable-background:new 0 0 1440 883.5;" xml:space="preserve">
<style type="text/css">
	.st0{opacity:0.8;}
	.st1{fill:#AEAEAE;}
	.st2{fill:#BDBDBD;}
	.st3{fill:#A6A6A6;}
	.st4{fill:#A2A2A2;}
	.st5{fill:#D5D5D5;fill-opacity:0.5;}
	.st6{fill:#A5A5A5;}
	.st7{fill:#B0B0B0;}
</style>
<g class="st0">
	<path class="st1" d="M869.7,254.3c265.9-40.2,494.8-74.9,610.7-281.4l166.1,104.9c-186.1,291.7-484.8,340-791.7,389.6
		c-333.7,53.9-677.2,109.5-896.4,481l-158.6-100.1C104.8,370,519.4,307.3,869.7,254.3z"/>
	<path class="st2" d="M861.4,242.9C1120.8,201,1344,165,1468.2-42.4l154.4,103.9c-197,292.9-488.6,343-788.2,394.5
		c-325.7,56-661,113.6-894.7,486.7l-147.4-99.2C115.3,363.2,519.7,298,861.4,242.9z"/>
	<path class="st3" d="M1434.1,65.4c-9.4,5.6,34.1-107.8,34.1-107.8l142.5,122.5c0,0-35.7,8.3-40.6,7.3c-4.9-1.1,9.5-12.4,5.7-18.3
		c-11.8-18.5-109,93.7-123.5,89.7c-14.6-4,106.9-150.9,73.3-120c-22.7,20.9-60.4,62.4-70,59.3c-15-4.7,58.9-75.5,43.1-77.6
		C1483,18.3,1458,51.2,1434.1,65.4z"/>
	<path class="st1" d="M1438,59.7c-9.4,5.6,30.2-102,30.2-102l178.3,120.1c0,0-67.6,5-72.6,3.9c-4.9-1.1,9.5-12.4,5.7-18.3
		c-11.8-18.5-109,93.7-123.5,89.7c-14.6-4,106.9-150.9,73.3-120c-22.7,20.9-60.4,62.4-70,59.3c-15-4.7,58.9-75.5,43.1-77.6
		C1486.9,12.6,1461.9,45.5,1438,59.7z"/>
	<path class="st4" d="M4.3,870.2c10.4-6.9-46.4,79.3-46.4,79.3l-165.7-106c0,0,47.3-16,53-15.2c5.7,0.9-10,14.6-5.4,21
		c14.5,20.1,75.4-38.8,95.2-58.6c19.8-19.9-72.4,126.4-36.1,89.4c24.6-25.1,94.7-76,105.9-73.3c17.4,4.3-92.2,90.7-74.2,92.1
		C-51.4,900.3-22,887.7,4.3,870.2z"/>
	<path class="st1" d="M5.6,868.3c10.4-6.9-50.2,85.1-50.2,85.1l-163.1-109.8c0,0,42.8-9.3,48.5-8.4c5.7,0.9-10,14.6-5.4,21
		c14.5,20.1,75.4-38.8,95.2-58.6c19.8-19.9-72.4,126.4-36.1,89.4c24.6-25.1,94.7-76,105.9-73.3c17.4,4.3-92.2,90.7-74.2,92.1
		C-55.9,907.1-20.7,885.8,5.6,868.3z"/>
	<path class="st5" d="M848.8,313.9L811,338.2l-31,6.2l22.1,14.9l2,33l29.4-11.8L821.6,438l177.7-144.7l-102.6,52.9l-21.4-28
		L850,344.1L848.8,313.9z"/>
	<path class="st5" d="M562.4,307.8l-33,17.5l-28.4,2.6l22,14.8l4.8,28.5l26.4-7.5l-5.9,48.4L701,303.7l-90.9,36.3l-22.5-26
		l-21.4,19.9L562.4,307.8z"/>
	<path class="st5" d="M0.7,680.8L-26.7,702l-21.4,7.3l13.6,9.2l-1.5,24.3l20.8-11.3L-28,775.2l131.9-122.4l-73.6,48l-12-18.9
		L-1,703.1L0.7,680.8z"/>
	<path class="st5" d="M1131.5,274.2l-33.6,17.1l-29,2.1l22.7,15.3l5.4,28.9l26.9-7.2l-5.3,48.8l154.7-107.1l-92.5,35.2l-23.4-26.6
		l-21.6,19.8L1131.5,274.2z"/>
	<path class="st5" d="M260.7,549.6l32.8,8.3l19.5,15.6l-3.4-23.7l16.8-22.6l-21.7-11l37.4-29.7l-170.8-19.1l82,30.9l-4,31.7
		l27.2-0.6L260.7,549.6z"/>
	<path class="st5" d="M1372.6,230.6l33.2,11.2l20,19.3l-4.1-28.1l16.4-25.9l-22.1-14l36.8-33.4l-172.4-30.3l83.4,40.1l-3.2,37.2
		l27.4,0.5L1372.6,230.6z"/>
	<path class="st6" d="M1534.9,126.3c5.8-4.1,10.3-5,17-5c3.9,0,0,0,11.6,4.3c8.4,3.1-10.6,18.1-18.3,16.3c-7.7-1.8-14-1.2-19.8-4.7
		C1519.6,133.8,1530.3,129.5,1534.9,126.3z"/>
	<path class="st6" d="M1487.2,161.3c0,0,30.4-20.8,37.1-8.1c6.4,12-7.6,24.1-19.7,32c-11.3,7.4-26.8,16.1-32.8,4.9
		C1466.2,179.7,1487.2,161.3,1487.2,161.3z"/>
	<path class="st6" d="M1418.5,141.5c-3.8-4.6-15.4-1.5-15.4-1.5s-12,3.4-13,9.5c-1.1,6.8,7.2,11.9,12,10.9
		C1406.9,159.5,1424.2,148.4,1418.5,141.5z"/>
	<path class="st6" d="M1374.7,149.8c-9.9-7.3-19.6-7.3-32.1-3.3c-14.9,4.8-29.5,20.4-29.8,29c-0.3,8.6,9.9,16.6,16.2,27.2
		c6.3,10.6,56.8-22.2,58.3-31.6C1388.8,161.7,1382.4,155.5,1374.7,149.8z"/>
	<path class="st6" d="M1379.5,200.5c3-5.3,25.8-19.3,42.3-15.9c10.1,2.1,20,3.5,22.1,13.9c1.5,7.3-5.4,19.1-5.4,19.1
		s-36.2,37.6-52.7,24.2C1373.7,232.1,1376.5,205.8,1379.5,200.5z"/>
	<path class="st7" d="M1535.7,121.6c5.8-4.1,10.3-5,17-5c3.9,0,0,0,11.6,4.3c8.4,3.1-10.6,18.1-18.3,16.3c-7.7-1.8-14-1.2-19.8-4.7
		C1520.4,129.2,1531.1,124.9,1535.7,121.6z"/>
	<path class="st7" d="M1488,156.7c0,0,30.4-20.8,37.1-8.1c6.4,12-7.6,24.1-19.7,32c-11.3,7.4-26.8,16.1-32.8,4.9
		C1467,175,1488,156.7,1488,156.7z"/>
	<path class="st7" d="M1419.3,136.9c-3.8-4.6-15.4-1.5-15.4-1.5s-12,3.4-13,9.5c-1.1,6.8,7.2,11.9,12,10.9
		C1407.7,154.9,1425,143.8,1419.3,136.9z"/>
	<path class="st7" d="M1380.3,195.9c3-5.3,25.8-19.3,42.3-15.9c10.1,2.1,20,3.5,22.1,13.9c1.5,7.3-5.4,19.1-5.4,19.1
		s-36.2,37.6-52.7,24.2C1374.5,227.5,1377.3,201.2,1380.3,195.9z"/>
	<path class="st6" d="M-17.7,805.7c-17.8-2.3-41.1-20-35.5-30.3c5.6-10.3,47.7-34.8,61.7-23.6c14,11.1,17.1,23,13.7,31
		C18.8,790.7,1,808.2-17.7,805.7z"/>
	<path class="st6" d="M115.7,704.1c7.7,14.4-13.9,20.2-26.4,29.5c-19.8,14.8-52.1,44.9-61,20.9c-4.1-11.2-13.3-13.9,4.1-29.2
		C49.7,709.8,65.9,701,81,695.4C96.1,689.9,109.2,691.9,115.7,704.1z"/>
	<path class="st6" d="M-14.5,732.2c-3.7,9.6-23.4,12.7-23.4,12.7s-17.1,1-19.2-6.3c-2-7,6.7-8.7,11.9-13.3l0.2-0.2
		c8.8-7.8,21.6-19,26.3-15C-14,714.1-11.4,724.2-14.5,732.2z"/>
	<path class="st6" d="M14.8,679.9c-15.4,16.2-5,31.7,9.9,26l37.9-14.6c14.8-5.7,23.3-16.7,20-22.3c-3.3-5.6-11.8-16-23-19.6
		C38.2,642.6,30.2,663.7,14.8,679.9z"/>
	<path class="st6" d="M-34.1,690.2c-6,3.7-10.8,4.3-18.1,3.8c-4.2-0.3,0,0-13-5.3c-9.4-3.8,9.9-17.7,18.5-15.2
		c8.6,2.4,15.4,2.3,22,6.2C-18.1,683.7-29.3,687.3-34.1,690.2z"/>
	<path class="st6" d="M14.9,658.2c0,0-31.3,18.9-39.8,5.4c-8.1-12.7,6.1-23.9,18.6-31.1c11.6-6.7,27.8-14.3,35.4-2.5
		C36.1,641.1,14.9,658.2,14.9,658.2z"/>
	<path class="st6" d="M91.7,683.5c4.6,5,16.9,2.7,16.9,2.7s12.8-2.5,13.3-8.7c0.5-6.8-8.9-12.7-14.1-12
		C102.7,666.1,84.8,676.1,91.7,683.5z"/>
	<path class="st7" d="M-17.9,801.1c-17.8-2.3-41.1-20-35.5-30.3c5.6-10.3,47.7-34.8,61.7-23.6c14,11.1,17.1,23,13.7,31
		C18.6,786.1,0.8,803.5-17.9,801.1z"/>
	<path class="st7" d="M115.5,699.4c7.7,14.4-13.9,20.2-26.4,29.5c-19.8,14.8-52.1,44.9-61,20.9c-4.1-11.2-13.3-13.9,4.1-29.2
		c17.4-15.3,33.6-24.2,48.7-29.7C95.9,685.2,109,687.2,115.5,699.4z"/>
	<path class="st7" d="M-14.7,727.5C-18.3,737-38,740.2-38,740.2s-17.1,1-19.2-6.3c-2-7,6.7-8.7,11.9-13.3l0.2-0.2
		c8.8-7.8,21.6-19,26.3-15C-14.2,709.4-11.6,719.5-14.7,727.5z"/>
	<path class="st7" d="M14.6,675.2c-15.4,16.2-5,31.7,9.9,26l37.9-14.6c14.8-5.7,23.3-16.7,20-22.3c-3.3-5.6-11.8-16-23-19.6
		C38,637.9,30,659,14.6,675.2z"/>
	<path class="st7" d="M-34.3,685.5c-6,3.7-10.8,4.3-18.1,3.8c-4.2-0.3,0,0-13-5.3c-9.4-3.8,9.9-17.7,18.5-15.2
		c8.6,2.4,15.4,2.3,22,6.2C-18.3,679-29.6,682.6-34.3,685.5z"/>
	<path class="st7" d="M14.7,653.5c0,0-31.3,18.9-39.8,5.4c-8.1-12.7,6.1-23.9,18.6-31.1c11.6-6.7,27.8-14.3,35.4-2.5
		C35.9,636.4,14.7,653.5,14.7,653.5z"/>
	<path class="st7" d="M91.4,678.9c4.6,5,16.9,2.7,16.9,2.7s12.8-2.5,13.3-8.7c0.5-6.8-8.9-12.7-14.1-12
		C102.5,661.4,84.6,671.4,91.4,678.9z"/>
	<path class="st6" d="M1357.7,142.4c18,7.9,34.6,35,23.8,45.4c-10.8,10.3-67.2,26.2-77,9.3c-9.8-16.9-7.6-31.6-0.2-39.8
		C1311.7,149.1,1338.9,134.2,1357.7,142.4z"/>
	<path class="st6" d="M1167.6,221c-1.5-18.9,24.3-19.2,42-26.3c28.1-11.3,76.7-36.7,75-6.3c-0.8,14.1,7.8,20-18,32.6
		c-25.8,12.6-47.2,18.1-65.9,20.1C1181.9,243,1168.9,236.9,1167.6,221z"/>
	<path class="st6" d="M1319.9,226.5c8.4-10,30.9-7.9,30.9-7.9s18.8,3.8,17.6,12.9c-1.2,8.6-11.2,8.1-19,11.9l-0.3,0.1
		c-13.1,6.4-31.9,15.6-35.1,9.6C1310.9,247.2,1312.9,234.7,1319.9,226.5z"/>
	<path class="st6" d="M1264.2,278.2c24-14.2,20.1-35.2,1.6-32.9l-47.4,5.8c-18.5,2.3-32.7,12.5-31.8,20c0.9,7.4,5.1,21.9,15.4,29.4
		C1221.7,314.6,1240.2,292.4,1264.2,278.2z"/>
	<path class="st6" d="M1321.2,280.6c8.2-2.6,13.5-1.8,21.2,0.9c4.4,1.6,0,0,11.5,9.9c8.3,7.2-18.8,17.5-26.9,12.2
		c-8.1-5.3-15.4-7.2-20.6-13.6S1314.8,282.6,1321.2,280.6z"/>
	<path class="st6" d="M1254,303.3c0,0,42.3-12.7,45.1,5.4c2.7,17-17.8,25.9-34.4,30.5c-15.6,4.3-36.4,8.4-39-7.4
		C1223.3,316.9,1254,303.3,1254,303.3z"/>
	<path class="st6" d="M1183.7,251.6c-2.5-7.1-16.8-8.1-16.8-8.1s-14.9-0.9-18.3,6.2c-3.8,7.7,3.6,17.2,9.4,18
		C1163.8,268.6,1187.5,262.3,1183.7,251.6z"/>
	<path class="st6" d="M1131.1,243.9c-8.5-12.8-19.4-16.7-35-17c-18.7-0.4-41.1,12.5-44.8,22.8c-3.6,10.3,4.9,24,8,39.3
		c3.1,15.3,72.8-3.6,78-14.4C1142.4,263.9,1137.6,253.8,1131.1,243.9z"/>
	<path class="st6" d="M1117.2,306.7c5.4-5.2,36.6-12.7,53.9-1.9c10.7,6.6,21.3,12.3,19.8,25.7c-1.1,9.4-13.4,20.8-13.4,20.8
		s-55.3,30.5-68.8,7.7C1098.7,342.3,1111.8,311.8,1117.2,306.7z"/>
	<path class="st7" d="M1360.4,137.2c18,7.9,34.6,35,23.8,45.4c-10.8,10.3-67.2,26.2-77,9.3c-9.8-16.9-7.6-31.6-0.2-39.8
		C1314.4,143.9,1341.5,129,1360.4,137.2z"/>
	<path class="st7" d="M1170.3,215.7c-1.5-18.9,24.3-19.2,42-26.3c28.1-11.3,76.7-36.7,75-6.3c-0.8,14.1,7.8,20-18,32.6
		c-25.8,12.6-47.2,18.1-65.9,20.1C1184.6,237.8,1171.5,231.7,1170.3,215.7z"/>
	<path class="st7" d="M1322.5,221.2c8.4-10,30.9-7.9,30.9-7.9s18.8,3.8,17.6,12.9c-1.2,8.6-11.2,8.1-19,11.9l-0.3,0.1
		c-13.1,6.4-31.9,15.6-35.1,9.6C1313.6,241.9,1315.6,229.5,1322.5,221.2z"/>
	<path class="st7" d="M1266.9,273c24-14.2,20.1-35.2,1.6-32.9l-47.4,5.8c-18.5,2.3-32.7,12.5-31.8,20c0.9,7.4,5.1,21.9,15.4,29.4
		C1224.4,309.4,1242.8,287.2,1266.9,273z"/>
	<path class="st7" d="M1323.9,275.4c8.2-2.6,13.5-1.8,21.2,0.9c4.4,1.6,0,0,11.5,9.9c8.3,7.2-18.8,17.5-26.9,12.2
		c-8.1-5.3-15.4-7.2-20.6-13.6S1317.5,277.4,1323.9,275.4z"/>
	<path class="st7" d="M1256.6,298.1c0,0,42.3-12.7,45.1,5.4c2.7,17-17.8,25.9-34.4,30.5c-15.6,4.3-36.4,8.4-39-7.4
		C1225.9,311.7,1256.6,298.1,1256.6,298.1z"/>
	<path class="st7" d="M1186.4,246.4c-2.5-7.1-16.8-8.1-16.8-8.1s-14.9-0.9-18.3,6.2c-3.8,7.7,3.6,17.2,9.4,18
		C1166.4,263.4,1190.2,257.1,1186.4,246.4z"/>
	<path class="st7" d="M1133.7,238.7c-8.5-12.8-19.4-16.7-35-17c-18.7-0.4-41.1,12.5-44.8,22.8c-3.6,10.3,4.9,24,8,39.3
		c3.1,15.3,72.8-3.6,78-14.4C1145.1,258.7,1140.2,248.6,1133.7,238.7z"/>
	<path class="st7" d="M1119.8,301.5c5.4-5.2,36.6-12.7,53.9-1.9c10.7,6.6,21.3,12.3,19.8,25.7c-1.1,9.4-13.4,20.8-13.4,20.8
		s-55.3,30.5-68.8,7.7C1101.3,337.1,1114.4,306.6,1119.8,301.5z"/>
	<path class="st6" d="M157.9,675.8c-19.7-4.5-44.8-27.5-38.4-39c6.4-11.5,53.7-35.6,68.8-21.2c15.2,14.4,18.3,28.6,14.3,37.6
		C198.6,662,178.5,680.5,157.9,675.8z"/>
	<path class="st6" d="M308.1,570.9c8.1,17.6-15.9,22.1-30,31.7c-22.3,15.2-58.9,47-68,18c-4.3-13.5-14.3-17.6,5.3-33.7
		c19.7-16.1,37.8-24.7,54.6-29.6C286.9,552.4,301.3,556.1,308.1,570.9z"/>
	<path class="st6" d="M163.5,590.3c-4.3,10.8-26.2,12.5-26.2,12.5s-19-0.6-21-9.4c-2-8.3,7.6-9.4,13.5-14.3l0.2-0.2
		c10-8.2,24.4-19.9,29.4-14.8C164.6,569.3,167.1,581.4,163.5,590.3z"/>
	<path class="st6" d="M197.3,532.4c-17.5,17.3-6.4,36.5,10.2,31.4l42.3-13.1c16.5-5.1,26.2-17.1,22.7-24
		c-3.4-6.9-12.6-19.9-24.8-25.2C224.2,491.3,214.8,515.2,197.3,532.4z"/>
	<path class="st6" d="M143.1,539.4c-6.7,3.7-12,3.9-20.1,2.6c-4.7-0.8,0,0-14.3-7.5c-10.3-5.4,11.4-19.6,20.9-15.9
		c9.4,3.7,17,4.3,24.2,9.5C160.9,533.5,148.3,536.5,143.1,539.4z"/>
	<path class="st6" d="M198,507.1c0,0-35.1,18.8-44.2,2.2c-8.5-15.6,7.5-27.3,21.4-34.3c13-6.6,31.2-13.8,39.2,0.7
		C221.9,489.3,198,507.1,198,507.1z"/>
	<path class="st6" d="M282.2,544.6c4.9,6.3,18.6,4.9,18.6,4.9s14.3-1.6,15-8.8c0.8-7.9-9.5-15.7-15.2-15.5
		C294.8,525.4,274.8,535.1,282.2,544.6z"/>
	<path class="st6" d="M325,481.8c-3.2,5.7-29.8,17.9-49.8,10.5c-12.3-4.5-24.3-8.1-27.6-21.1c-2.3-9,5.2-21.8,5.2-21.8
		s41-37.7,61.7-18.4C329.6,445.2,328.2,476.1,325,481.8z"/>
	<path class="st7" d="M160.2,669.2c-19.7-4.5-44.8-27.5-38.4-39c6.4-11.5,53.7-35.6,68.8-21.2c15.2,14.4,18.3,28.6,14.3,37.6
		C200.9,655.4,180.8,673.9,160.2,669.2z"/>
	<path class="st7" d="M310.5,564.3c8.1,17.6-15.9,22.1-30,31.7c-22.3,15.2-58.9,47-68,18c-4.3-13.5-14.3-17.6,5.3-33.7
		c19.7-16.1,37.8-24.7,54.6-29.6C289.3,545.8,303.6,549.5,310.5,564.3z"/>
	<path class="st7" d="M165.9,583.7c-4.3,10.8-26.2,12.5-26.2,12.5s-19-0.6-21-9.4c-2-8.3,7.6-9.4,13.5-14.3l0.2-0.2
		c10-8.2,24.4-19.9,29.4-14.8C166.9,562.7,169.5,574.8,165.9,583.7z"/>
	<path class="st7" d="M199.6,525.8c-17.5,17.3-6.4,36.5,10.2,31.4l42.3-13.1c16.5-5.1,26.2-17.1,22.7-24
		c-3.4-6.9-12.6-19.9-24.8-25.2C226.5,484.7,217.1,508.5,199.6,525.8z"/>
	<path class="st7" d="M145.4,532.8c-6.7,3.7-12,3.9-20.1,2.6c-4.7-0.8,0,0-14.3-7.5c-10.3-5.4,11.4-19.6,20.9-15.9
		c9.4,3.7,17,4.3,24.2,9.5C163.2,526.9,150.7,529.9,145.4,532.8z"/>
	<path class="st7" d="M200.4,500.5c0,0-35.1,18.8-44.2,2.2c-8.5-15.6,7.5-27.3,21.4-34.3c13-6.6,31.2-13.8,39.2,0.7
		C224.3,482.7,200.4,500.5,200.4,500.5z"/>
	<path class="st7" d="M284.5,537.9c4.9,6.3,18.6,4.9,18.6,4.9s14.3-1.6,15-8.8c0.8-7.9-9.5-15.7-15.2-15.5
		C297.2,518.7,277.1,528.5,284.5,537.9z"/>
	<path class="st7" d="M327.3,475.2c-3.2,5.7-29.8,17.9-49.8,10.5c-12.3-4.5-24.3-8.1-27.6-21.1c-2.3-9,5.2-21.8,5.2-21.8
		s41-37.7,61.7-18.4C332,438.6,330.5,469.5,327.3,475.2z"/>
	<path class="st6" d="M866.7,426.2c-16.5-10.5-29.1-40.1-17.2-48.9c11.9-8.8,69.2-16.7,76.5,1.7c7.3,18.4,3.2,32.8-5.2,39.9
		C912.5,426.1,884,437.2,866.7,426.2z"/>
	<path class="st6" d="M1063,374.8c-1.1,19.1-26.3,15.8-44.6,20.4c-28.9,7.3-79.9,25.7-74.2-4.5c2.7-14.1-4.9-21.1,22-30.1
		c26.9-9,48.6-11.4,67.2-10.7C1052,350.6,1063.9,358.6,1063,374.8z"/>
	<path class="st6" d="M914.9,347.4c-9.5,8.8-31.3,3.5-31.3,3.5s-17.9-6.5-15.5-15.5c2.3-8.5,12-6.5,20.1-9.2l0.3-0.1
		c13.7-4.5,33.3-11.1,35.6-4.6C926.4,327.9,922.8,340.1,914.9,347.4z"/>
	<path class="st6" d="M976.2,303.5c-25.4,10.8-24.4,32.4-6,32.8l47.1,1c18.4,0.4,33.6-7.9,33.8-15.5c0.2-7.6-2.1-22.7-11.1-31.7
		C1022.6,273.1,1001.6,292.7,976.2,303.5z"/>
	<path class="st6" d="M920.8,292.9c-8.3,1.4-13.5-0.1-20.6-3.9c-4.1-2.2,0,0-9.9-11.6c-7.2-8.4,20.8-14.9,27.9-8.4
		c7.2,6.5,14.1,9.4,18.4,16.6C940.8,292.9,927.3,291.8,920.8,292.9z"/>
	<path class="st6" d="M989.6,279.8c0,0-43,6.7-43.4-11.9c-0.3-17.5,20.8-23.4,37.7-25.6c15.8-2.1,36.8-3.2,37.1,13.1
		C1021.4,270.6,989.6,279.8,989.6,279.8z"/>
	<path class="st6" d="M1051.4,341.7c1.5,7.5,15.4,10.5,15.4,10.5s14.5,3,18.8-3.6c4.7-7.2-1.3-17.8-6.8-19.4
		C1073.1,327.6,1049,330.5,1051.4,341.7z"/>
	<path class="st7" d="M869.3,421c-16.5-10.5-29.1-40.1-17.2-48.9c11.9-8.8,69.2-16.7,76.5,1.7c7.3,18.4,3.2,32.8-5.2,39.9
		C915.2,420.9,886.6,432,869.3,421z"/>
	<path class="st7" d="M1065.7,369.6c-1.1,19.1-26.3,15.8-44.6,20.4c-28.9,7.3-79.9,25.7-74.2-4.5c2.7-14.1-4.9-21.1,22-30.1
		c26.9-9,48.6-11.4,67.2-10.7C1054.7,345.4,1066.6,353.4,1065.7,369.6z"/>
	<path class="st7" d="M917.5,342.2c-9.5,8.8-31.3,3.5-31.3,3.5s-17.9-6.5-15.5-15.5c2.3-8.5,12-6.5,20.1-9.2l0.3-0.1
		c13.7-4.5,33.3-11.1,35.6-4.6C929,322.7,925.4,334.9,917.5,342.2z"/>
	<path class="st7" d="M978.9,298.2c-25.4,10.8-24.4,32.4-6,32.8l47.1,1c18.4,0.4,33.6-7.9,33.8-15.5c0.2-7.6-2.1-22.7-11.1-31.7
		C1025.2,267.9,1004.3,287.4,978.9,298.2z"/>
	<path class="st7" d="M923.4,287.7c-8.3,1.4-13.5-0.1-20.6-3.9c-4.1-2.2,0,0-9.9-11.6c-7.2-8.4,20.8-14.9,27.9-8.4
		c7.2,6.5,14.1,9.4,18.4,16.6C943.5,287.7,930,286.6,923.4,287.7z"/>
	<path class="st7" d="M992.2,274.6c0,0-43,6.7-43.4-11.9c-0.3-17.5,20.8-23.4,37.7-25.6c15.8-2.1,36.8-3.2,37.1,13.1
		C1024,265.3,992.2,274.6,992.2,274.6z"/>
	<path class="st7" d="M1054,336.5c1.5,7.5,15.4,10.5,15.4,10.5s14.5,3,18.8-3.6c4.7-7.2-1.3-17.8-6.8-19.4
		C1075.8,322.4,1051.7,325.3,1054,336.5z"/>
	<path class="st6" d="M836.1,272.1c17.5,8.9,32.5,37.1,21.3,46.8c-11.3,9.8-68.2,22.6-77,5c-8.8-17.5-5.9-32.1,1.9-39.9
		C790.1,276.2,817.8,262.7,836.1,272.1z"/>
	<path class="st6" d="M643.1,340.2c-0.5-19,25.1-17.9,43.1-24.1c28.5-9.7,78.1-32.5,74.8-2.1c-1.5,14.1,6.7,20.5-19.6,31.7
		c-26.3,11.2-47.8,15.5-66.6,16.5C656.2,363.2,643.6,356.3,643.1,340.2z"/>
	<path class="st6" d="M794.1,354.3c8.9-9.5,31.2-6.2,31.2-6.2s18.5,4.9,16.8,13.9c-1.6,8.6-11.5,7.5-19.5,10.9l-0.3,0.1
		c-13.3,5.7-32.6,13.9-35.4,7.7C784.2,374.5,786.8,362.2,794.1,354.3z"/>
	<path class="st6" d="M736.1,403.1c24.6-12.9,21.8-34.2,3.3-33l-47.4,3.2c-18.5,1.2-33.1,10.7-32.7,18.3c0.5,7.5,3.9,22.3,13.8,30.3
		C692,437.2,711.5,416,736.1,403.1z"/>
	<path class="st6" d="M792.7,408.7c8.2-2.1,13.5-1.1,21,2.1c4.3,1.8,0,0,10.9,10.6c7.9,7.6-19.6,16.5-27.4,10.7
		c-7.7-5.8-15-8-19.8-14.8C772.5,410.4,786.2,410.3,792.7,408.7z"/>
	<path class="st6" d="M724.6,427.7c0,0,42.7-10.4,44.5,7.9c1.8,17.2-19,25-35.8,28.6c-15.7,3.4-36.7,6.4-38.4-9.7
		C693.5,439.6,724.6,427.7,724.6,427.7z"/>
	<path class="st6" d="M657.5,371.9c-2.2-7.2-16.3-9-16.3-9s-14.8-1.7-18.6,5.2c-4.1,7.5,2.7,17.5,8.4,18.6
		C636.8,387.8,660.8,382.8,657.5,371.9z"/>
	<path class="st6" d="M605.6,361.2c-7.8-13.4-18.4-17.9-33.9-19c-18.6-1.4-41.5,10.3-45.7,20.3c-4.1,10.1,3.6,24.3,5.9,39.9
		c2.3,15.6,72.5,0.4,78.2-10C615.9,381.9,611.6,371.5,605.6,361.2z"/>
	<path class="st6" d="M588.6,423.4c5.6-4.9,37-10.7,53.6,1.1c10.2,7.3,20.5,13.5,18.3,26.9c-1.5,9.4-14.4,20.1-14.4,20.1
		s-56.5,27.5-68.8,3.9C568.3,458.2,582.9,428.3,588.6,423.4z"/>
	<path class="st7" d="M838.8,266.9c17.5,8.9,32.5,37.1,21.3,46.8c-11.3,9.8-68.2,22.6-77,5c-8.8-17.5-5.9-32.1,1.9-39.9
		C792.7,271,820.5,257.5,838.8,266.9z"/>
	<path class="st7" d="M645.8,335c-0.5-19,25.1-17.9,43.1-24.1c28.5-9.7,78.1-32.5,74.8-2.1c-1.5,14.1,6.7,20.5-19.6,31.7
		c-26.3,11.2-47.8,15.5-66.6,16.5C658.8,358,646.2,351.1,645.8,335z"/>
	<path class="st7" d="M796.8,349.1c8.9-9.5,31.2-6.2,31.2-6.2s18.5,4.9,16.8,13.9c-1.6,8.6-11.5,7.5-19.5,10.9l-0.3,0.1
		c-13.3,5.7-32.6,13.9-35.4,7.7C786.8,369.3,789.4,357,796.8,349.1z"/>
	<path class="st7" d="M738.8,397.9c24.6-12.9,21.8-34.2,3.3-33l-47.4,3.2c-18.5,1.2-33.1,10.7-32.7,18.3c0.5,7.5,3.9,22.3,13.8,30.3
		C694.7,432,714.2,410.8,738.8,397.9z"/>
	<path class="st7" d="M795.3,403.4c8.2-2.1,13.5-1.1,21,2.1c4.3,1.8,0,0,10.9,10.6c7.9,7.6-19.6,16.5-27.4,10.7
		c-7.7-5.8-15-8-19.8-14.8C775.2,405.2,788.9,405.1,795.3,403.4z"/>
	<path class="st7" d="M727.3,422.5c0,0,42.7-10.4,44.5,7.9c1.8,17.2-19,25-35.8,28.6c-15.7,3.4-36.7,6.4-38.4-9.7
		C696.1,434.4,727.3,422.5,727.3,422.5z"/>
	<path class="st7" d="M660.2,366.7c-2.2-7.2-16.3-9-16.3-9s-14.8-1.7-18.6,5.2c-4.1,7.5,2.7,17.5,8.4,18.6
		C639.5,382.6,663.4,377.6,660.2,366.7z"/>
	<path class="st7" d="M608.3,356c-7.8-13.4-18.4-17.9-33.9-19c-18.6-1.4-41.5,10.3-45.7,20.3c-4.1,10.1,3.6,24.3,5.9,39.9
		c2.3,15.6,72.5,0.4,78.2-10C618.5,376.7,614.2,366.3,608.3,356z"/>
	<path class="st7" d="M591.2,418.2c5.6-4.9,37-10.7,53.6,1.1c10.2,7.3,20.5,13.5,18.3,26.9c-1.5,9.4-14.4,20.1-14.4,20.1
		s-56.5,27.5-68.8,3.9C571,452.9,585.6,423.1,591.2,418.2z"/>
	<path class="st6" d="M343.4,536.7c-15.9-11.5-26.9-41.9-14.5-50c12.3-8.2,69.7-12.8,76,6c6.3,18.8,1.5,33.1-7.2,39.8
		C388.9,539.2,360,548.7,343.4,536.7z"/>
	<path class="st6" d="M541.1,496.1c-2,19.1-27,14.4-45.3,18c-29.1,5.7-80.7,21.4-73.5-8.6c3.4-14-3.8-21.5,23.4-29
		c27.2-7.5,48.9-8.7,67.3-7C531.5,471.2,542.9,479.9,541.1,496.1z"/>
	<path class="st6" d="M395.4,460.3c-9.9,8.3-31.3,1.7-31.3,1.7s-17.4-7.5-14.6-16.4c2.7-8.4,12.3-5.9,20.5-8.1l0.3-0.1
		c13.8-3.8,33.7-9.2,35.6-2.7C407.8,441.4,403.6,453.4,395.4,460.3z"/>
	<path class="st6" d="M458.6,419.6c-25.8,9.4-25.9,31.2-7.7,32.6l46.7,3.6c18.2,1.4,33.8-6,34.4-13.6c0.5-7.6-0.9-22.9-9.4-32.4
		C506.3,391.8,484.4,410.2,458.6,419.6z"/>
	<path class="st6" d="M404,406c-8.3,0.9-13.4-0.8-20.2-5.1c-3.9-2.5,0,0-9.2-12.2c-6.7-8.8,21.4-13.8,28.2-6.8
		c6.8,6.9,13.6,10.2,17.4,17.7C424,407.1,410.6,405.2,404,406z"/>
	<path class="st6" d="M473.1,396.7c0,0-43.1,4.3-42.5-14.3c0.6-17.5,21.9-22.3,38.8-23.6c15.8-1.2,36.7-1.2,36.2,15.2
		C505.2,389.2,473.1,396.7,473.1,396.7z"/>
	<path class="st6" d="M531.3,462.2c1.1,7.6,14.7,11.4,14.7,11.4s14.2,3.8,18.8-2.5c5-6.9-0.3-17.9-5.8-19.9
		C553.6,449.3,529.6,450.8,531.3,462.2z"/>
	<path class="st7" d="M346,531.5c-15.9-11.5-26.9-41.9-14.5-50c12.3-8.2,69.7-12.8,76,6c6.3,18.8,1.5,33.1-7.2,39.8
		C391.6,534,362.7,543.5,346,531.5z"/>
	<path class="st7" d="M543.8,490.9c-2,19.1-27,14.4-45.3,18c-29.1,5.7-80.7,21.4-73.5-8.6c3.4-14-3.8-21.5,23.4-29
		c27.2-7.5,48.9-8.7,67.3-7C534.1,466,545.5,474.7,543.8,490.9z"/>
	<path class="st7" d="M398,455.1c-9.9,8.3-31.3,1.7-31.3,1.7s-17.4-7.5-14.6-16.4c2.7-8.4,12.3-5.9,20.5-8.1l0.3-0.1
		c13.8-3.8,33.7-9.2,35.6-2.7C410.5,436.2,406.3,448.2,398,455.1z"/>
	<path class="st7" d="M461.2,414.4c-25.8,9.4-25.9,31.2-7.7,32.6l46.7,3.6c18.2,1.4,33.8-6,34.4-13.6c0.5-7.6-0.9-22.9-9.4-32.4
		C508.9,386.6,487.1,405,461.2,414.4z"/>
	<path class="st7" d="M406.7,400.8c-8.3,0.9-13.4-0.8-20.2-5.1c-3.9-2.5,0,0-9.2-12.2c-6.7-8.8,21.4-13.8,28.2-6.8
		c6.8,6.9,13.6,10.2,17.4,17.7C426.6,401.9,413.3,400,406.7,400.8z"/>
	<path class="st7" d="M475.8,391.4c0,0-43.1,4.3-42.5-14.3c0.6-17.5,21.9-22.3,38.8-23.6c15.8-1.2,36.7-1.2,36.2,15.2
		C507.9,384,475.8,391.4,475.8,391.4z"/>
	<path class="st7" d="M534,457c1.1,7.6,14.7,11.4,14.7,11.4s14.2,3.8,18.8-2.5c5-6.9-0.3-17.9-5.8-19.9S532.2,445.6,534,457z"/>
	<path class="st6" d="M106.8,618.4c0,11.5-13.5,8.5-23.1,10.6c-15.2,3.2-41.7,12.4-39.6-5.7c1-8.4-3.3-13,10.8-17.3
		c14-4.3,25.5-4.9,35.4-3.8C100.2,603.3,106.8,608.7,106.8,618.4z"/>
	<path class="st6" d="M63.7,594.2c-4.4,0.5-7.2-0.6-11.1-3.2c-2.2-1.5,0,0-5.6-7.4c-4.1-5.3,10.6-8.2,14.6-3.9
		c4,4.2,7.8,6.2,10.3,10.8C74.4,595,67.2,593.7,63.7,594.2z"/>
	<path class="st6" d="M84.7,572.9c0,0-22.7,2.3-23.4-8.9c-0.7-10.6,10.4-13.3,19.3-14c8.3-0.6,19.5-0.5,20.1,9.4
		C101.3,568.6,84.7,572.9,84.7,572.9z"/>
	<path class="st7" d="M105.9,621c0,11.5-13.5,8.5-23.1,10.6c-15.2,3.2-41.7,12.4-39.6-5.7c1-8.4-3.3-13,10.8-17.3
		c14-4.3,25.5-4.9,35.4-3.8C99.3,605.9,105.9,611.2,105.9,621z"/>
	<path class="st7" d="M64.4,591.3c-4.4,0.5-7.2-0.6-11.1-3.2c-2.2-1.5,0,0-5.6-7.4c-4.1-5.3,10.6-8.2,14.6-3.9
		c4,4.2,7.8,6.2,10.3,10.8C75.1,592.1,67.9,590.9,64.4,591.3z"/>
	<path class="st7" d="M85.4,570c0,0-22.7,2.3-23.4-8.9c-0.7-10.6,10.4-13.3,19.3-14c8.3-0.6,19.5-0.5,20.1,9.4
		C102,565.7,85.4,570,85.4,570z"/>
	<path class="st6" d="M1386.5,118.3c-13.4-4.2-27.1-22.2-20-30.2c7-8,46.4-23.3,54.5-12.1c8.1,11.2,7.5,21.7,2.8,28
		C1418.9,110.3,1400.5,122.7,1386.5,118.3z"/>
	<path class="st7" d="M1387.5,114.8c-13.4-4.2-27.1-22.2-20-30.2c7-8,46.4-23.3,54.5-12.1c8.1,11.2,7.5,21.7,2.8,28
		C1420,106.8,1401.6,119.3,1387.5,114.8z"/>
</g>
</svg>
