<?xml version="1.0" encoding="utf-8"?>
<!-- Generator: Adobe Illustrator 22.1.0, SVG Export Plug-In . SVG Version: 6.00 Build 0)  -->
<svg version="1.1" id="Layer_1" xmlns="http://www.w3.org/2000/svg" xmlns:xlink="http://www.w3.org/1999/xlink" x="0px" y="0px"
	 viewBox="0 0 1440 685.5" style="enable-background:new 0 0 1440 685.5;" xml:space="preserve">
<style type="text/css">
	.st0{opacity:0.8;}
	.st1{fill:#AEAEAE;}
	.st2{fill:#BDBDBD;}
	.st3{fill:#A6A6A6;}
	.st4{fill:#D5D5D5;fill-opacity:0.5;}
	.st5{fill:#A5A5A5;}
	.st6{fill:#B0B0B0;}
</style>
<g class="st0">
	<path class="st1" d="M597,215.5C328.5,198.9,97.4,184.6-36.2-11l-156.2,119.1C18.7,382.3,320.4,404,630.6,426.4
		c337.2,24.3,684.2,49.3,935.3,400.1l149.2-113.7C1369,263.3,950.6,237.4,597,215.5z"/>
	<path class="st2" d="M604.2,203.4C342.1,184.5,116.5,168.3-25.4-27.4L-170,89.8C52.1,364.2,346.9,388.5,649.9,413.4
		c329.4,27.1,668.4,55,934.2,406l138.1-111.8C1358,257.6,949.4,228.2,604.2,203.4z"/>
	<path class="st3" d="M18,77.1c9.9,4.7-43.5-104.4-43.5-104.4l-131.1,134.6c0,0,36.3,5.1,41.1,3.6c4.8-1.5-10.5-11.6-7.3-17.7
		c10.1-19.5,116.8,83.7,131,78.5c14.2-5.2-119.8-140.9-83.6-113.1c24.5,18.8,65.6,56.8,74.9,52.9c14.5-6-65.3-70-49.8-73.5
		C-34.8,34.5-7,65.1,18,77.1z"/>
	<path class="st1" d="M13.7,71.7c9.9,4.7-39.1-99-39.1-99l-167,135.4c0,0,67.8-1,72.6-2.5c4.8-1.5-10.5-11.6-7.3-17.7
		c10.1-19.5,116.8,83.7,131,78.5C18,161.1-116,25.4-79.8,53.2c24.5,18.8,65.6,56.8,74.9,52.9c14.5-6-65.3-70-49.8-73.5
		S-11.3,59.7,13.7,71.7z"/>
	<path class="st4" d="M623,273.1l39.8,20.9l31.4,3.5l-20.7,16.8l1,33l-30.3-9.2l16.9,56.3L471.2,265.8l106.9,43.7l18.9-29.7
		l27.6,23.5L623,273.1z"/>
	<path class="st4" d="M907.7,241.7l34.5,14.5l28.5,0.1L950,273l-2.3,28.8l-26.9-5.2l10.2,47.7l-161.7-94.5l93.8,28.1l20.1-27.8
		l23,17.9L907.7,241.7z"/>
	<path class="st4" d="M1500.1,563.7l29.2,18.7l22,5.3l-12.8,10.4l3.6,24.1l-21.7-9.4l16.7,42.4l-142.2-110.3l77.5,41.3l10.3-19.9
		l21.1,19.5L1500.1,563.7z"/>
	<path class="st4" d="M337.9,258.4l34.9,14.1l29.1-0.4l-21.3,17.3l-2.8,29.2l-27.4-4.8l9.6,48.1l-163.5-93.1l95.3,26.9l21-28.6
		l23.2,17.8L337.9,258.4z"/>
	<path class="st4" d="M1229.5,455.9l-31.9,11.1l-18,17.3l1.3-23.9l-18.8-21l20.6-12.9l-39.8-26.3l168.5-34.1l-79,38l6.8,31.2
		l-27.2,1.8L1229.5,455.9z"/>
	<path class="st4" d="M93.9,236.2l-32.1,14.1l-18.3,21l1.6-28.4l-18.6-24.4l20.8-15.9l-39.6-30l169.1-45.3l-79.5,47.3l6.5,36.8
		l-27.2,2.9L93.9,236.2z"/>
	<path class="st5" d="M-76.9,146.6c-6.2-3.6-10.7-4.1-17.4-3.5c-3.9,0.3,0,0-11.2,5.3c-8.1,3.8,12.1,17.1,19.7,14.7
		c7.5-2.5,13.9-2.4,19.3-6.4C-61.1,152.7-72.1,149.4-76.9,146.6z"/>
	<path class="st5" d="M-26.3,177.2c0,0-32.1-18.1-37.7-4.8c-5.3,12.5,9.7,23.3,22.4,30.1c11.9,6.4,28.1,13.6,33.1,2
		C-3.9,193.7-26.3,177.2-26.3,177.2z"/>
	<path class="st5" d="M40.4,151.5c3.4-4.9,15.2-2.9,15.2-2.9s12.3,2.3,13.8,8.4c1.6,6.6-6.1,12.5-11,11.9
		C53.5,168.4,35.3,158.9,40.4,151.5z"/>
	<path class="st5" d="M84.6,155.9c9.3-8.2,18.9-9,31.6-6.2c15.3,3.4,31.2,17.7,32.2,26.3c1.1,8.6-8.4,17.4-13.7,28.5
		c-5.4,11.1-58.6-17.1-60.8-26.4C71.7,169,77.5,162.2,84.6,155.9z"/>
	<path class="st5" d="M84.4,206.8c-3.4-5-27.4-16.9-43.5-12.1c-9.9,3-19.6,5.2-20.8,15.8c-0.9,7.4,7.1,18.6,7.1,18.6
		s39.4,34.3,54.6,19.5C92.9,237.8,87.8,211.8,84.4,206.8z"/>
	<path class="st6" d="M-78.1,142c-6.2-3.6-10.7-4.1-17.4-3.5c-3.9,0.3,0,0-11.2,5.3c-8.1,3.8,12.1,17.1,19.7,14.7
		c7.5-2.5,13.9-2.4,19.3-6.4C-62.3,148.2-73.3,144.8-78.1,142z"/>
	<path class="st6" d="M-27.5,172.7c0,0-32.1-18.1-37.7-4.8c-5.3,12.5,9.7,23.3,22.4,30.1c11.9,6.4,28.1,13.6,33.1,2
		C-5.1,189.2-27.5,172.7-27.5,172.7z"/>
	<path class="st6" d="M39.1,147c3.4-4.9,15.2-2.9,15.2-2.9s12.3,2.3,13.8,8.4c1.6,6.6-6.1,12.5-11,11.9
		C52.3,163.9,34.1,154.4,39.1,147z"/>
	<path class="st6" d="M83.2,202.3c-3.4-5-27.4-16.9-43.5-12.1c-9.9,3-19.6,5.2-20.8,15.8c-0.9,7.4,7.1,18.6,7.1,18.6
		s39.4,34.3,54.6,19.5C91.7,233.2,86.6,207.3,83.2,202.3z"/>
	<path class="st5" d="M1529.5,686.6c17.6-3.9,39.1-23.5,32.7-33.3c-6.5-9.8-50.6-30.4-63.5-18.1c-13,12.3-15,24.5-10.9,32.1
		C1491.8,674.8,1511.1,690.6,1529.5,686.6z"/>
	<path class="st5" d="M1387.7,597c-6.4,15,15.6,18.9,28.9,27c21,13,55.9,40.2,62.6,15.4c3.1-11.5,12.1-15-6.6-28.8
		c-18.7-13.7-35.6-21.1-51.1-25.3C1405.9,581.2,1393.1,584.3,1387.7,597z"/>
	<path class="st5" d="M1519.8,613.5c4.5,9.2,24.4,10.6,24.4,10.6s17.2-0.5,18.6-8c1.3-7.1-7.4-8.1-13-12.2l-0.2-0.2
		c-9.5-7-23.2-17-27.5-12.6C1517.7,595.6,1516,605.9,1519.8,613.5z"/>
	<path class="st5" d="M1486.1,564.1c16.8,14.8,7.7,31.2-7.5,26.8l-39.1-11.2c-15.3-4.4-24.6-14.6-21.9-20.5
		c2.8-5.9,10.3-17,21.1-21.6C1459.5,528.9,1469.3,549.3,1486.1,564.1z"/>
	<path class="st5" d="M1535.6,570.1c6.3,3.2,11.1,3.4,18.4,2.2c4.2-0.7,0,0,12.5-6.4c9.1-4.6-11.4-16.7-19.8-13.5
		c-8.4,3.2-15.2,3.6-21.4,8.2C1519.1,565,1530.6,567.5,1535.6,570.1z"/>
	<path class="st5" d="M1484,542.5c0,0,32.8,16.1,40.1,1.9c6.9-13.4-8.2-23.3-21.3-29.3c-12.2-5.6-29-11.8-35.5,0.6
		C1461.4,527.3,1484,542.5,1484,542.5z"/>
	<path class="st5" d="M1409.8,574.5c-4.1,5.4-16.6,4.2-16.6,4.2s-13-1.4-14.1-7.5c-1.1-6.7,7.8-13.4,13-13.2
		C1397.3,558.1,1416,566.4,1409.8,574.5z"/>
	<path class="st6" d="M1529.3,681.9c17.6-3.9,39.1-23.5,32.7-33.3c-6.5-9.8-50.6-30.4-63.5-18.1c-13,12.3-15,24.5-10.9,32.1
		C1491.6,670.1,1510.9,685.9,1529.3,681.9z"/>
	<path class="st6" d="M1387.5,592.3c-6.4,15,15.6,18.9,28.9,27c21,13,55.9,40.2,62.6,15.4c3.1-11.5,12.1-15-6.6-28.8
		c-18.7-13.7-35.6-21.1-51.1-25.3C1405.7,576.5,1392.9,579.6,1387.5,592.3z"/>
	<path class="st6" d="M1519.6,608.8c4.5,9.2,24.4,10.6,24.4,10.6s17.2-0.5,18.6-8c1.3-7.1-7.4-8.1-13-12.2l-0.2-0.2
		c-9.5-7-23.2-17-27.5-12.6C1517.5,590.9,1515.8,601.2,1519.6,608.8z"/>
	<path class="st6" d="M1485.8,559.4c16.8,14.8,7.7,31.2-7.5,26.8l-39.1-11.2c-15.3-4.4-24.6-14.6-21.9-20.5
		c2.8-5.9,10.3-17,21.1-21.6C1459.2,524.2,1469.1,544.6,1485.8,559.4z"/>
	<path class="st6" d="M1535.4,565.4c6.3,3.2,11.1,3.4,18.4,2.2c4.2-0.7,0,0,12.5-6.4c9.1-4.6-11.4-16.7-19.8-13.5
		c-8.4,3.2-15.2,3.6-21.4,8.2C1518.9,560.3,1530.4,562.8,1535.4,565.4z"/>
	<path class="st6" d="M1483.8,537.8c0,0,32.8,16.1,40.1,1.9c6.9-13.4-8.2-23.3-21.3-29.3c-12.2-5.6-29-11.8-35.5,0.6
		C1461.2,522.6,1483.8,537.8,1483.8,537.8z"/>
	<path class="st6" d="M1409.6,569.8c-4.1,5.4-16.6,4.2-16.6,4.2s-13-1.4-14.1-7.5c-1.1-6.7,7.8-13.4,13-13.2
		C1397.1,553.4,1415.7,561.7,1409.6,569.8z"/>
	<path class="st5" d="M101,147.1c-17.2,9.4-31.3,38-19.7,47.3c11.7,9.3,69.3,20.2,77.5,2.5c8.2-17.7,4.7-32.1-3.4-39.7
		C147.3,149.7,119,137.2,101,147.1z"/>
	<path class="st5" d="M297.2,208.5c-0.2-18.9-25.9-17-44.1-22.5c-28.9-8.8-79.6-29.8-75.2,0.4c2,14-6,20.6,20.8,30.9
		c26.8,10.3,48.6,13.9,67.5,14.2C285,231.8,297.4,224.5,297.2,208.5z"/>
	<path class="st5" d="M146.1,227.4c-9.3-9.2-31.5-5.1-31.5-5.1s-18.4,5.4-16.4,14.4c1.9,8.5,11.8,7.1,19.9,10.2l0.3,0.1
		c13.6,5.2,33.2,12.7,35.8,6.5C156.8,247.3,153.7,235.1,146.1,227.4z"/>
	<path class="st5" d="M206.1,274.1c-25.2-12-23.2-33.3-4.5-32.7l47.7,1.6c18.6,0.6,33.7,9.6,33.5,17.1c-0.2,7.5-3.1,22.3-12.7,30.6
		C251.6,306.5,231.3,286.1,206.1,274.1z"/>
	<path class="st5" d="M149.5,281.5c-8.3-1.8-13.6-0.6-21,2.8c-4.2,2,0,0-10.6,10.9c-7.6,7.9,20.3,15.8,27.9,9.8
		c7.6-6,14.7-8.5,19.4-15.4C169.7,282.5,156,282.9,149.5,281.5z"/>
	<path class="st5" d="M218.5,298.2c0,0-43.2-8.9-44.5,9.3c-1.2,17.2,20,24.2,37,27.3c15.9,2.9,37,5.2,38.2-10.9
		C250.2,309,218.5,298.2,218.5,298.2z"/>
	<path class="st5" d="M283.9,240.5c1.9-7.3,16-9.5,16-9.5s14.8-2.2,18.8,4.6c4.4,7.3-2.1,17.5-7.8,18.8
		C305.2,255.6,281,251.4,283.9,240.5z"/>
	<path class="st5" d="M335.7,228.2c7.3-13.5,17.9-18.4,33.4-20.1c18.6-2,42.1,8.8,46.6,18.7s-2.7,24.3-4.5,39.9
		c-1.8,15.6-72.8,2.8-78.9-7.4C326.1,249.1,330,238.6,335.7,228.2z"/>
	<path class="st5" d="M355,289.5c-5.8-4.7-37.5-9.4-53.8,2.9c-10,7.5-20.1,14.1-17.4,27.4c1.9,9.3,15.2,19.6,15.2,19.6
		s57.8,25.5,69.2,1.6C376.6,323.3,360.9,294.1,355,289.5z"/>
	<path class="st6" d="M97.8,142.1c-17.2,9.4-31.3,38-19.7,47.3c11.7,9.3,69.3,20.2,77.5,2.5c8.2-17.7,4.7-32.1-3.4-39.7
		C144.2,144.7,115.9,132.2,97.8,142.1z"/>
	<path class="st6" d="M294.1,203.6c-0.2-18.9-25.9-17-44.1-22.5c-28.9-8.8-79.6-29.8-75.2,0.4c2,14-6,20.6,20.8,30.9
		c26.8,10.3,48.6,13.9,67.5,14.2C281.8,226.8,294.3,219.5,294.1,203.6z"/>
	<path class="st6" d="M142.9,222.5c-9.3-9.2-31.5-5.1-31.5-5.1s-18.4,5.4-16.4,14.4c1.9,8.5,11.8,7.1,19.9,10.2l0.3,0.1
		c13.6,5.2,33.2,12.7,35.8,6.5C153.7,242.3,150.6,230.1,142.9,222.5z"/>
	<path class="st6" d="M202.9,269.1c-25.2-12-23.2-33.3-4.5-32.7l47.7,1.6c18.6,0.6,33.7,9.6,33.5,17.1c-0.2,7.5-3.1,22.3-12.7,30.6
		C248.5,301.6,228.1,281.2,202.9,269.1z"/>
	<path class="st6" d="M146.4,276.5c-8.3-1.8-13.6-0.6-21,2.8c-4.2,2,0,0-10.6,10.9c-7.6,7.9,20.3,15.8,27.9,9.8
		c7.6-6,14.7-8.5,19.4-15.4C166.6,277.6,152.9,277.9,146.4,276.5z"/>
	<path class="st6" d="M215.4,293.2c0,0-43.2-8.9-44.5,9.3c-1.2,17.2,20,24.2,37,27.3c15.9,2.9,37,5.2,38.2-10.9
		C247.1,304,215.4,293.2,215.4,293.2z"/>
	<path class="st6" d="M280.8,235.5c1.9-7.3,16-9.5,16-9.5s14.8-2.2,18.8,4.6c4.4,7.3-2.1,17.5-7.8,18.8
		C302.1,250.7,277.9,246.5,280.8,235.5z"/>
	<path class="st6" d="M332.5,223.2c7.3-13.5,17.9-18.4,33.4-20.1c18.6-2,42.1,8.8,46.6,18.7s-2.7,24.3-4.5,39.9s-72.8,2.8-78.9-7.4
		C323,244.1,326.9,233.6,332.5,223.2z"/>
	<path class="st6" d="M351.9,284.5c-5.8-4.7-37.5-9.4-53.8,2.9c-10,7.5-20.1,14.1-17.4,27.4c1.9,9.3,15.2,19.6,15.2,19.6
		s57.8,25.5,69.2,1.6C373.5,318.4,357.7,289.2,351.9,284.5z"/>
	<path class="st5" d="M1343.1,572.6c19.2-6.3,42.2-31.4,34.8-42.2c-7.4-10.9-56.6-30.8-70.4-15.1c-13.8,15.7-15.7,30.1-10.9,38.7
		C1301.4,562.5,1323,579.1,1343.1,572.6z"/>
	<path class="st5" d="M1184.2,481.4c-6.5,18.2,17.8,20.6,32.7,28.9c23.5,13.2,62.8,41.6,69.3,12c3.1-13.8,12.7-18.8-8.3-33.1
		c-21-14.3-39.8-21.3-57-24.7C1203.7,461.1,1189.7,466,1184.2,481.4z"/>
	<path class="st5" d="M1330,487.9c5.3,10.4,27.2,10.1,27.2,10.1s18.8-2.2,20.1-11.2c1.2-8.5-8.4-8.7-14.7-13l-0.2-0.2
		c-10.7-7.2-26.1-17.7-30.6-12.1C1327.1,467.1,1325.6,479.4,1330,487.9z"/>
	<path class="st5" d="M1291.2,433.3c18.9,15.7,9.6,35.8-7.4,32.1l-43.3-9.3c-16.9-3.6-27.6-14.7-24.8-21.9
		c2.8-7.2,10.8-20.9,22.5-27.3C1260.8,394.6,1272.3,417.6,1291.2,433.3z"/>
	<path class="st5" d="M1345.9,435.5c7,3.1,12.3,2.9,20.3,0.8c4.6-1.2,0,0,13.5-8.7c9.8-6.3-13.1-18.5-22.2-14
		c-9.1,4.5-16.6,5.7-23.2,11.6C1327.6,431.1,1340.4,433,1345.9,435.5z"/>
	<path class="st5" d="M1288.3,408.1c0,0,36.6,15.7,44.2-1.7c7.1-16.3-9.8-26.5-24.4-32.3c-13.6-5.4-32.3-11-39,4.2
		C1262.9,392.5,1288.3,408.1,1288.3,408.1z"/>
	<path class="st5" d="M1207.8,452.8c-4.3,6.7-18.1,6.5-18.1,6.5s-14.3-0.3-15.7-7.5c-1.5-7.8,8.1-16.5,13.8-16.8
		C1193.5,434.8,1214.3,442.8,1207.8,452.8z"/>
	<path class="st5" d="M1159.6,394.1c3.7,5.4,31.2,15.2,50.5,6.1c11.9-5.6,23.5-10.3,25.7-23.4c1.5-9.2-7.1-21.3-7.1-21.3
		s-44.2-34-63.1-12.9C1151.7,358,1155.9,388.7,1159.6,394.1z"/>
	<path class="st6" d="M1340.2,566.2c19.2-6.3,42.2-31.4,34.8-42.2c-7.4-10.9-56.6-30.8-70.4-15.1c-13.8,15.7-15.7,30.1-10.9,38.7
		C1298.4,556.1,1320.1,572.7,1340.2,566.2z"/>
	<path class="st6" d="M1181.3,475c-6.5,18.2,17.8,20.6,32.7,28.9c23.5,13.2,62.8,41.6,69.3,12c3.1-13.8,12.7-18.8-8.3-33.1
		c-21-14.3-39.8-21.3-57-24.7C1200.8,454.7,1186.8,459.6,1181.3,475z"/>
	<path class="st6" d="M1327,481.5c5.3,10.4,27.2,10.1,27.2,10.1s18.8-2.2,20.1-11.2c1.2-8.5-8.4-8.7-14.7-13l-0.2-0.2
		c-10.7-7.2-26.1-17.7-30.6-12.1C1324.2,460.7,1322.7,473,1327,481.5z"/>
	<path class="st6" d="M1288.3,426.9c18.9,15.7,9.6,35.8-7.4,32.1l-43.3-9.3c-16.9-3.6-27.6-14.7-24.8-21.9
		c2.8-7.2,10.8-20.9,22.5-27.3C1257.9,388.2,1269.4,411.2,1288.3,426.9z"/>
	<path class="st6" d="M1343,429.1c7,3.1,12.3,2.9,20.3,0.8c4.6-1.2,0,0,13.5-8.7c9.8-6.3-13.1-18.5-22.2-14
		c-9.1,4.5-16.6,5.7-23.2,11.6C1324.7,424.7,1337.4,426.6,1343,429.1z"/>
	<path class="st6" d="M1285.4,401.7c0,0,36.6,15.7,44.2-1.7c7.1-16.3-9.8-26.5-24.4-32.3c-13.6-5.4-32.3-11-39,4.2
		C1260,386.1,1285.4,401.7,1285.4,401.7z"/>
	<path class="st6" d="M1204.8,446.4c-4.3,6.7-18.1,6.5-18.1,6.5s-14.3-0.3-15.7-7.5c-1.5-7.8,8.1-16.5,13.8-16.8
		C1190.5,428.4,1211.3,436.4,1204.8,446.4z"/>
	<path class="st6" d="M1156.7,387.7c3.7,5.4,31.2,15.2,50.5,6.1c11.9-5.6,23.5-10.3,25.7-23.4c1.5-9.2-7.1-21.3-7.1-21.3
		s-44.2-34-63.1-12.9C1148.8,351.6,1153,382.3,1156.7,387.7z"/>
	<path class="st5" d="M615.1,386.5c15.6-11.9,25.5-42.5,12.8-50.2c-12.7-7.7-70.4-10.5-76.1,8.5c-5.6,18.9-0.3,32.9,8.7,39.3
		C569.4,390.4,598.8,398.9,615.1,386.5z"/>
	<path class="st5" d="M415,352.5c2.7,19,27.6,13.4,46.2,16.4c29.5,4.7,81.9,18.6,73.5-11c-3.9-13.8,3-21.5-24.5-28
		c-27.6-6.6-49.4-7-67.8-4.7C423.8,327.5,412.7,336.5,415,352.5z"/>
	<path class="st5" d="M560.1,312.2c10.3,7.9,31.5,0.7,31.5,0.7s17.2-8.1,14-16.8c-3-8.3-12.5-5.4-20.9-7.4l-0.3-0.1
		c-14-3.3-34.2-8.1-35.9-1.5C547,293.8,551.6,305.6,560.1,312.2z"/>
	<path class="st5" d="M495.2,273.8c26.3,8.5,27.1,30.1,8.9,32.1l-46.8,5.2c-18.3,2-34.2-4.9-35-12.4c-0.8-7.5,0-22.8,8.3-32.5
		C446.3,247.7,468.9,265.3,495.2,273.8z"/>
	<path class="st5" d="M549.5,258.4c8.4,0.7,13.4-1.3,20.1-5.7c3.9-2.6,0,0,8.8-12.4c6.4-9-22-13-28.6-5.9
		c-6.6,7.1-13.3,10.6-16.8,18.2C529.5,260.2,542.9,257.9,549.5,258.4z"/>
	<path class="st5" d="M479.8,251.4c0,0,43.4,2.9,42.2-15.7c-1.2-17.4-22.8-21.5-39.8-22.2c-15.9-0.7-36.9,0-35.8,16.3
		C447.3,245.1,479.8,251.4,479.8,251.4z"/>
	<path class="st5" d="M423.7,318.6c-0.9,7.6-14.4,11.8-14.4,11.8s-14.1,4.3-19-1.9c-5.3-6.7-0.3-17.8,5.1-19.9
		C400.8,306.4,425,307.2,423.7,318.6z"/>
	<path class="st6" d="M612,381.5c15.6-11.9,25.5-42.5,12.8-50.2c-12.7-7.7-70.4-10.5-76.1,8.5c-5.6,18.9-0.3,32.9,8.7,39.3
		C566.3,385.4,595.7,394,612,381.5z"/>
	<path class="st6" d="M411.9,347.6c2.7,19,27.6,13.4,46.2,16.4c29.5,4.7,81.9,18.6,73.5-11c-3.9-13.8,3-21.5-24.5-28
		c-27.6-6.6-49.4-7-67.8-4.7C420.7,322.5,409.6,331.6,411.9,347.6z"/>
	<path class="st6" d="M557,307.2c10.3,7.9,31.5,0.7,31.5,0.7s17.2-8.1,14-16.8c-3-8.3-12.5-5.4-20.9-7.4l-0.3-0.1
		c-14-3.3-34.2-8.1-35.9-1.5C543.8,288.8,548.5,300.7,557,307.2z"/>
	<path class="st6" d="M492.1,268.9c26.3,8.5,27.1,30.1,8.9,32.1l-46.8,5.2c-18.3,2-34.2-4.9-35-12.4c-0.8-7.5,0-22.8,8.3-32.5
		C443.2,242.7,465.8,260.4,492.1,268.9z"/>
	<path class="st6" d="M546.4,253.5c8.4,0.7,13.4-1.3,20.1-5.7c3.9-2.6,0,0,8.8-12.4c6.4-9-22-13-28.6-5.9
		c-6.6,7.1-13.3,10.6-16.8,18.2C526.4,255.3,539.8,253,546.4,253.5z"/>
	<path class="st6" d="M476.7,246.5c0,0,43.4,2.9,42.2-15.7c-1.2-17.4-22.8-21.5-39.8-22.2c-15.9-0.7-36.9,0-35.8,16.3
		C444.2,240.1,476.7,246.5,476.7,246.5z"/>
	<path class="st6" d="M420.5,313.6c-0.9,7.6-14.4,11.8-14.4,11.8s-14.1,4.3-19-1.9c-5.3-6.7-0.3-17.8,5.1-19.9
		C397.6,301.4,421.9,302.2,420.5,313.6z"/>
	<path class="st5" d="M632,230.2c-16.6,10.4-29.1,39.8-17,48.5c12.1,8.7,69.9,16.5,77.1-1.8c7.2-18.2,3-32.5-5.4-39.6
		C678.2,230.3,649.4,219.3,632,230.2z"/>
	<path class="st5" d="M830.2,281.1c-1.2-19-26.6-15.7-45-20.2c-29.2-7.2-80.7-25.5-74.7,4.5c2.8,14-4.8,21,22.3,29.8
		c27.2,8.9,49,11.2,67.8,10.6C819.2,305.1,831.2,297.1,830.2,281.1z"/>
	<path class="st5" d="M681,308.4c-9.7-8.7-31.6-3.4-31.6-3.4s-18,6.5-15.5,15.4c2.4,8.4,12.1,6.5,20.3,9.1l0.3,0.1
		c13.8,4.5,33.7,10.9,35.9,4.6C692.7,327.7,689,315.6,681,308.4z"/>
	<path class="st5" d="M743.1,351.9c-25.7-10.7-24.8-32.1-6.2-32.5l47.4-1c18.5-0.4,33.9,7.8,34.1,15.3c0.2,7.5-1.9,22.6-11,31.4
		C790,382,768.8,362.6,743.1,351.9z"/>
	<path class="st5" d="M687.3,362.4c-8.4-1.4-13.6,0.1-20.7,3.9c-4.1,2.2,0,0-9.9,11.5c-7.2,8.3,21,14.7,28.2,8.3
		c7.2-6.5,14.2-9.3,18.4-16.5C707.5,362.4,693.9,363.5,687.3,362.4z"/>
	<path class="st5" d="M756.7,375.4c0,0-43.4-6.6-43.7,11.8c-0.2,17.3,21.1,23.2,38.2,25.4c15.9,2.1,37.1,3.2,37.4-13
		C788.8,384.5,756.7,375.4,756.7,375.4z"/>
	<path class="st5" d="M818.6,313.9c1.5-7.4,15.4-10.4,15.4-10.4s14.6-3,18.9,3.5c4.8,7.1-1.2,17.7-6.8,19.3
		C840.6,327.9,816.4,325.1,818.6,313.9z"/>
	<path class="st5" d="M869.4,298.7c6.5-14,16.8-19.4,32.1-22c18.4-3,42.3,6.6,47.3,16.2c5,9.7-1.4,24.5-2.4,40.3
		c-0.9,15.7-72.2,6.8-78.8-3.1C861,320.2,864.4,309.5,869.4,298.7z"/>
	<path class="st5" d="M891.9,359.2c-6-4.4-37.8-7.4-53.3,5.8c-9.6,8.1-19.2,15.2-15.9,28.4c2.4,9.2,16.1,18.8,16.1,18.8
		s58.7,22.4,68.9-2.2C915.1,392,897.9,363.5,891.9,359.2z"/>
	<path class="st6" d="M628.8,225.3c-16.6,10.4-29.1,39.8-17,48.5c12.1,8.7,69.9,16.5,77.1-1.8c7.2-18.2,3-32.5-5.4-39.6
		C675.1,225.3,646.2,214.4,628.8,225.3z"/>
	<path class="st6" d="M827.1,276.1c-1.2-19-26.6-15.7-45-20.2c-29.2-7.2-80.7-25.5-74.7,4.5c2.8,14-4.8,21,22.3,29.8
		c27.2,8.9,49,11.2,67.8,10.6C816.1,300.1,828.1,292.2,827.1,276.1z"/>
	<path class="st6" d="M677.9,303.4c-9.7-8.7-31.6-3.4-31.6-3.4s-18,6.5-15.5,15.4c2.4,8.4,12.1,6.5,20.3,9.1l0.3,0.1
		c13.8,4.5,33.7,10.9,35.9,4.6C689.6,322.7,685.9,310.7,677.9,303.4z"/>
	<path class="st6" d="M740,347c-25.7-10.7-24.8-32.1-6.2-32.5l47.4-1c18.5-0.4,33.9,7.8,34.1,15.3c0.2,7.5-1.9,22.6-11,31.4
		C786.9,377,765.6,357.7,740,347z"/>
	<path class="st6" d="M684.2,357.5c-8.4-1.4-13.6,0.1-20.7,3.9c-4.1,2.2,0,0-9.9,11.5c-7.2,8.3,21,14.7,28.2,8.3
		c7.2-6.5,14.2-9.3,18.4-16.5C704.3,357.4,690.7,358.6,684.2,357.5z"/>
	<path class="st6" d="M753.6,370.4c0,0-43.4-6.6-43.7,11.8c-0.2,17.3,21.1,23.2,38.2,25.4c15.9,2.1,37.1,3.2,37.4-13
		C785.7,379.6,753.6,370.4,753.6,370.4z"/>
	<path class="st6" d="M815.5,309c1.5-7.4,15.4-10.4,15.4-10.4s14.6-3,18.9,3.5c4.8,7.1-1.2,17.7-6.8,19.3
		C837.5,323,813.2,320.1,815.5,309z"/>
	<path class="st6" d="M866.3,293.7c6.5-14,16.8-19.4,32.1-22c18.4-3,42.3,6.6,47.3,16.2c5,9.7-1.4,24.5-2.4,40.3
		c-0.9,15.7-72.2,6.8-78.8-3.1C857.9,315.2,861.3,304.5,866.3,293.7z"/>
	<path class="st6" d="M888.8,354.2c-6-4.4-37.8-7.4-53.3,5.8c-9.6,8.1-19.2,15.2-15.9,28.4c2.4,9.2,16.1,18.8,16.1,18.8
		s58.7,22.4,68.9-2.2C912,387,894.8,358.6,888.8,354.2z"/>
	<path class="st5" d="M1146.1,450.4c14.8-12.8,23.1-44.1,10.1-51.1s-70.5-6.6-75.1,12.7c-4.6,19.3,1.5,33.1,10.7,39
		C1100.9,456.9,1130.6,463.8,1146.1,450.4z"/>
	<path class="st5" d="M945.5,427.4c3.7,18.9,28.1,11.9,46.7,13.9c29.5,3.1,82.3,14.2,72.4-15.1c-4.6-13.6,1.9-21.7-25.9-26.8
		c-27.7-5.1-49.4-4.3-67.6-1S942.4,411.4,945.5,427.4z"/>
	<path class="st5" d="M1087.6,378.8c10.6,7.4,31.3-1,31.3-1s16.7-9,13-17.6c-3.5-8.1-12.7-4.8-21.1-6.3l-0.3-0.1
		c-14.1-2.5-34.4-6.2-35.7,0.5C1073.5,361.1,1078.8,372.7,1087.6,378.8z"/>
	<path class="st5" d="M1021,343.9c26.5,7.1,28.6,28.8,10.5,31.8l-46.2,7.7c-18.1,3-34.2-3-35.4-10.5c-1.2-7.5-1.2-22.9,6.5-33.1
		C971.1,320.4,994.5,336.8,1021,343.9z"/>
	<path class="st5" d="M1074.1,325.5c8.4,0.2,13.3-2,19.7-6.9c3.7-2.8,0,0,8.1-12.9c5.9-9.4-22.5-11.8-28.7-4.3
		c-6.2,7.5-12.6,11.4-15.8,19.2C1054.4,328.4,1067.6,325.3,1074.1,325.5z"/>
	<path class="st5" d="M1004.5,322.3c0,0,43.3,0.5,41.1-18c-2.1-17.4-23.8-20.3-40.7-20.1c-15.8,0.2-36.7,2.1-34.7,18.3
		C971.9,317.7,1004.5,322.3,1004.5,322.3z"/>
	<path class="st5" d="M952.3,392.8c-0.5,7.6-13.7,12.7-13.7,12.7s-13.8,5.1-19-0.9c-5.6-6.5-1.3-17.9,4-20.3
		C928.9,381.8,953.1,381.3,952.3,392.8z"/>
	<path class="st6" d="M1143,445.4c14.8-12.8,23.1-44.1,10.1-51.1s-70.5-6.6-75.1,12.7c-4.6,19.3,1.5,33.1,10.7,39
		C1097.8,451.9,1127.5,458.8,1143,445.4z"/>
	<path class="st6" d="M942.4,422.4c3.7,18.9,28.1,11.9,46.7,13.9c29.5,3.1,82.3,14.2,72.4-15.1c-4.6-13.6,1.9-21.7-25.9-26.8
		c-27.7-5.1-49.4-4.3-67.6-1S939.3,406.4,942.4,422.4z"/>
	<path class="st6" d="M1084.5,373.9c10.6,7.4,31.3-1,31.3-1s16.7-9,13-17.6c-3.5-8.1-12.7-4.8-21.1-6.3l-0.3-0.1
		c-14.1-2.5-34.4-6.2-35.7,0.5C1070.4,356.2,1075.6,367.8,1084.5,373.9z"/>
	<path class="st6" d="M1017.9,339c26.5,7.1,28.6,28.8,10.5,31.8l-46.2,7.7c-18.1,3-34.2-3-35.4-10.5c-1.2-7.5-1.2-22.9,6.5-33.1
		C968,315.4,991.4,331.9,1017.9,339z"/>
	<path class="st6" d="M1071,320.5c8.4,0.2,13.3-2,19.7-6.9c3.7-2.8,0,0,8.1-12.9c5.9-9.4-22.5-11.8-28.7-4.3
		c-6.2,7.5-12.6,11.4-15.8,19.2C1051.3,323.4,1064.4,320.4,1071,320.5z"/>
	<path class="st6" d="M1001.4,317.4c0,0,43.3,0.5,41.1-18c-2.1-17.4-23.8-20.3-40.7-20.1c-15.8,0.2-36.7,2.1-34.7,18.3
		C968.8,312.7,1001.4,317.4,1001.4,317.4z"/>
	<path class="st6" d="M949.2,387.8c-0.5,7.6-13.7,12.7-13.7,12.7s-13.8,5.1-19-0.9c-5.6-6.5-1.3-17.9,4-20.3
		C925.8,376.9,949.9,376.3,949.2,387.8z"/>
	<path class="st5" d="M1388.9,510.9c1,11.5,14.2,7.3,23.9,8.5c15.4,1.9,42.6,8.7,38.9-9.1c-1.7-8.3,2.1-13.2-12.3-16.3
		s-25.8-2.7-35.6-0.7C1394.2,495.3,1388.1,501.2,1388.9,510.9z"/>
	<path class="st5" d="M1429.7,483c4.4,0.1,7.1-1.2,10.7-4.2c2.1-1.7,0,0,4.9-7.9c3.6-5.7-11.3-7.2-14.9-2.6
		c-3.6,4.6-7.2,6.9-9.3,11.7C1419.2,484.7,1426.2,482.9,1429.7,483z"/>
	<path class="st5" d="M1407,463.6c0,0,22.8,0.3,22.5-10.9c-0.2-10.6-11.5-12.3-20.4-12.2c-8.4,0.1-19.4,1.2-19.2,11.1
		C1390,460.8,1407,463.6,1407,463.6z"/>
	<path class="st6" d="M1390.1,513.4c1,11.5,14.2,7.3,23.9,8.5c15.4,1.9,42.6,8.7,38.9-9.1c-1.7-8.3,2.1-13.2-12.3-16.3
		s-25.8-2.7-35.6-0.7C1395.3,497.8,1389.3,503.7,1390.1,513.4z"/>
	<path class="st6" d="M1428.7,480.2c4.4,0.1,7.1-1.2,10.7-4.2c2.1-1.7,0,0,4.9-7.9c3.6-5.7-11.3-7.2-14.9-2.6
		c-3.6,4.6-7.2,6.9-9.3,11.7C1418.2,481.9,1425.3,480.1,1428.7,480.2z"/>
	<path class="st6" d="M1406,460.8c0,0,22.8,0.3,22.5-10.9c-0.2-10.6-11.5-12.3-20.4-12.2c-8.4,0.1-19.4,1.2-19.2,11.1
		C1389.1,458,1406,460.8,1406,460.8z"/>
	<path class="st5" d="M70.2,125.5c13-5.4,25-24.5,17.3-31.8c-7.7-7.4-48.2-19.1-55.3-7.3c-7.1,11.9-5.6,22.3-0.3,28.1
		C37.1,120.4,56.6,131.2,70.2,125.5z"/>
	<path class="st6" d="M68.8,122.2c13-5.4,25-24.5,17.3-31.8c-7.7-7.4-48.2-19.1-55.3-7.3c-7.1,11.9-5.6,22.3-0.3,28.1
		C35.8,117.1,55.2,127.8,68.8,122.2z"/>
</g>
</svg>
