<svg width="96" height="33" viewBox="0 0 96 33" fill="none" xmlns="http://www.w3.org/2000/svg">
<rect width="95.6524" height="33" rx="16.5" fill="#6B5795"/>
<path d="M38.2734 21H37.2891L35.5605 15.2637C35.4785 15.0098 35.3867 14.6895 35.2852 14.3027C35.1836 13.916 35.1309 13.6836 35.127 13.6055C35.041 14.1211 34.9043 14.6855 34.7168 15.2988L33.041 21H32.0566L29.7773 12.4336H30.832L32.1855 17.7246C32.373 18.4668 32.5098 19.1387 32.5957 19.7402C32.7012 19.0254 32.8574 18.3262 33.0645 17.6426L34.5996 12.4336H35.6543L37.2656 17.6895C37.4531 18.2949 37.6113 18.9785 37.7402 19.7402C37.8145 19.1855 37.9551 18.5098 38.1621 17.7129L39.5098 12.4336H40.5645L38.2734 21ZM44.4727 21.1172C43.5234 21.1172 42.7734 20.8281 42.2227 20.25C41.6758 19.6719 41.4023 18.8691 41.4023 17.8418C41.4023 16.8066 41.6562 15.9844 42.1641 15.375C42.6758 14.7656 43.3613 14.4609 44.2207 14.4609C45.0254 14.4609 45.6621 14.7266 46.1309 15.2578C46.5996 15.7852 46.834 16.4824 46.834 17.3496V17.9648H42.4102C42.4297 18.7188 42.6191 19.291 42.9785 19.6816C43.3418 20.0723 43.8516 20.2676 44.5078 20.2676C45.1992 20.2676 45.8828 20.123 46.5586 19.834V20.7012C46.2148 20.8496 45.8887 20.9551 45.5801 21.0176C45.2754 21.084 44.9062 21.1172 44.4727 21.1172ZM44.209 15.2754C43.6934 15.2754 43.2812 15.4434 42.9727 15.7793C42.668 16.1152 42.4883 16.5801 42.4336 17.1738H45.791C45.791 16.5605 45.6543 16.0918 45.3809 15.7676C45.1074 15.4395 44.7168 15.2754 44.209 15.2754ZM49.4707 21H48.498V14.5781H49.4707V21ZM48.416 12.8379C48.416 12.6152 48.4707 12.4531 48.5801 12.3516C48.6895 12.2461 48.8262 12.1934 48.9902 12.1934C49.1465 12.1934 49.2812 12.2461 49.3945 12.3516C49.5078 12.457 49.5645 12.6191 49.5645 12.8379C49.5645 13.0566 49.5078 13.2207 49.3945 13.3301C49.2812 13.4355 49.1465 13.4883 48.9902 13.4883C48.8262 13.4883 48.6895 13.4355 48.5801 13.3301C48.4707 13.2207 48.416 13.0566 48.416 12.8379ZM53.6074 20.3145C53.7793 20.3145 53.9453 20.3027 54.1055 20.2793C54.2656 20.252 54.3926 20.2246 54.4863 20.1973V20.9414C54.3809 20.9922 54.2246 21.0332 54.0176 21.0645C53.8145 21.0996 53.6309 21.1172 53.4668 21.1172C52.2246 21.1172 51.6035 20.4629 51.6035 19.1543V15.334H50.6836V14.8652L51.6035 14.4609L52.0137 13.0898H52.5762V14.5781H54.4395V15.334H52.5762V19.1133C52.5762 19.5 52.668 19.7969 52.8516 20.0039C53.0352 20.2109 53.2871 20.3145 53.6074 20.3145ZM58.4883 21.1172C57.5391 21.1172 56.7891 20.8281 56.2383 20.25C55.6914 19.6719 55.418 18.8691 55.418 17.8418C55.418 16.8066 55.6719 15.9844 56.1797 15.375C56.6914 14.7656 57.377 14.4609 58.2363 14.4609C59.041 14.4609 59.6777 14.7266 60.1465 15.2578C60.6152 15.7852 60.8496 16.4824 60.8496 17.3496V17.9648H56.4258C56.4453 18.7188 56.6348 19.291 56.9941 19.6816C57.3574 20.0723 57.8672 20.2676 58.5234 20.2676C59.2148 20.2676 59.8984 20.123 60.5742 19.834V20.7012C60.2305 20.8496 59.9043 20.9551 59.5957 21.0176C59.291 21.084 58.9219 21.1172 58.4883 21.1172ZM58.2246 15.2754C57.709 15.2754 57.2969 15.4434 56.9883 15.7793C56.6836 16.1152 56.5039 16.5801 56.4492 17.1738H59.8066C59.8066 16.5605 59.6699 16.0918 59.3965 15.7676C59.123 15.4395 58.7324 15.2754 58.2246 15.2754ZM65.4434 14.4609C65.7285 14.4609 65.9844 14.4844 66.2109 14.5312L66.0762 15.4336C65.8105 15.375 65.5762 15.3457 65.373 15.3457C64.8535 15.3457 64.4082 15.5566 64.0371 15.9785C63.6699 16.4004 63.4863 16.9258 63.4863 17.5547V21H62.5137V14.5781H63.3164L63.4277 15.7676H63.4746C63.7129 15.3496 64 15.0273 64.3359 14.8008C64.6719 14.5742 65.041 14.4609 65.4434 14.4609Z" fill="white"/>
</svg>
