<svg width="150" height="99" viewBox="0 0 150 99" fill="none" xmlns="http://www.w3.org/2000/svg">
<path d="M41.0816 21.4092C41.0816 31.967 32.4134 40.5711 21.6645 40.5711C10.9155 40.5711 2.24728 31.967 2.24728 21.4092C2.24728 10.8514 10.9155 2.24728 21.6645 2.24728C32.4134 2.24728 41.0816 10.8514 41.0816 21.4092Z" transform="translate(16.6951 0.00012207)" fill="#6B5795" stroke="#F0EEF4" stroke-width="4.49456"/>
<path d="M14.0796 3.09893C5.96893 9.58377 3.19618 15.2896 0.941473 23.894C0.313944 26.2887 0.988028 28.8472 2.72232 30.6138C13.6957 41.7917 23.7388 46.7937 39.3728 45.797C52.9105 44.934 60.9216 39.9014 70.1218 30.6281C71.8871 28.8489 72.5892 26.2634 71.9436 23.8416C69.5477 14.8539 66.5152 9.13962 58.6182 3.07276C56.0846 1.12625 52.5892 1.3663 49.9082 3.10431C40.08 9.47565 32.9611 9.16789 22.633 2.86797C19.9571 1.23578 16.5277 1.14159 14.0796 3.09893Z" transform="translate(2 32.5792)" fill="#6B5795" stroke="#F0EEF4" stroke-width="4.49456"/>
<path d="M41.0816 21.4092C41.0816 31.967 32.4134 40.5711 21.6645 40.5711C10.9155 40.5711 2.24728 31.967 2.24728 21.4092C2.24728 10.8514 10.9155 2.24728 21.6645 2.24728C32.4134 2.24728 41.0816 10.8514 41.0816 21.4092Z" transform="translate(89.7896)" fill="#6B5795" stroke="#F0EEF4" stroke-width="4.49456"/>
<path d="M14.0796 3.09893C5.96893 9.58377 3.19618 15.2896 0.941473 23.894C0.313944 26.2887 0.988028 28.8472 2.72232 30.6138C13.6957 41.7917 23.7388 46.7937 39.3728 45.797C52.9105 44.934 60.9216 39.9014 70.1218 30.6281C71.8871 28.8489 72.5892 26.2634 71.9436 23.8416C69.5477 14.8539 66.5152 9.13962 58.6182 3.07276C56.0846 1.12625 52.5892 1.3663 49.9082 3.10431C40.08 9.47565 32.9611 9.16789 22.633 2.86797C19.9571 1.23578 16.5277 1.14159 14.0796 3.09893Z" transform="translate(75.0945 32.5792)" fill="#6B5795" stroke="#F0EEF4" stroke-width="4.49456"/>
<path d="M41.0816 21.4092C41.0816 31.967 32.4134 40.5711 21.6645 40.5711C10.9155 40.5711 2.24728 31.967 2.24728 21.4092C2.24728 10.8514 10.9155 2.24728 21.6645 2.24728C32.4134 2.24728 41.0816 10.8514 41.0816 21.4092Z" transform="translate(53.2415 17.4999)" fill="#6B5795" stroke="#F0EEF4" stroke-width="4.49456"/>
<path d="M14.0796 3.09893C5.96893 9.58377 3.19618 15.2896 0.941473 23.894C0.313944 26.2887 0.988028 28.8472 2.72232 30.6138C13.6957 41.7917 23.7388 46.7937 39.3728 45.797C52.9105 44.934 60.9216 39.9014 70.1218 30.6281C71.8871 28.8489 72.5892 26.2634 71.9436 23.8416C69.5477 14.8539 66.5152 9.13962 58.6182 3.07276C56.0846 1.12625 52.5892 1.3663 49.9082 3.10431C40.08 9.47565 32.9611 9.16789 22.633 2.86797C19.9571 1.23578 16.5277 1.14159 14.0796 3.09893Z" transform="translate(38.5464 50.079)" fill="#6B5795" stroke="#F0EEF4" stroke-width="4.49456"/>
</svg>
