<svg width="96" height="33" viewBox="0 0 96 33" fill="none" xmlns="http://www.w3.org/2000/svg">
<rect width="95.6524" height="33" rx="16.5" fill="#6B5795" fill-opacity="0.48"/>
<path d="M35.1094 21H29.2207V20.2207L33.7676 13.3301H29.3613V12.4336H34.9805V13.2129L30.4336 20.0977H35.1094V21ZM37.541 14.5781V18.7441C37.541 19.2676 37.6602 19.6582 37.8984 19.916C38.1367 20.1738 38.5098 20.3027 39.0176 20.3027C39.6895 20.3027 40.1797 20.1191 40.4883 19.752C40.8008 19.3848 40.957 18.7852 40.957 17.9531V14.5781H41.9297V21H41.127L40.9863 20.1387H40.9336C40.7344 20.4551 40.457 20.6973 40.1016 20.8652C39.75 21.0332 39.3477 21.1172 38.8945 21.1172C38.1133 21.1172 37.5273 20.9316 37.1367 20.5605C36.75 20.1895 36.5566 19.5957 36.5566 18.7793V14.5781H37.541ZM46.9277 14.4609C47.2129 14.4609 47.4688 14.4844 47.6953 14.5312L47.5605 15.4336C47.2949 15.375 47.0605 15.3457 46.8574 15.3457C46.3379 15.3457 45.8926 15.5566 45.5215 15.9785C45.1543 16.4004 44.9707 16.9258 44.9707 17.5547V21H43.998V14.5781H44.8008L44.9121 15.7676H44.959C45.1973 15.3496 45.4844 15.0273 45.8203 14.8008C46.1562 14.5742 46.5254 14.4609 46.9277 14.4609ZM49.8105 14.5781V18.7441C49.8105 19.2676 49.9297 19.6582 50.168 19.916C50.4062 20.1738 50.7793 20.3027 51.2871 20.3027C51.959 20.3027 52.4492 20.1191 52.7578 19.752C53.0703 19.3848 53.2266 18.7852 53.2266 17.9531V14.5781H54.1992V21H53.3965L53.2559 20.1387H53.2031C53.0039 20.4551 52.7266 20.6973 52.3711 20.8652C52.0195 21.0332 51.6172 21.1172 51.1641 21.1172C50.3828 21.1172 49.7969 20.9316 49.4062 20.5605C49.0195 20.1895 48.8262 19.5957 48.8262 18.7793V14.5781H49.8105ZM49.8691 12.8379C49.8691 12.6348 49.9199 12.4883 50.0215 12.3984C50.127 12.3086 50.252 12.2637 50.3965 12.2637C50.5449 12.2637 50.6719 12.3086 50.7773 12.3984C50.8867 12.4883 50.9414 12.6348 50.9414 12.8379C50.9414 13.0332 50.8867 13.1797 50.7773 13.2773C50.6719 13.3711 50.5449 13.418 50.3965 13.418C50.252 13.418 50.127 13.3711 50.0215 13.2773C49.9199 13.1797 49.8691 13.0332 49.8691 12.8379ZM52.1016 12.8379C52.1016 12.6348 52.1523 12.4883 52.2539 12.3984C52.3594 12.3086 52.4844 12.2637 52.6289 12.2637C52.7734 12.2637 52.8984 12.3086 53.0039 12.3984C53.1133 12.4883 53.168 12.6348 53.168 12.8379C53.168 13.0332 53.1133 13.1797 53.0039 13.2773C52.8984 13.3711 52.7734 13.418 52.6289 13.418C52.4844 13.418 52.3594 13.3711 52.2539 13.2773C52.1523 13.1797 52.1016 13.0332 52.1016 12.8379ZM58.834 21.1172C57.9043 21.1172 57.1836 20.832 56.6719 20.2617C56.1641 19.6875 55.9102 18.877 55.9102 17.8301C55.9102 16.7559 56.168 15.9258 56.6836 15.3398C57.2031 14.7539 57.9414 14.4609 58.8984 14.4609C59.207 14.4609 59.5156 14.4941 59.8242 14.5605C60.1328 14.627 60.375 14.7051 60.5508 14.7949L60.252 15.6211C60.0371 15.5352 59.8027 15.4648 59.5488 15.4102C59.2949 15.3516 59.0703 15.3223 58.875 15.3223C57.5703 15.3223 56.918 16.1543 56.918 17.8184C56.918 18.6074 57.0762 19.2129 57.3926 19.6348C57.7129 20.0566 58.1855 20.2676 58.8105 20.2676C59.3457 20.2676 59.8945 20.1523 60.457 19.9219V20.7832C60.0273 21.0059 59.4863 21.1172 58.834 21.1172ZM62.9473 17.7129C63.1152 17.4746 63.3711 17.1621 63.7148 16.7754L65.7891 14.5781H66.9434L64.3418 17.3145L67.125 21H65.9473L63.6797 17.9648L62.9473 18.5977V21H61.9863V11.8828H62.9473V16.7168C62.9473 16.9316 62.9316 17.2637 62.9004 17.7129H62.9473Z" fill="white"/>
</svg>
